<?xml version="1.0" encoding="utf-8"?>
<!-- Generator: Adobe Illustrator 27.5.0, SVG Export Plug-In . SVG Version: 6.00 Build 0)  -->
<svg version="1.1" xmlns="http://www.w3.org/2000/svg" xmlns:xlink="http://www.w3.org/1999/xlink" x="0px" y="0px"
	 viewBox="0 0 500 500" style="enable-background:new 0 0 500 500;" xml:space="preserve">
<g id="BACKGROUND">
	<rect style="fill:#FFFFFF;" width="500" height="500"/>
</g>
<g id="OBJECTS">
	<g>
		<g>
			<g>
				<g>
					<g>
						<path style="fill:#D1F4F6;" d="M436.559,397.644H70.181c-10.249,0-19.885-4.981-25.733-13.398
							c-20.701-29.794-25.216-70.337-12.276-104.577c9.255-24.488,27.079-45.584,32.716-71.148
							c5.157-23.385-0.503-47.602-1.94-71.506c-1.437-23.904,2.95-50.883,22.127-65.225c15.685-11.73,37.693-11.758,56.167-5.255
							c18.475,6.502,34.33,18.629,50.183,30.129c15.854,11.501,32.544,22.784,51.634,27.161c21.971,5.037,44.91,0.442,66.805-4.916
							c21.895-5.357,44.148-11.532,66.606-9.605c22.458,1.927,45.647,13.935,53.773,34.96c9.316,24.105-3.294,51.972,3.774,76.829
							c4.328,15.222,15.47,27.373,23.947,40.736c20.684,32.608,21.702,77.967,8.034,115.342
							C461.49,389.5,449.687,397.644,436.559,397.644z"/>
						<path style="fill:#D1F4F6;" d="M291.856,110.35c8.626-1.135,17.402-3.304,24.361-8.527
							c13.011-9.765,16.656-29.012,10.685-44.144c-5.97-15.133-19.955-26.118-35.311-31.488c-15.356-5.37-32.025-5.721-48.243-4.451
							c-13.267,1.038-26.784,3.234-38.378,9.767c-9.403,5.298-18.412,14.577-21.275,25.257c-2.492,9.299,2.541,16.676,9.13,22.798
							c16.713,15.529,39.046,25.669,61.356,29.75C266.588,111.583,279.344,111.996,291.856,110.35z"/>
					</g>
					<g>
						<g>
							<circle style="fill:#7DD3E9;" cx="312.751" cy="58.136" r="30.646"/>
							<g>
								<path style="fill:#FFFFFF;" d="M322.122,76.883l-7.679,3.518c-1.074,0.492-2.308,0.492-3.381,0l-7.679-3.518
									c-5.884-2.696-9.657-8.575-9.657-15.047v-13.85c0-1.452,0.782-2.792,2.047-3.505l15.004-8.461
									c1.227-0.692,2.726-0.692,3.952,0l15.004,8.461c1.265,0.713,2.047,2.053,2.047,3.505v13.85
									C331.779,68.309,328.006,74.187,322.122,76.883z"/>
								<polygon style="fill:#CC6164;" points="324.822,54.238 316.649,54.238 316.649,46.066 308.854,46.066 308.854,54.238 
									300.681,54.238 300.681,62.034 308.854,62.034 308.854,70.207 316.649,70.207 316.649,62.034 324.822,62.034 								"/>
							</g>
						</g>
						<g>
							<circle style="fill:#7DD3E9;" cx="339.695" cy="133.491" r="29.78"/>
							<g>
								<path style="fill:#CC6164;" d="M359.347,120.679c-4.691-4.692-12.298-4.692-16.989,0l-2.662,2.662l-2.662-2.662
									c-4.691-4.692-12.298-4.692-16.989,0l0,0c-4.691,4.691-4.691,12.298,0,16.989l2.663,2.662l16.989,16.989l16.989-16.989l0,0
									l2.662-2.662C364.038,132.977,364.038,125.37,359.347,120.679z"/>
								<g>
									<polygon style="fill:#FFFFFF;" points="337.116,153.046 331.346,133.617 328.999,140.191 312.751,140.191 312.751,137.826 
										327.332,137.826 331.552,126.007 336.274,141.902 339.367,119.593 343.931,138.005 347.208,125.75 351.332,137.826 
										366.639,137.826 366.639,140.191 349.64,140.191 347.484,133.874 343.844,147.484 340.024,132.072 									"/>
								</g>
							</g>
						</g>
						<g>
							
								<ellipse transform="matrix(0.7071 -0.7071 0.7071 0.7071 -40.8626 135.1441)" style="fill:#7DD3E9;" cx="142.702" cy="116.898" rx="29.184" ry="29.184"/>
							<g>
								<g>
									<path style="fill:#FFFFFF;" d="M125.736,115.748v8.969c0,4.335,3.514,7.848,7.848,7.848c4.335,0,7.848-3.514,7.848-7.848
										v-8.969H125.736z"/>
									<path style="fill:#CC6164;" d="M141.433,106.779c0-4.335-3.514-7.848-7.848-7.848c-4.335,0-7.848,3.514-7.848,7.848v8.969
										h15.697V106.779z"/>
								</g>
								<g>
									<path style="fill:#E4E4E0;" d="M141.433,124.718v-8.969h-7.204l-3.182,3.182c-3.112,3.112-4.044,7.584-2.813,11.519
										c1.402,1.31,3.28,2.117,5.35,2.117C137.919,132.566,141.433,129.052,141.433,124.718z"/>
									<polygon style="fill:#A34262;" points="141.433,115.748 141.433,108.544 134.229,115.748 									"/>
								</g>
								<g>
									<path style="fill:#FFFFFF;" d="M139.927,115.124l-6.342,6.342c-3.065,3.065-3.065,8.034,0,11.099
										c3.065,3.065,8.034,3.065,11.099,0l6.342-6.342L139.927,115.124z"/>
									<path style="fill:#CC6164;" d="M157.369,119.881c3.065-3.065,3.065-8.034,0-11.099c-3.065-3.065-8.034-3.065-11.099,0
										l-6.342,6.342l11.099,11.099L157.369,119.881z"/>
								</g>
							</g>
						</g>
						<g>
							
								<ellipse transform="matrix(0.7071 -0.7071 0.7071 0.7071 27.1859 157.7642)" style="fill:#7DD3E9;" cx="204.031" cy="46.066" rx="28.146" ry="28.146"/>
							<g>
								
									<rect x="199.999" y="33.282" transform="matrix(0.7071 0.7071 -0.7071 0.7071 91.8384 -131.3874)" style="fill:#FFFFFF;" width="9.037" height="23.765"/>
								
									<rect x="193.974" y="41.985" transform="matrix(-0.7071 0.7071 -0.7071 -0.7071 381.0703 -67.5147)" style="fill:#C7D2D7;" width="21.087" height="6.36"/>
								
									<rect x="187.806" y="53.314" transform="matrix(0.7071 0.7071 -0.7071 0.7071 95.5711 -122.3734)" style="fill:#FFFFFF;" width="15.397" height="1.729"/>
								
									<rect x="211.727" y="34.525" transform="matrix(0.7071 0.7071 -0.7071 0.7071 87.9741 -140.7166)" style="fill:#C7D2D7;" width="4.24" height="2.622"/>
								<polygon style="fill:#99A3B0;" points="215.188,35.323 214.36,34.495 221.401,27.453 223.058,27.453 								"/>
								
									<rect x="190.442" y="53.663" transform="matrix(0.7071 0.7071 -0.7071 0.7071 96.956 -119.0424)" style="fill:#C7D2D7;" width="3.459" height="7.698"/>
								
									<rect x="183.975" y="60.05" transform="matrix(0.7071 0.7071 -0.7071 0.7071 98.2638 -115.8749)" style="fill:#FFFFFF;" width="10.061" height="1.255"/>
								
									<rect x="192.254" y="54.413" transform="matrix(0.7071 0.7071 -0.7071 0.7071 96.1984 -120.8506)" style="fill:#99A3B0;" width="3.459" height="2.573"/>
								<path style="fill:#CC6164;" d="M210.987,39.958l-8.245,8.244c-0.893,0.893-2.341,0.893-3.235,0l-1.262-1.262l-3.432,3.432
									l2.88,2.88l1.617,1.617l3.432-3.432l11.479-11.479l0,0C213.329,39.065,211.88,39.065,210.987,39.958z"/>
							</g>
						</g>
					</g>
				</g>
				<g>
					<defs>
						<path id="SVGID_1_" d="M75.011,397.644h146.718c23.354-44.26,34.705-97.693,20.247-145.603
							c-14.458-47.91-52.553-89.186-100.697-102.845c-22.145,27.155-37.174,61.462-39.093,96.449
							c-22.594-3.378-47.347-1.2-69.779,3.123C27.408,301.301,44.893,354.312,75.011,397.644z"/>
					</defs>
					<clipPath id="SVGID_00000085217883719633656360000015004928471407302546_">
						<use xlink:href="#SVGID_1_"  style="overflow:visible;"/>
					</clipPath>
					<g style="clip-path:url(#SVGID_00000085217883719633656360000015004928471407302546_);">
						<g>
							<path style="fill:#9FE0F0;" d="M144.065,163.271L144.065,163.271L144.065,163.271c-9.341,20.164-14.758,39.99-16.718,59.049
								c-1.948,19.068-0.422,37.389,4.43,54.773c4.832,17.389,12.996,33.862,24.519,49.178
								c11.529,15.302,26.414,29.475,44.833,41.908l0,0v0c14.511-16.77,24.046-36.232,28.446-56.554
								c4.418-20.31,3.701-41.446-1.813-61.263c-5.523-19.815-15.833-38.279-30.114-53.382
								C183.378,181.859,165.156,170.126,144.065,163.271z"/>
							<path style="fill:#A8EFFA;" d="M219.304,260.292c-0.653-0.299-1.403,0.008-1.674,0.678
								c-3.208,8.081-9.15,15.598-14.823,21.486c-5.66,5.891-11.275,10.233-13.846,12.152c-2.41-10.495-5.154-20.91-7.984-31.299
								c1.822-1.293,6.586-4.846,11.571-10.172c2.492-2.663,5.039-5.771,7.302-9.258c2.22-3.474,4.147-7.325,5.448-11.473
								c0.217-0.693-0.152-1.45-0.825-1.689c-0.673-0.239-1.393,0.13-1.61,0.822c-4.552,14.732-18.215,25.847-22.643,29.143
								c-2.582-9.094-5.298-18.152-8.219-27.143c1.746-1.361,6.286-5.077,11.021-10.631c4.747-5.554,9.537-12.918,11.959-21.547
								c0.187-0.697-0.217-1.438-0.901-1.653c-0.685-0.213-1.39,0.178-1.578,0.875c-2.088,7.635-6.386,14.384-10.627,19.606
								c-4.292,5.242-8.592,8.997-10.722,10.746l-2.175-6.625l-2.277-6.591c-1.488-4.405-3.092-8.768-4.693-13.132
								c1.289-1.643,5.098-6.663,7.631-12.43c0.288-0.648-0.003-1.417-0.647-1.716c-0.648-0.298-1.402-0.011-1.688,0.636
								c-1.958,4.414-4.672,8.434-6.336,10.663c-2.741-7.274-5.52-14.536-8.482-21.724c-0.265-0.654-1.008-0.968-1.66-0.701
								c-0.652,0.267-0.966,1.012-0.702,1.663l2.775,6.842l2.664,6.886l2.64,6.895l2.533,6.935
								c-3.938-0.913-12.044-3.144-17.287-6.841c-0.567-0.404-1.362-0.278-1.781,0.283c-0.418,0.56-0.299,1.34,0.266,1.744
								c6.525,4.661,16.947,7.055,19.838,7.653c1.581,4.355,3.045,8.751,4.573,13.125c1.485,4.389,2.886,8.805,4.333,13.206
								c-2.758-0.166-8.432-0.683-14.947-2.191c-3.262-0.753-6.716-1.759-10.154-3.086c-3.46-1.32-6.876-2.971-9.996-5.048
								c-0.57-0.38-1.362-0.229-1.77,0.334c-0.408,0.563-0.278,1.324,0.292,1.703c7.048,4.644,15.225,7.314,22.273,8.854
								c7.057,1.535,12.922,1.937,15.118,2.036c2.801,8.997,5.478,18.033,7.954,27.125c-2.767-0.267-8.439-1-14.947-2.713
								c-3.245-0.859-6.677-1.969-10.023-3.403c-1.673-0.717-3.324-1.516-4.919-2.407c-1.614-0.885-3.18-1.86-4.654-2.939
								c-0.555-0.406-1.358-0.293-1.785,0.25c-0.433,0.542-0.335,1.308,0.22,1.712c6.612,4.847,14.637,7.779,21.686,9.547
								c6.978,1.785,12.895,2.405,15.129,2.581c0.69,2.593,1.411,5.178,2.076,7.777l1.956,7.808
								c1.348,5.195,2.473,10.443,3.712,15.664c-3.177-0.596-10.06-2.038-17.766-4.505c-7.667-2.482-16.368-5.914-22.949-10.726
								c-0.554-0.399-1.356-0.281-1.785,0.257c-0.43,0.54-0.34,1.302,0.21,1.702c3.685,2.679,7.917,4.942,12.272,6.859
								c4.356,1.916,8.751,3.506,12.895,4.783c8.26,2.561,15.344,3.909,17.728,4.335l2.491,11.658l2.29,11.699l0.001,0.005
								c0.286,1.407,0.527,2.823,0.779,4.236c-1.432-0.375-3.593-0.971-6.191-1.774c-2.616-0.799-5.669-1.804-8.855-3.004
								c-6.386-2.401-13.239-5.576-18.411-9.517c-0.543-0.42-1.349-0.329-1.792,0.202c-0.445,0.53-0.363,1.297,0.182,1.716
								c5.826,4.463,13.551,7.95,20.504,10.483c6.924,2.533,12.881,4.126,15.054,4.658l1.371,7.741l1.237,7.764
								c0.111,0.695,0.764,1.169,1.461,1.061c0.697-0.108,1.17-0.76,1.059-1.458l-1.311-8.197l-1.45-8.174l-0.001-0.005
								l-0.969-5.392c1.823-1.268,6.855-4.887,12.294-9.966c5.473-5.08,11.229-11.617,14.594-18.572
								c0.317-0.652,0.062-1.455-0.568-1.793c-0.631-0.337-1.399-0.081-1.714,0.57c-2.997,6.141-7.99,12.043-12.973,16.825
								c-4.968,4.785-9.774,8.434-12.173,10.172c-0.918-4.618-1.762-9.25-2.783-13.847c-0.987-4.603-1.94-9.214-3.038-13.793
								c1.993-1.42,7.757-5.671,13.988-11.875c3.078-3.093,6.264-6.673,9.15-10.619c2.894-3.947,5.477-8.259,7.269-12.768
								C220.268,261.383,219.957,260.592,219.304,260.292z"/>
						</g>
						<g>
							<path style="fill:#A8EFFA;" d="M47.98,256.468L47.98,256.468L47.98,256.468c-6.075,90.392,62.341,159.825,152.813,155.083h0
								v0C206.868,321.159,138.451,251.726,47.98,256.468z"/>
							<path style="fill:#D9FBFF;" d="M157.75,311.077c-0.714,0.079-1.229,0.724-1.152,1.436c1.892,17.164-5.779,37.86-8.247,43.962
								l-23.094-23.437c1.986-4.116,10.028-22.154,7.368-39.163c-0.111-0.71-0.777-1.196-1.487-1.084
								c-0.711,0.111-1.197,0.777-1.085,1.486c2.363,15.099-4.394,31.617-6.75,36.778l-20.276-20.577
								c1.944-4.08,9.763-21.885,7.147-39.38c-0.106-0.711-0.769-1.201-1.48-1.094c-0.711,0.108-1.201,0.768-1.095,1.48
								c2.324,15.543-4.221,31.874-6.53,37.008l-19.94-20.236c0.512-2.076,1.91-8.292,1.998-14.692
								c0.011-0.719-0.564-1.309-1.283-1.32c-0.721-0.009-1.31,0.566-1.319,1.283c-0.068,4.891-0.965,9.781-1.563,12.529
								L62.29,269.135c-0.504-0.512-1.328-0.518-1.84-0.014c-0.512,0.505-0.518,1.328-0.014,1.84l21.185,21.499
								c-4.015,0.811-12.59,2.189-19.048,0.753c-0.702-0.155-1.397,0.284-1.553,0.988c-0.156,0.702,0.286,1.397,0.988,1.553
								c8.124,1.806,18.879-0.422,21.781-1.094l19.939,20.236c-5.162,2.233-21.575,8.539-37.101,5.983
								c-0.709-0.117-1.379,0.364-1.496,1.073c-0.117,0.709,0.363,1.379,1.072,1.496c17.454,2.873,35.373-4.682,39.481-6.566
								l20.277,20.578c-5.192,2.28-21.795,8.793-36.874,6.206c-0.709-0.122-1.385,0.356-1.502,1.063
								c-0.122,0.709,0.353,1.382,1.062,1.503c16.968,2.91,35.122-4.865,39.267-6.79l23.095,23.438
								c-6.138,2.377-26.946,9.742-44.079,7.598c-0.711-0.09-1.361,0.417-1.453,1.131c-0.088,0.713,0.418,1.364,1.131,1.453
								c19.115,2.39,41.765-6.282,46.39-8.163l17.102,17.355c0.001,0.001,0.002,0.002,0.003,0.003l3.09,3.136
								c-5.703,2.027-23.379,7.771-36.84,6.312c-0.713-0.079-1.358,0.439-1.434,1.154c-0.077,0.715,0.439,1.357,1.154,1.434
								c15.244,1.653,34.877-5.266,39.133-6.856l11.278,11.446c0.505,0.512,1.328,0.518,1.84,0.014
								c0.512-0.505,0.518-1.328,0.014-1.84l-11.87-12.046c-0.001-0.001-0.003-0.003-0.004-0.004l-3.916-3.975
								c1.652-4.231,8.859-23.76,7.432-39.027c-0.067-0.716-0.701-1.242-1.417-1.175c-0.717,0.068-1.243,0.702-1.175,1.417
								c1.26,13.481-4.743,31.07-6.854,36.742l-20.194-20.494c1.95-4.598,10.955-27.117,8.846-46.265
								C159.107,311.514,158.464,310.999,157.75,311.077z"/>
						</g>
					</g>
				</g>
				<g>
					<defs>
						<path id="SVGID_00000103947159159877829200000017395471761998643608_" d="M424.989,397.644H278.271
							c-23.354-44.26-34.705-97.693-20.247-145.603c14.458-47.91,52.553-89.186,100.697-102.845
							c22.145,27.155,37.174,61.462,39.093,96.449c22.595-3.378,47.347-1.2,69.78,3.123
							C472.592,301.301,455.107,354.312,424.989,397.644z"/>
					</defs>
					<clipPath id="SVGID_00000003089677452746921330000001139308908078153907_">
						<use xlink:href="#SVGID_00000103947159159877829200000017395471761998643608_"  style="overflow:visible;"/>
					</clipPath>
					<g style="clip-path:url(#SVGID_00000003089677452746921330000001139308908078153907_);">
						<g>
							<path style="fill:#9FE0F0;" d="M355.934,163.271L355.934,163.271L355.934,163.271c9.341,20.164,14.758,39.99,16.718,59.049
								c1.948,19.068,0.422,37.389-4.43,54.773c-4.832,17.389-12.996,33.862-24.52,49.178
								c-11.529,15.302-26.414,29.475-44.833,41.908l0,0v0c-14.511-16.77-24.046-36.232-28.446-56.554
								c-4.418-20.31-3.701-41.446,1.814-61.263c5.523-19.815,15.833-38.279,30.114-53.382
								C316.622,181.859,334.844,170.126,355.934,163.271z"/>
							<path style="fill:#A8EFFA;" d="M280.695,260.292c0.653-0.299,1.403,0.008,1.674,0.678c3.208,8.081,9.15,15.598,14.823,21.486
								c5.66,5.891,11.275,10.233,13.846,12.152c2.41-10.495,5.154-20.91,7.984-31.299c-1.822-1.293-6.586-4.846-11.571-10.172
								c-2.492-2.663-5.039-5.771-7.302-9.258c-2.22-3.474-4.147-7.325-5.448-11.473c-0.217-0.693,0.152-1.45,0.825-1.689
								c0.673-0.239,1.393,0.13,1.61,0.822c4.552,14.732,18.215,25.847,22.643,29.143c2.582-9.094,5.298-18.152,8.219-27.143
								c-1.746-1.361-6.286-5.077-11.021-10.631c-4.747-5.554-9.537-12.918-11.959-21.547c-0.187-0.697,0.217-1.438,0.901-1.653
								c0.685-0.213,1.39,0.178,1.578,0.875c2.088,7.635,6.386,14.384,10.627,19.606c4.292,5.242,8.592,8.997,10.723,10.746
								l2.175-6.625l2.277-6.591c1.488-4.405,3.093-8.768,4.693-13.132c-1.289-1.643-5.098-6.663-7.631-12.43
								c-0.288-0.648,0.003-1.417,0.648-1.716c0.647-0.298,1.402-0.011,1.688,0.636c1.958,4.414,4.672,8.434,6.336,10.663
								c2.741-7.274,5.52-14.536,8.482-21.724c0.265-0.654,1.008-0.968,1.66-0.701c0.652,0.267,0.966,1.012,0.702,1.663
								l-2.775,6.842l-2.664,6.886l-2.64,6.895l-2.533,6.935c3.938-0.913,12.044-3.144,17.287-6.841
								c0.567-0.404,1.362-0.278,1.781,0.283c0.418,0.56,0.299,1.34-0.266,1.744c-6.525,4.661-16.947,7.055-19.838,7.653
								c-1.581,4.355-3.045,8.751-4.573,13.125c-1.485,4.389-2.886,8.805-4.333,13.206c2.758-0.166,8.432-0.683,14.947-2.191
								c3.262-0.753,6.716-1.759,10.154-3.086c3.46-1.32,6.876-2.971,9.996-5.048c0.57-0.38,1.363-0.229,1.77,0.334
								c0.408,0.563,0.278,1.324-0.292,1.703c-7.048,4.644-15.225,7.314-22.273,8.854c-7.057,1.535-12.922,1.937-15.118,2.036
								c-2.801,8.997-5.478,18.033-7.954,27.125c2.767-0.267,8.439-1,14.947-2.713c3.245-0.859,6.677-1.969,10.023-3.403
								c1.673-0.717,3.324-1.516,4.919-2.407c1.614-0.885,3.18-1.86,4.654-2.939c0.555-0.406,1.358-0.293,1.785,0.25
								c0.433,0.542,0.335,1.308-0.22,1.712c-6.612,4.847-14.637,7.779-21.686,9.547c-6.978,1.785-12.895,2.405-15.129,2.581
								c-0.69,2.593-1.41,5.178-2.076,7.777l-1.956,7.808c-1.348,5.195-2.473,10.443-3.712,15.664
								c3.177-0.596,10.06-2.038,17.766-4.505c7.667-2.482,16.368-5.914,22.949-10.726c0.554-0.399,1.356-0.281,1.785,0.257
								c0.43,0.54,0.34,1.302-0.21,1.702c-3.685,2.679-7.917,4.942-12.272,6.859c-4.356,1.916-8.751,3.506-12.895,4.783
								c-8.26,2.561-15.344,3.909-17.728,4.335l-2.491,11.658l-2.29,11.699l-0.001,0.005c-0.286,1.407-0.527,2.823-0.779,4.236
								c1.432-0.375,3.593-0.971,6.191-1.774c2.616-0.799,5.669-1.804,8.855-3.004c6.386-2.401,13.239-5.576,18.411-9.517
								c0.543-0.42,1.349-0.329,1.792,0.202c0.445,0.53,0.363,1.297-0.182,1.716c-5.826,4.463-13.551,7.95-20.504,10.483
								c-6.924,2.533-12.881,4.126-15.054,4.658l-1.371,7.741l-1.237,7.764c-0.111,0.695-0.764,1.169-1.461,1.061
								c-0.697-0.108-1.17-0.76-1.059-1.458l1.311-8.197l1.45-8.174l0.001-0.005l0.969-5.392c-1.823-1.268-6.855-4.887-12.294-9.966
								c-5.473-5.08-11.229-11.617-14.594-18.572c-0.317-0.652-0.062-1.455,0.568-1.793c0.631-0.337,1.399-0.081,1.714,0.57
								c2.997,6.141,7.99,12.043,12.973,16.825c4.968,4.785,9.774,8.434,12.173,10.172c0.918-4.618,1.762-9.25,2.783-13.847
								c0.987-4.603,1.939-9.214,3.038-13.793c-1.993-1.42-7.757-5.671-13.988-11.875c-3.078-3.093-6.264-6.673-9.15-10.619
								c-2.894-3.947-5.476-8.259-7.269-12.768C279.732,261.383,280.043,260.592,280.695,260.292z"/>
						</g>
						<g>
							<path style="fill:#A8EFFA;" d="M452.02,256.468L452.02,256.468L452.02,256.468c6.075,90.392-62.341,159.825-152.813,155.083
								h0v0C293.132,321.159,361.548,251.726,452.02,256.468z"/>
							<path style="fill:#D9FBFF;" d="M342.25,311.077c0.714,0.079,1.229,0.724,1.152,1.436c-1.892,17.164,5.779,37.86,8.247,43.962
								l23.094-23.437c-1.986-4.116-10.028-22.154-7.368-39.163c0.111-0.71,0.777-1.196,1.487-1.084
								c0.711,0.111,1.197,0.777,1.085,1.486c-2.363,15.099,4.394,31.617,6.75,36.778l20.276-20.577
								c-1.944-4.08-9.763-21.885-7.147-39.38c0.106-0.711,0.769-1.201,1.48-1.094c0.711,0.108,1.201,0.768,1.095,1.48
								c-2.324,15.543,4.221,31.874,6.53,37.008l19.94-20.236c-0.512-2.076-1.91-8.292-1.998-14.692
								c-0.011-0.719,0.564-1.309,1.283-1.32c0.721-0.009,1.31,0.566,1.319,1.283c0.068,4.891,0.965,9.781,1.563,12.529
								l16.673-16.921c0.504-0.512,1.328-0.518,1.84-0.014c0.512,0.505,0.518,1.328,0.014,1.84l-21.185,21.499
								c4.015,0.811,12.59,2.189,19.048,0.753c0.702-0.155,1.397,0.284,1.553,0.988c0.156,0.702-0.286,1.397-0.988,1.553
								c-8.124,1.806-18.879-0.422-21.78-1.094l-19.939,20.236c5.162,2.233,21.575,8.539,37.101,5.983
								c0.709-0.117,1.379,0.364,1.496,1.073c0.117,0.709-0.363,1.379-1.072,1.496c-17.454,2.873-35.373-4.682-39.481-6.566
								l-20.277,20.578c5.192,2.28,21.795,8.793,36.874,6.206c0.709-0.122,1.385,0.356,1.502,1.063
								c0.122,0.709-0.353,1.382-1.062,1.503c-16.968,2.91-35.122-4.865-39.267-6.79l-23.095,23.438
								c6.138,2.377,26.946,9.742,44.079,7.598c0.711-0.09,1.361,0.417,1.453,1.131c0.088,0.713-0.418,1.364-1.13,1.453
								c-19.115,2.39-41.765-6.282-46.391-8.163L329.9,382.255c-0.001,0.001-0.002,0.002-0.003,0.003l-3.09,3.136
								c5.703,2.027,23.379,7.771,36.84,6.312c0.713-0.079,1.358,0.439,1.434,1.154c0.077,0.715-0.439,1.357-1.154,1.434
								c-15.244,1.653-34.877-5.266-39.133-6.856l-11.278,11.446c-0.505,0.512-1.328,0.518-1.84,0.014
								c-0.512-0.505-0.518-1.328-0.014-1.84l11.87-12.046c0.001-0.001,0.003-0.003,0.004-0.004l3.916-3.975
								c-1.652-4.231-8.859-23.76-7.432-39.027c0.067-0.716,0.701-1.242,1.417-1.175c0.717,0.068,1.243,0.702,1.175,1.417
								c-1.26,13.481,4.743,31.07,6.854,36.742l20.194-20.494c-1.95-4.598-10.955-27.117-8.846-46.265
								C340.892,311.514,341.536,310.999,342.25,311.077z"/>
						</g>
					</g>
				</g>
			</g>
			<g>
				<path style="fill:#7DD3E9;" d="M467.913,399.425L467.913,399.425c0-0.984-0.797-1.781-1.781-1.781H33.868
					c-0.984,0-1.781,0.797-1.781,1.781l0,0c0,0.984,0.797,1.781,1.781,1.781h33.391c0.984,0,1.781,0.797,1.781,1.781l0,0
					c0,0.984-0.797,1.781-1.781,1.781h-7.089c-0.984,0-1.781,0.797-1.781,1.781v0c0,0.984,0.797,1.781,1.781,1.781h392.192
					c0.984,0,1.781-0.797,1.781-1.781v0c0-0.984-0.797-1.781-1.781-1.781h-70.532c-0.984,0-1.781-0.797-1.781-1.781l0,0
					c0-0.984,0.797-1.781,1.781-1.781h84.303C467.116,401.206,467.913,400.408,467.913,399.425z"/>
				<path style="fill:#7DD3E9;" d="M45.407,408.33h5.781c0.984,0,1.781-0.797,1.781-1.781v0c0-0.984-0.797-1.781-1.781-1.781h-5.781
					c-0.984,0-1.781,0.797-1.781,1.781v0C43.626,407.532,44.424,408.33,45.407,408.33z"/>
			</g>
		</g>
		<g>
			<g>
				<g>
					<path style="fill:#BD6C67;" d="M190.601,267.71l-34.328-7.142l-6.531,60.682c-0.332,3.088-0.447,6.196-0.344,9.301
						l2.236,67.094h32.776v-71.457L190.601,267.71z"/>
					<polygon style="fill:#A64F5A;" points="156.273,260.567 190.601,267.71 189.236,280.6 155.711,265.792 					"/>
				</g>
				<g>
					<path style="fill:#BD6C67;" d="M309.399,267.71l34.328-7.142l6.531,60.682c0.332,3.088,0.447,6.196,0.344,9.301l-2.236,67.094
						H315.59v-71.457L309.399,267.71z"/>
					<polygon style="fill:#A64F5A;" points="343.727,260.567 309.399,267.71 310.764,280.6 344.289,265.792 					"/>
				</g>
				<g>
					<path style="fill:#6C6FC3;" d="M309.399,301.706C317.333,286.5,314.121,271.485,313,267l39.028-8.16l-12.264-31.281
						c-4.864-12.406-15.087-21.941-27.801-25.93l-33.731-10.585c-3.945,8.221-11.648,18.688-28.232,18.688
						s-24.286-10.467-28.232-18.688l-33.731,10.585c-12.714,3.99-22.937,13.524-27.801,25.93l-12.264,31.281L187,267
						c-1.121,4.485-4.333,19.5,3.601,34.706c0,0,3.823,28.666,3.823,43.466c0,14.8-12.424,30.048-12.424,52.472h68h0h0h68
						c0-22.424-12.424-37.672-12.424-52.472C305.576,330.372,309.399,301.706,309.399,301.706z"/>
					<polygon style="fill:#FFFFFF;" points="187,267 190.027,255.788 152.175,248.118 147.972,258.84 					"/>
					<path style="fill:#56438C;" d="M280.406,191.726l-2.175-0.682c-3.945,8.221-11.648,18.688-28.232,18.688
						s-24.286-10.467-28.232-18.688l-2.175,0.682c-3.506,10.408-1.304,22.425,3.585,32.26c3.792,7.629,9.425,14.195,15.936,19.732
						c2.473,2.102,6.271,0.667,6.8-2.535c0.979-5.923,2.389-11.755,4.085-17.528c1.696,5.774,3.107,11.605,4.085,17.528
						c0.529,3.202,4.328,4.638,6.8,2.535c6.511-5.536,12.144-12.103,15.936-19.732C281.71,214.151,283.913,202.135,280.406,191.726z
						"/>
					<path style="fill:#FFFFFF;" d="M280.406,191.726l-2.175-0.682c-3.945,8.221-11.648,18.688-28.232,18.688
						s-24.286-10.467-28.232-18.688l-2.175,0.682c-1.643,7.545-1.154,15.55,1.441,22.825c2.127,5.963,8.416,13.873,14.395,19.577
						c2.784,2.656,7.366,1.655,8.755-1.934L250,217.18l5.815,15.014c1.39,3.588,5.971,4.59,8.756,1.934
						c5.979-5.704,12.268-13.614,14.395-19.577C281.561,207.276,282.049,199.271,280.406,191.726z"/>
					<g>
						<g>
							<path style="fill:#422C4F;" d="M250,397.894h-68.25v-0.25c0-12.378,3.922-22.966,6.787-30.696l0.469,0.174
								c-3.669,9.903-6.711,19.023-6.755,30.272H250V397.894z"/>
						</g>
						<g>
							<path style="fill:#422C4F;" d="M225.354,312.443c-0.125,0-0.233-0.094-0.248-0.222c-0.016-0.137,0.083-0.261,0.22-0.276
								c1.044-0.121,2.09-0.273,3.108-0.451c9.021-1.583,15.539-5.105,18.351-9.914c0.069-0.121,0.223-0.161,0.342-0.09
								c0.12,0.069,0.16,0.223,0.09,0.342c-2.888,4.94-9.527,8.546-18.697,10.154c-1.027,0.181-2.083,0.333-3.136,0.455
								C225.373,312.442,225.363,312.443,225.354,312.443z"/>
						</g>
						<g>
							<path style="fill:#422C4F;" d="M192.145,248.368c-0.072,0-0.144-0.031-0.193-0.092c-0.049-0.06-4.968-6.003-11.373-8.101
								c-0.131-0.043-0.203-0.185-0.16-0.315c0.043-0.131,0.184-0.203,0.315-0.16c6.546,2.144,11.554,8.199,11.604,8.26
								c0.087,0.107,0.072,0.264-0.035,0.351C192.256,248.35,192.2,248.368,192.145,248.368z"/>
						</g>
						<g>
							<path style="fill:#422C4F;" d="M191.325,251.373c-0.116,0-0.219-0.081-0.244-0.198c-0.253-1.201-4.184-4.634-10.307-4.634
								c-0.04,0-0.109,0.006-0.118,0.001c-0.137,0-0.249-0.111-0.25-0.248c-0.001-0.138,0.11-0.251,0.248-0.252
								c0.04-0.001,0.08-0.001,0.12-0.001c6.326,0,10.487,3.56,10.796,5.03c0.028,0.136-0.058,0.268-0.193,0.297
								C191.36,251.371,191.342,251.373,191.325,251.373z"/>
						</g>
						<g>
							<path style="fill:#422C4F;" d="M197.705,308.445c-0.04,0-0.08-0.009-0.117-0.029c-3.402-1.792-5.827-4.011-7.208-6.592
								c-7.262-13.917-5.387-27.83-3.623-34.885l7.001-25.697c0.037-0.132,0.173-0.21,0.307-0.175
								c0.133,0.036,0.211,0.174,0.175,0.307l-7,25.691c-1.745,6.982-3.602,20.757,3.581,34.525
								c1.332,2.489,3.687,4.638,6.999,6.384c0.122,0.063,0.169,0.215,0.105,0.337C197.881,308.397,197.794,308.445,197.705,308.445
								z"/>
						</g>
					</g>
					<polygon style="fill:#FFFFFF;" points="313,267 309.973,255.788 347.824,248.118 352.028,258.84 					"/>
					<g>
						<g>
							<path style="fill:#422C4F;" d="M250,397.894h68.25v-0.25c0-12.378-3.922-22.966-6.787-30.696l-0.469,0.174
								c3.669,9.903,6.71,19.023,6.755,30.272H250V397.894z"/>
						</g>
						<g>
							<path style="fill:#422C4F;" d="M274.646,312.443c0.125,0,0.233-0.094,0.248-0.222c0.016-0.137-0.082-0.261-0.22-0.276
								c-1.044-0.121-2.09-0.273-3.108-0.451c-9.022-1.583-15.539-5.105-18.351-9.914c-0.069-0.121-0.223-0.161-0.342-0.09
								c-0.12,0.069-0.16,0.223-0.09,0.342c2.888,4.94,9.527,8.546,18.697,10.154c1.027,0.181,2.083,0.333,3.136,0.455
								C274.627,312.442,274.637,312.443,274.646,312.443z"/>
						</g>
						<g>
							<path style="fill:#422C4F;" d="M307.855,248.368c0.072,0,0.144-0.031,0.193-0.092c0.049-0.06,4.968-6.003,11.373-8.101
								c0.131-0.043,0.203-0.185,0.16-0.315c-0.043-0.131-0.184-0.203-0.315-0.16c-6.546,2.144-11.554,8.199-11.604,8.26
								c-0.087,0.107-0.072,0.264,0.035,0.351C307.744,248.35,307.8,248.368,307.855,248.368z"/>
						</g>
						<g>
							<path style="fill:#422C4F;" d="M308.675,251.373c0.116,0,0.219-0.081,0.244-0.198c0.253-1.201,4.184-4.634,10.307-4.634
								c0.04,0,0.109,0.006,0.118,0.001c0.137,0,0.249-0.111,0.25-0.248c0.001-0.138-0.11-0.251-0.248-0.252
								c-0.04-0.001-0.08-0.001-0.12-0.001c-6.326,0-10.487,3.56-10.796,5.03c-0.028,0.136,0.058,0.268,0.193,0.297
								C308.64,251.371,308.658,251.373,308.675,251.373z"/>
						</g>
						<g>
							<path style="fill:#422C4F;" d="M302.295,308.445c0.04,0,0.08-0.009,0.117-0.029c3.402-1.792,5.827-4.011,7.208-6.592
								c7.262-13.917,5.387-27.83,3.623-34.885l-7.002-25.697c-0.037-0.132-0.173-0.21-0.307-0.175
								c-0.133,0.036-0.211,0.174-0.175,0.307l7,25.691c1.745,6.982,3.603,20.757-3.581,34.525c-1.332,2.489-3.687,4.638-7,6.384
								c-0.122,0.063-0.169,0.215-0.104,0.337C302.119,308.397,302.206,308.445,302.295,308.445z"/>
						</g>
					</g>
				</g>
				<g>
					<path style="fill:#BD6C67;" d="M278.232,191.044l-11.19-3.511v-16.145H250h0h-17.042v16.145l-11.19,3.511
						c3.945,8.221,11.647,18.688,28.232,18.688l0,0c0,0,0,0,0,0c0,0,0,0,0,0l0,0C266.584,209.732,274.286,199.265,278.232,191.044z"
						/>
					<path style="fill:#422C4F;" d="M250,171.387h-17.042v3.482c3.924,7.842,12.95,10.533,17.042,10.533
						c4.092,0,13.118-2.691,17.042-10.533v-3.482H250z"/>
				</g>
				<g>
					
						<ellipse transform="matrix(0.7071 -0.7071 0.7071 0.7071 -47.732 197.0164)" style="fill:#422C4F;" cx="213.954" cy="156.126" rx="25.117" ry="25.117"/>
					
						<ellipse transform="matrix(0.3886 -0.9214 0.9214 0.3886 31.0306 359.0167)" style="fill:#422C4F;" cx="286.046" cy="156.126" rx="25.117" ry="25.117"/>
					<g>
						
							<ellipse transform="matrix(0.1218 -0.9925 0.9925 0.1218 38.0748 342.7353)" style="fill:#A64F5A;" cx="212.729" cy="149.85" rx="11.468" ry="11.468"/>
						<path style="fill:#8C404C;" d="M218.766,149.85c0,3.335-2.703,6.038-6.037,6.038c-3.335,0-6.038-2.703-6.038-6.038
							c0-3.335,2.703-6.038,6.038-6.038C216.063,143.813,218.766,146.516,218.766,149.85z"/>
					</g>
					<g>
						
							<ellipse transform="matrix(0.9735 -0.2286 0.2286 0.9735 -26.6514 69.6477)" style="fill:#A64F5A;" cx="287.271" cy="149.85" rx="11.468" ry="11.468"/>
						<path style="fill:#8C404C;" d="M281.234,149.85c0,3.335,2.703,6.038,6.037,6.038c3.335,0,6.038-2.703,6.038-6.038
							c0-3.335-2.703-6.038-6.038-6.038C283.937,143.813,281.234,146.516,281.234,149.85z"/>
					</g>
					<path style="fill:#BD6C67;" d="M250,84.268L250,84.268L250,84.268L250,84.268L250,84.268
						c-20.989,0-38.004,17.015-38.004,38.004v1.91c0,2.912,0.335,5.815,0.998,8.651l5.52,23.612
						c1.63,6.972,5.931,13.027,11.978,16.862l4.189,2.656c4.581,2.905,9.894,4.448,15.319,4.448l0,0l0,0l0,0h0l0,0
						c5.425,0,10.738-1.542,15.319-4.448l4.189-2.656c6.047-3.835,10.348-9.889,11.978-16.862l5.52-23.612
						c0.663-2.836,0.998-5.739,0.998-8.651v-1.91C288.003,101.283,270.989,84.268,250,84.268z"/>
					<g>
						<path style="fill:#422C4F;" d="M231.942,118.691c-4.335,0.193-8.083,2.439-10.379,5.749l21.228-0.945
							C240.21,120.402,236.277,118.497,231.942,118.691z"/>
					</g>
					<g>
						<path style="fill:#422C4F;" d="M268.058,118.691c4.335,0.193,8.083,2.439,10.379,5.749l-21.229-0.945
							C259.79,120.402,263.723,118.497,268.058,118.691z"/>
					</g>
					<path style="fill:#A64F5A;" d="M256.417,151.221h-12.72c-0.038,0-0.076,0-0.113,0c1.019,0.898,2.055,1.68,3.236,2.351
						c1.181,0.671,2.542,1.1,3.893,0.963C252.799,154.323,254.864,152.631,256.417,151.221z"/>
					<path style="fill:#A64F5A;" d="M256.434,167.337h-10.882c1.527,1.25,3.398,2.044,5.371,2.094
						C252.895,169.481,254.845,168.509,256.434,167.337z"/>
					<path style="fill:#422C4F;" d="M233.643,130.591c-0.979,0-1.861,0.405-2.496,1.053c-1.342-0.542-2.658-1.15-3.933-1.836
						c0.608,1.424,1.697,2.676,3.026,3.505c-0.057,0.25-0.092,0.507-0.092,0.774c0,1.931,1.565,3.496,3.496,3.496
						c1.931,0,3.496-1.565,3.496-3.496C237.14,132.156,235.574,130.591,233.643,130.591z"/>
					<path style="fill:#422C4F;" d="M266.357,130.591c0.979,0,1.861,0.405,2.496,1.053c1.342-0.542,2.658-1.15,3.933-1.836
						c-0.608,1.424-1.697,2.676-3.026,3.505c0.057,0.25,0.092,0.507,0.092,0.774c0,1.931-1.565,3.496-3.496,3.496
						c-1.931,0-3.496-1.565-3.496-3.496C262.861,132.156,264.426,130.591,266.357,130.591z"/>
					<path style="fill:#FFFFFF;" d="M262.861,155.888c-8.187,3.747-17.467,3.947-25.762,0.554c3.039,4.527,7.802,7.868,12.647,7.847
						C254.591,164.269,259.847,160.44,262.861,155.888z"/>
					<path style="fill:#422C4F;" d="M286.423,89.643c-8.084-11.043-22.765-16.125-36.443-15.655
						c-13.679-0.469-28.359,4.613-36.444,15.655c-6.751,9.222-8.272,21.457-6.597,32.763c1.675,11.306,6.864,22.73,11.385,33.226
						l-4.96-28.095c4.806-5.399,3.555-14.001,7.25-20.214c2.716-4.567,7.849-7.273,13.068-8.275
						c5.218-1.002,11.007-0.745,16.298-0.258c5.291-0.487,11.08-0.744,16.298,0.258c5.218,1.002,10.352,3.708,13.068,8.275
						c3.695,6.213,2.444,14.815,7.25,20.214l-4.96,28.095c4.522-10.497,9.71-21.921,11.385-33.226
						C294.696,111.1,293.175,98.864,286.423,89.643z"/>
				</g>
				<g>
					<g>
						<path style="fill:#422C4F;" d="M271.424,205.903c-0.061,0-0.123-0.025-0.167-0.074c-0.083-0.092-0.075-0.234,0.017-0.317
							c1.701-1.531,3.216-3.231,4.504-5.055c0.072-0.102,0.212-0.126,0.313-0.054c0.101,0.071,0.125,0.211,0.053,0.312
							c-1.306,1.851-2.844,3.577-4.571,5.13C271.53,205.884,271.477,205.903,271.424,205.903z"/>
					</g>
					<g>
						<path style="fill:#422C4F;" d="M265.8,209.957c-0.078,0-0.153-0.041-0.194-0.113c-0.061-0.108-0.025-0.245,0.083-0.306
							c0.979-0.558,1.934-1.17,2.84-1.82c0.098-0.073,0.24-0.05,0.313,0.052c0.072,0.1,0.049,0.24-0.052,0.313
							c-0.918,0.659-1.887,1.279-2.878,1.845C265.876,209.948,265.838,209.957,265.8,209.957z"/>
					</g>
					<g>
						<path style="fill:#422C4F;" d="M250.016,214.211c-0.303,0-0.605-0.004-0.906-0.014c-5.298-0.165-10.598-1.744-15.327-4.567
							c-0.106-0.064-0.141-0.201-0.078-0.307c0.063-0.107,0.201-0.142,0.307-0.078c4.665,2.785,9.891,4.342,15.112,4.504
							c4.127,0.136,8.419-0.638,12.406-2.214c0.116-0.046,0.245,0.011,0.291,0.126c0.046,0.115-0.01,0.245-0.126,0.291
							C257.942,213.435,253.924,214.211,250.016,214.211z"/>
					</g>
					<g>
						<path style="fill:#422C4F;" d="M228.996,206.08c-0.053,0-0.106-0.018-0.148-0.057c-2.323-2.055-4.302-4.397-5.882-6.96
							c-0.065-0.106-0.032-0.243,0.073-0.309c0.106-0.064,0.243-0.032,0.309,0.073c1.557,2.526,3.508,4.834,5.797,6.86
							c0.093,0.082,0.102,0.224,0.019,0.316C229.119,206.055,229.057,206.08,228.996,206.08z"/>
					</g>
					<g>
						<path style="fill:#422C4F;" d="M267.711,226.696c-0.056,0-0.112-0.021-0.155-0.062c-0.089-0.086-0.093-0.228-0.007-0.317
							c4.861-5.067,8.407-11.327,10.254-18.101c0.032-0.119,0.158-0.188,0.275-0.157c0.12,0.032,0.19,0.156,0.158,0.275
							c-1.867,6.846-5.45,13.172-10.362,18.293C267.829,226.673,267.77,226.696,267.711,226.696z"/>
					</g>
					<g>
						<path style="fill:#422C4F;" d="M225.748,218.41c-0.08,0-0.158-0.044-0.198-0.12c-1.036-1.962-1.874-4.029-2.492-6.143
							c-0.035-0.119,0.033-0.243,0.152-0.278c0.119-0.036,0.243,0.033,0.278,0.152c0.61,2.085,1.437,4.124,2.458,6.061
							c0.058,0.109,0.016,0.244-0.094,0.302C225.819,218.402,225.783,218.41,225.748,218.41z"/>
					</g>
					<g>
						<path style="fill:#422C4F;" d="M231.619,325.768c-0.118,0-0.217-0.092-0.224-0.211c-0.007-0.124,0.087-0.23,0.211-0.237
							c15.478-0.895,31.612-4.979,46.896-9.433c-21.344,2.721-43.006,3.133-64.437,1.221c-0.123-0.011-0.214-0.12-0.203-0.243
							c0.01-0.124,0.118-0.223,0.243-0.203c22.36,1.995,44.977,1.457,67.217-1.601c0.125-0.01,0.226,0.061,0.25,0.175
							c0.025,0.115-0.043,0.229-0.155,0.262c-16.126,4.771-33.318,9.318-49.785,10.271
							C231.627,325.768,231.623,325.768,231.619,325.768z"/>
					</g>
					<g>
						<path style="fill:#422C4F;" d="M265.082,341.243c-16.739,0-33.401-2.016-49.756-6.033c-0.12-0.03-0.194-0.152-0.164-0.272
							c0.029-0.12,0.151-0.193,0.271-0.165c22.932,5.633,46.476,7.325,69.976,5.028c0.133-0.016,0.233,0.079,0.245,0.202
							c0.012,0.124-0.078,0.233-0.201,0.245C278.661,340.912,271.864,341.243,265.082,341.243z"/>
					</g>
					<g>
						<path style="fill:#422C4F;" d="M265.068,349.122c-13.964,0-27.916-2.442-41.046-7.24c-0.116-0.042-0.176-0.171-0.134-0.287
							c0.042-0.116,0.17-0.177,0.288-0.133c17.978,6.568,37.512,8.705,56.485,6.182c0.13-0.012,0.236,0.071,0.252,0.193
							c0.016,0.123-0.07,0.236-0.193,0.252C275.531,348.779,270.297,349.122,265.068,349.122z"/>
					</g>
					<g>
						<path style="fill:#422C4F;" d="M277.793,367.034c-19.946,0-39.994-6.546-55.974-18.444c-0.099-0.073-0.12-0.214-0.046-0.314
							c0.075-0.098,0.215-0.12,0.314-0.046c17.876,13.31,40.865,19.889,63.084,18.051c0.124-0.018,0.231,0.081,0.242,0.205
							s-0.081,0.231-0.205,0.242C282.744,366.934,280.27,367.034,277.793,367.034z"/>
					</g>
				</g>
			</g>
			<g>
				<path style="fill:#7DD3E9;" d="M177.68,476.636L177.68,476.636c0-0.601-0.487-1.089-1.089-1.089H59.305
					c-0.601,0-1.089,0.487-1.089,1.089l0,0c0,0.601,0.488,1.089,1.089,1.089h20.412c0.601,0,1.089,0.487,1.089,1.089l0,0
					c0,0.601-0.487,1.089-1.089,1.089h-4.334c-0.601,0-1.089,0.487-1.089,1.089l0,0c0,0.601,0.487,1.089,1.089,1.089h92.79
					c0.601,0,1.089-0.487,1.089-1.089l0,0c0-0.601-0.488-1.089-1.089-1.089h-43.117c-0.601,0-1.089-0.487-1.089-1.089l0,0
					c0-0.601,0.488-1.089,1.089-1.089h51.535C177.193,477.725,177.68,477.237,177.68,476.636z"/>
				<path style="fill:#7DD3E9;" d="M66.359,482.08h3.534c0.601,0,1.089-0.487,1.089-1.089l0,0c0-0.601-0.487-1.089-1.089-1.089
					h-3.534c-0.601,0-1.089,0.487-1.089,1.089l0,0C65.27,481.592,65.758,482.08,66.359,482.08z"/>
			</g>
			<g>
				<path style="fill:#7DD3E9;" d="M459.604,476.636L459.604,476.636c0-0.601-0.488-1.089-1.089-1.089H341.228
					c-0.601,0-1.089,0.487-1.089,1.089l0,0c0,0.601,0.488,1.089,1.089,1.089h20.412c0.601,0,1.089,0.487,1.089,1.089l0,0
					c0,0.601-0.487,1.089-1.089,1.089h-4.334c-0.601,0-1.089,0.487-1.089,1.089l0,0c0,0.601,0.487,1.089,1.089,1.089h92.79
					c0.601,0,1.089-0.487,1.089-1.089l0,0c0-0.601-0.487-1.089-1.089-1.089H406.98c-0.601,0-1.089-0.487-1.089-1.089l0,0
					c0-0.601,0.487-1.089,1.089-1.089h51.535C459.116,477.725,459.604,477.237,459.604,476.636z"/>
				<path style="fill:#7DD3E9;" d="M348.283,482.08h3.534c0.601,0,1.089-0.487,1.089-1.089l0,0c0-0.601-0.487-1.089-1.089-1.089
					h-3.534c-0.601,0-1.089,0.487-1.089,1.089l0,0C347.194,481.592,347.681,482.08,348.283,482.08z"/>
			</g>
			<g>
				<g>
					<path style="fill:#EBA58E;" d="M374.639,209.315c-3.04,1.066-6.549,0.155-9.074-1.846c-2.525-2.001-4.152-4.958-5.092-8.039
						c-0.94-3.081-1.25-6.313-1.555-9.52c-0.359-3.782-0.643-7.894,1.43-11.077c1.836-2.82,5.155-4.29,8.399-5.185
						c3.452-0.953,7.208-1.411,10.565-0.165c4.347,1.614,7.28,5.873,8.51,10.344c1.23,4.471,1.02,9.195,0.801,13.828
						c-0.153,3.232-0.306,6.465-0.458,9.697l1.424,6.304l-13.566,1.981L374.639,209.315z"/>
					<polygon style="fill:#7DD3E9;" points="373.22,216.046 374.127,211.451 390.373,209.209 391.481,213.38 					"/>
					<path style="fill:#6A3649;" d="M387.457,176.659c-0.076-4.031-3.63-7.687-7.658-7.876c-2.919-0.137-5.771,1.313-8.676,0.995
						c-3.445-0.377-6.24-3.151-9.666-3.668c-3.662-0.552-7.475,1.876-8.765,5.347c-1.289,3.472-0.111,7.642,2.633,10.129
						c2.744,2.487,7.094,3.276,10.654,2.255c-0.484,2.837,0.793,5.533,3.017,7.36c-0.745,2.923,0.069,5.905,2.092,8.142
						c0-2.766,0.927-4.834,2.008-5.825c1.082-0.991,2.851-1.31,4.039-0.451c0.863,0.624,1.268,1.715,1.392,2.772
						c0.198,1.675-0.208,3.415-1.126,4.83c-0.918,1.415-2.342,2.494-3.952,2.996c3.652,3.376,9.824,4.597,14.714,3.688
						c3.183-0.592,4.814-4.764,5.796-7.849s1.367-6.324,1.724-9.542c0.219-1.979,0.43-3.977,0.209-5.955
						c-0.221-1.978-0.911-3.962-2.28-5.407C392.245,177.154,389.381,176.147,387.457,176.659z"/>
					<g>
						<g>
							<path style="fill:#422C4F;" d="M373.191,201.646c-0.094,0-0.186-0.015-0.273-0.046c-0.267-0.097-0.601-0.38-0.668-1.18
								c-0.157-1.874,0.394-3.818,1.51-5.332c0.472-0.64,0.951-0.961,1.465-0.981c0.57-0.016,1.102,0.335,1.415,0.906
								c0.264,0.486,0.339,1.047,0.405,1.542c0.016,0.123-0.07,0.235-0.193,0.252c-0.132,0.012-0.237-0.07-0.252-0.193
								c-0.063-0.478-0.129-0.973-0.354-1.386c-0.185-0.339-0.555-0.674-0.973-0.674c-0.01,0-0.019,0-0.03,0.001
								c-0.37,0.014-0.737,0.275-1.122,0.799c-1.053,1.428-1.571,3.261-1.424,5.028c0.026,0.31,0.113,0.701,0.374,0.796
								c0.136,0.048,0.326,0.001,0.467-0.119c0.13-0.111,0.236-0.279,0.335-0.527c0.267-0.678,0.302-1.437,0.097-2.137
								c-0.034-0.119,0.034-0.243,0.152-0.278c0.118-0.036,0.243,0.033,0.279,0.152c0.232,0.795,0.193,1.657-0.111,2.426
								c-0.079,0.201-0.212,0.493-0.461,0.704C373.639,201.561,373.412,201.646,373.191,201.646z"/>
						</g>
						<g>
							<path style="fill:#422C4F;" d="M373.162,196.754c-0.066,0-0.13-0.028-0.174-0.084c-0.078-0.096-0.063-0.237,0.033-0.315
								c0.649-0.522,1.615-0.616,2.353-0.225c0.109,0.058,0.151,0.194,0.093,0.303c-0.058,0.11-0.195,0.151-0.303,0.093
								c-0.581-0.307-1.348-0.236-1.86,0.179C373.261,196.738,373.212,196.754,373.162,196.754z"/>
						</g>
					</g>
				</g>
				<g>
					<g>
						<path style="fill:#99A3B0;" d="M299.279,237.072c0-8.091-4.601-14.793-10.639-16.109v-0.251h-2.162
							c-7.07,0-12.801,7.324-12.801,16.36c0,9.035,5.731,16.36,12.801,16.36h2.162v-0.251
							C294.678,251.865,299.279,245.164,299.279,237.072z"/>
						<ellipse style="fill:#C7D2D7;" cx="288.64" cy="237.072" rx="12.801" ry="16.36"/>
					</g>
					<g>
						<path style="fill:#99A3B0;" d="M305.677,237.072c0-4.866-2.767-8.896-6.398-9.687v-0.151h-7.398
							c-4.251,0-7.698,4.405-7.698,9.838c0,5.433,3.447,9.838,7.698,9.838h7.398v-0.151
							C302.91,245.968,305.677,241.938,305.677,237.072z"/>
						<ellipse style="fill:#C7D2D7;" cx="299.279" cy="237.072" rx="7.698" ry="9.838"/>
					</g>
				</g>
				<g>
					<g>
						<path style="fill:#454F6B;" d="M296.051,240.959c5.477,15.559,5.802,32.512,12.189,47.784
							c4.62,11.048,13.351,21.784,25.662,24.264c11.434,2.303,23.267-3.359,26.77-14.811c2.118-6.923,1.595-14.432,1.66-21.578
							c0.07-7.673,0.25-15.348,0.712-23.009c1.122-18.622,3.862-37.408,11.258-54.665c0.45-1.05-1.095-1.965-1.549-0.905
							c-10.678,24.914-12.002,52.583-12.221,79.33c-0.057,6.956,0.464,14.354-1.8,21.042c-2.62,7.74-9.612,12.552-17.636,13.231
							c-14.186,1.2-25.205-10.197-30.603-22.181c-6.982-15.499-7.098-33.036-12.711-48.98
							C297.4,239.4,295.667,239.866,296.051,240.959L296.051,240.959z"/>
					</g>
					<circle style="fill:#797C99;" cx="373.696" cy="198.436" r="1.682"/>
				</g>
				<g>
					<polygon style="fill:#454F6B;" points="406.065,333.629 404.578,465.006 428.707,465.006 438.594,316.918 					"/>
					<path style="fill:#422C4F;" d="M410.174,331.518l-1.668,25.912l-2.441,0.334v42.276l8.872-38.366
						c7.16-0.984,14.186-2.864,21.105-5.097l2.553-39.66L410.174,331.518z"/>
					<polygon style="fill:#454F6B;" points="378.585,333.629 377.098,465.006 401.227,465.006 411.114,316.918 					"/>
					<path style="fill:#422C4F;" d="M378.585,333.629v22.159c8.151,4.814,17.902,6.756,27.48,6.599
						c0.71-0.012,1.419-0.036,2.126-0.07l1.982-30.798l0.94-14.6L378.585,333.629z"/>
					<g>
						<path style="fill:#422C4F;" d="M401.639,458.824c-0.004,0-0.01,0-0.014-0.001c-0.124-0.008-0.218-0.114-0.209-0.237
							l6.013-87.897c0.008-0.124,0.12-0.236,0.237-0.209c0.124,0.008,0.218,0.114,0.209,0.237l-6.013,87.897
							C401.856,458.733,401.757,458.824,401.639,458.824z"/>
					</g>
				</g>
				<g>
					<g>
						<path style="fill:#EBA58E;" d="M315.328,246.059l-3.887-1.42l-5.218-11.016c-0.549-1.16-1.372-2.169-2.398-2.941l-4.276-3.219
							c-0.473-0.356-1.132-0.325-1.57,0.073l0,0c-0.495,0.45-0.54,1.212-0.103,1.718l4.52,5.22l-8.292-3.199
							c-0.665-0.257-1.414,0.069-1.678,0.732l0,0c-0.241,0.601-0.003,1.288,0.558,1.612l7.694,4.444l-7.277-0.69
							c-0.779-0.074-1.479,0.479-1.586,1.255l0,0c-0.103,0.741,0.37,1.441,1.097,1.621l7.467,1.851l-6.088,0.53
							c-0.709,0.062-1.216,0.712-1.105,1.414l0,0c0.096,0.601,0.617,1.04,1.225,1.033l5.22-0.062
							c0.822,5.98,6.727,7.325,6.727,7.325l5.98,3.065L315.328,246.059z"/>
						<path style="fill:#E78882;" d="M315.328,246.059l-2.795-1.021c-4.287,1.75-5.139,5.58-5.61,7.589l5.415,2.775L315.328,246.059
							z"/>
					</g>
					<path style="fill:#FFFFFF;" d="M411.251,221.742c-3.069-6.262-9.838-9.812-16.739-8.804l-25.275,3.69
						c-6.187,0.903-11.559,4.737-14.425,10.294l-15.267,29.602l-25.862-12.557c-7.325,6.279-5.681,14.202-5.681,14.202l27.949,15.34
						c6.527,3.583,14.723,1.199,18.311-5.325l8.304-15.098c17.715,21.004,15.697,85.36,13.678,97.469
						c13.166,5.919,30.233,5.46,43.18,3.778c1.09-9.559,2.18-19.117,3.269-28.676c1.466,9.137,2.339,18.567,2.182,27.866
						c8.184-1.368,13.706-2.968,13.706-2.968C446.433,284.102,420.79,241.205,411.251,221.742z"/>
					<g>
						<path style="fill:#E4E4E0;" d="M362.745,247.455l-10.231,17.842c-3.282,5.724-10.582,7.705-16.308,4.427l-28.142-16.11
							c-0.451,2.663-0.061,4.554-0.061,4.554l27.949,15.34c6.527,3.583,14.723,1.199,18.311-5.325l8.304-15.098l5.689-10.344
							C365.931,243.63,363.984,245.295,362.745,247.455z"/>
						<path style="fill:#E4E4E0;" d="M371.815,262.234c6.606,4.575,14.82,7.543,22.788,8.577
							c-10.068-3.573-19.848-9.865-26.997-17.803c1.071-3.353,1.249-6.799,0.65-10.267l-5.689,10.344
							c9.14,10.837,13.027,33.214,14.371,54.002C380.094,292.093,378.418,275.982,371.815,262.234z"/>
					</g>
					<g>
						<path style="fill:#422C4F;" d="M354.264,268.407c-0.037,0-0.074-0.009-0.108-0.028c-0.109-0.06-0.148-0.195-0.089-0.304
							l15.493-28.171c0.059-0.109,0.196-0.149,0.304-0.088c0.109,0.06,0.148,0.195,0.089,0.304l-15.493,28.171
							C354.42,268.365,354.343,268.407,354.264,268.407z"/>
					</g>
					<g>
						<path style="fill:#422C4F;" d="M408.318,256.4c-0.101,0-0.192-0.068-0.217-0.17c-3.111-12.44-7.748-24.485-13.784-35.798
							c-0.058-0.109-0.017-0.244,0.093-0.303c0.107-0.056,0.244-0.018,0.303,0.093c6.053,11.345,10.703,23.424,13.822,35.9
							c0.031,0.12-0.043,0.242-0.163,0.272C408.354,256.398,408.336,256.4,408.318,256.4z"/>
					</g>
					<g>
						<path style="fill:#422C4F;" d="M336.972,261.739c-0.035,0-0.07-0.008-0.103-0.025c-0.11-0.057-0.153-0.193-0.097-0.302
							l9.955-19.304c0.058-0.11,0.193-0.153,0.302-0.097c0.11,0.057,0.153,0.193,0.097,0.302l-9.955,19.304
							C337.131,261.694,337.053,261.739,336.972,261.739z"/>
					</g>
					<g>
						<path style="fill:#422C4F;" d="M404.122,350.767c-7.674,0-15.377-1.105-22.694-3.284c-0.119-0.035-0.187-0.16-0.151-0.279
							c0.035-0.118,0.163-0.19,0.279-0.151c10.427,3.103,21.641,4.02,32.436,2.643c0.131-0.015,0.235,0.072,0.251,0.195
							c0.016,0.123-0.071,0.235-0.195,0.25C410.768,350.56,407.448,350.767,404.122,350.767z"/>
					</g>
					<g>
						<path style="fill:#422C4F;" d="M417.191,346.297c-0.01,0-0.022-0.001-0.032-0.003c-0.123-0.018-0.208-0.132-0.189-0.254
							l3.343-22.635c0.018-0.123,0.131-0.209,0.254-0.189c0.123,0.017,0.208,0.132,0.189,0.254l-3.342,22.635
							C417.396,346.217,417.301,346.297,417.191,346.297z"/>
					</g>
					<g>
						<path style="fill:#422C4F;" d="M427.343,333.853c-0.106,0-0.2-0.074-0.22-0.182c-0.503-2.611-1.171-5.218-1.988-7.749
							c-0.038-0.118,0.027-0.244,0.145-0.283c0.118-0.034,0.245,0.027,0.283,0.145c0.822,2.548,1.495,5.173,2.001,7.803
							c0.024,0.122-0.056,0.239-0.178,0.262C427.371,333.852,427.357,333.853,427.343,333.853z"/>
					</g>
					<g>
						<path style="fill:#422C4F;" d="M428.845,348.611c-0.105,0-0.199-0.074-0.22-0.18c-0.025-0.121,0.054-0.239,0.176-0.264
							l6.598-1.32c0.125-0.022,0.24,0.055,0.264,0.176c0.024,0.121-0.054,0.239-0.176,0.264l-6.598,1.32
							C428.874,348.609,428.859,348.611,428.845,348.611z"/>
					</g>
					<path style="fill:#E4E4E0;" d="M400.096,268.298c0,6.616-1.201,10.5-1.201,10.5c18.612-1.794,26.967-8.403,26.967-8.403
						L400.096,268.298z"/>
					<g>
						<path style="fill:#FFFFFF;" d="M425.592,267.926c0.174,0.836,0.269,1.672,0.268,2.468c-7.984,2.836-16.206,4.714-24.513,6.385
							c-0.014-2.754-0.432-5.853-1.252-8.482c1.823-0.462,3.649-0.91,5.479-1.343"/>
						<path style="fill:#422C4F;" d="M401.348,277.004c-0.051,0-0.102-0.017-0.142-0.05c-0.052-0.043-0.082-0.106-0.082-0.173
							c-0.016-2.868-0.468-5.935-1.241-8.416c-0.018-0.059-0.012-0.123,0.018-0.176c0.03-0.053,0.081-0.093,0.14-0.108
							c1.811-0.46,3.655-0.912,5.482-1.344c0.125-0.03,0.241,0.046,0.27,0.166c0.029,0.121-0.046,0.242-0.166,0.27
							c-1.747,0.413-3.512,0.845-5.247,1.284c0.721,2.4,1.149,5.304,1.19,8.049c7.699-1.553,15.929-3.393,24.066-6.27
							c-0.01-0.716-0.099-1.477-0.263-2.265c-0.025-0.121,0.053-0.24,0.174-0.265c0.126-0.022,0.24,0.053,0.265,0.174
							c0.181,0.877,0.273,1.723,0.272,2.514c0,0.095-0.06,0.18-0.149,0.211c-8.306,2.951-16.705,4.817-24.544,6.394
							C401.377,277.002,401.362,277.004,401.348,277.004z M425.861,270.394h0.005H425.861z"/>
					</g>
				</g>
				<path style="fill:#422C4F;" d="M387.083,475.547h9.542l-2.519-10.542h-13.731c-9.875,2.167-20.125,10.542-20.125,10.542h22.337
					l4.496-2.708V475.547z"/>
				<path style="fill:#422C4F;" d="M416.522,475.547h9.542l-2.519-10.542h-13.731c-9.875,2.167-20.125,10.542-20.125,10.542h22.337
					l4.496-2.708V475.547z"/>
			</g>
			<g>
				<g>
					<polygon style="fill:#A64F5A;" points="113.074,234.527 134.327,183.578 166.985,192.691 145.732,243.64 					"/>
					<polygon style="fill:#FBEED1;" points="117.948,232.162 136.418,187.886 162.111,195.056 143.641,239.333 					"/>
					<g>
						<polygon style="fill:#C7D2D7;" points="155.76,194.725 156.881,187.886 143.823,184.113 142.702,190.952 						"/>
						<polygon style="fill:#99A3B0;" points="156.881,187.886 158.305,190.269 156.57,189.785 						"/>
					</g>
					<path style="fill:#99A3B0;" d="M142.702,190.952l13.058,3.773l0.618-3.773l-0.262,0.415c-0.64,1.016-1.876,1.484-3.029,1.148
						l-10.157-2.959L142.702,190.952z"/>
				</g>
				<g>
					<polygon style="fill:#454F6B;" points="102.161,333.629 102.161,462.214 81.097,462.214 73.764,316.918 					"/>
					<path style="fill:#422C4F;" d="M98.574,331.518l1.456,25.912l2.131,0.334v42.276l-5.953-29.493
						c-6.25-0.984-13.632-2.07-19.672-4.303l-2.771-49.327L98.574,331.518z"/>
					<polygon style="fill:#454F6B;" points="130.687,333.629 130.687,462.214 109.527,462.214 102.161,316.918 					"/>
					<path style="fill:#422C4F;" d="M130.687,333.629v31.434c-7.149,4.814-15.281,6.124-23.68,5.966
						c-0.623-0.012-1.244-0.036-1.865-0.07l-2.157-39.441l-0.824-14.6L130.687,333.629z"/>
				</g>
				<path style="fill:#FFFFFF;" d="M134.096,242.169c0.271-0.429,0.542-0.857,0.813-1.284c2.962-4.672,3.539-10.473,1.55-15.635
					c-3.199-8.301-7.184-16.973-9.566-24.888H92.809c-7.25,3.695-11.261,12.847-12.031,20.948
					c-0.769,8.101,0.606,16.264,0.248,24.394c-0.554,12.577-5.206,24.549-8.481,36.705c-6.681,24.804-7.659,51.126-2.837,76.357
					c4.6,1.688,9.302,3.029,14.059,4.051l4.332-23.624l4.202,25.079c14.476,1.836,29.242,0.522,43.144-4.397
					c1.351-35.323,0.603-70.661-4.017-105.681C130.875,249.999,131.838,245.746,134.096,242.169z"/>
				<path style="fill:#F0BF9C;" d="M156.605,222.738l1.065-3.924l-2.51-2.689c-0.415-0.445-0.736-0.97-0.943-1.542l-1.742-4.82
					c-0.209-0.577,0.004-1.223,0.515-1.563l0,0c0.56-0.373,1.31-0.271,1.75,0.238l3.827,4.434l4.092-9.81l0.641,0.952
					c0.715,1.061,1.096,2.31,1.096,3.589l0,0l2.201,4.359c0.422,0.836,0.502,1.803,0.224,2.697l-3.826,12.285L156.605,222.738z"/>
				<path style="fill:#F0BF9C;" d="M115.831,200.362l0.449-7.746c3.923,0,7.505-3.327,8.835-7.017
					c0.906-2.514,0.792-5.306,0.151-7.9c-0.64-2.595-1.781-5.034-2.914-7.454c-1.61-3.437-3.22-6.874-4.829-10.312
					c-1.932-4.125-7.549-5.542-12.095-5.271c-4.547,0.271-8.957,2.857-11.171,6.837c-2.189,3.934-2.132,8.806-0.848,13.121
					s3.681,8.199,6.052,12.026c1.328,2.143,2.656,4.286,3.984,6.43l-0.767,7.286H115.831z"/>
				<g>
					<path style="fill:#422C4F;" d="M95.103,258.06c0.094-0.035,0.156-0.131,0.144-0.235c-1.459-12.74-1.351-25.646,0.323-38.359
						c0.016-0.122-0.07-0.235-0.193-0.251c-0.12-0.015-0.235,0.069-0.251,0.193c-1.679,12.749-1.788,25.691-0.324,38.468
						c0.014,0.123,0.125,0.211,0.248,0.197C95.068,258.071,95.086,258.066,95.103,258.06z"/>
				</g>
				<g>
					<path style="fill:#422C4F;" d="M106.556,361.232c7.674,0,15.377-1.105,22.694-3.284c0.119-0.035,0.187-0.16,0.151-0.279
						c-0.035-0.118-0.163-0.19-0.279-0.151c-10.427,3.103-21.641,4.02-32.437,2.643c-0.131-0.015-0.235,0.072-0.251,0.194
						c-0.016,0.123,0.071,0.235,0.194,0.251C99.909,361.024,103.23,361.232,106.556,361.232z"/>
				</g>
				<g>
					<path style="fill:#422C4F;" d="M93.486,356.761c0.01,0,0.022-0.001,0.032-0.003c0.123-0.018,0.208-0.132,0.189-0.254
						l-3.343-22.635c-0.017-0.123-0.131-0.209-0.254-0.189c-0.123,0.018-0.208,0.132-0.189,0.254l3.343,22.635
						C93.281,356.681,93.377,356.761,93.486,356.761z"/>
				</g>
				<g>
					<path style="fill:#422C4F;" d="M83.335,344.318c0.106,0,0.2-0.074,0.22-0.182c0.503-2.611,1.171-5.218,1.988-7.749
						c0.038-0.118-0.027-0.244-0.145-0.283c-0.118-0.034-0.245,0.027-0.283,0.145c-0.823,2.548-1.495,5.173-2.001,7.803
						c-0.024,0.122,0.056,0.239,0.178,0.262C83.307,344.317,83.321,344.318,83.335,344.318z"/>
				</g>
				<g>
					<path style="fill:#422C4F;" d="M81.833,359.075c0.105,0,0.199-0.073,0.22-0.18c0.025-0.121-0.054-0.239-0.176-0.264
						l-6.598-1.32c-0.125-0.022-0.24,0.055-0.264,0.176c-0.025,0.121,0.054,0.239,0.176,0.264l6.598,1.32
						C81.804,359.074,81.819,359.075,81.833,359.075z"/>
				</g>
				<path style="fill:#E4E4E0;" d="M110.136,265.385c1.105,6.523,2.938,10.152,2.938,10.152c-18.65,1.339-27.991-3.782-27.991-3.782
					L110.136,265.385z"/>
				<g>
					<path style="fill:#FFFFFF;" d="M84.935,269.276c-0.032,0.853,0.014,1.693,0.147,2.478c8.346,1.463,16.766,1.941,25.235,2.202
						c-0.446-2.717-0.552-5.843-0.182-8.572c-1.874-0.151-3.75-0.288-5.626-0.409"/>
					<path style="fill:#422C4F;" d="M110.312,274.181c-7.993-0.246-16.585-0.683-25.268-2.206c-0.093-0.016-0.166-0.089-0.182-0.183
						c-0.133-0.78-0.184-1.629-0.151-2.524c0.005-0.124,0.104-0.217,0.233-0.216c0.123,0.005,0.22,0.109,0.216,0.233
						c-0.03,0.805,0.01,1.57,0.119,2.277c8.504,1.478,16.925,1.917,24.775,2.163c-0.418-2.714-0.48-5.648-0.17-8.135
						c-1.784-0.143-3.596-0.274-5.388-0.39c-0.124-0.007-0.217-0.114-0.209-0.238c0.008-0.123,0.11-0.218,0.238-0.209
						c1.873,0.121,3.767,0.258,5.629,0.409c0.061,0.005,0.118,0.035,0.156,0.083c0.039,0.048,0.056,0.11,0.048,0.171
						c-0.348,2.575-0.282,5.675,0.182,8.505c0.011,0.066-0.008,0.134-0.052,0.185c-0.034,0.039-0.082,0.064-0.132,0.073
						C110.341,274.18,110.326,274.181,110.312,274.181z M85.078,271.755l0.005-0.001L85.078,271.755z"/>
				</g>
				<path style="fill:#E4E4E0;" d="M134.096,242.169c0.111-0.175,0.222-0.35,0.333-0.526v-0.001l-9.269-15.353
					c-0.099,3.76,0.449,7.912,2.626,10.979c0.856,1.206,1.883,2.338,2.345,3.744c0.668,2.032,0.039,4.231-0.488,6.304
					c-1.464,5.751-2.139,11.773-1.235,17.638c0.736,4.776,2.596,9.433,5.586,13.202c-0.671-8.001-1.513-15.991-2.565-23.964
					C130.875,249.999,131.838,245.746,134.096,242.169z"/>
				<path style="fill:#FFFFFF;" d="M126.893,200.362L126.893,200.362c4.092,0,7.801,2.406,9.469,6.143l12.999,29.126l6.35-14.918
					c6.239-0.965,9.677,5.912,9.677,5.912l-8.417,24.395c-1.225,3.552-4.569,5.935-8.326,5.935l0,0c-3.085,0-5.946-1.614-7.54-4.256
					l-17.276-28.616C116.205,209.882,126.893,200.362,126.893,200.362z"/>
				<path style="fill:#E4E4E0;" d="M152.027,228.548l-2.815,6.749l2.05,4.593C152.905,235.632,152.027,228.548,152.027,228.548z"/>
				<g>
					<g>
						<path style="fill:#422C4F;" d="M141.105,252.923c-0.076,0-0.15-0.038-0.192-0.109l-17.276-28.616
							c-0.064-0.106-0.03-0.243,0.076-0.307c0.106-0.063,0.244-0.03,0.308,0.076l17.276,28.616c0.064,0.106,0.03,0.243-0.076,0.308
							C141.184,252.913,141.145,252.923,141.105,252.923z"/>
					</g>
					<g>
						<path style="fill:#422C4F;" d="M151.831,241.39c-0.086,0-0.168-0.049-0.205-0.133l-9.129-20.456
							c-0.05-0.113,0-0.245,0.113-0.296c0.113-0.05,0.246,0,0.297,0.114l9.129,20.456c0.05,0.113,0,0.245-0.113,0.296
							C151.893,241.384,151.862,241.39,151.831,241.39z"/>
					</g>
				</g>
				<path style="fill:#6A3649;" d="M123.382,159.849c-1.003-4.886-4.626-9.153-9.285-10.933c-4.359-1.666-9.364-1.175-13.618,0.743
					c-7.655,3.451-12.927,11.632-12.909,20.029c0.01,4.675,1.509,9.216,1.972,13.868c0.471,4.728-0.147,9.562-1.793,14.02
					c-1.86,5.039-4.973,9.511-7.263,14.369c-2.29,4.858-3.748,10.491-2.043,15.584c1.564,4.672,5.675,8.224,10.322,9.861
					c4.647,1.636,9.767,1.526,14.587,0.506c5.783-1.223,11.727-4.156,14.166-9.54c1.514-3.344,1.467-7.156,1.393-10.826
					c0-8.712-0.355-17.44-0.533-26.151c-0.087-4.259-0.476-8.637-0.205-12.889c0.169-2.653,1.34-4.431,2.652-6.65
					C122.996,168.173,124.26,164.123,123.382,159.849z"/>
				<path style="fill:#422C4F;" d="M125.078,475.547h16.547c-1.208-2.335-3.229-4.148-5.682-5.095l-0.452-0.175
					c-1.873-0.723-3.506-1.955-4.715-3.557l-3.4-4.507H115.5c0,0-3.25,6.583,1.75,13.333h4.333v-3.833L125.078,475.547z"/>
				<path style="fill:#422C4F;" d="M96.578,475.547h16.547c-1.208-2.335-3.229-4.148-5.682-5.095l-0.452-0.175
					c-1.873-0.723-3.506-1.955-4.715-3.557l-3.4-4.507H87c0,0-3.25,6.583,1.75,13.333h4.333v-3.833L96.578,475.547z"/>
			</g>
		</g>
	</g>
</g>
</svg>
