<?xml version="1.0" encoding="utf-8"?>
<!-- Generator: Adobe Illustrator 27.5.0, SVG Export Plug-In . SVG Version: 6.00 Build 0)  -->
<svg version="1.1" xmlns="http://www.w3.org/2000/svg" xmlns:xlink="http://www.w3.org/1999/xlink" x="0px" y="0px"
	 viewBox="0 0 500 500" style="enable-background:new 0 0 500 500;" xml:space="preserve">
<g id="BACKGROUND">
</g>
<g id="OBJECTS">
	<rect style="fill:#F2E5DB;" width="500" height="500"/>
	<g>
		<g>
			<path style="fill:#FFFFFF;" d="M31.201,92.85c-0.136-0.839-0.209-1.699-0.209-2.577c0-8.856,7.18-16.036,16.036-16.036
				c2.707,0,5.257,0.672,7.493,1.857c1.959,1.039,5.231,1.429,6.586-1.674c3.451-8.43,11.732-14.37,21.406-14.37
				c4.951,0,9.536,1.557,13.297,4.207c2.208,1.556,6.031,1.427,7.287-2.097c4.45-13.278,16.99-22.846,31.766-22.846
				c16.025,0,29.42,11.253,32.717,26.288c0.622,2.985,2.839,4.939,7.157,4.25c1.185-0.24,2.411-0.366,3.667-0.366
				c8.224,0,15.185,5.393,17.546,12.835c0.622,1.973,2.562,2.587,4.518,1.419c1.96-1.314,4.317-2.081,6.854-2.081
				c6.424,0,11.698,4.916,12.271,11.191H31.201z"/>
			<path style="fill:#5B1A31;" d="M108.276,78.317c-3.533-6.367-7.713-10.788-13.552-14.336l0.389-0.641
				c5.957,3.619,10.219,8.125,13.819,14.612L108.276,78.317z"/>
			<path style="fill:#5B1A31;" d="M158.874,80.844l-0.629-0.407c6.285-9.708,15.824-10.876,15.919-10.887l0.084,0.745
				C174.155,70.306,164.959,71.446,158.874,80.844z"/>
			<path style="fill:#5B1A31;" d="M147.236,85.373l-0.533-0.527c3.26-3.296,7.565-5.021,11.824-4.724
				c3.622,0.25,6.777,1.942,8.886,4.763l-0.602,0.449c-1.975-2.644-4.936-4.229-8.336-4.464
				C154.434,80.591,150.342,82.232,147.236,85.373z"/>
			<path style="fill:#5B1A31;" d="M47.778,82.164l-0.533-0.527c3.26-3.296,7.579-5.016,11.824-4.724
				c3.622,0.251,6.777,1.942,8.886,4.763l-0.602,0.449c-1.975-2.643-4.936-4.228-8.336-4.463
				C54.993,77.377,50.884,79.023,47.778,82.164z"/>
		</g>
		<g>
			<path style="fill:#FFFFFF;" d="M460.678,57.392c-0.693,0-1.374,0.049-2.04,0.142c-1.865,0.346-3.636-0.785-3.879-3.002
				c-0.935-11.8-10.807-21.084-22.848-21.084c-9.8,0-18.159,6.152-21.435,14.804c-0.77,2.287-3.043,3.184-5.498,2.053
				c-3.247-1.767-6.968-2.772-10.926-2.772c-10.108,0-18.681,6.545-21.728,15.627h37.69h5.766h33.276h4.75h18.493
				C469.633,59.655,465.421,57.392,460.678,57.392z"/>
			<path style="fill:#5B1A31;" d="M416.069,59.957c-3.201-5.088-10.298-8.956-10.369-8.995l0.355-0.66
				c0.299,0.161,7.343,4.001,10.648,9.255L416.069,59.957z"/>
			<path style="fill:#5B1A31;" d="M437.041,60.464l-0.573-0.484c0.075-0.089,1.898-2.198,6.551-2.878l0.109,0.742
				C438.782,58.479,437.058,60.444,437.041,60.464z"/>
		</g>
	</g>
	<path style="fill:#CEA16A;" d="M151.024,449.512h186.093l18.823-40.641c0,0,56.683-9.358,66.951-27.486
		c6.738-12.192-3.369-25.989-3.85-30.481c-0.481-4.492,9.198-16.47,8.77-19.679s-6.845-7.273-6.845-7.273s7.593-3.102,8.77-6.631
		c1.176-3.529-6.417-19.358-2.139-30.374c2.139-2.246,19.925-4.816,22.955-12.896c4.385-10.695-33.436-55.017-33.65-59.188
		c-0.214-4.171,4.064-13.261,4.064-13.262c2.392-5.083-5.296-22.928-6.996-28.291c-2.806-8.851-6.185-17.525-10.222-25.888
		c-7.258-15.038-16.647-29.07-28.214-41.14C323.677,52.174,232.02,47.717,171.113,89.159
		c-28.063,19.094-46.488,49.762-51.411,83.202c-4.314,29.299,1.309,66.045,17.633,91.273c0.002,0.003,36.47,56.363,39.465,88.875
		C179.794,385.021,151.024,449.512,151.024,449.512z"/>
	<path style="fill:#FFFFFF;" d="M380.882,166.667c-2.604-3.44-6.662-5.521-9.149-9.087c-7.586-10.876,3.011-25.613-7.48-35.53
		c-2.66-2.514-5.994-4.366-9.701-5.247c-3.551-0.844-7.203-1.036-10.407-2.838c-11.128-6.259-8.999-20.072-26.69-25.325
		c-9.853-2.486-19.386,1.525-27.553-0.077c-6.667-1.307-8.945-5.495-14.753-8.761c-9.423-5.297-22.759-5.718-30.865,1.161
		c-2.7,2.291-4.79,5.301-8.08,6.816c-5.863,2.698-12.775-0.332-19.318-0.821c-8.743-0.653-17.689,3.866-21.734,10.979
		c-2.055,3.613-3.005,7.88-6.154,10.76c-4.13,3.778-10.617,3.981-16.183,5.605c-6.56,1.914-12.196,6.329-15.676,11.949
		c-4.188,6.764-3.806,13.105-2.366,20.556c1.365,7.062-3.782,13.324-7.396,18.979c-4.231,6.62-5.929,14.904-3.663,22.436
		c3.768,12.521,16.262,18.43,29.242,18.43c5.339,0,188.28,0,188.28,0c4.026,0,9.125-1.097,11.254-2.141
		c7.484-4.722,12.172-12.615,13.026-20.764C386.138,177.815,384.727,171.747,380.882,166.667z"/>
	<path style="fill:#5B1A31;" d="M326.521,415.315l-0.143-0.736c13.096-2.546,29.321-6.04,29.483-6.074l0.158,0.732
		C355.858,409.272,339.624,412.768,326.521,415.315z"/>
	<g>
		<g>
			<path style="fill:#FFFFFF;" d="M130.705,436.168l-1.141,9.349c-0.265,1.896,0.214,3.88,1.826,3.88c0,0,34.635,0,37.716,0
				c2.396-2.739-4.622-7.535-15.463-10.042c0,0-3.766-1.598-4.679-4.108C148.051,432.735,130.705,436.168,130.705,436.168z"/>
			<path style="fill:#FFFFFF;" d="M81.735,436.168l-1.141,9.349c-0.265,1.896,0.214,3.88,1.826,3.88c0,0,34.635,0,37.716,0
				c2.396-2.739-4.622-7.535-15.463-10.042c0,0-3.766-1.598-4.679-4.108C99.081,432.735,81.735,436.168,81.735,436.168z"/>
			<path style="fill:#5B1A31;" d="M91.265,269.746c-11.462,31.763-14.51,166.677-11.745,166.422c3.573,2.125,24.478,0,24.478,0
				l12.766-144.306l1.54,0.085l9.996,144.221c2.877,2.308,23.593,0,23.593,0s6.938-134.533-5.51-167.759L91.265,269.746z"/>
			<path style="fill:#7C3D57;" d="M118.555,291.888c-7.573,0-14.944-1.552-22.013-4.643l0.301-0.688
				c9.949,4.352,20.512,5.608,31.394,3.74l0.127,0.738C125.064,291.603,121.79,291.888,118.555,291.888z"/>
			
				<rect x="145.754" y="279.409" transform="matrix(0.6088 -0.7934 0.7934 0.6088 -164.0224 226.9634)" style="fill:#7C3D57;" width="4.707" height="0.751"/>
		</g>
		<g>
			<path style="fill:#F9B8A0;" d="M109.245,172.615l0.856-18.573l8.216-12.239l10.955-8.388l4.879,0.77c0,0,4.108,8.302,4.536,12.41
				c0.428,4.108,2.653,5.82,2.653,7.018c0,1.198-3.081,2.568-3.081,2.568s1.541,11.726-3.252,13.095
				c-4.793,1.369-8.045,0.342-8.045,0.342l-0.171,9.928C111.214,181.857,105.781,179.348,109.245,172.615z"/>
			<path style="fill:#5B1A31;" d="M110.101,161.574c-11.44-10.727-12.227-21.79-6.334-23.965
				c-2.173-10.138,13.604-14.428,31.668-17.973c3.166,7.694,3.071,14.226-5.563,17.717c1.904,4.151,2.525,6.569,2.653,12.196
				c0,0-0.064,2.354-1.583,1.926c0.342-5.585-6.162-8.216-7.275-4.921c-0.579,2.748,0.086,5.435-1.013,8.345
				C120.09,160.942,115.34,162.641,110.101,161.574z"/>
			<rect x="126.587" y="167.1" style="fill:#5B1A31;" width="0.75" height="2.52"/>
		</g>
		<g>
			<g>
				<g>
					<g>
						<path style="fill:#A29C3C;" d="M179.342,163.189c0,0-6.38-15.336,1.387-41.574c0,0,11.235,18.655,14.009,41.595
							L179.342,163.189z"/>
						<path style="fill:#A29C3C;" d="M176.877,163.192c0.434-5.462-1.792-11.026-4.886-16.623
							c6.545,4.404,11.579,9.785,14.36,16.623H176.877z"/>
						<path style="fill:#A29C3C;" d="M188.382,163.192c-0.065-9.353,5.788-24.363,11.03-31.888l-1.672,31.888H188.382z"/>
						<path style="fill:#A29C3C;" d="M175.344,163.192c0,0-4.326-6.837-12.832-7.854c0,0,13.242-5.71,19.863,7.871L175.344,163.192z
							"/>
						<path style="fill:#A29C3C;" d="M190.795,163.192c0,0,4.502-14.74,20.128-20.037c0,0-9.271,7.933-10.992,20.037H190.795z"/>
						<path style="fill:#5B1A31;" d="M182.039,162.479c-2.068-4.169-6.104-6.187-6.145-6.206l0.33-0.674
							c0.175,0.085,4.302,2.143,6.486,6.547L182.039,162.479z"/>
					</g>
					<path style="fill:#5B1A31;" d="M184.461,162.079c-1.147-5.872-7.646-11.338-7.712-11.393l0.48-0.576
						c0.275,0.229,6.77,5.694,7.968,11.826L184.461,162.079z"/>
					<path style="fill:#5B1A31;" d="M188.756,162.008l-0.748-0.041c0.356-6.59,3.153-14.416,3.182-14.494l0.705,0.254
						C191.867,147.804,189.107,155.529,188.756,162.008z"/>
					<path style="fill:#5B1A31;" d="M197.8,161.686h-0.75c0-3.431,0.914-10.348,0.952-10.64l0.744,0.099
						C198.736,151.216,197.8,158.305,197.8,161.686z"/>
				</g>
				<g>
					<path style="fill:#BA6642;" d="M174.838,163.015c0,0-0.688,18.364,5.923,22.877h13.359c5.723-2.186,5.923-22.877,5.923-22.877
						H174.838z"/>
					<polygon style="fill:#BA6642;" points="201.188,168.599 173.693,168.599 173.012,162.328 201.988,161.686 					"/>
					<rect x="174.838" y="168.224" style="fill:#5B1A31;" width="25.205" height="0.75"/>
				</g>
			</g>
			<g>
				<path style="fill:#F9B8A0;" d="M171.507,185.159c3.698-2.413,12.182,1.42,7.741,5.959c0,0-27.36,31.616-36.563,34.99
					c-9.279,4.101-19.281-4.316-9.988-15.143C135.587,206.673,171.507,185.159,171.507,185.159z"/>
				<path style="fill:#F9B8A0;" d="M173.427,190.606c-5.324-3.29-6.549-15.6,1.611-20.379c0,0,0.559,6.484,1.883,6.652
					c2.023,0.168,3.391-6.224,3.391-6.224c0.828-1.729,3.431-0.758,3.062,0.777c0,0-1.174,5.935-1.259,7.732
					c-0.073,8.613-1.904,10.613-1.904,10.613S176.292,191.842,173.427,190.606z"/>
			</g>
			<path style="fill:#F9B8A0;" d="M193.409,187.728c2.315-3.76,9.683-2.263,7.603,3.736c0,0-11.338,37.927-18.223,44.905
				c-6.643,7.668-19.279,4.323-15.493-9.434C168.079,221.82,193.409,187.728,193.409,187.728z"/>
			<path style="fill:#D17A33;" d="M89.16,274.463c14.155,3.68,34.265,4.621,58.77-1.673c0,0-0.177-32.447,3.589-47.459
				c3.766-15.012,3.864-39.218-0.073-43.177c-2.243-2.911-11.973-7.866-24.533-9.669c-5.913,1.329-12.19,1.11-17.667-0.13
				c-2.573,0.352-5.044,0.47-7.642,1.212c-25.851,6.267-13.313,59.444-12.115,71.486C90.686,257.095,89.16,274.463,89.16,274.463z"
				/>
			
				<rect x="91.921" y="249.554" transform="matrix(0.9341 -0.357 0.357 0.9341 -85.4838 49.8559)" style="fill:#5B1A31;" width="0.75" height="13.827"/>
			<g>
				<path style="fill:#F9B8A0;" d="M133.729,198.478c-8.784-12.504-2.197-25.132,13.946-18.989
					c7.061,3.124,31.516,37.746,34.537,45.341c5.28,8.663-3.31,20.936-14.445,13.023
					C163.133,235.548,133.729,198.478,133.729,198.478z"/>
				<path style="fill:#D17A33;" d="M172.923,207.861c0,0-13.608-22.381-25.248-28.372c-16.143-6.143-22.729,6.485-13.946,18.989
					c0,0,10.151,15.937,19.894,27.357C159.229,226.562,173.636,208.883,172.923,207.861z"/>
				
					<rect x="177.8" y="212.293" transform="matrix(0.8386 -0.5447 0.5447 0.8386 -89.7328 132.1515)" style="fill:#5B1A31;" width="0.75" height="10.463"/>
				
					<rect x="143.195" y="204.131" transform="matrix(0.7485 -0.6631 0.6631 0.7485 -105.9025 149.0484)" style="fill:#5B1A31;" width="0.749" height="20.052"/>
				<path style="fill:#F9B8A0;" d="M201.251,190.606c5.324-3.29,6.549-15.6-1.611-20.379c0,0-0.559,6.484-1.882,6.652
					c-2.023,0.168-3.391-6.224-3.391-6.224c-0.828-1.729-3.431-0.758-3.062,0.777c0,0,1.174,5.935,1.259,7.732
					c0.086,1.797,0.856,8.644,0.856,8.644C193.68,190.926,195.101,194.003,201.251,190.606z"/>
				<path style="fill:#5B1A31;" d="M152.195,224.033l-0.309-0.684c5.881-2.651,13.294-9.508,19.346-17.894l0.607,0.439
					C165.623,214.509,158.279,221.29,152.195,224.033z"/>
			</g>
		</g>
	</g>
	<g>
		<g>
			<path style="fill:#A29C3C;" d="M252.26,145.736c-6.914-2.456-11.043-6.99-15.29-13.42c6.135,1.037,11.663,3.161,15.861,7.669
				c-3.972-5.365-6.124-12.911-7.521-21.362c5.876,5.798,10.538,12.045,12.51,19.292c-0.331-8.724,2.089-17.517,5.771-26.342
				c1.621,9.752,1.928,18.875-0.261,26.802c2.228-5.559,6.618-10.081,12.436-13.919c-2.229,6.351-4.763,11.626-7.882,14.838
				c2.613-3.081,6.456-5.041,10.786-6.556c-3.856,6.226-9.01,10.799-14.406,12.998H252.26z"/>
			<path style="fill:#5B1A31;" d="M254.825,145.798c-0.516-3.083-2.281-5.57-2.299-5.595l0.609-0.438
				c0.076,0.107,1.885,2.655,2.43,5.908L254.825,145.798z"/>
			<path style="fill:#5B1A31;" d="M258.882,145.852c-0.763-2.342-1.407-7.668-1.434-7.893l0.744-0.089
				c0.007,0.054,0.663,5.478,1.402,7.75L258.882,145.852z"/>
			<path style="fill:#5B1A31;" d="M261.087,145.915l-0.66-0.357c1.393-2.57,2.222-4.937,2.532-7.233l0.744,0.101
				C263.38,140.814,262.523,143.264,261.087,145.915z"/>
			<path style="fill:#5B1A31;" d="M262.864,145.931l-0.641-0.39c1.612-2.654,5.241-6.354,5.395-6.51l0.535,0.526
				C268.116,139.595,264.432,143.352,262.864,145.931z"/>
		</g>
		<path style="fill:#FFB229;" d="M233.241,143.884c-0.113,0.989-0.177,1.992-0.177,3.011c0,14.477,13.097,25.459,27.575,25.459
			c14.477,0,24.853-10.378,24.853-25.459c0-1.019-0.064-2.022-0.177-3.011C264.832,143.884,248.487,143.884,233.241,143.884z"/>
		<rect x="231.065" y="147.072" style="fill:#5B1A31;" width="56.425" height="0.75"/>
		<polygon style="fill:#5B1A31;" points="283.664,147.578 259.131,81.696 234.736,147.578 234.033,147.317 259.129,79.541 
			284.367,147.316 		"/>
		<path style="fill:#5B1A31;" d="M260.999,81.227c0,1.104-0.895,2-2,2c-1.104,0-2-0.895-2-2c0-1.104,0.895-2,2-2
			C260.104,79.227,260.999,80.123,260.999,81.227z"/>
	</g>
	<g>
		<path style="fill:#968E29;" d="M55.95,449.512c-16.796-5.547-20.698-25.495-22.043-48.298
			c9.155,13.077,16.633,26.549,21.161,40.715c-9.523-41.869,7.406-84.563,7.406-84.563s11.53,54.803,7.583,74.837
			c3.932-18.192,13.895-34.203,27.333-48.958c-3.968,27.199-8.2,40.716-20.401,59.533c5.744-9.06,12.201-12.306,23.575-16.18
			c-4.273,10.365-10.19,18.63-19.222,22.913H55.95z"/>
		<path style="fill:#5B1A31;" d="M57.908,449.509c-1.737-2.923-3.139-7.282-3.197-7.466l0.715-0.228
			c0.014,0.045,1.435,4.463,3.127,7.311L57.908,449.509z"/>
		<path style="fill:#5B1A31;" d="M65.343,449.655l-0.693-0.287c2.368-5.714,4.063-11.51,5.038-17.228l0.74,0.127
			C69.442,438.04,67.731,443.89,65.343,449.655z"/>
		<path style="fill:#5B1A31;" d="M75.584,449.546l-0.746-0.068c0.221-2.415,0.83-4.722,1.812-6.855l0.682,0.313
			C76.385,444.991,75.798,447.216,75.584,449.546z"/>
		<path style="fill:#5B1A31;" d="M61.63,449.538c-1.642-22.998-1.812-47.84-0.521-75.944l0.75,0.035
			c-1.29,28.074-1.119,52.888,0.52,75.857L61.63,449.538z"/>
		<path style="fill:#5B1A31;" d="M60.922,395.714l-0.309-0.684c2.58-1.168,4.331-2.899,5.205-5.145l0.699,0.271
			C65.57,392.593,63.688,394.462,60.922,395.714z"/>
		<path style="fill:#5B1A31;" d="M60.554,417.997c-2.646-0.603-4.791-1.808-6.376-3.582l0.559-0.5
			c1.481,1.656,3.493,2.783,5.983,3.352L60.554,417.997z"/>
		<path style="fill:#5B1A31;" d="M61.161,432.555l-0.267-0.701c2.322-0.887,4.357-2.429,6.048-4.581l0.59,0.463
			C65.756,429.997,63.612,431.618,61.161,432.555z"/>
	</g>
	<g>
		<g>
			<path style="fill:#FFB229;" d="M313.487,196.426v-7.89h1.62v-1.644l-30.264-0.317c-3.061,0-5.883,2.822-5.883,5.883v0
				c0,3.061,2.857,5.565,5.918,5.565h30.229v-1.597H313.487z"/>
			<path style="fill:#FFC569;" d="M325.912,196.426v-7.89h1.62v-1.644l-30.264-0.317c-3.061,0-5.882,2.822-5.882,5.883v0
				c0,3.061,2.857,5.565,5.918,5.565h30.229v-1.597H325.912z"/>
			<path style="fill:#FFFFFF;" d="M325.912,188.535h-28.256c-2.179,0-3.945,1.766-3.945,3.945v0c0,2.179,1.766,3.945,3.945,3.945
				h28.256V188.535z"/>
			
				<rect x="296.156" y="189.814" transform="matrix(0.9998 -0.0196 0.0196 0.9998 -3.6648 6.1316)" style="fill:#5B1A31;" width="29.759" height="0.5"/>
			
				<rect x="299.564" y="192.177" transform="matrix(1 -0.004 0.004 1 -0.7672 1.2525)" style="fill:#5B1A31;" width="26.349" height="0.5"/>
			<rect x="297.691" y="195.133" style="fill:#5B1A31;" width="28.222" height="0.5"/>
		</g>
		<g>
			<path style="fill:#BA6642;" d="M279.274,199.226v5.948h-1.221v1.479l45.954-0.001c2.308,0,4.435-2.127,4.435-4.434v0
				c0-2.307-2.154-4.195-4.461-4.195h-45.927v1.204H279.274z"/>
			<path style="fill:#A5482F;" d="M275.24,199.226v5.948h-1.221v1.474l17.482,0.004c2.307,0,4.434-2.127,4.434-4.434v0
				c0-2.307-2.154-4.195-4.461-4.195h-17.455v1.204H275.24z"/>
			<path style="fill:#FFFFFF;" d="M275.24,205.174h15.968c1.643,0,2.974-1.332,2.974-2.974v0c0-1.643-1.331-2.974-2.974-2.974
				H275.24V205.174z"/>
			<polygon style="fill:#5B1A31;" points="275.247,204.497 275.234,203.997 292.329,203.547 292.343,204.047 			"/>
			<polygon style="fill:#5B1A31;" points="275.241,202.532 275.239,202.032 289.769,201.95 289.771,202.45 			"/>
			<rect x="275.24" y="199.762" style="fill:#5B1A31;" width="15.941" height="0.5"/>
		</g>
		<polygon style="fill:#AA596A;" points="321.333,186.842 276.796,186.574 276.796,183.648 321.604,182.542 		"/>
	</g>
	<g>
		<path style="fill:#BA6642;" d="M282.101,447.07l-4.121-64.266c0.049-1.304-1.077-2.402-2.533-2.471l-37.766-1.61
			c-1.558-0.074-2.856,1.057-2.816,2.453l-7.55,66.002c0.037,1.301,1.229,2.337,2.683,2.333l49.436-0.127
			C280.876,449.38,282.053,448.358,282.101,447.07z"/>
		<path style="fill:#BA6642;" d="M268.129,382.25l2.594-0.459c-0.021-0.118-2.217-11.804-13.231-12.294
			c-10.927-0.474-14.715,9.968-14.751,10.073l2.487,0.868c0.125-0.353,3.196-8.691,12.147-8.309
			C266.304,372.526,268.112,382.153,268.129,382.25z"/>
		<polygon style="fill:#BA6642;" points="238.808,422.439 206.48,382.329 202.059,387.027 232.177,444.774 		"/>
		<path style="fill:#BA6642;" d="M206.48,382.329c3.124-5.535,5.492-11.536,3.523-14.333c-6.666-4.283-24.453,16.475-21.552,21.448
			c2.349,2.141,9.644,0.045,13.608-2.418L206.48,382.329z"/>
		<path style="fill:#BA6642;" d="M274.356,436.893c12.848-4.997,26.871-21.175,30.007-34.62c1.443-6.186,0.485-11.335-2.772-14.891
			c-2.849-3.111-6.229-4.646-10.017-4.602c-9.055,0.135-17.226,9.492-17.569,9.89l2.458,2.121c0.074-0.087,7.575-8.658,15.168-8.766
			c0.048,0,0.097-0.001,0.145-0.001c2.807,0,5.235,1.162,7.422,3.549c3.158,3.449,2.833,8.408,2.004,11.961
			c-2.929,12.557-16.024,27.665-28.021,32.331L274.356,436.893z"/>
		<path style="fill:#5B1A31;" d="M228.494,437.932l-0.156-0.734c2.555-0.541,4.597-3.294,5.604-7.553
			c1.336-5.653,0.588-13.501-2.952-16.323l0.467-0.586c3.77,3.005,4.605,11.206,3.215,17.081
			C233.595,434.37,231.343,437.328,228.494,437.932z"/>
		<path style="fill:#5B1A31;" d="M202.278,387.331l-0.437-0.609c1.904-1.366,3.355-2.907,4.314-4.579l0.65,0.373
			C205.794,384.281,204.271,385.901,202.278,387.331z"/>
		<path style="fill:#5B1A31;" d="M189.023,389.852c-0.209,0-0.414-0.012-0.614-0.035l0.086-0.744
			c5.307,0.587,14.385-8.062,18.649-14.285c2.128-3.105,3.072-5.579,2.527-6.616l0.664-0.35c0.94,1.79-1.208,5.398-2.573,7.39
			C203.44,381.52,194.71,389.851,189.023,389.852z"/>
		
			<rect x="268.483" y="378.639" transform="matrix(0.0425 -0.9991 0.9991 0.0425 -122.2778 632.5143)" style="fill:#5B1A31;" width="0.751" height="2.826"/>
		
			<rect x="244.047" y="377.584" transform="matrix(0.0424 -0.9991 0.9991 0.0424 -144.621 607.1262)" style="fill:#5B1A31;" width="0.751" height="2.853"/>
		<polygon style="fill:#5B1A31;" points="278.236,392.649 277.975,388.566 278.723,388.518 278.985,392.601 		"/>
		<polygon style="fill:#5B1A31;" points="280.843,433.293 280.603,429.549 281.351,429.5 281.591,433.244 		"/>
		
			<rect x="255.764" y="371.597" transform="matrix(0.0433 -0.9991 0.9991 0.0433 -148.8579 633.1097)" style="fill:#5B1A31;" width="0.751" height="45.363"/>
		
			<rect x="255.64" y="374.671" transform="matrix(0.0282 -0.9996 0.9996 0.0282 -148.6764 642.3489)" style="fill:#5B1A31;" width="0.75" height="45.933"/>
		<polygon style="fill:#5B1A31;" points="281.948,445.149 227.676,444.365 227.688,443.615 281.96,444.399 		"/>
		
			<rect x="254.567" y="414.232" transform="matrix(0.032 -0.9995 0.9995 0.032 -194.0549 681.7902)" style="fill:#5B1A31;" width="0.75" height="53.686"/>
	</g>
	<g>
		<g>
			<path style="fill:#5B1A31;" d="M385.828,216.032l-0.637-0.396c2.13-3.419,5.223-5.422,8.944-5.792l0.074,0.746
				C390.729,210.936,387.83,212.818,385.828,216.032z"/>
			<path style="fill:#5B1A31;" d="M381.739,215.866c-0.002-0.032-0.305-3.201-2.809-3.987l0.225-0.716
				c2.988,0.938,3.319,4.489,3.332,4.64L381.739,215.866z"/>
			<path style="fill:#A29C3C;" d="M352.53,210.697c0,0,9.494-7,5.206-10.74c-10.072-8.388-36.098,20.303-35.424,23.302
				c0.674,2.999,32.271,8.749,37.677-5.72C363.485,208.666,352.53,210.697,352.53,210.697z"/>
			<path style="fill:#968E29;" d="M352.53,210.697c0,0-7.939,0.624-30.218,12.563c0.674,2.999,32.271,8.749,37.677-5.72
				C363.485,208.666,352.53,210.697,352.53,210.697z"/>
			<path style="fill:#5B1A31;" d="M332.687,218.359l-0.328-0.675c23.845-11.591,38.964-11.749,44.936-0.47l-0.662,0.35
				C370.884,206.711,356.1,206.977,332.687,218.359z"/>
			<path style="fill:#5B1A31;" d="M323.607,223.094l-0.363-0.656c1.872-1.036,3.726-2.028,5.51-2.947l0.344,0.667
				C327.319,221.073,325.472,222.061,323.607,223.094z"/>
			<path style="fill:#968E29;" d="M375.219,189.2c0,0,0.454,9.447-7.086,8.539c-7.54-0.908-1.544-28.004-1.544-28.004
				s24.345,14.197,17.805,20.374C379.749,195.093,375.219,189.2,375.219,189.2z"/>
			<path style="fill:#A29C3C;" d="M375.219,189.2l-8.63-19.465c0,0,24.345,14.197,17.805,20.374
				C379.749,195.093,375.219,189.2,375.219,189.2z"/>
			<path style="fill:#A29C3C;" d="M391.686,197.473c6.665-8.672,18.296-13.877,31.8-18.361c0,0-6.314,21.166-14.58,24.118
				C400.821,205.546,391.686,197.473,391.686,197.473z"/>
			<path style="fill:#A29C3C;" d="M363.017,189.397c0,0-11.847-13.285-20.535-19.662c0,0,1.661,15.648,6.931,19.701
				C354.7,192.987,363.017,189.397,363.017,189.397z"/>
			<path style="fill:#5B1A31;" d="M387.909,202.726l-0.641-0.391c7.279-11.915,21.647-18.373,36.091-23.577l0.254,0.706
				C409.299,184.621,395.067,191.009,387.909,202.726z"/>
			<path style="fill:#5B1A31;" d="M383.365,215.882l-0.744-0.096c0.495-3.863,1.57-7.499,3.195-10.809l0.674,0.331
				C384.902,208.543,383.85,212.1,383.365,215.882z"/>
			<path style="fill:#5B1A31;" d="M380.59,215.864c-1.416-17.809-8.089-33.721-13.438-43.934l0.664-0.348
				c5.382,10.274,12.096,26.287,13.521,44.222L380.59,215.864z"/>
			<path style="fill:#5B1A31;" d="M378.404,215.976c-4.879-11.904-11.939-22.8-20.981-32.387l0.545-0.515
				c9.107,9.654,16.217,20.628,21.13,32.618L378.404,215.976z"/>
			<path style="fill:#5B1A31;" d="M354.481,180.583c-3.729-3.674-7.841-7.223-12.225-10.549l0.453-0.598
				c4.409,3.345,8.547,6.916,12.299,10.612L354.481,180.583z"/>
			<path style="fill:#5B1A31;" d="M391.231,214.998h-9.303h-0.842h-9.303c-6.91,7.663-18.99,36.7-14.307,41.915
				c4.028,4.486,13.266,13.309,13.266,13.309h10.344h0.842h10.344c0,0,10.405-8.087,13.267-13.309
				C403.892,233.997,391.231,214.998,391.231,214.998z"/>
		</g>
		<g>
			<path style="fill:#BA6642;" d="M413.575,288.136h-62.963c-1.097-6.203,0.145-10.91-0.5-17.492
				c-2.299-13.194-3.585-22.406-3.698-33.288l69.966,3.601C416.548,257.474,415.702,273.265,413.575,288.136z"/>
			<polygon style="fill:#BA6642;" points="346.413,237.355 337.817,254.95 369.27,254.617 421.54,259.748 416.38,240.956 			"/>
			<polygon style="fill:#5B1A31;" points="416.343,259.614 369.234,254.99 346.963,255.229 346.955,254.479 369.267,254.242 
				416.417,258.868 			"/>
			
				<rect x="369.212" y="253.617" transform="matrix(0.9827 -0.185 0.185 0.9827 -40.5503 73.3011)" style="fill:#5B1A31;" width="6.78" height="0.749"/>
			
				<rect x="351.92" y="270.803" transform="matrix(0.8385 -0.5449 0.5449 0.8385 -92.7824 236.3469)" style="fill:#5B1A31;" width="0.75" height="7.765"/>
		</g>
		<rect x="345.772" y="288.136" style="fill:#5B1A31;" width="73.045" height="7.52"/>
		<rect x="345.677" y="343.949" style="fill:#5B1A31;" width="73.235" height="3.76"/>
		<rect x="338.065" y="399.199" style="fill:#5B1A31;" width="88.46" height="3.76"/>
		<g>
			
				<rect x="269.101" y="371.483" transform="matrix(0.1173 -0.9931 0.9931 0.1173 -62.7307 673.1386)" style="fill:#5B1A31;" width="156.403" height="0.749"/>
			
				<rect x="416.912" y="293.657" transform="matrix(0.993 -0.1181 0.1181 0.993 -41.0051 51.8967)" style="fill:#5B1A31;" width="0.749" height="156.403"/>
		</g>
		<path style="fill:#A29C3C;" d="M370.583,225.437c0,0,1.382-7.105-3.136-5.776c-10.336,3.298-3.6,29.184-1.207,30.048
			c2.393,0.864,22.175-13.587,14.482-23.798C376.084,219.523,370.583,225.437,370.583,225.437z"/>
		<path style="fill:#968E29;" d="M370.583,225.437c0,0-3.784,15.043-4.343,24.272c2.393,0.864,22.175-13.587,14.482-23.798
			C376.084,219.523,370.583,225.437,370.583,225.437z"/>
		<path style="fill:#5B1A31;" d="M366.905,246.124l-0.744-0.099c0.012-0.082,1.11-8.28,2.929-16.621
			c2.468-11.314,5.048-17.503,7.669-18.392c0.928-0.232,2.154,0.033,2.609,0.224l-0.291,0.691c-0.375-0.158-1.432-0.364-2.108-0.196
			C372.26,213.331,368.106,237.101,366.905,246.124z"/>
		<path style="fill:#A29C3C;" d="M411.73,220.132c0,0-9.412-7.11-11.777-1.936c-5.176,12.042,22.692,33.705,25.376,32.205
			c2.684-1.499,6.248-38.301-9.161-39.367C406.666,210.207,411.73,220.132,411.73,220.132z"/>
		<path style="fill:#968E29;" d="M411.73,220.132c0,0-9.412-7.11-11.777-1.936c-5.176,12.042,22.693,33.705,25.376,32.205
			C424.559,243.331,416.528,223.041,411.73,220.132z"/>
		<path style="fill:#5B1A31;" d="M424.262,248.568c-0.413-2.014-0.889-4-1.415-5.902l0.723-0.2c0.531,1.919,1.011,3.921,1.427,5.952
			L424.262,248.568z"/>
		<path style="fill:#5B1A31;" d="M421.316,237.751c-6.898-19.824-18.871-27.97-27.105-27.161l-0.074-0.746
			c8.513-0.849,20.857,7.453,27.889,27.661L421.316,237.751z"/>
		<g>
			<path style="fill:#D17A33;" d="M360.487,393.311c2.776,2.935,6.418,5.041,10.525,5.888h8.171
				c4.107-0.847,7.75-2.954,10.525-5.888H360.487z"/>
			<path style="fill:#5B1A31;" d="M371.012,399.574c-9.539-1.96-16.407-10.4-16.407-20.077c0-7.032,3.548-13.494,9.489-17.285
				l0.093-0.059h21.822l0.093,0.059c5.941,3.791,9.489,10.253,9.489,17.285c0,9.677-6.868,18.117-16.331,20.069L371.012,399.574z
				 M364.406,362.903c-5.67,3.66-9.052,9.855-9.052,16.594c0,9.323,6.616,17.454,15.733,19.335l8.096-0.008
				c9.041-1.873,15.657-10.004,15.657-19.327c0-6.738-3.382-12.934-9.052-16.594H364.406z"/>
			<path style="fill:#E5BB91;" d="M357.898,379.67h-0.75c0-4.041,1.313-7.857,3.797-11.036l0.592,0.461
				C359.155,372.141,357.898,375.798,357.898,379.67z"/>
			<path style="fill:#E5BB91;" d="M363.334,367.128l-0.514-0.547c0.814-0.763,1.702-1.452,2.641-2.051l0.402,0.633
				C364.965,365.736,364.113,366.397,363.334,367.128z"/>
			<path style="fill:#968E29;" d="M370.222,393.311c-5.453-1.937-8.71-5.513-12.059-10.584c4.839,0.818,9.199,2.493,12.509,6.048
				c-3.132-4.231-4.83-10.183-5.932-16.848c4.634,4.572,8.311,9.5,9.867,15.215c-0.261-6.881,1.648-13.816,4.552-20.775
				c1.278,7.691,1.52,14.886-0.206,21.138c1.758-4.384,5.219-7.951,9.808-10.977c-1.758,5.009-3.757,9.17-6.216,11.703
				c2.061-2.43,5.092-3.976,8.507-5.171c-3.041,4.911-7.106,8.517-11.362,10.252H370.222z"/>
			<path style="fill:#5B1A31;" d="M372.167,393.372c-0.402-2.406-1.785-4.359-1.799-4.379l0.609-0.438
				c0.061,0.085,1.497,2.109,1.93,4.693L372.167,393.372z"/>
			<path style="fill:#5B1A31;" d="M375.369,393.427c-0.604-1.854-1.112-6.063-1.134-6.24l0.744-0.09
				c0.006,0.043,0.522,4.313,1.103,6.098L375.369,393.427z"/>
			<path style="fill:#5B1A31;" d="M377.253,393.489l-0.66-0.357c1.095-2.018,1.745-3.874,1.988-5.678l0.744,0.102
				C379.069,389.45,378.391,391.391,377.253,393.489z"/>
			<path style="fill:#5B1A31;" d="M378.653,393.505l-0.641-0.389c1.275-2.101,4.144-5.026,4.265-5.149l0.535,0.525
				C382.783,388.522,379.884,391.479,378.653,393.505z"/>
		</g>
		<g>
			<g>
				<path style="fill:#FFB229;" d="M402.571,342.283v-8.236h1.691v-1.716l-31.588-0.331c-3.195,0-6.14,2.945-6.14,6.14l0,0
					c0,3.195,2.982,5.809,6.177,5.809h31.551v-1.667H402.571z"/>
				<path style="fill:#FFC569;" d="M415.539,342.283v-8.236h1.691v-1.716l-31.588-0.331c-3.195,0-6.14,2.945-6.14,6.14l0,0
					c0,3.195,2.982,5.809,6.177,5.809h31.551v-1.667H415.539z"/>
				<path style="fill:#FFFFFF;" d="M415.539,334.047h-29.492c-2.274,0-4.118,1.844-4.118,4.118l0,0c0,2.274,1.844,4.118,4.118,4.118
					h29.492V334.047z"/>
				
					<rect x="384.482" y="335.393" transform="matrix(0.9998 -0.0194 0.0194 0.9998 -6.435 7.8219)" style="fill:#5B1A31;" width="31.06" height="0.5"/>
				
					<rect x="388.038" y="337.858" transform="matrix(1 -0.004 0.004 1 -1.3492 1.6098)" style="fill:#5B1A31;" width="27.501" height="0.5"/>
				<rect x="386.084" y="340.944" style="fill:#5B1A31;" width="29.455" height="0.5"/>
			</g>
			<g>
				<path style="fill:#AA596A;" d="M415.111,332.307l-48.497-0.247c-0.369-0.002-0.67-0.305-0.668-0.674l0.015-2.877
					c0.002-0.369,0.306-0.67,0.675-0.668l48.497,0.247c0.369,0.002,0.67,0.305,0.668,0.675l-0.015,2.877
					C415.784,332.008,415.481,332.309,415.111,332.307z"/>
				<g>
					
						<rect x="369.718" y="327.864" transform="matrix(1 0.0051 -0.0051 1 1.672 -1.8706)" style="fill:#FFFFFF;" width="2.672" height="4.23"/>
					
						<rect x="409.357" y="328.065" transform="matrix(1 0.0051 -0.0051 1 1.6859 -2.0861)" style="fill:#FFFFFF;" width="2.672" height="4.23"/>
				</g>
			</g>
		</g>
	</g>
	<g>
		<path style="fill:#936757;" d="M330.365,449.316c0,0,1.882-8.071,6.47-10.306c4.588-2.235,12.824-4.471,18.118-2.941
			c5.294,1.529,9.294,4.353,10.706,7.176c1.412,2.824,3.882,3.671,2.706,6.071H330.365z"/>
		<path style="fill:#936757;" d="M355.777,449.321c0,0,0.356-4.351,4.276-5.684c3.92-1.333,10.311-3.313,14.391-0.51
			c2.667,2.823,1.882,6.194,1.882,6.194H355.777z"/>
		<path style="fill:#5B1A31;" d="M356.152,449.353l-0.748-0.062c0.016-0.188,0.423-4.612,4.528-6.009
			c1.54-0.522,3.212-1.06,5.008-1.448l0.158,0.732c-1.759,0.38-3.406,0.91-4.924,1.427
			C356.54,445.228,356.165,449.185,356.152,449.353z"/>
	</g>
	<g>
		<path style="fill:#968E29;" d="M418.381,449.484c6.819-4.174,17.507-11.843,14.136-17.197
			c-4.846-7.696-18.746,13.604-18.746,13.604s13.64-28.697,0.977-29.721c-10.524-0.851-8.527,20.595-7.552,27.868
			c-1.05-6.509-4.434-24.028-10.185-21.886c-7.044,2.624,6.541,25.432,6.541,25.432s-12.218-19.73-19.424-14.672
			c-4.663,3.273,4.923,12.625,14.297,16.572H418.381z"/>
		<path style="fill:#5B1A31;" d="M398.402,446.933c-4.182-3.067-7.343-6.31-9.666-9.911l0.631-0.406
			c2.272,3.523,5.372,6.7,9.479,9.712L398.402,446.933z"/>
		<path style="fill:#5B1A31;" d="M409.276,449.63l-0.711-0.236c3.089-9.29,4.86-19.135,5.263-29.261l0.75,0.029
			C414.171,430.358,412.388,440.273,409.276,449.63z"/>
		<path style="fill:#5B1A31;" d="M405.903,449.573c-3.166-7.465-5.536-14.832-7.046-21.896l0.734-0.156
			c1.499,7.018,3.855,14.339,7.003,21.76L405.903,449.573z"/>
		<path style="fill:#5B1A31;" d="M417.451,446.442l-0.461-0.592c0.07-0.055,7.064-5.518,10.994-10.558l0.592,0.461
			C424.588,440.868,417.522,446.388,417.451,446.442z"/>
	</g>
	<path style="fill:#D17A33;" d="M215.589,191.849c-1.366,1.641,3.231,12.073,14.033,14.804h14.733
		c7.266-2.309,16.564-13.565,14.033-14.804C255.858,190.61,216.955,190.208,215.589,191.849z"/>
	<g>
		<g>
			<path style="fill:#968E29;" d="M267.813,227.401c-0.935,0.603-1.665,1.367-2.034,2.43c-0.186,0.536-0.278,1.105-0.27,1.673
				c0.004,0.29,0.034,0.58,0.091,0.865c0.042,0.21,0.079,0.608,0.254,0.755c0.287,0.24,0.869-0.077,1.125-0.236
				c0.327-0.203,0.617-0.465,0.878-0.747c0.477-0.515,0.853-1.122,1.159-1.752c0.368-0.758,0.741-1.729,0.655-2.583
				c-0.029-0.288-0.105-0.652-0.299-0.878c-0.207-0.241-0.526-0.124-0.761,0.004C268.348,227.074,268.078,227.23,267.813,227.401z"
				/>
			<path style="fill:#968E29;" d="M270.904,226.339c1.111-0.05,2.149,0.149,3.066,0.801c0.463,0.329,0.867,0.74,1.19,1.207
				c0.165,0.239,0.309,0.493,0.428,0.758c0.087,0.195,0.288,0.541,0.231,0.762c-0.094,0.362-0.753,0.441-1.053,0.46
				c-0.384,0.024-0.773-0.021-1.148-0.099c-0.687-0.143-1.346-0.42-1.96-0.756c-0.74-0.404-1.606-0.978-2.031-1.725
				c-0.143-0.252-0.293-0.592-0.266-0.889c0.029-0.316,0.357-0.406,0.622-0.438C270.279,226.383,270.589,226.353,270.904,226.339z"
				/>
		</g>
		<g>
			<path style="fill:#968E29;" d="M263.311,220.733c-0.837,0.733-1.448,1.595-1.658,2.701c-0.106,0.558-0.114,1.134-0.023,1.695
				c0.046,0.287,0.118,0.569,0.216,0.843c0.072,0.201,0.166,0.59,0.361,0.709c0.319,0.196,0.849-0.203,1.078-0.397
				c0.294-0.248,0.543-0.55,0.76-0.867c0.397-0.579,0.68-1.235,0.891-1.902c0.254-0.804,0.482-1.818,0.271-2.651
				c-0.071-0.281-0.198-0.63-0.423-0.826c-0.239-0.208-0.539-0.046-0.752,0.114C263.793,220.332,263.548,220.525,263.311,220.733z"
				/>
			<path style="fill:#968E29;" d="M266.214,219.231c1.092-0.212,2.148-0.166,3.15,0.346c0.506,0.258,0.966,0.605,1.353,1.02
				c0.198,0.212,0.377,0.442,0.533,0.687c0.115,0.18,0.364,0.493,0.339,0.72c-0.04,0.372-0.68,0.546-0.975,0.609
				c-0.376,0.08-0.768,0.092-1.151,0.069c-0.701-0.041-1.393-0.219-2.049-0.462c-0.791-0.292-1.732-0.734-2.261-1.411
				c-0.179-0.228-0.376-0.543-0.393-0.84c-0.017-0.317,0.294-0.454,0.552-0.524C265.602,219.367,265.905,219.291,266.214,219.231z"
				/>
		</g>
		<g>
			<path style="fill:#968E29;" d="M259.437,212.576c-0.933,0.607-1.66,1.373-2.025,2.438c-0.184,0.537-0.274,1.106-0.264,1.674
				c0.005,0.29,0.036,0.58,0.094,0.865c0.043,0.21,0.081,0.607,0.256,0.754c0.287,0.239,0.869-0.08,1.124-0.24
				c0.326-0.204,0.616-0.467,0.875-0.75c0.475-0.517,0.849-1.126,1.153-1.756c0.366-0.76,0.736-1.731,0.646-2.586
				c-0.03-0.288-0.107-0.652-0.302-0.877c-0.207-0.24-0.527-0.122-0.761,0.006C259.971,212.247,259.701,212.404,259.437,212.576z"/>
			<path style="fill:#968E29;" d="M262.524,211.503c1.111-0.054,2.149,0.141,3.069,0.791c0.464,0.327,0.87,0.737,1.194,1.203
				c0.166,0.238,0.31,0.491,0.43,0.756c0.088,0.195,0.29,0.54,0.233,0.761c-0.093,0.362-0.751,0.444-1.051,0.464
				c-0.384,0.025-0.773-0.019-1.149-0.095c-0.688-0.141-1.347-0.415-1.963-0.749c-0.741-0.402-1.61-0.973-2.037-1.718
				c-0.144-0.252-0.295-0.591-0.269-0.888c0.028-0.316,0.355-0.407,0.621-0.44C261.899,211.55,262.209,211.518,262.524,211.503z"/>
		</g>
		<g>
			<path style="fill:#968E29;" d="M258.831,202.999c-1.018,0.449-1.859,1.088-2.391,2.08c-0.268,0.5-0.448,1.048-0.53,1.61
				c-0.042,0.287-0.058,0.579-0.046,0.869c0.008,0.214-0.018,0.613,0.132,0.785c0.245,0.282,0.871,0.061,1.148-0.056
				c0.355-0.149,0.683-0.362,0.985-0.599c0.552-0.434,1.019-0.974,1.42-1.548c0.483-0.691,1.004-1.59,1.053-2.448
				c0.017-0.29,0-0.661-0.156-0.914c-0.166-0.27-0.5-0.205-0.752-0.116C259.412,202.761,259.12,202.872,258.831,202.999z"/>
			<path style="fill:#968E29;" d="M262.051,202.437c1.105,0.125,2.099,0.485,2.902,1.274c0.405,0.398,0.74,0.867,0.985,1.379
				c0.125,0.262,0.227,0.535,0.303,0.815c0.056,0.207,0.2,0.579,0.108,0.789c-0.15,0.342-0.813,0.317-1.112,0.289
				c-0.383-0.037-0.76-0.143-1.118-0.279c-0.656-0.25-1.263-0.627-1.817-1.055c-0.667-0.516-1.432-1.219-1.735-2.023
				c-0.102-0.271-0.196-0.631-0.123-0.92c0.078-0.307,0.416-0.345,0.683-0.335C261.426,202.383,261.738,202.402,262.051,202.437z"/>
		</g>
		<g>
			<path style="fill:#968E29;" d="M257.241,194.418c-0.883,0.677-1.549,1.497-1.831,2.587c-0.142,0.55-0.188,1.124-0.134,1.689
				c0.027,0.289,0.081,0.576,0.16,0.855c0.059,0.206,0.127,0.599,0.314,0.732c0.305,0.216,0.86-0.147,1.102-0.325
				c0.309-0.229,0.578-0.514,0.815-0.815c0.434-0.552,0.76-1.188,1.014-1.84c0.306-0.785,0.6-1.783,0.445-2.628
				c-0.052-0.285-0.157-0.642-0.368-0.852c-0.225-0.223-0.534-0.081-0.758,0.065C257.749,194.049,257.491,194.226,257.241,194.418z"
				/>
			<path style="fill:#968E29;" d="M260.237,193.11c1.104-0.14,2.154-0.025,3.121,0.552c0.488,0.291,0.924,0.667,1.283,1.107
				c0.184,0.225,0.348,0.466,0.487,0.721c0.103,0.188,0.331,0.516,0.291,0.741c-0.065,0.368-0.715,0.5-1.012,0.544
				c-0.381,0.055-0.772,0.041-1.153-0.007c-0.696-0.087-1.375-0.31-2.015-0.595c-0.77-0.343-1.68-0.846-2.164-1.556
				c-0.163-0.24-0.34-0.567-0.337-0.865c0.003-0.317,0.323-0.434,0.585-0.487C259.617,193.205,259.924,193.15,260.237,193.11z"/>
		</g>
		<path style="fill:#5B1A31;" d="M270.656,233.397l-0.725-0.197c0.887-3.256-0.829-6.665-2.425-8.95
			c-0.605-0.868-1.274-1.723-1.921-2.55c-1.374-1.755-2.794-3.57-3.727-5.653c-1.537-3.437-1.628-7.3-1.716-11.037
			c-0.093-3.923-0.189-7.98-2.004-11.407c-0.826-1.56-1.852-2.642-3.047-3.217c-1.227-0.59-3.371-0.398-4.699,0.943l-0.533-0.528
			c1.583-1.595,4.069-1.808,5.557-1.09c1.344,0.646,2.482,1.837,3.385,3.542c1.899,3.583,1.997,7.73,2.092,11.741
			c0.086,3.662,0.175,7.449,1.651,10.747c0.895,1.999,2.286,3.777,3.632,5.498c0.653,0.835,1.328,1.698,1.945,2.583
			C269.809,226.237,271.618,229.861,270.656,233.397z"/>
		<path style="fill:#828219;" d="M263.532,281.243c-1.04,0.396-1.913,0.991-2.495,1.954c-0.294,0.486-0.502,1.023-0.612,1.58
			c-0.056,0.285-0.087,0.575-0.091,0.865c-0.003,0.214-0.05,0.611,0.091,0.791c0.23,0.294,0.866,0.105,1.149,0.004
			c0.362-0.131,0.701-0.327,1.014-0.548c0.574-0.404,1.068-0.92,1.498-1.472c0.518-0.665,1.085-1.536,1.178-2.391
			c0.032-0.288,0.034-0.66-0.109-0.921c-0.152-0.278-0.489-0.231-0.745-0.155C264.124,281.035,263.827,281.131,263.532,281.243z"/>
		<g>
			<path style="fill:#828219;" d="M265.867,275.216c-1.112-0.035-2.146,0.179-3.054,0.845c-0.458,0.336-0.857,0.752-1.173,1.224
				c-0.162,0.241-0.302,0.497-0.417,0.764c-0.085,0.196-0.281,0.545-0.22,0.765c0.1,0.36,0.759,0.431,1.059,0.445
				c0.384,0.019,0.773-0.032,1.147-0.116c0.685-0.153,1.34-0.439,1.949-0.783c0.734-0.415,1.592-1.001,2.007-1.754
				c0.14-0.254,0.285-0.596,0.254-0.893c-0.033-0.315-0.362-0.401-0.628-0.43C266.493,275.252,266.183,275.226,265.867,275.216z"/>
			<path style="fill:#828219;" d="M269.015,276.098c0.943,0.59,1.684,1.343,2.068,2.401c0.194,0.534,0.293,1.101,0.294,1.669
				c0,0.29-0.026,0.581-0.079,0.866c-0.039,0.21-0.07,0.609-0.243,0.758c-0.283,0.244-0.87-0.065-1.128-0.22
				c-0.33-0.198-0.624-0.457-0.889-0.734c-0.484-0.508-0.869-1.11-1.184-1.735c-0.379-0.753-0.766-1.718-0.692-2.574
				c0.025-0.289,0.095-0.654,0.286-0.883c0.203-0.243,0.524-0.132,0.761-0.007C268.475,275.78,268.747,275.931,269.015,276.098z"/>
		</g>
		<g>
			<path style="fill:#828219;" d="M232.427,262.241c-1.112-0.04-2.147,0.169-3.059,0.83c-0.46,0.333-0.86,0.748-1.179,1.218
				c-0.163,0.24-0.304,0.496-0.421,0.762c-0.086,0.196-0.283,0.543-0.224,0.764c0.098,0.361,0.757,0.434,1.057,0.45
				c0.384,0.021,0.773-0.028,1.147-0.11c0.686-0.149,1.342-0.432,1.953-0.774c0.736-0.411,1.597-0.993,2.015-1.744
				c0.141-0.253,0.288-0.595,0.258-0.891c-0.032-0.316-0.36-0.403-0.626-0.433C233.053,262.28,232.742,262.253,232.427,262.241z"/>
			<path style="fill:#828219;" d="M235.57,263.139c0.94,0.595,1.677,1.352,2.056,2.412c0.191,0.535,0.288,1.103,0.285,1.671
				c-0.001,0.29-0.029,0.581-0.083,0.866c-0.04,0.21-0.073,0.608-0.247,0.757c-0.284,0.243-0.87-0.069-1.127-0.225
				c-0.328-0.2-0.622-0.46-0.885-0.739c-0.482-0.51-0.863-1.115-1.175-1.741c-0.375-0.755-0.757-1.721-0.679-2.577
				c0.027-0.289,0.098-0.653,0.29-0.881c0.204-0.242,0.525-0.129,0.761-0.004C235.031,262.818,235.303,262.971,235.57,263.139z"/>
		</g>
		<g>
			<path style="fill:#828219;" d="M235.015,251.439c-1.069,0.307-1.989,0.826-2.65,1.737c-0.333,0.459-0.586,0.978-0.743,1.523
				c-0.08,0.279-0.135,0.565-0.164,0.854c-0.021,0.213-0.101,0.604,0.024,0.796c0.205,0.313,0.854,0.178,1.145,0.1
				c0.371-0.1,0.726-0.267,1.057-0.461c0.606-0.355,1.142-0.827,1.617-1.341c0.572-0.619,1.21-1.44,1.375-2.283
				c0.056-0.285,0.089-0.655-0.031-0.927c-0.128-0.29-0.468-0.271-0.729-0.217C235.622,251.282,235.318,251.352,235.015,251.439z"/>
			<path style="fill:#828219;" d="M238.281,251.318c1.078,0.274,2.014,0.765,2.702,1.655c0.348,0.449,0.616,0.959,0.79,1.5
				c0.089,0.277,0.153,0.561,0.19,0.849c0.027,0.212,0.119,0.601,0,0.796c-0.195,0.319-0.848,0.204-1.141,0.135
				c-0.374-0.088-0.733-0.244-1.07-0.428c-0.616-0.336-1.167-0.792-1.657-1.291c-0.591-0.601-1.254-1.402-1.445-2.24
				c-0.064-0.283-0.109-0.652,0.003-0.928c0.119-0.294,0.459-0.286,0.722-0.239C237.67,251.18,237.976,251.24,238.281,251.318z"/>
		</g>
		<g>
			<path style="fill:#828219;" d="M233.658,238.478c-1.032,0.415-1.894,1.026-2.458,2.001c-0.285,0.491-0.482,1.033-0.582,1.592
				c-0.051,0.286-0.077,0.576-0.075,0.867c0.001,0.214-0.038,0.612,0.106,0.789c0.236,0.29,0.868,0.089,1.149-0.018
				c0.359-0.137,0.694-0.34,1.004-0.567c0.566-0.415,1.051-0.94,1.47-1.5c0.505-0.675,1.056-1.556,1.133-2.412
				c0.026-0.289,0.021-0.66-0.126-0.919c-0.157-0.275-0.493-0.222-0.748-0.141C234.246,238.259,233.951,238.361,233.658,238.478z"/>
			<path style="fill:#828219;" d="M236.895,238.022c1.101,0.161,2.082,0.554,2.858,1.368c0.392,0.411,0.711,0.891,0.939,1.411
				c0.117,0.266,0.21,0.542,0.276,0.825c0.049,0.208,0.181,0.586,0.082,0.792c-0.161,0.337-0.823,0.29-1.121,0.252
				c-0.381-0.049-0.755-0.167-1.109-0.315c-0.647-0.271-1.242-0.668-1.781-1.114c-0.65-0.537-1.392-1.265-1.667-2.079
				c-0.093-0.275-0.176-0.637-0.093-0.923c0.088-0.305,0.427-0.331,0.694-0.312C236.272,237.947,236.583,237.976,236.895,238.022z"
				/>
		</g>
		<g>
			<path style="fill:#828219;" d="M201.652,242.633c-1.112,0.021-2.135,0.286-3.008,0.997c-0.44,0.358-0.818,0.794-1.11,1.281
				c-0.149,0.249-0.276,0.511-0.378,0.784c-0.075,0.2-0.253,0.558-0.181,0.775c0.117,0.355,0.78,0.392,1.08,0.392
				c0.384-0.001,0.77-0.071,1.14-0.173c0.677-0.187,1.316-0.506,1.908-0.88c0.712-0.451,1.54-1.079,1.916-1.852
				c0.127-0.261,0.255-0.61,0.208-0.904c-0.049-0.313-0.382-0.383-0.649-0.398C202.279,242.637,201.967,242.627,201.652,242.633z"/>
			<path style="fill:#828219;" d="M204.84,243.357c0.971,0.542,1.749,1.257,2.185,2.295c0.22,0.523,0.348,1.085,0.377,1.652
				c0.015,0.29,0.003,0.581-0.035,0.869c-0.028,0.212-0.039,0.612-0.205,0.769c-0.271,0.258-0.872-0.021-1.137-0.163
				c-0.339-0.182-0.646-0.425-0.924-0.689c-0.509-0.483-0.923-1.065-1.269-1.674c-0.416-0.733-0.851-1.677-0.819-2.536
				c0.011-0.29,0.062-0.658,0.241-0.896c0.191-0.253,0.517-0.158,0.76-0.045C204.284,243.065,204.564,243.203,204.84,243.357z"/>
		</g>
		<g>
			<path style="fill:#828219;" d="M203.517,232.359c-1.102,0.151-2.087,0.534-2.871,1.341c-0.396,0.407-0.719,0.884-0.953,1.402
				c-0.119,0.265-0.215,0.54-0.284,0.822c-0.051,0.208-0.186,0.584-0.09,0.791c0.158,0.339,0.82,0.298,1.119,0.263
				c0.382-0.046,0.756-0.16,1.112-0.305c0.65-0.265,1.248-0.656,1.792-1.097c0.655-0.531,1.403-1.252,1.687-2.063
				c0.096-0.274,0.181-0.635,0.101-0.922c-0.085-0.305-0.424-0.335-0.691-0.319C204.14,232.29,203.829,232.316,203.517,232.359z"/>
			<path style="fill:#828219;" d="M206.767,232.705c1.028,0.425,1.884,1.044,2.439,2.024c0.28,0.494,0.473,1.037,0.567,1.597
				c0.048,0.286,0.071,0.577,0.067,0.867c-0.003,0.214,0.033,0.612-0.113,0.788c-0.239,0.288-0.869,0.081-1.149-0.029
				c-0.358-0.141-0.691-0.346-0.998-0.576c-0.562-0.42-1.042-0.95-1.456-1.514c-0.499-0.679-1.041-1.566-1.11-2.423
				c-0.023-0.289-0.015-0.661,0.135-0.918c0.16-0.274,0.495-0.217,0.749-0.134C206.181,232.481,206.475,232.585,206.767,232.705z"/>
		</g>
		<g>
			<path style="fill:#828219;" d="M203.488,217.855c-1.034,0.411-1.898,1.019-2.465,1.991c-0.286,0.49-0.486,1.031-0.589,1.589
				c-0.052,0.286-0.079,0.576-0.078,0.866c0.001,0.214-0.041,0.611,0.103,0.789c0.235,0.291,0.868,0.093,1.149-0.014
				c0.36-0.136,0.696-0.337,1.006-0.563c0.568-0.413,1.054-0.936,1.476-1.495c0.508-0.673,1.062-1.552,1.143-2.408
				c0.027-0.289,0.024-0.66-0.123-0.919c-0.156-0.276-0.492-0.224-0.747-0.144C204.076,217.639,203.781,217.739,203.488,217.855z"/>
			<path style="fill:#828219;" d="M206.726,217.412c1.1,0.166,2.079,0.562,2.853,1.38c0.39,0.412,0.708,0.893,0.934,1.414
				c0.116,0.266,0.208,0.543,0.273,0.826c0.048,0.208,0.178,0.586,0.079,0.792c-0.163,0.337-0.824,0.287-1.122,0.248
				c-0.381-0.051-0.754-0.17-1.107-0.32c-0.646-0.273-1.239-0.673-1.777-1.121c-0.647-0.54-1.387-1.271-1.659-2.086
				c-0.092-0.275-0.173-0.638-0.089-0.923c0.09-0.304,0.429-0.33,0.695-0.31C206.104,217.334,206.414,217.365,206.726,217.412z"/>
		</g>
		<g>
			<path style="fill:#828219;" d="M204.759,203.202c-1.11,0.076-2.118,0.391-2.956,1.143c-0.423,0.379-0.778,0.833-1.046,1.334
				c-0.137,0.256-0.251,0.524-0.339,0.801c-0.065,0.204-0.225,0.57-0.143,0.783c0.135,0.349,0.798,0.353,1.098,0.338
				c0.384-0.019,0.766-0.108,1.13-0.229c0.667-0.22,1.29-0.569,1.862-0.972c0.689-0.485,1.485-1.154,1.823-1.944
				c0.114-0.267,0.224-0.621,0.164-0.913c-0.064-0.311-0.4-0.363-0.668-0.365C205.386,203.176,205.074,203.181,204.759,203.202z"/>
			<path style="fill:#828219;" d="M207.978,203.769c0.997,0.494,1.808,1.17,2.295,2.185c0.245,0.512,0.401,1.067,0.457,1.632
				c0.029,0.289,0.032,0.581,0.007,0.87c-0.018,0.213-0.009,0.613-0.167,0.778c-0.258,0.271-0.872,0.022-1.144-0.107
				c-0.347-0.165-0.666-0.393-0.957-0.643c-0.532-0.458-0.974-1.019-1.349-1.61c-0.452-0.712-0.932-1.634-0.943-2.493
				c-0.004-0.29,0.03-0.66,0.197-0.907c0.178-0.262,0.509-0.183,0.757-0.082C207.41,203.505,207.696,203.629,207.978,203.769z"/>
		</g>
		<g>
			<path style="fill:#828219;" d="M212.538,190.736c-1.075-0.287-2.131-0.315-3.166,0.126c-0.522,0.222-1.005,0.537-1.421,0.924
				c-0.212,0.198-0.407,0.415-0.58,0.648c-0.127,0.172-0.397,0.466-0.389,0.695c0.015,0.374,0.641,0.592,0.93,0.675
				c0.37,0.106,0.759,0.145,1.143,0.149c0.702,0.007,1.405-0.122,2.076-0.318c0.809-0.236,1.779-0.612,2.354-1.25
				c0.194-0.215,0.413-0.515,0.45-0.811c0.039-0.315-0.261-0.473-0.514-0.561C213.14,190.913,212.843,190.817,212.538,190.736z"/>
			<path style="fill:#828219;" d="M215.401,192.312c0.784,0.79,1.333,1.692,1.466,2.81c0.067,0.564,0.035,1.139-0.095,1.692
				c-0.066,0.283-0.158,0.56-0.274,0.826c-0.086,0.196-0.207,0.577-0.409,0.683c-0.331,0.173-0.833-0.261-1.048-0.471
				c-0.276-0.268-0.503-0.587-0.698-0.917c-0.355-0.605-0.593-1.279-0.757-1.96c-0.197-0.82-0.354-1.847-0.087-2.664
				c0.09-0.276,0.242-0.615,0.48-0.794c0.253-0.191,0.541-0.009,0.743,0.166C214.949,191.879,215.179,192.089,215.401,192.312z"/>
		</g>
		<g>
			<path style="fill:#828219;" d="M228.941,227.285c-0.897,0.658-1.581,1.463-1.886,2.547c-0.154,0.546-0.212,1.12-0.17,1.686
				c0.021,0.29,0.068,0.577,0.142,0.858c0.054,0.207,0.115,0.602,0.298,0.738c0.3,0.223,0.863-0.129,1.109-0.302
				c0.314-0.222,0.589-0.501,0.832-0.798c0.445-0.542,0.785-1.171,1.053-1.818c0.323-0.779,0.638-1.769,0.5-2.618
				c-0.046-0.286-0.143-0.645-0.35-0.859c-0.221-0.228-0.533-0.093-0.759,0.049C229.456,226.927,229.195,227.099,228.941,227.285z"
				/>
			<path style="fill:#828219;" d="M231.963,226.041c1.106-0.116,2.154,0.021,3.108,0.618c0.481,0.301,0.91,0.687,1.26,1.134
				c0.179,0.229,0.337,0.473,0.472,0.731c0.099,0.19,0.32,0.523,0.276,0.747c-0.073,0.367-0.725,0.485-1.024,0.522
				c-0.382,0.047-0.773,0.025-1.152-0.031c-0.694-0.102-1.368-0.339-2.001-0.638c-0.763-0.359-1.662-0.881-2.13-1.601
				c-0.158-0.243-0.328-0.574-0.318-0.871c0.01-0.317,0.332-0.427,0.595-0.475C231.341,226.123,231.65,226.074,231.963,226.041z"/>
		</g>
		<g>
			<path style="fill:#828219;" d="M224.565,216.082c-0.927,0.658-1.633,1.463-1.948,2.547c-0.159,0.546-0.219,1.12-0.176,1.686
				c0.022,0.29,0.071,0.577,0.147,0.858c0.056,0.207,0.118,0.602,0.308,0.738c0.31,0.223,0.892-0.129,1.145-0.302
				c0.324-0.222,0.608-0.501,0.86-0.798c0.46-0.542,0.811-1.171,1.088-1.818c0.333-0.779,0.659-1.769,0.517-2.618
				c-0.048-0.286-0.148-0.645-0.362-0.859c-0.228-0.228-0.55-0.093-0.785,0.049C225.097,215.724,224.828,215.895,224.565,216.082z"
				/>
			<path style="fill:#828219;" d="M227.688,214.838c1.143-0.116,2.225,0.021,3.211,0.618c0.497,0.301,0.94,0.687,1.301,1.134
				c0.185,0.229,0.349,0.473,0.488,0.731c0.102,0.19,0.331,0.523,0.285,0.747c-0.075,0.367-0.749,0.485-1.058,0.522
				c-0.394,0.047-0.798,0.025-1.19-0.031c-0.717-0.102-1.414-0.339-2.068-0.638c-0.788-0.359-1.717-0.881-2.201-1.601
				c-0.163-0.243-0.339-0.574-0.329-0.871c0.01-0.317,0.343-0.427,0.615-0.475C227.046,214.92,227.364,214.871,227.688,214.838z"/>
		</g>
		<g>
			<path style="fill:#828219;" d="M224.111,203.932c-1.12,0.195-2.104,0.617-2.855,1.46c-0.379,0.425-0.68,0.917-0.885,1.446
				c-0.105,0.271-0.185,0.551-0.237,0.838c-0.038,0.211-0.153,0.594-0.04,0.799c0.184,0.335,0.86,0.268,1.164,0.221
				c0.388-0.061,0.765-0.19,1.119-0.35c0.649-0.291,1.236-0.708,1.765-1.172c0.636-0.559,1.357-1.313,1.594-2.14
				c0.08-0.279,0.145-0.646,0.044-0.931c-0.107-0.304-0.457-0.321-0.729-0.294C224.745,203.838,224.428,203.877,224.111,203.932z"/>
			<path style="fill:#828219;" d="M227.464,204.154c1.081,0.387,1.999,0.977,2.632,1.941c0.319,0.486,0.552,1.025,0.686,1.584
				c0.068,0.286,0.111,0.577,0.125,0.87c0.01,0.215,0.073,0.614-0.065,0.797c-0.226,0.299-0.885,0.115-1.179,0.015
				c-0.376-0.128-0.731-0.322-1.061-0.541c-0.604-0.401-1.13-0.915-1.591-1.466c-0.556-0.664-1.17-1.535-1.296-2.393
				c-0.043-0.29-0.059-0.663,0.078-0.928c0.146-0.281,0.493-0.237,0.759-0.163C226.85,203.951,227.158,204.044,227.464,204.154z"/>
		</g>
		<g>
			<path style="fill:#828219;" d="M228.468,192.427c-1.135-0.052-2.188,0.148-3.103,0.808c-0.462,0.333-0.862,0.748-1.176,1.221
				c-0.161,0.242-0.3,0.499-0.413,0.767c-0.083,0.198-0.277,0.547-0.212,0.771c0.107,0.367,0.782,0.448,1.089,0.467
				c0.392,0.025,0.788-0.021,1.169-0.099c0.697-0.144,1.36-0.424,1.976-0.763c0.742-0.409,1.608-0.989,2.019-1.745
				c0.138-0.255,0.281-0.599,0.244-0.9c-0.039-0.32-0.377-0.412-0.648-0.445C229.108,192.473,228.79,192.442,228.468,192.427z"/>
			<path style="fill:#828219;" d="M231.694,193.369c0.972,0.612,1.741,1.386,2.15,2.464c0.207,0.543,0.318,1.12,0.327,1.695
				c0.005,0.294-0.017,0.588-0.066,0.876c-0.036,0.212-0.061,0.615-0.235,0.764c-0.285,0.243-0.889-0.079-1.155-0.24
				c-0.34-0.206-0.644-0.472-0.919-0.757c-0.503-0.522-0.905-1.138-1.237-1.775c-0.4-0.768-0.81-1.751-0.749-2.617
				c0.021-0.292,0.086-0.66,0.277-0.889c0.203-0.243,0.533-0.125,0.777,0.004C231.138,193.038,231.419,193.196,231.694,193.369z"/>
		</g>
		<g>
			<path style="fill:#828219;" d="M267.097,265.212c-1.094,0.203-2.059,0.633-2.804,1.477c-0.376,0.426-0.677,0.917-0.885,1.446
				c-0.107,0.27-0.189,0.55-0.244,0.835c-0.041,0.21-0.158,0.592-0.052,0.794c0.174,0.331,0.833,0.259,1.13,0.209
				c0.379-0.064,0.748-0.196,1.096-0.358c0.637-0.296,1.215-0.715,1.737-1.181c0.629-0.562,1.342-1.318,1.586-2.141
				c0.083-0.278,0.151-0.643,0.057-0.926c-0.1-0.301-0.44-0.315-0.705-0.286C267.716,265.113,267.407,265.154,267.097,265.212z"/>
			<path style="fill:#828219;" d="M270.36,265.402c1.047,0.375,1.932,0.953,2.533,1.905c0.303,0.48,0.522,1.013,0.643,1.568
				c0.062,0.284,0.099,0.573,0.108,0.863c0.007,0.214,0.062,0.61-0.076,0.792c-0.225,0.299-0.864,0.122-1.149,0.026
				c-0.364-0.123-0.707-0.313-1.025-0.528c-0.581-0.393-1.086-0.899-1.527-1.443c-0.531-0.655-1.115-1.515-1.225-2.367
				c-0.037-0.288-0.047-0.659,0.091-0.923c0.146-0.281,0.484-0.241,0.742-0.169C269.764,265.206,270.063,265.296,270.36,265.402z"/>
		</g>
		<g>
			<path style="fill:#828219;" d="M263.5,255.356c-0.853,0.714-1.483,1.563-1.717,2.664c-0.118,0.555-0.139,1.131-0.061,1.694
				c0.04,0.288,0.106,0.572,0.197,0.847c0.067,0.203,0.153,0.593,0.345,0.717c0.314,0.203,0.853-0.184,1.087-0.373
				c0.299-0.242,0.555-0.538,0.779-0.85c0.41-0.57,0.708-1.22,0.933-1.882c0.272-0.798,0.522-1.807,0.33-2.645
				c-0.065-0.283-0.184-0.634-0.405-0.835c-0.235-0.213-0.538-0.058-0.755,0.098C263.991,254.966,263.742,255.154,263.5,255.356z"/>
			<path style="fill:#828219;" d="M266.436,253.919c1.096-0.187,2.151-0.118,3.142,0.416c0.5,0.269,0.952,0.627,1.33,1.05
				c0.193,0.217,0.367,0.451,0.518,0.699c0.111,0.183,0.353,0.501,0.323,0.727c-0.049,0.371-0.693,0.531-0.988,0.587
				c-0.378,0.071-0.77,0.075-1.152,0.044c-0.699-0.057-1.387-0.25-2.038-0.507c-0.784-0.309-1.715-0.772-2.229-1.46
				c-0.174-0.232-0.364-0.551-0.374-0.849c-0.01-0.317,0.304-0.447,0.563-0.512C265.821,254.041,266.125,253.973,266.436,253.919z"
				/>
		</g>
		<g>
			<path style="fill:#828219;" d="M257.039,246.606c-0.853,0.715-1.483,1.563-1.717,2.664c-0.118,0.555-0.139,1.131-0.061,1.694
				c0.04,0.288,0.106,0.572,0.197,0.847c0.068,0.203,0.153,0.593,0.345,0.717c0.314,0.203,0.853-0.184,1.087-0.373
				c0.299-0.242,0.555-0.538,0.779-0.85c0.409-0.57,0.708-1.219,0.933-1.882c0.272-0.798,0.522-1.807,0.33-2.645
				c-0.065-0.283-0.184-0.634-0.405-0.835c-0.235-0.213-0.537-0.058-0.755,0.098C257.53,246.216,257.28,246.404,257.039,246.606z"/>
			<path style="fill:#828219;" d="M259.975,245.169c1.097-0.187,2.151-0.118,3.142,0.415c0.5,0.269,0.952,0.627,1.33,1.05
				c0.193,0.217,0.367,0.451,0.518,0.699c0.111,0.183,0.353,0.501,0.323,0.727c-0.049,0.371-0.693,0.531-0.988,0.587
				c-0.378,0.071-0.77,0.075-1.152,0.044c-0.7-0.057-1.388-0.25-2.039-0.507c-0.784-0.31-1.715-0.772-2.229-1.46
				c-0.174-0.232-0.364-0.551-0.374-0.849c-0.01-0.317,0.304-0.447,0.563-0.512C259.359,245.291,259.664,245.223,259.975,245.169z"
				/>
		</g>
		<g>
			<path style="fill:#828219;" d="M251.897,236.025c-0.967,0.55-1.738,1.272-2.165,2.314c-0.216,0.525-0.339,1.088-0.363,1.656
				c-0.012,0.29,0.002,0.581,0.043,0.869c0.03,0.212,0.045,0.611,0.211,0.767c0.273,0.256,0.872-0.028,1.136-0.173
				c0.337-0.184,0.642-0.43,0.918-0.697c0.505-0.488,0.914-1.073,1.255-1.685c0.41-0.737,0.836-1.685,0.797-2.543
				c-0.013-0.29-0.068-0.657-0.249-0.894c-0.193-0.252-0.518-0.153-0.76-0.039C252.45,235.729,252.171,235.869,251.897,236.025z"/>
			<path style="fill:#828219;" d="M255.042,235.136c1.112,0.012,2.137,0.268,3.017,0.971c0.444,0.354,0.825,0.787,1.121,1.271
				c0.151,0.248,0.281,0.509,0.385,0.78c0.077,0.2,0.258,0.556,0.188,0.773c-0.114,0.356-0.776,0.399-1.077,0.401
				c-0.384,0.003-0.77-0.064-1.141-0.163c-0.678-0.181-1.32-0.494-1.915-0.863c-0.716-0.445-1.549-1.066-1.932-1.835
				c-0.129-0.26-0.26-0.607-0.216-0.902c0.046-0.314,0.379-0.386,0.646-0.403C254.415,235.146,254.727,235.133,255.042,235.136z"/>
		</g>
		<g>
			<path style="fill:#828219;" d="M251.945,222.842c-1.094,0.203-2.059,0.632-2.804,1.476c-0.376,0.426-0.677,0.917-0.885,1.445
				c-0.107,0.27-0.189,0.55-0.245,0.835c-0.041,0.21-0.158,0.592-0.052,0.794c0.174,0.331,0.833,0.259,1.13,0.209
				c0.379-0.064,0.748-0.196,1.096-0.357c0.637-0.295,1.216-0.714,1.738-1.18c0.629-0.561,1.343-1.317,1.587-2.141
				c0.083-0.278,0.151-0.643,0.058-0.926c-0.1-0.301-0.439-0.315-0.705-0.286C252.564,222.743,252.255,222.784,251.945,222.842z"/>
			<path style="fill:#828219;" d="M255.208,223.034c1.047,0.376,1.931,0.954,2.532,1.906c0.303,0.48,0.521,1.014,0.642,1.568
				c0.062,0.284,0.098,0.573,0.108,0.863c0.007,0.214,0.061,0.61-0.076,0.792c-0.225,0.299-0.864,0.122-1.149,0.026
				c-0.364-0.124-0.707-0.313-1.025-0.528c-0.581-0.393-1.085-0.9-1.526-1.444c-0.531-0.655-1.114-1.515-1.224-2.368
				c-0.037-0.288-0.046-0.659,0.091-0.923c0.147-0.281,0.484-0.24,0.742-0.169C254.612,222.837,254.911,222.927,255.208,223.034z"/>
		</g>
		<g>
			<path style="fill:#828219;" d="M253.658,210.245c-1.094,0.203-2.059,0.632-2.804,1.476c-0.376,0.425-0.677,0.917-0.885,1.445
				c-0.107,0.27-0.189,0.55-0.245,0.835c-0.041,0.21-0.158,0.592-0.052,0.794c0.174,0.331,0.833,0.259,1.13,0.209
				c0.379-0.063,0.748-0.196,1.096-0.357c0.637-0.295,1.216-0.714,1.738-1.18c0.629-0.561,1.343-1.317,1.587-2.141
				c0.083-0.278,0.151-0.643,0.058-0.926c-0.1-0.301-0.439-0.315-0.705-0.286C254.278,210.146,253.968,210.187,253.658,210.245z"/>
			<path style="fill:#828219;" d="M256.921,210.437c1.047,0.376,1.931,0.954,2.532,1.906c0.303,0.48,0.521,1.014,0.642,1.568
				c0.062,0.284,0.098,0.573,0.108,0.863c0.007,0.214,0.061,0.61-0.076,0.792c-0.225,0.299-0.864,0.122-1.149,0.026
				c-0.364-0.124-0.707-0.313-1.025-0.528c-0.581-0.393-1.085-0.9-1.526-1.444c-0.531-0.655-1.114-1.515-1.224-2.368
				c-0.037-0.288-0.046-0.659,0.092-0.923c0.147-0.281,0.484-0.24,0.742-0.169C256.326,210.24,256.625,210.33,256.921,210.437z"/>
		</g>
		<g>
			<path style="fill:#828219;" d="M252.202,199.392c-0.972,0.541-1.75,1.255-2.188,2.292c-0.221,0.523-0.349,1.085-0.379,1.652
				c-0.015,0.29-0.004,0.581,0.034,0.869c0.028,0.212,0.038,0.612,0.204,0.77c0.27,0.258,0.872-0.02,1.138-0.161
				c0.339-0.181,0.646-0.424,0.925-0.688c0.51-0.483,0.925-1.064,1.271-1.673c0.417-0.732,0.853-1.676,0.823-2.535
				c-0.01-0.29-0.062-0.658-0.24-0.896c-0.19-0.253-0.517-0.158-0.76-0.046C252.758,199.101,252.477,199.238,252.202,199.392z"/>
			<path style="fill:#828219;" d="M255.356,198.534c1.112,0.023,2.134,0.289,3.007,1c0.44,0.359,0.817,0.795,1.108,1.282
				c0.149,0.249,0.276,0.512,0.377,0.784c0.075,0.201,0.252,0.558,0.18,0.775c-0.118,0.355-0.78,0.391-1.081,0.39
				c-0.385-0.001-0.77-0.072-1.139-0.174c-0.676-0.188-1.316-0.507-1.906-0.882c-0.712-0.452-1.539-1.081-1.914-1.854
				c-0.127-0.261-0.254-0.61-0.207-0.904c0.049-0.313,0.382-0.382,0.649-0.397C254.729,198.538,255.041,198.528,255.356,198.534z"/>
		</g>
		<g>
			<path style="fill:#828219;" d="M246.246,193.119c-0.562,0.96-0.87,1.97-0.72,3.086c0.076,0.563,0.25,1.112,0.513,1.615
				c0.134,0.257,0.292,0.503,0.471,0.731c0.132,0.168,0.344,0.507,0.566,0.559c0.364,0.085,0.741-0.46,0.898-0.717
				c0.2-0.328,0.341-0.694,0.447-1.062c0.194-0.675,0.256-1.387,0.245-2.086c-0.013-0.843-0.117-1.877-0.579-2.601
				c-0.156-0.244-0.387-0.535-0.662-0.65c-0.293-0.122-0.526,0.126-0.678,0.346C246.577,192.587,246.406,192.847,246.246,193.119z"
				/>
			<path style="fill:#828219;" d="M248.527,190.778c0.969-0.546,1.985-0.835,3.098-0.666c0.561,0.085,1.107,0.27,1.606,0.541
				c0.255,0.139,0.498,0.301,0.723,0.484c0.166,0.135,0.501,0.353,0.549,0.576c0.079,0.365-0.473,0.733-0.733,0.885
				c-0.332,0.194-0.699,0.329-1.07,0.429c-0.678,0.182-1.391,0.232-2.09,0.209c-0.842-0.027-1.875-0.15-2.591-0.625
				c-0.242-0.16-0.529-0.396-0.638-0.674c-0.117-0.295,0.135-0.523,0.358-0.672C247.989,191.1,248.253,190.933,248.527,190.778z"/>
		</g>
		<path style="fill:#5B1A31;" d="M264.824,281.724l-0.607-0.439c4.983-6.904,5.724-16.635,1.843-24.214
			c-1.447-2.825-3.496-5.382-5.478-7.855c-2.493-3.11-5.071-6.327-6.498-10.128c-2.204-5.877-1.441-12.229-0.388-18.763l0.09-0.559
			c0.965-5.969,1.962-12.141,0.346-17.914c-1.681-6.006-7.17-11.833-13.125-10.765l-0.133-0.738
			c6.361-1.141,12.211,4.978,13.98,11.301c1.661,5.932,0.649,12.187-0.327,18.236l-0.091,0.559
			c-1.036,6.431-1.789,12.675,0.351,18.38c1.384,3.689,3.924,6.858,6.38,9.923c2.005,2.501,4.078,5.088,5.561,7.981
			C270.733,264.552,269.969,274.597,264.824,281.724z"/>
		<path style="fill:#968E29;" d="M269.315,233.688c-0.631,0.916-1.011,1.902-0.943,3.025c0.034,0.567,0.169,1.127,0.394,1.648
			c0.115,0.267,0.254,0.523,0.417,0.764c0.119,0.178,0.306,0.531,0.524,0.599c0.357,0.111,0.773-0.405,0.948-0.65
			c0.224-0.313,0.391-0.667,0.523-1.027c0.242-0.659,0.356-1.364,0.396-2.063c0.049-0.842,0.02-1.881-0.388-2.636
			c-0.138-0.255-0.347-0.562-0.613-0.696c-0.283-0.143-0.533,0.088-0.701,0.296C269.684,233.18,269.494,233.428,269.315,233.688z"/>
		<g>
			<path style="fill:#968E29;" d="M244.585,318.243c-1.082-0.258-2.138-0.258-3.162,0.21c-0.516,0.236-0.991,0.563-1.396,0.961
				c-0.207,0.204-0.396,0.426-0.562,0.664c-0.123,0.175-0.385,0.477-0.37,0.705c0.025,0.373,0.656,0.575,0.947,0.65
				c0.372,0.096,0.763,0.125,1.147,0.118c0.702-0.011,1.401-0.159,2.067-0.373c0.803-0.258,1.762-0.659,2.32-1.312
				c0.188-0.221,0.399-0.526,0.429-0.823c0.031-0.316-0.274-0.466-0.529-0.548C245.191,318.405,244.892,318.317,244.585,318.243z"/>
			<path style="fill:#968E29;" d="M247.489,319.743c0.804,0.768,1.378,1.656,1.54,2.77c0.082,0.562,0.065,1.138-0.05,1.694
				c-0.058,0.284-0.143,0.564-0.252,0.833c-0.081,0.198-0.191,0.582-0.391,0.693c-0.327,0.182-0.839-0.239-1.06-0.443
				c-0.283-0.261-0.519-0.573-0.722-0.899c-0.372-0.596-0.627-1.263-0.809-1.939c-0.219-0.814-0.403-1.837-0.157-2.66
				c0.083-0.278,0.225-0.621,0.458-0.807c0.248-0.197,0.54-0.023,0.747,0.147C247.025,319.322,247.261,319.526,247.489,319.743z"/>
		</g>
		<g>
			<path style="fill:#968E29;" d="M249.002,310.525c-1.088-0.231-2.144-0.204-3.156,0.29c-0.51,0.249-0.976,0.588-1.371,0.997
				c-0.202,0.209-0.385,0.436-0.546,0.678c-0.118,0.178-0.373,0.486-0.352,0.714c0.034,0.372,0.671,0.558,0.964,0.626
				c0.375,0.086,0.766,0.105,1.149,0.089c0.701-0.029,1.396-0.195,2.057-0.426c0.796-0.278,1.744-0.703,2.286-1.37
				c0.183-0.225,0.386-0.536,0.408-0.833c0.023-0.316-0.286-0.459-0.542-0.534C249.612,310.671,249.311,310.59,249.002,310.525z"/>
			<path style="fill:#968E29;" d="M251.943,311.95c0.824,0.748,1.419,1.62,1.61,2.73c0.096,0.56,0.094,1.136-0.007,1.695
				c-0.051,0.286-0.128,0.567-0.231,0.839c-0.076,0.2-0.177,0.587-0.373,0.703c-0.322,0.19-0.845-0.218-1.071-0.416
				c-0.289-0.254-0.533-0.56-0.744-0.88c-0.386-0.586-0.658-1.247-0.857-1.918c-0.24-0.808-0.449-1.826-0.225-2.656
				c0.076-0.28,0.209-0.627,0.438-0.818c0.243-0.204,0.54-0.037,0.75,0.128C251.468,311.541,251.71,311.738,251.943,311.95z"/>
		</g>
		<g>
			<path style="fill:#968E29;" d="M248.991,300.14c-1.038,0.399-1.909,0.997-2.488,1.963c-0.292,0.487-0.498,1.025-0.607,1.583
				c-0.055,0.285-0.085,0.575-0.088,0.865c-0.002,0.214-0.048,0.611,0.094,0.79c0.231,0.294,0.867,0.103,1.149,0
				c0.361-0.132,0.7-0.329,1.012-0.551c0.572-0.406,1.065-0.924,1.493-1.478c0.516-0.667,1.08-1.54,1.17-2.395
				c0.031-0.288,0.031-0.66-0.112-0.921c-0.153-0.278-0.49-0.229-0.746-0.152C249.582,299.93,249.285,300.026,248.991,300.14z"/>
			<path style="fill:#968E29;" d="M252.234,299.733c1.098,0.178,2.073,0.586,2.837,1.412c0.385,0.417,0.697,0.902,0.918,1.425
				c0.113,0.268,0.201,0.545,0.263,0.829c0.046,0.209,0.172,0.588,0.07,0.793c-0.166,0.335-0.827,0.278-1.125,0.235
				c-0.381-0.055-0.752-0.179-1.104-0.332c-0.643-0.281-1.231-0.687-1.764-1.141c-0.641-0.547-1.372-1.286-1.635-2.104
				c-0.089-0.276-0.166-0.64-0.078-0.924c0.093-0.303,0.432-0.325,0.699-0.302C251.613,299.648,251.923,299.682,252.234,299.733z"/>
		</g>
		<g>
			<path style="fill:#968E29;" d="M245.036,290.213c-0.93,0.611-1.654,1.38-2.014,2.447c-0.182,0.538-0.269,1.108-0.257,1.675
				c0.006,0.29,0.039,0.58,0.098,0.865c0.043,0.209,0.083,0.607,0.259,0.752c0.288,0.238,0.869-0.084,1.123-0.245
				c0.325-0.206,0.614-0.47,0.872-0.754c0.473-0.519,0.844-1.129,1.145-1.761c0.362-0.761,0.728-1.734,0.634-2.588
				c-0.031-0.288-0.11-0.651-0.305-0.876c-0.208-0.239-0.527-0.12-0.761,0.009C245.568,289.883,245.299,290.04,245.036,290.213z"/>
			<path style="fill:#968E29;" d="M248.118,289.127c1.111-0.059,2.15,0.132,3.072,0.777c0.465,0.326,0.873,0.733,1.2,1.197
				c0.167,0.238,0.313,0.49,0.434,0.754c0.089,0.194,0.293,0.538,0.237,0.76c-0.091,0.363-0.749,0.447-1.049,0.468
				c-0.383,0.027-0.773-0.015-1.149-0.09c-0.688-0.138-1.349-0.409-1.966-0.74c-0.743-0.398-1.614-0.966-2.045-1.709
				c-0.145-0.251-0.298-0.59-0.273-0.887c0.026-0.316,0.353-0.409,0.619-0.443C247.493,289.176,247.803,289.143,248.118,289.127z"/>
		</g>
		<g>
			<path style="fill:#968E29;" d="M240.204,270.25c-1.069,0.309-1.987,0.83-2.647,1.743c-0.333,0.46-0.584,0.979-0.74,1.525
				c-0.08,0.279-0.134,0.566-0.162,0.855c-0.02,0.213-0.1,0.605,0.026,0.796c0.205,0.312,0.855,0.176,1.145,0.098
				c0.371-0.1,0.725-0.268,1.056-0.463c0.605-0.356,1.14-0.83,1.614-1.345c0.571-0.62,1.207-1.442,1.37-2.286
				c0.055-0.285,0.088-0.655-0.033-0.927c-0.129-0.29-0.468-0.27-0.73-0.216C240.81,270.091,240.507,270.162,240.204,270.25z"/>
			<path style="fill:#968E29;" d="M243.47,270.121c1.079,0.272,2.015,0.76,2.706,1.649c0.348,0.448,0.618,0.958,0.792,1.498
				c0.089,0.276,0.154,0.561,0.192,0.849c0.028,0.212,0.121,0.601,0.002,0.796c-0.194,0.319-0.848,0.206-1.141,0.138
				c-0.374-0.087-0.734-0.243-1.071-0.425c-0.617-0.335-1.168-0.789-1.66-1.287c-0.592-0.6-1.257-1.399-1.449-2.236
				c-0.065-0.283-0.111-0.651,0.001-0.928c0.118-0.294,0.458-0.287,0.722-0.241C242.858,269.984,243.164,270.044,243.47,270.121z"/>
		</g>
		<g>
			<path style="fill:#968E29;" d="M240.889,280.515c-0.964,0.556-1.731,1.281-2.153,2.325c-0.213,0.526-0.333,1.09-0.354,1.658
				c-0.011,0.29,0.005,0.581,0.047,0.869c0.031,0.212,0.048,0.611,0.215,0.766c0.274,0.254,0.872-0.033,1.135-0.179
				c0.337-0.186,0.64-0.434,0.915-0.702c0.502-0.49,0.909-1.078,1.246-1.691c0.406-0.739,0.828-1.689,0.784-2.547
				c-0.015-0.29-0.072-0.657-0.254-0.892c-0.194-0.251-0.519-0.15-0.76-0.035C241.44,280.216,241.162,280.358,240.889,280.515z"/>
			<path style="fill:#968E29;" d="M244.03,279.61c1.112,0.006,2.139,0.257,3.022,0.955c0.445,0.352,0.829,0.782,1.128,1.265
				c0.153,0.247,0.283,0.508,0.389,0.778c0.078,0.199,0.261,0.555,0.192,0.772c-0.112,0.357-0.774,0.403-1.075,0.406
				c-0.385,0.005-0.771-0.06-1.142-0.157c-0.679-0.177-1.323-0.487-1.92-0.853c-0.718-0.441-1.555-1.058-1.942-1.825
				c-0.131-0.259-0.263-0.606-0.221-0.901c0.045-0.314,0.377-0.388,0.643-0.406C243.403,279.623,243.714,279.609,244.03,279.61z"/>
		</g>
		<g>
			<path style="fill:#968E29;" d="M243.316,256.782c-1.11,0.072-2.12,0.383-2.96,1.132c-0.424,0.378-0.781,0.83-1.051,1.33
				c-0.138,0.255-0.253,0.523-0.342,0.8c-0.066,0.204-0.228,0.569-0.146,0.782c0.133,0.349,0.797,0.356,1.097,0.342
				c0.384-0.018,0.766-0.106,1.131-0.224c0.667-0.217,1.292-0.565,1.866-0.965c0.691-0.483,1.49-1.148,1.831-1.937
				c0.115-0.266,0.227-0.621,0.167-0.913c-0.063-0.311-0.399-0.365-0.666-0.368C243.942,256.757,243.63,256.761,243.316,256.782z"/>
			<path style="fill:#968E29;" d="M246.533,257.36c0.995,0.498,1.804,1.177,2.287,2.194c0.244,0.513,0.397,1.068,0.451,1.634
				c0.028,0.289,0.03,0.581,0.004,0.87c-0.019,0.213-0.011,0.613-0.169,0.778c-0.259,0.27-0.873,0.018-1.144-0.111
				c-0.347-0.166-0.664-0.395-0.954-0.646c-0.53-0.46-0.971-1.022-1.344-1.615c-0.449-0.713-0.926-1.637-0.934-2.496
				c-0.003-0.29,0.033-0.66,0.201-0.906c0.179-0.262,0.51-0.181,0.757-0.08C245.965,257.094,246.251,257.219,246.533,257.36z"/>
		</g>
		<g>
			<path style="fill:#968E29;" d="M246.438,244.531c-1.11,0.072-2.12,0.383-2.96,1.132c-0.424,0.378-0.781,0.83-1.051,1.33
				c-0.138,0.256-0.253,0.523-0.342,0.8c-0.066,0.204-0.227,0.569-0.146,0.782c0.133,0.349,0.797,0.356,1.097,0.342
				c0.384-0.018,0.766-0.106,1.131-0.224c0.667-0.217,1.292-0.565,1.866-0.965c0.691-0.483,1.49-1.148,1.83-1.937
				c0.115-0.266,0.227-0.621,0.167-0.912c-0.063-0.311-0.399-0.365-0.666-0.368C247.064,244.507,246.752,244.511,246.438,244.531z"
				/>
			<path style="fill:#968E29;" d="M249.655,245.11c0.995,0.498,1.804,1.177,2.287,2.194c0.244,0.513,0.397,1.068,0.451,1.634
				c0.028,0.289,0.03,0.581,0.004,0.87c-0.019,0.213-0.012,0.613-0.17,0.778c-0.259,0.27-0.872,0.019-1.144-0.111
				c-0.347-0.166-0.665-0.395-0.954-0.646c-0.53-0.46-0.971-1.023-1.344-1.615c-0.449-0.713-0.926-1.637-0.933-2.496
				c-0.003-0.29,0.033-0.66,0.201-0.906c0.179-0.262,0.509-0.181,0.757-0.08C249.087,244.844,249.373,244.969,249.655,245.11z"/>
		</g>
		<g>
			<path style="fill:#968E29;" d="M246.465,231.551c-1.013,0.46-1.847,1.109-2.368,2.107c-0.263,0.503-0.437,1.053-0.512,1.616
				c-0.038,0.288-0.051,0.579-0.037,0.869c0.011,0.214-0.011,0.613,0.14,0.784c0.248,0.279,0.871,0.051,1.147-0.068
				c0.353-0.153,0.679-0.37,0.978-0.61c0.547-0.439,1.008-0.985,1.403-1.563c0.475-0.696,0.987-1.601,1.026-2.46
				c0.013-0.29-0.008-0.661-0.167-0.913c-0.169-0.268-0.502-0.2-0.753-0.108C247.042,231.307,246.752,231.421,246.465,231.551z"/>
			<path style="fill:#968E29;" d="M249.678,230.953c1.107,0.113,2.104,0.462,2.916,1.242c0.409,0.393,0.75,0.859,1,1.368
				c0.128,0.26,0.233,0.533,0.312,0.812c0.058,0.206,0.206,0.577,0.117,0.787c-0.146,0.344-0.809,0.326-1.109,0.301
				c-0.383-0.032-0.761-0.134-1.121-0.266c-0.659-0.242-1.27-0.613-1.828-1.035c-0.673-0.508-1.446-1.203-1.757-2.004
				c-0.105-0.27-0.203-0.629-0.133-0.918c0.075-0.308,0.412-0.35,0.68-0.342C249.053,230.906,249.364,230.921,249.678,230.953z"/>
		</g>
		<g>
			<path style="fill:#968E29;" d="M241.922,217.954c-0.918,0.629-1.626,1.412-1.966,2.486c-0.171,0.541-0.247,1.113-0.224,1.68
				c0.012,0.29,0.05,0.579,0.115,0.862c0.048,0.208,0.095,0.605,0.274,0.747c0.293,0.232,0.867-0.101,1.118-0.266
				c0.321-0.212,0.604-0.482,0.857-0.771c0.463-0.528,0.822-1.146,1.11-1.783c0.347-0.768,0.694-1.748,0.584-2.6
				c-0.037-0.288-0.122-0.649-0.323-0.87c-0.213-0.235-0.529-0.11-0.761,0.024C242.448,217.613,242.182,217.776,241.922,217.954z"/>
			<path style="fill:#968E29;" d="M244.983,216.807c1.109-0.081,2.152,0.09,3.087,0.717c0.472,0.316,0.887,0.716,1.223,1.174
				c0.172,0.234,0.322,0.484,0.448,0.745c0.093,0.193,0.303,0.533,0.252,0.755c-0.084,0.364-0.74,0.462-1.04,0.489
				c-0.383,0.035-0.773,0-1.151-0.068c-0.691-0.124-1.357-0.383-1.98-0.701c-0.751-0.384-1.632-0.934-2.078-1.669
				c-0.15-0.248-0.309-0.584-0.29-0.881c0.02-0.316,0.345-0.416,0.61-0.455C244.359,216.869,244.668,216.83,244.983,216.807z"/>
		</g>
		<g>
			<path style="fill:#968E29;" d="M237.816,207.759c-0.918,0.629-1.626,1.412-1.966,2.486c-0.171,0.541-0.247,1.113-0.224,1.68
				c0.012,0.29,0.05,0.579,0.115,0.862c0.048,0.209,0.095,0.605,0.274,0.747c0.293,0.232,0.867-0.101,1.118-0.266
				c0.321-0.212,0.604-0.482,0.857-0.771c0.463-0.528,0.822-1.146,1.11-1.783c0.347-0.768,0.694-1.748,0.584-2.6
				c-0.037-0.288-0.122-0.649-0.322-0.87c-0.213-0.235-0.529-0.11-0.761,0.024C238.343,207.418,238.076,207.581,237.816,207.759z"/>
			<path style="fill:#968E29;" d="M240.877,206.613c1.109-0.081,2.152,0.09,3.087,0.717c0.471,0.316,0.887,0.716,1.223,1.174
				c0.172,0.234,0.322,0.484,0.448,0.746c0.093,0.193,0.303,0.533,0.252,0.755c-0.084,0.364-0.74,0.462-1.04,0.489
				c-0.383,0.035-0.773,0-1.151-0.068c-0.691-0.124-1.357-0.383-1.98-0.701c-0.751-0.384-1.633-0.934-2.078-1.669
				c-0.15-0.248-0.309-0.584-0.29-0.881c0.02-0.316,0.345-0.416,0.61-0.455C240.253,206.674,240.563,206.635,240.877,206.613z"/>
		</g>
		<g>
			<path style="fill:#968E29;" d="M235.121,196.231c-1.06,0.336-1.966,0.88-2.602,1.809c-0.321,0.469-0.559,0.993-0.701,1.543
				c-0.072,0.281-0.12,0.569-0.14,0.859c-0.015,0.213-0.084,0.607,0.046,0.795c0.213,0.307,0.859,0.155,1.147,0.069
				c0.368-0.11,0.718-0.286,1.044-0.489c0.596-0.371,1.119-0.858,1.579-1.385c0.555-0.635,1.171-1.472,1.312-2.32
				c0.048-0.286,0.071-0.657-0.057-0.926c-0.136-0.286-0.475-0.258-0.735-0.197C235.724,196.057,235.422,196.135,235.121,196.231z"
				/>
			<path style="fill:#968E29;" d="M238.383,196.02c1.085,0.244,2.034,0.709,2.747,1.581c0.36,0.439,0.642,0.942,0.83,1.477
				c0.096,0.274,0.168,0.557,0.213,0.844c0.033,0.211,0.136,0.598,0.022,0.796c-0.186,0.324-0.842,0.227-1.137,0.167
				c-0.377-0.078-0.74-0.224-1.082-0.398c-0.625-0.319-1.188-0.76-1.692-1.245c-0.607-0.585-1.292-1.367-1.505-2.199
				c-0.072-0.281-0.127-0.648-0.023-0.928c0.111-0.297,0.451-0.298,0.716-0.259C237.768,195.898,238.075,195.951,238.383,196.02z"/>
		</g>
		<path style="fill:#5B1A31;" d="M242.271,324.441l-0.566-0.491c3.564-4.111,7.999-9.228,9.04-15.299
			c1.119-6.537-1.652-12.564-4.587-18.944c-2.274-4.944-4.627-10.058-5.006-15.445c-0.414-5.875,1.547-11.553,3.442-17.044
			c0.953-2.759,1.938-5.611,2.609-8.454c1.64-6.941,1.498-14.239-0.409-21.107c-1.033-3.723-2.596-7.348-4.107-10.853
			c-1.26-2.923-2.563-5.946-3.563-9.028c-0.292-0.898-0.585-1.751-0.867-2.568c-1.871-5.429-3.223-9.352,0.121-14.744l0.637,0.395
			c-3.155,5.09-1.853,8.871-0.049,14.104c0.283,0.822,0.578,1.679,0.871,2.581c0.989,3.049,2.285,6.056,3.539,8.963
			c1.52,3.528,3.094,7.176,4.141,10.949c1.941,6.989,2.085,14.417,0.417,21.48c-0.681,2.879-1.672,5.75-2.631,8.526
			c-1.871,5.42-3.807,11.024-3.403,16.746c0.37,5.252,2.692,10.302,4.939,15.185c2.854,6.204,5.804,12.618,4.645,19.385
			C250.407,315.055,245.896,320.26,242.271,324.441z"/>
		<path style="fill:#968E29;" d="M241.08,323.674c-1.098,0.177-2.073,0.584-2.838,1.41c-0.386,0.417-0.698,0.901-0.919,1.424
			c-0.113,0.268-0.202,0.545-0.264,0.829c-0.046,0.209-0.172,0.588-0.071,0.793c0.166,0.335,0.827,0.279,1.124,0.236
			c0.381-0.055,0.752-0.178,1.104-0.331c0.643-0.28,1.232-0.686,1.765-1.139c0.642-0.547,1.373-1.285,1.637-2.103
			c0.089-0.276,0.166-0.639,0.079-0.924c-0.093-0.303-0.432-0.325-0.698-0.302C241.701,323.59,241.391,323.624,241.08,323.674z"/>
		<g>
			<path style="fill:#968E29;" d="M206.291,286.526c-0.868,0.696-1.516,1.53-1.774,2.626c-0.13,0.553-0.163,1.128-0.097,1.692
				c0.034,0.288,0.093,0.574,0.179,0.851c0.063,0.204,0.14,0.597,0.329,0.725c0.31,0.21,0.857-0.166,1.095-0.35
				c0.304-0.235,0.566-0.526,0.797-0.833c0.422-0.561,0.734-1.204,0.973-1.862c0.289-0.792,0.561-1.795,0.387-2.637
				c-0.059-0.284-0.171-0.638-0.387-0.843c-0.23-0.218-0.536-0.07-0.757,0.082C206.79,286.147,206.537,286.329,206.291,286.526z"/>
			<path style="fill:#968E29;" d="M209.257,285.153c1.1-0.164,2.153-0.072,3.132,0.483c0.494,0.28,0.939,0.647,1.307,1.078
				c0.189,0.221,0.358,0.458,0.503,0.71c0.107,0.185,0.342,0.508,0.308,0.734c-0.057,0.37-0.704,0.516-1,0.566
				c-0.379,0.063-0.771,0.058-1.153,0.019c-0.698-0.072-1.382-0.28-2.027-0.551c-0.777-0.326-1.698-0.809-2.197-1.508
				c-0.169-0.236-0.352-0.559-0.356-0.857c-0.004-0.317,0.313-0.441,0.574-0.5C208.639,285.261,208.945,285.199,209.257,285.153z"/>
		</g>
		<g>
			<path style="fill:#968E29;" d="M208.577,273.541c-1.112-0.011-2.142,0.225-3.036,0.909c-0.451,0.345-0.84,0.77-1.147,1.248
				c-0.156,0.245-0.291,0.503-0.4,0.772c-0.081,0.198-0.269,0.551-0.204,0.769c0.107,0.358,0.768,0.414,1.068,0.423
				c0.384,0.011,0.772-0.048,1.144-0.14c0.682-0.167,1.33-0.467,1.932-0.824c0.725-0.43,1.571-1.035,1.969-1.796
				c0.134-0.257,0.272-0.602,0.234-0.898c-0.04-0.314-0.371-0.393-0.637-0.416C209.204,273.563,208.892,273.544,208.577,273.541z"/>
			<path style="fill:#968E29;" d="M211.742,274.356c0.955,0.57,1.712,1.307,2.118,2.357c0.205,0.53,0.317,1.095,0.329,1.663
				c0.006,0.29-0.014,0.581-0.06,0.868c-0.034,0.211-0.057,0.61-0.227,0.763c-0.278,0.25-0.872-0.046-1.132-0.196
				c-0.334-0.191-0.633-0.443-0.904-0.715c-0.495-0.498-0.892-1.092-1.22-1.71c-0.395-0.745-0.802-1.701-0.746-2.559
				c0.019-0.289,0.081-0.656,0.267-0.888c0.198-0.248,0.521-0.143,0.761-0.023C211.195,274.049,211.471,274.195,211.742,274.356z"/>
		</g>
		<g>
			<path style="fill:#968E29;" d="M213.428,262.955c-1.112-0.011-2.142,0.225-3.036,0.909c-0.451,0.345-0.841,0.77-1.147,1.248
				c-0.157,0.245-0.291,0.503-0.4,0.772c-0.081,0.198-0.269,0.551-0.204,0.769c0.107,0.358,0.768,0.414,1.069,0.423
				c0.384,0.01,0.772-0.048,1.144-0.14c0.682-0.167,1.33-0.467,1.932-0.824c0.725-0.43,1.571-1.034,1.969-1.796
				c0.135-0.257,0.272-0.602,0.235-0.898c-0.04-0.314-0.371-0.393-0.637-0.416C214.055,262.978,213.743,262.958,213.428,262.955z"/>
			<path style="fill:#968E29;" d="M216.593,263.771c0.955,0.57,1.712,1.307,2.118,2.357c0.205,0.53,0.317,1.095,0.329,1.663
				c0.006,0.29-0.014,0.581-0.06,0.868c-0.035,0.211-0.057,0.61-0.227,0.763c-0.278,0.25-0.871-0.046-1.132-0.196
				c-0.334-0.191-0.633-0.443-0.904-0.715c-0.495-0.498-0.892-1.092-1.22-1.71c-0.395-0.745-0.802-1.701-0.746-2.559
				c0.019-0.289,0.081-0.656,0.267-0.888c0.198-0.248,0.521-0.143,0.761-0.023C216.047,263.464,216.322,263.609,216.593,263.771z"/>
		</g>
		<g>
			<path style="fill:#968E29;" d="M215.964,250.185c-1.084,0.248-2.031,0.717-2.741,1.591c-0.358,0.441-0.638,0.944-0.825,1.481
				c-0.095,0.274-0.166,0.557-0.21,0.844c-0.032,0.212-0.134,0.598-0.019,0.796c0.188,0.324,0.843,0.224,1.137,0.162
				c0.376-0.079,0.739-0.227,1.08-0.402c0.624-0.321,1.185-0.764,1.687-1.251c0.605-0.587,1.287-1.372,1.497-2.205
				c0.071-0.281,0.124-0.649,0.019-0.928c-0.112-0.297-0.452-0.296-0.717-0.256C216.579,250.061,216.271,250.115,215.964,250.185z"
				/>
			<path style="fill:#968E29;" d="M219.232,250.242c1.062,0.332,1.969,0.873,2.609,1.799c0.323,0.467,0.563,0.991,0.707,1.54
				c0.074,0.281,0.122,0.568,0.143,0.858c0.016,0.213,0.087,0.607-0.043,0.795c-0.212,0.308-0.858,0.158-1.147,0.073
				c-0.369-0.108-0.719-0.284-1.046-0.485c-0.597-0.369-1.122-0.854-1.585-1.379c-0.557-0.632-1.176-1.468-1.321-2.315
				c-0.049-0.286-0.074-0.657,0.053-0.926c0.135-0.287,0.474-0.26,0.734-0.2C218.629,250.07,218.931,250.147,219.232,250.242z"/>
		</g>
		<g>
			<path style="fill:#968E29;" d="M214.085,237.063c-1.037,0.403-1.906,1.004-2.482,1.971c-0.29,0.488-0.495,1.027-0.602,1.585
				c-0.055,0.285-0.084,0.575-0.085,0.866c-0.001,0.214-0.046,0.611,0.096,0.79c0.232,0.293,0.867,0.1,1.149-0.004
				c0.361-0.133,0.699-0.331,1.01-0.555c0.571-0.408,1.062-0.928,1.488-1.483c0.514-0.668,1.075-1.544,1.162-2.398
				c0.029-0.288,0.029-0.66-0.115-0.921c-0.154-0.277-0.49-0.228-0.746-0.15C214.675,236.852,214.378,236.949,214.085,237.063z"/>
			<path style="fill:#968E29;" d="M217.326,236.646c1.099,0.175,2.075,0.579,2.842,1.403c0.387,0.416,0.7,0.899,0.922,1.422
				c0.113,0.267,0.203,0.545,0.266,0.828c0.046,0.209,0.174,0.588,0.073,0.793c-0.165,0.335-0.826,0.281-1.124,0.238
				c-0.381-0.054-0.753-0.176-1.105-0.329c-0.644-0.279-1.234-0.683-1.768-1.135c-0.643-0.545-1.376-1.282-1.642-2.099
				c-0.09-0.276-0.168-0.639-0.081-0.924c0.092-0.303,0.431-0.326,0.698-0.304C216.705,236.563,217.015,236.596,217.326,236.646z"/>
		</g>
		<g>
			<path style="fill:#968E29;" d="M210.355,223.1c-1.037,0.403-1.906,1.003-2.482,1.971c-0.29,0.488-0.495,1.027-0.601,1.584
				c-0.055,0.285-0.084,0.575-0.085,0.866c-0.001,0.214-0.046,0.611,0.096,0.79c0.232,0.293,0.867,0.1,1.149-0.004
				c0.361-0.133,0.698-0.331,1.01-0.555c0.571-0.408,1.062-0.928,1.488-1.483c0.514-0.668,1.075-1.544,1.162-2.398
				c0.03-0.288,0.029-0.66-0.115-0.921c-0.154-0.277-0.49-0.228-0.746-0.15C210.945,222.888,210.649,222.986,210.355,223.1z"/>
			<path style="fill:#968E29;" d="M213.597,222.683c1.099,0.175,2.075,0.579,2.842,1.403c0.387,0.416,0.7,0.899,0.922,1.422
				c0.114,0.267,0.203,0.545,0.266,0.828c0.046,0.209,0.173,0.588,0.073,0.793c-0.165,0.335-0.826,0.281-1.124,0.238
				c-0.381-0.054-0.753-0.176-1.105-0.329c-0.644-0.279-1.234-0.682-1.768-1.135c-0.643-0.545-1.376-1.282-1.642-2.099
				c-0.09-0.276-0.168-0.639-0.082-0.924c0.092-0.303,0.431-0.326,0.698-0.304C212.975,222.6,213.285,222.633,213.597,222.683z"/>
		</g>
		<g>
			<path style="fill:#968E29;" d="M209.808,209.611c-1.1,0.164-2.08,0.558-2.855,1.375c-0.391,0.412-0.709,0.892-0.936,1.413
				c-0.116,0.266-0.209,0.543-0.274,0.826c-0.048,0.208-0.179,0.586-0.08,0.792c0.162,0.337,0.824,0.289,1.122,0.249
				c0.381-0.05,0.754-0.169,1.108-0.318c0.647-0.272,1.24-0.67,1.779-1.118c0.648-0.539,1.389-1.268,1.663-2.083
				c0.092-0.275,0.174-0.637,0.091-0.923c-0.089-0.304-0.428-0.33-0.695-0.311C210.431,209.535,210.12,209.565,209.808,209.611z"/>
			<path style="fill:#968E29;" d="M213.062,209.919c1.033,0.413,1.896,1.022,2.462,1.995c0.286,0.491,0.485,1.032,0.586,1.59
				c0.052,0.286,0.078,0.576,0.077,0.867c-0.001,0.214,0.04,0.611-0.104,0.789c-0.235,0.291-0.868,0.091-1.149-0.015
				c-0.359-0.136-0.695-0.338-1.005-0.564c-0.567-0.414-1.053-0.938-1.474-1.497c-0.507-0.673-1.059-1.554-1.138-2.41
				c-0.027-0.289-0.023-0.66,0.124-0.919c0.157-0.276,0.493-0.223,0.748-0.143C212.474,209.702,212.769,209.802,213.062,209.919z"/>
		</g>
		<g>
			<path style="fill:#968E29;" d="M213.363,197.652c-1.112-0.016-2.143,0.214-3.04,0.894c-0.452,0.343-0.844,0.766-1.153,1.242
				c-0.158,0.244-0.294,0.502-0.404,0.77c-0.082,0.198-0.272,0.549-0.208,0.768c0.105,0.359,0.766,0.418,1.066,0.428
				c0.384,0.012,0.772-0.045,1.145-0.134c0.682-0.164,1.333-0.46,1.936-0.814c0.727-0.426,1.576-1.027,1.978-1.786
				c0.136-0.256,0.275-0.601,0.239-0.896c-0.038-0.315-0.369-0.395-0.635-0.419C213.99,197.678,213.678,197.657,213.363,197.652z"/>
			<path style="fill:#968E29;" d="M216.524,198.484c0.952,0.575,1.705,1.316,2.106,2.368c0.202,0.53,0.311,1.097,0.32,1.664
				c0.005,0.29-0.016,0.581-0.065,0.868c-0.036,0.211-0.06,0.61-0.231,0.762c-0.279,0.249-0.871-0.051-1.131-0.202
				c-0.333-0.193-0.631-0.446-0.9-0.72c-0.492-0.5-0.887-1.096-1.211-1.716c-0.391-0.747-0.793-1.705-0.733-2.562
				c0.02-0.289,0.085-0.655,0.272-0.887c0.199-0.247,0.522-0.14,0.761-0.02C215.979,198.174,216.254,198.321,216.524,198.484z"/>
		</g>
		<path style="fill:#5B1A31;" d="M230.918,281.361c-2.159-3.228-1.508-7.213-0.928-9.302c0.566-2.036,1.468-3.974,2.34-5.847
			c0.432-0.927,0.864-1.854,1.258-2.796c3.645-8.72,3.881-18.812,0.647-27.69c-0.969-2.661-2.254-5.252-3.497-7.759
			c-1.26-2.54-2.562-5.167-3.548-7.884c-5.097-14.062-0.564-24.625,5.376-29.822l0.494,0.564
			c-5.754,5.034-10.133,15.295-5.165,29.002c0.971,2.678,2.264,5.286,3.515,7.807c1.252,2.525,2.548,5.136,3.53,7.835
			c3.297,9.053,3.056,19.345-0.661,28.236c-0.397,0.951-0.833,1.888-1.269,2.823c-0.859,1.846-1.748,3.754-2.297,5.731
			c-0.546,1.965-1.164,5.705,0.828,8.683L230.918,281.361z"/>
		<path style="fill:#828219;" d="M230.336,281.969c-0.124,1.105,0.006,2.154,0.596,3.112c0.298,0.483,0.68,0.914,1.125,1.268
			c0.227,0.18,0.471,0.341,0.728,0.477c0.189,0.1,0.52,0.324,0.745,0.281c0.367-0.07,0.49-0.722,0.529-1.02
			c0.05-0.381,0.03-0.772-0.023-1.152c-0.097-0.695-0.33-1.371-0.624-2.006c-0.354-0.765-0.87-1.668-1.586-2.141
			c-0.242-0.16-0.571-0.332-0.869-0.324c-0.317,0.008-0.429,0.329-0.479,0.591C230.422,281.348,230.371,281.656,230.336,281.969z"/>
		<path style="fill:#5B1A31;" d="M211.812,294.875c-5.032-4.884-4.619-13.081-2.555-19.123c0.901-2.643,2.1-5.217,3.258-7.706
			c1.605-3.45,3.266-7.018,4.125-10.762c1.846-8.04,0.016-16.383-2.194-24.936l-0.193-0.747c-2.07-7.999-4.211-16.269-2.978-24.484
			c0.935-6.219,5.037-12.974,9.543-15.71c2.245-1.364,4.532-1.708,6.606-0.998l-0.242,0.71c-1.886-0.647-3.897-0.335-5.975,0.928
			c-4.335,2.633-8.286,9.16-9.19,15.181c-1.211,8.064,0.91,16.259,2.962,24.185l0.193,0.748c2.233,8.646,4.082,17.087,2.198,25.291
			c-0.877,3.821-2.554,7.425-4.176,10.91c-1.149,2.472-2.339,5.027-3.228,7.632c-1.989,5.825-2.413,13.703,2.367,18.342
			L211.812,294.875z"/>
		<path style="fill:#968E29;" d="M211.167,295.264c-0.008,1.112,0.231,2.142,0.918,3.033c0.347,0.45,0.772,0.838,1.251,1.143
			c0.245,0.156,0.504,0.29,0.773,0.398c0.199,0.08,0.551,0.268,0.77,0.202c0.358-0.108,0.412-0.769,0.419-1.07
			c0.009-0.384-0.051-0.771-0.143-1.144c-0.169-0.681-0.471-1.329-0.83-1.93c-0.432-0.724-1.039-1.568-1.801-1.964
			c-0.257-0.134-0.603-0.27-0.898-0.232c-0.314,0.041-0.392,0.372-0.414,0.638C211.188,294.637,211.169,294.948,211.167,295.264z"/>
		<path style="fill:#5B1A31;" d="M198.523,253.791l-0.621-0.42c4.475-6.644,7.036-14.385,7.406-22.386
			c0.145-3.129-0.046-6.352-0.23-9.469c-0.34-5.723-0.69-11.64,1.023-17.203c1.582-5.132,4.95-11.784,9.238-13.643
			c1.632-0.708,3.271-0.67,4.869,0.11l-0.328,0.674c-1.394-0.68-2.821-0.711-4.243-0.095c-3.794,1.645-7.163,7.802-8.819,13.175
			c-1.674,5.433-1.327,11.282-0.992,16.938c0.187,3.136,0.379,6.379,0.232,9.547C205.682,239.159,203.076,247.032,198.523,253.791z"
			/>
		<path style="fill:#828219;" d="M197.111,253.561c-0.918,0.629-1.626,1.412-1.966,2.485c-0.171,0.541-0.247,1.113-0.224,1.68
			c0.012,0.29,0.05,0.579,0.115,0.862c0.048,0.209,0.095,0.605,0.274,0.747c0.293,0.232,0.867-0.101,1.118-0.266
			c0.321-0.212,0.604-0.482,0.857-0.771c0.463-0.528,0.822-1.145,1.11-1.783c0.347-0.768,0.694-1.748,0.584-2.6
			c-0.037-0.288-0.122-0.649-0.322-0.87c-0.213-0.235-0.529-0.11-0.761,0.024C197.637,253.22,197.371,253.383,197.111,253.561z"/>
	</g>
	<rect x="39.786" y="449.137" style="fill:#5B1A31;" width="434.723" height="0.75"/>
</g>
</svg>
