<svg width="1060" height="655" viewBox="0 0 1060 655" fill="none" xmlns="http://www.w3.org/2000/svg">
<path d="M1.74382 276.589L1.74381 276.589C1.03899 251.716 -0.18305 205.836 32.0872 171.575C49.938 152.63 71.559 144.102 97.1066 141.227C122.681 138.349 152.153 141.141 185.672 144.822C188.724 145.158 191.81 145.5 194.929 145.846C260.275 153.101 340.227 161.978 435.334 138.993L435.238 138.525L435.334 138.993C517.471 119.133 563.616 86.7545 604.08 58.3617C606.143 56.9142 608.191 55.4771 610.229 54.0525C631.227 39.3699 651.057 26.0396 674.149 16.4065C697.229 6.77781 723.587 0.835687 757.632 0.968058L757.67 0.484805L757.632 0.968068C857.162 1.33663 963.718 51.7697 1019.81 143.669L1020.26 143.407L1019.81 143.669C1081.67 244.987 1053.7 350.98 1046 376.735C1011.61 492.22 920.287 555.426 888.064 577.064C755.48 666.042 610.927 655.746 541.397 650.793L541.276 650.785C410.874 641.457 277.261 595.275 175.608 527.719C73.9404 460.154 4.33241 371.274 1.74382 276.589Z" fill="#CFB9FF" stroke="#FFF9F4"/>
</svg>
