<svg width="33" height="33" viewBox="0 0 33 33" fill="none" xmlns="http://www.w3.org/2000/svg">
<path d="M27.9134 26.2344C27.4657 26.3672 27.216 26.8622 27.0039 27.2448C26.8106 27.5935 26.439 28.0011 26.4386 28.4083C26.4386 28.5411 26.5733 28.6446 26.705 28.6073C27.1014 28.4957 27.399 28.0367 27.6859 27.7606C28.0028 27.4552 28.4261 27.0819 28.4333 26.6225C28.4372 26.3655 28.167 26.1593 27.9134 26.2344Z" fill="white"/>
<path d="M32.7079 17.3242C34.65 9.54385 26.5462 1.67654 19.1731 0.292007C15.1212 -0.468976 10.9055 0.255528 7.44839 2.48758C4.48001 4.40446 1.44364 7.81234 1.07035 11.4158C1.06222 11.4947 1.08574 11.5596 1.12209 11.6156C-1.21516 17.5681 1.33161 25.0515 6.45979 28.8268C11.5452 32.5706 19.903 33.8843 25.3104 29.9725C25.7667 29.6425 25.3853 28.9837 24.864 29.2238C24.6677 29.3141 24.4719 29.4036 24.2765 29.4915C24.1773 29.3218 23.9742 29.2128 23.7185 29.3332C20.119 31.0274 15.1204 30.171 11.5619 28.9124C11.1608 28.7703 10.8841 29.4062 11.2698 29.5916C13.1649 30.5023 15.2255 31.0384 17.3353 31.1496C18.2174 31.1958 19.1021 31.1644 19.9804 31.0724C18.6386 31.4058 17.2506 31.5619 15.7596 31.4278C12.7296 31.1551 10.0503 30.0365 7.54503 28.3758C4.60872 26.4293 2.60371 24.0572 1.65273 20.6642C0.828754 17.7242 0.785139 14.6281 1.69592 11.7182C1.73569 11.6902 1.77118 11.6554 1.79598 11.6088C1.95505 11.3118 2.10984 11.0196 2.2642 10.729C1.36411 13.0311 1.09814 15.5851 1.50222 18.0224C2.26805 22.6409 4.89136 25.6937 8.75513 28.1994C9.21865 28.5001 9.68259 27.7269 9.19085 27.4685C5.76195 25.6666 3.04243 21.5635 2.46688 17.8158C1.83104 13.6741 3.34901 9.79072 5.83207 6.49355C6.04416 6.2119 5.59476 5.90521 5.35231 6.13088C4.94481 6.5101 4.56767 6.91604 4.22089 7.34362C4.79045 6.4961 5.42628 5.69694 6.1904 4.95589C6.01637 5.24646 6.29516 5.68803 6.64836 5.46321C7.55101 4.88845 8.42161 4.2789 9.35804 3.75546C10.0247 3.38302 10.7362 3.0844 11.4208 2.74378C11.5307 2.77899 11.6598 2.78535 11.8078 2.74802C16.7756 1.49584 21.722 2.03667 25.5939 5.63798C25.7444 5.77796 25.9296 5.71476 26.0202 5.58835C25.9847 5.76778 26.0831 5.9769 26.3243 5.9769C26.7442 5.9769 26.745 5.33681 26.3243 5.33681C26.2062 5.33681 26.125 5.38941 26.0733 5.46194C26.0822 5.38983 26.0626 5.31263 25.9963 5.24349C24.7041 3.89247 23.0754 2.76329 21.2855 1.97177C26.521 3.87338 30.8726 8.52242 31.4995 13.8892C31.1082 12.1738 30.3894 10.5178 29.3307 9.01956C29.063 8.64076 28.4661 8.96993 28.694 9.38436C30.1008 11.9371 30.7653 14.7295 30.8585 17.6216C30.9556 20.643 29.772 23.2191 28.1535 25.7116C27.9889 25.9652 28.3695 26.2749 28.5798 26.0653C28.6765 26.115 28.7992 26.1158 28.9014 26.0212C31.2395 23.86 32.9499 20.6154 32.7198 17.3726C32.7186 17.3547 32.7109 17.3412 32.7079 17.3242Z" fill="white"/>
<path d="M9.98804 28.5847C9.88585 28.8226 10.0223 29.0597 10.2609 29.142C10.4353 29.2018 10.5961 29.2621 10.78 29.2846C11.0964 29.3236 11.214 28.896 11.0258 28.703C10.9014 28.5758 10.7342 28.4854 10.5854 28.3874C10.3746 28.2479 10.08 28.3713 9.98804 28.5847Z" fill="white"/>
<path d="M24.9173 12.4466C24.9173 12.4466 24.7501 11.2237 24.237 10.6858C23.5849 9.98038 22.8541 9.97571 22.5202 9.93499C20.1192 9.75684 16.5214 9.75684 16.5214 9.75684H16.5137C16.5137 9.75684 12.9137 9.75683 10.5154 9.93626C10.1801 9.97614 9.45063 9.9808 8.79726 10.6866C8.28457 11.2245 8.11695 12.4478 8.11695 12.4478C8.11695 12.4478 7.94507 13.8824 7.94507 15.3179V15.4905V16.6621C7.94507 18.0984 8.11695 19.5334 8.11695 19.5334C8.11695 19.5334 8.28457 20.7559 8.79726 21.2933C9.45063 22 10.308 21.9775 10.6885 22.0505C12.0603 22.1862 16.518 22.2291 16.518 22.2291C16.518 22.2291 20.1201 22.2227 22.521 22.0441C22.855 22.0026 23.5857 21.9996 24.2378 21.2925C24.7514 20.7546 24.9181 19.5325 24.9181 19.5325C24.9181 19.5325 25.0905 18.098 25.0905 16.6617V15.5647V15.317C25.0896 13.8816 24.9173 12.4466 24.9173 12.4466ZM19.3782 15.8116L14.7477 18.2935L14.7464 14.4725V13.3111L16.8348 14.4385L19.3782 15.8116Z" fill="url(#paint0_linear_270_18)"/>
<defs>
<linearGradient id="paint0_linear_270_18" x1="16.5181" y1="-21.3517" x2="16.5181" y2="130.619" gradientUnits="userSpaceOnUse">
<stop stop-color="white"/>
<stop offset="0.1267" stop-color="#FCFCFC"/>
<stop offset="0.3476" stop-color="#E8D594"/>
<stop offset="0.6362" stop-color="#FADA67"/>
<stop offset="0.9782" stop-color="#FFC700"/>
<stop offset="1"/>
</linearGradient>
</defs>
</svg>
