<svg width="33" height="33" viewBox="0 0 33 33" fill="none" xmlns="http://www.w3.org/2000/svg">
<path d="M27.853 26.2344C27.4053 26.3672 27.1556 26.8622 26.9435 27.2448C26.7502 27.5935 26.3787 28.0011 26.3782 28.4083C26.3782 28.5411 26.5129 28.6446 26.6446 28.6073C27.041 28.4957 27.3386 28.0367 27.6255 27.7606C27.9424 27.4552 28.3657 27.0819 28.373 26.6225C28.3768 26.3655 28.1066 26.1593 27.853 26.2344Z" fill="white"/>
<path d="M32.6486 17.3242C34.5907 9.54385 26.4869 1.67654 19.1139 0.292007C15.0619 -0.468976 10.8463 0.255528 7.38913 2.48758C4.42075 4.40446 1.38437 7.81234 1.01108 11.4158C1.00296 11.4947 1.02647 11.5596 1.06282 11.6156C-1.27443 17.5681 1.27234 25.0515 6.40052 28.8268C11.4859 32.5706 19.8438 33.8843 25.2512 29.9725C25.7074 29.6425 25.326 28.9837 24.8047 29.2238C24.6085 29.3141 24.4126 29.4036 24.2172 29.4915C24.118 29.3218 23.9149 29.2128 23.6592 29.3332C20.0597 31.0274 15.0611 30.171 11.5026 28.9124C11.1015 28.7703 10.8249 29.4062 11.2106 29.5916C13.1057 30.5023 15.1663 31.0384 17.276 31.1496C18.1582 31.1958 19.0429 31.1644 19.9212 31.0724C18.5794 31.4058 17.1914 31.5619 15.7003 31.4278C12.6704 31.1551 9.99106 30.0365 7.48576 28.3758C4.54945 26.4293 2.54445 24.0572 1.59347 20.6642C0.769489 17.7242 0.725874 14.6281 1.63666 11.7182C1.67642 11.6902 1.71191 11.6554 1.73671 11.6088C1.89578 11.3118 2.05057 11.0196 2.20493 10.729C1.30484 13.0311 1.03887 15.5851 1.44295 18.0224C2.20878 22.6409 4.83209 25.6937 8.69587 28.1994C9.15938 28.5001 9.62333 27.7269 9.13159 27.4685C5.70268 25.6666 2.98316 21.5635 2.40761 17.8158C1.77178 13.6741 3.28975 9.79072 5.77281 6.49355C5.9849 6.2119 5.53549 5.90521 5.29304 6.13088C4.88554 6.5101 4.5084 6.91604 4.16162 7.34362C4.73118 6.4961 5.36702 5.69694 6.13113 4.95589C5.9571 5.24646 6.2359 5.68803 6.58909 5.46321C7.49175 4.88845 8.36234 4.2789 9.29878 3.75546C9.9654 3.38302 10.6769 3.0844 11.3615 2.74378C11.4714 2.77899 11.6005 2.78535 11.7485 2.74802C16.7163 1.49584 21.6628 2.03667 25.5347 5.63798C25.6852 5.77796 25.8703 5.71476 25.961 5.58835C25.9255 5.76778 26.0238 5.9769 26.265 5.9769C26.6849 5.9769 26.6858 5.33681 26.265 5.33681C26.147 5.33681 26.0657 5.38941 26.014 5.46194C26.023 5.38983 26.0033 5.31263 25.937 5.24349C24.6448 3.89247 23.0161 2.76329 21.2262 1.97177C26.4617 3.87338 30.8134 8.52242 31.4402 13.8892C31.049 12.1738 30.3302 10.5178 29.2714 9.01956C29.0038 8.64076 28.4068 8.96993 28.6347 9.38436C30.0415 11.9371 30.706 14.7295 30.7992 17.6216C30.8963 20.643 29.7127 23.2191 28.0943 25.7116C27.9296 25.9652 28.3102 26.2749 28.5206 26.0653C28.6172 26.115 28.7399 26.1158 28.8421 26.0212C31.1802 23.86 32.8906 20.6154 32.6606 17.3726C32.6593 17.3547 32.6516 17.3412 32.6486 17.3242Z" fill="white"/>
<path d="M9.92878 28.5847C9.82658 28.8226 9.96299 29.0597 10.2016 29.142C10.376 29.2018 10.5368 29.2621 10.7207 29.2846C11.0371 29.3236 11.1547 28.896 10.9666 28.703C10.8421 28.5758 10.6749 28.4854 10.5261 28.3874C10.3153 28.2479 10.0207 28.3713 9.92878 28.5847Z" fill="white"/>
<path d="M25.0322 10.9431C24.4019 11.2167 23.7241 11.4003 23.0122 11.4835C23.7391 11.0585 24.2958 10.3857 24.5597 9.58272C23.8802 9.97721 23.1264 10.2631 22.3246 10.4171C21.6841 9.74943 20.7694 9.33203 19.7577 9.33203C17.8152 9.33203 16.2408 10.8705 16.2408 12.7671C16.2408 13.0368 16.272 13.2973 16.331 13.5497C13.4079 13.4063 10.8154 12.0383 9.08106 9.96024C8.77875 10.4676 8.60429 11.0576 8.60429 11.6871C8.60429 12.8782 9.22687 13.9297 10.1693 14.5461C9.59332 14.5283 9.05027 14.3739 8.57606 14.1168C8.57606 14.1312 8.57606 14.1457 8.57606 14.1597C8.57606 14.5995 8.66244 15.0182 8.8168 15.4046C9.24654 16.482 10.2138 17.2956 11.3982 17.5294C11.1023 17.6066 10.7923 17.6498 10.4703 17.6498C10.2446 17.6498 10.0243 17.6282 9.80883 17.5875C10.2574 18.9521 11.556 19.9459 13.0949 19.9731C11.8908 20.8952 10.375 21.4441 8.72573 21.4441C8.44137 21.4441 8.16215 21.428 7.8855 21.3962C9.44366 22.3705 11.2935 22.9394 13.2784 22.9394C18.7777 22.9394 22.157 19.1599 23.0481 15.2396C23.2059 14.5469 23.2871 13.8487 23.2871 13.1658C23.2871 13.0178 23.2841 12.8684 23.2777 12.7212C23.9649 12.2373 24.5618 11.6324 25.0322 10.9431Z" fill="url(#paint0_linear_270_15)"/>
<defs>
<linearGradient id="paint0_linear_270_15" x1="16.4592" y1="-24.6077" x2="16.4592" y2="141.194" gradientUnits="userSpaceOnUse">
<stop stop-color="white"/>
<stop offset="0.1267" stop-color="#FCFCFC"/>
<stop offset="0.3476" stop-color="#E8D594"/>
<stop offset="0.6362" stop-color="#FADA67"/>
<stop offset="0.9782" stop-color="#FFC700"/>
<stop offset="1"/>
</linearGradient>
</defs>
</svg>
