<svg width="34" height="33" viewBox="0 0 34 33" fill="none" xmlns="http://www.w3.org/2000/svg">
<path d="M28.5483 26.2344C28.1006 26.3672 27.8509 26.8622 27.6388 27.2448C27.4456 27.5935 27.074 28.0011 27.0735 28.4083C27.0735 28.5411 27.2082 28.6446 27.3399 28.6073C27.7363 28.4957 28.0339 28.0367 28.3209 27.7606C28.6377 27.4552 29.061 27.0819 29.0683 26.6225C29.0721 26.3655 28.8019 26.1593 28.5483 26.2344Z" fill="white"/>
<path d="M33.3437 17.3242C35.2858 9.54385 27.182 1.67654 19.8089 0.292007C15.757 -0.468976 11.5413 0.255528 8.0842 2.48758C5.11581 4.40446 2.07944 7.81234 1.70615 11.4158C1.69803 11.4947 1.72154 11.5596 1.75789 11.6156C-0.57936 17.5681 1.96741 25.0515 7.09559 28.8268C12.181 32.5706 20.5388 33.8843 25.9462 29.9725C26.4025 29.6425 26.0211 28.9837 25.4998 29.2238C25.3036 29.3141 25.1077 29.4036 24.9123 29.4915C24.8131 29.3218 24.61 29.2128 24.3543 29.3332C20.7548 31.0274 15.7562 30.171 12.1977 28.9124C11.7966 28.7703 11.5199 29.4062 11.9056 29.5916C13.8007 30.5023 15.8613 31.0384 17.9711 31.1496C18.8532 31.1958 19.7379 31.1644 20.6162 31.0724C19.2744 31.4058 17.8864 31.5619 16.3954 31.4278C13.3655 31.1551 10.6861 30.0365 8.18083 28.3758C5.24452 26.4293 3.23951 24.0572 2.28854 20.6642C1.46456 17.7242 1.42094 14.6281 2.33173 11.7182C2.37149 11.6902 2.40698 11.6554 2.43178 11.6088C2.59085 11.3118 2.74564 11.0196 2.9 10.729C1.99991 13.0311 1.73394 15.5851 2.13802 18.0224C2.90385 22.6409 5.52716 25.6937 9.39093 28.1994C9.85445 28.5001 10.3184 27.7269 9.82666 27.4685C6.39775 25.6666 3.67823 21.5635 3.10268 17.8158C2.46685 13.6741 3.98482 9.79072 6.46788 6.49355C6.67996 6.2119 6.23056 5.90521 5.98811 6.13088C5.58061 6.5101 5.20347 6.91604 4.85669 7.34362C5.42625 6.4961 6.06209 5.69694 6.8262 4.95589C6.65217 5.24646 6.93096 5.68803 7.28416 5.46321C8.18682 4.88845 9.05741 4.2789 9.99385 3.75546C10.6605 3.38302 11.372 3.0844 12.0566 2.74378C12.1665 2.77899 12.2956 2.78535 12.4436 2.74802C17.4114 1.49584 22.3578 2.03667 26.2297 5.63798C26.3802 5.77796 26.5654 5.71476 26.656 5.58835C26.6206 5.76778 26.7189 5.9769 26.9601 5.9769C27.38 5.9769 27.3808 5.33681 26.9601 5.33681C26.842 5.33681 26.7608 5.38941 26.7091 5.46194C26.718 5.38983 26.6984 5.31263 26.6321 5.24349C25.3399 3.89247 23.7112 2.76329 21.9213 1.97177C27.1568 3.87338 31.5084 8.52242 32.1353 13.8892C31.744 12.1738 31.0252 10.5178 29.9665 9.01956C29.6988 8.64076 29.1019 8.96993 29.3298 9.38436C30.7366 11.9371 31.4011 14.7295 31.4943 17.6216C31.5914 20.643 30.4078 23.2191 28.7893 25.7116C28.6247 25.9652 29.0053 26.2749 29.2156 26.0653C29.3123 26.115 29.435 26.1158 29.5372 26.0212C31.8753 23.86 33.5857 20.6154 33.3556 17.3726C33.3544 17.3547 33.3467 17.3412 33.3437 17.3242Z" fill="white"/>
<path d="M10.6238 28.5847C10.5217 28.8226 10.6581 29.0597 10.8967 29.142C11.0711 29.2018 11.2319 29.2621 11.4158 29.2846C11.7322 29.3236 11.8498 28.896 11.6616 28.703C11.5372 28.5758 11.37 28.4854 11.2212 28.3874C11.0104 28.2479 10.7158 28.3713 10.6238 28.5847Z" fill="white"/>
<path d="M9.86353 16.4278V23.6448H13.3305V15.8475V13.8203H9.86353V16.4278Z" fill="url(#paint0_linear_270_14)"/>
<path d="M11.597 8.9082C10.6396 8.9082 9.86353 9.67809 9.86353 10.6274C9.86353 11.5772 10.64 12.3466 11.597 12.3466C12.5544 12.3466 13.3301 11.5772 13.3301 10.6274C13.3305 9.67767 12.5544 8.9082 11.597 8.9082Z" fill="url(#paint1_linear_270_14)"/>
<path d="M24.644 16.8376C24.4093 14.9857 23.5519 13.8213 21.0283 13.8213C19.5312 13.8213 18.526 14.3727 18.115 15.1469H18.0723V13.8213H15.3113V15.7064V23.6458H18.1971V18.7766C18.1971 17.4922 18.4417 16.2489 20.0426 16.2489C21.6205 16.2489 21.7475 17.717 21.7475 18.8593V23.6458H24.7193V18.2468C24.7197 17.7429 24.6992 17.2712 24.644 16.8376Z" fill="url(#paint2_linear_270_14)"/>
<defs>
<linearGradient id="paint0_linear_270_14" x1="11.5971" y1="-10.6842" x2="11.5971" y2="109.025" gradientUnits="userSpaceOnUse">
<stop stop-color="white"/>
<stop offset="0.1267" stop-color="#FCFCFC"/>
<stop offset="0.3476" stop-color="#E8D594"/>
<stop offset="0.6362" stop-color="#FADA67"/>
<stop offset="0.9782" stop-color="#FFC700"/>
<stop offset="1"/>
</linearGradient>
<linearGradient id="paint1_linear_270_14" x1="11.5969" y1="0.332011" x2="11.5969" y2="42.2283" gradientUnits="userSpaceOnUse">
<stop stop-color="white"/>
<stop offset="0.1267" stop-color="#FCFCFC"/>
<stop offset="0.3476" stop-color="#E8D594"/>
<stop offset="0.6362" stop-color="#FADA67"/>
<stop offset="0.9782" stop-color="#FFC700"/>
<stop offset="1"/>
</linearGradient>
<linearGradient id="paint2_linear_270_14" x1="20.0157" y1="-10.6832" x2="20.0157" y2="109.026" gradientUnits="userSpaceOnUse">
<stop stop-color="white"/>
<stop offset="0.1267" stop-color="#FCFCFC"/>
<stop offset="0.3476" stop-color="#E8D594"/>
<stop offset="0.6362" stop-color="#FADA67"/>
<stop offset="0.9782" stop-color="#FFC700"/>
<stop offset="1"/>
</linearGradient>
</defs>
</svg>
