<svg width="33" height="33" viewBox="0 0 33 33" fill="none" xmlns="http://www.w3.org/2000/svg">
<path d="M27.665 26.2344C27.2173 26.3672 26.9676 26.8622 26.7555 27.2448C26.5622 27.5935 26.1906 28.0011 26.1902 28.4083C26.1902 28.5411 26.3249 28.6446 26.4566 28.6073C26.853 28.4957 27.1506 28.0367 27.4375 27.7606C27.7543 27.4552 28.1777 27.0819 28.1849 26.6225C28.1888 26.3655 27.9185 26.1593 27.665 26.2344Z" fill="white"/>
<path d="M32.4592 17.3242C34.4014 9.54385 26.2975 1.67654 18.9245 0.292007C14.8725 -0.468976 10.6569 0.255528 7.19974 2.48758C4.23135 4.40446 1.19498 7.81234 0.821689 11.4158C0.813565 11.4947 0.837082 11.5596 0.873428 11.6156C-1.46382 17.5681 1.08295 25.0515 6.21113 28.8268C11.2965 32.5706 19.6544 33.8843 25.0618 29.9725C25.518 29.6425 25.1366 28.9837 24.6154 29.2238C24.4191 29.3141 24.2232 29.4036 24.0278 29.4915C23.9286 29.3218 23.7255 29.2128 23.4698 29.3332C19.8703 31.0274 14.8717 30.171 11.3132 28.9124C10.9121 28.7703 10.6355 29.4062 11.0212 29.5916C12.9163 30.5023 14.9769 31.0384 17.0866 31.1496C17.9688 31.1958 18.8535 31.1644 19.7318 31.0724C18.39 31.4058 17.002 31.5619 15.5109 31.4278C12.481 31.1551 9.80167 30.0365 7.29637 28.3758C4.36006 26.4293 2.35505 24.0572 1.40408 20.6642C0.580096 17.7242 0.536482 14.6281 1.44727 11.7182C1.48703 11.6902 1.52252 11.6554 1.54732 11.6088C1.70639 11.3118 1.86118 11.0196 2.01554 10.729C1.11545 13.0311 0.849482 15.5851 1.25356 18.0224C2.01939 22.6409 4.6427 25.6937 8.50647 28.1994C8.96999 28.5001 9.43393 27.7269 8.9422 27.4685C5.51329 25.6666 2.79377 21.5635 2.21822 17.8158C1.58238 13.6741 3.10036 9.79072 5.58342 6.49355C5.7955 6.2119 5.3461 5.90521 5.10365 6.13088C4.69615 6.5101 4.31901 6.91604 3.97223 7.34362C4.54179 6.4961 5.17763 5.69694 5.94174 4.95589C5.76771 5.24646 6.0465 5.68803 6.3997 5.46321C7.30236 4.88845 8.17295 4.2789 9.10939 3.75546C9.77601 3.38302 10.4875 3.0844 11.1721 2.74378C11.282 2.77899 11.4111 2.78535 11.5591 2.74802C16.5269 1.49584 21.4734 2.03667 25.3453 5.63798C25.4958 5.77796 25.6809 5.71476 25.7716 5.58835C25.7361 5.76778 25.8344 5.9769 26.0756 5.9769C26.4955 5.9769 26.4964 5.33681 26.0756 5.33681C25.9576 5.33681 25.8763 5.38941 25.8246 5.46194C25.8336 5.38983 25.8139 5.31263 25.7476 5.24349C24.4554 3.89247 22.8267 2.76329 21.0368 1.97177C26.2723 3.87338 30.624 8.52242 31.2508 13.8892C30.8596 12.1738 30.1408 10.5178 29.082 9.01956C28.8144 8.64076 28.2174 8.96993 28.4453 9.38436C29.8521 11.9371 30.5166 14.7295 30.6098 17.6216C30.7069 20.643 29.5233 23.2191 27.9049 25.7116C27.7402 25.9652 28.1208 26.2749 28.3312 26.0653C28.4278 26.115 28.5505 26.1158 28.6527 26.0212C30.9908 23.86 32.7012 20.6154 32.4712 17.3726C32.4699 17.3547 32.4622 17.3412 32.4592 17.3242Z" fill="white"/>
<path d="M9.73939 28.5847C9.63719 28.8226 9.7736 29.0597 10.0122 29.142C10.1867 29.2018 10.3474 29.2621 10.5313 29.2846C10.8477 29.3236 10.9653 28.896 10.7772 28.703C10.6527 28.5758 10.4855 28.4854 10.3367 28.3874C10.1259 28.2479 9.83132 28.3713 9.73939 28.5847Z" fill="white"/>
<path d="M20.0613 24.7794C20.0588 24.7803 20.0643 24.7786 20.0613 24.7794C20.0613 23.4721 20.0613 22.1873 20.0613 20.902C20.0613 20.3896 19.9916 19.889 19.8091 19.4067C19.6731 19.0475 19.4781 18.7259 19.1659 18.4375C19.6149 18.3586 20.0361 18.2945 20.4526 18.2097C21.0837 18.0812 21.6926 17.8839 22.2703 17.5959C23.3778 17.044 24.2056 16.2199 24.6593 15.0733C25.2917 13.475 25.4495 11.833 24.9663 10.1625C24.7846 9.53432 24.463 8.97269 24.0354 8.47513C23.9388 8.36314 23.923 8.27703 23.9704 8.13323C24.3292 7.04902 24.171 5.99197 23.7793 4.9489C23.731 4.82038 23.6412 4.81189 23.5339 4.80977C23.0477 4.80044 22.5889 4.92855 22.139 5.09228C21.4763 5.33364 20.8575 5.66323 20.2636 6.03863C20.1323 6.12177 20.0181 6.14892 19.8565 6.10693C18.0243 5.63184 16.1715 5.62462 14.3272 5.98475C13.6777 6.11158 13.1518 6.08274 12.5848 5.70691C11.8998 5.25261 11.1241 4.95358 10.2941 4.83099C10.1586 4.81105 10.0543 4.79704 9.97174 4.79492L9.71732 4.88485C9.65403 4.95993 9.60914 5.08846 9.54371 5.29631C9.24097 6.2592 9.22173 7.2293 9.48941 8.2011C9.52875 8.34405 9.50908 8.4378 9.41415 8.54894C8.60514 9.49402 8.22971 10.5973 8.21132 11.83C8.19678 12.8103 8.29171 13.7761 8.60428 14.7106C9.22815 16.577 10.5828 17.6476 12.4445 18.1601C13.0295 18.3212 13.6251 18.4269 14.2772 18.4973C14.0959 18.6941 13.939 18.8612 13.8252 19.0602C13.6474 19.3715 13.5332 19.7054 13.493 20.0587C13.4768 20.2021 13.4169 20.2665 13.2908 20.3174C11.7604 20.9351 10.4066 20.5096 9.52105 19.1306C9.10115 18.4769 8.53031 18.0298 7.75037 17.8763C7.50835 17.8288 7.26547 17.822 7.02987 17.9073C6.82377 17.9819 6.78699 18.1113 6.91826 18.2869C7.01234 18.4129 7.13377 18.5138 7.26718 18.5949C8.03515 19.0602 8.51919 19.758 8.85827 20.5567C9.3778 21.7822 10.3382 22.3531 11.6265 22.4583C12.2102 22.5058 12.7888 22.4452 13.372 22.3137C13.372 23.1107 13.3575 23.9955 13.3575 24.7799C13.3575 24.7799 13.3968 27.2588 16.6837 27.2588C19.9707 27.2588 20.0613 24.7794 20.0613 24.7794Z" fill="url(#paint0_linear_270_13)"/>
<defs>
<linearGradient id="paint0_linear_270_13" x1="16.0457" y1="-51.235" x2="16.0457" y2="222.481" gradientUnits="userSpaceOnUse">
<stop stop-color="white"/>
<stop offset="0.1267" stop-color="#FCFCFC"/>
<stop offset="0.3476" stop-color="#E8D594"/>
<stop offset="0.6362" stop-color="#FADA67"/>
<stop offset="0.9782" stop-color="#FFC700"/>
<stop offset="1"/>
</linearGradient>
</defs>
</svg>
