<svg width="33" height="33" viewBox="0 0 33 33" fill="none" xmlns="http://www.w3.org/2000/svg">
<path d="M27.7528 26.2344C27.3051 26.3672 27.0554 26.8622 26.8433 27.2448C26.65 27.5935 26.2784 28.0011 26.278 28.4083C26.278 28.5411 26.4127 28.6446 26.5444 28.6073C26.9408 28.4957 27.2384 28.0367 27.5253 27.7606C27.8422 27.4552 28.2655 27.0819 28.2728 26.6225C28.2766 26.3655 28.0064 26.1593 27.7528 26.2344Z" fill="white"/>
<path d="M32.548 17.3242C34.4902 9.54385 26.3863 1.67654 19.0133 0.292007C14.9614 -0.468976 10.7457 0.255528 7.28854 2.48758C4.32016 4.40446 1.28379 7.81234 0.910496 11.4158C0.902371 11.4947 0.925888 11.5596 0.962234 11.6156C-1.37501 17.5681 1.17176 25.0515 6.29994 28.8268C11.3854 32.5706 19.7432 33.8843 25.1506 29.9725C25.6068 29.6425 25.2254 28.9837 24.7042 29.2238C24.5079 29.3141 24.3121 29.4036 24.1166 29.4915C24.0174 29.3218 23.8143 29.2128 23.5586 29.3332C19.9591 31.0274 14.9605 30.171 11.402 28.9124C11.0009 28.7703 10.7243 29.4062 11.11 29.5916C13.0051 30.5023 15.0657 31.0384 17.1755 31.1496C18.0576 31.1958 18.9423 31.1644 19.8206 31.0724C18.4788 31.4058 17.0908 31.5619 15.5998 31.4278C12.5698 31.1551 9.89047 30.0365 7.38518 28.3758C4.44887 26.4293 2.44386 24.0572 1.49288 20.6642C0.668903 17.7242 0.625288 14.6281 1.53607 11.7182C1.57584 11.6902 1.61133 11.6554 1.63613 11.6088C1.79519 11.3118 1.94999 11.0196 2.10435 10.729C1.20425 13.0311 0.938289 15.5851 1.34237 18.0224C2.1082 22.6409 4.73151 25.6937 8.59528 28.1994C9.0588 28.5001 9.52274 27.7269 9.031 27.4685C5.6021 25.6666 2.88258 21.5635 2.30703 17.8158C1.67119 13.6741 3.18916 9.79072 5.67222 6.49355C5.88431 6.2119 5.43491 5.90521 5.19246 6.13088C4.78496 6.5101 4.40782 6.91604 4.06103 7.34362C4.63059 6.4961 5.26643 5.69694 6.03055 4.95589C5.85652 5.24646 6.13531 5.68803 6.48851 5.46321C7.39116 4.88845 8.26175 4.2789 9.19819 3.75546C9.86482 3.38302 10.5763 3.0844 11.2609 2.74378C11.3708 2.77899 11.5 2.78535 11.6479 2.74802C16.6157 1.49584 21.5622 2.03667 25.4341 5.63798C25.5846 5.77796 25.7697 5.71476 25.8604 5.58835C25.8249 5.76778 25.9232 5.9769 26.1644 5.9769C26.5843 5.9769 26.5852 5.33681 26.1644 5.33681C26.0464 5.33681 25.9652 5.38941 25.9134 5.46194C25.9224 5.38983 25.9027 5.31263 25.8364 5.24349C24.5442 3.89247 22.9155 2.76329 21.1256 1.97177C26.3611 3.87338 30.7128 8.52242 31.3396 13.8892C30.9484 12.1738 30.2296 10.5178 29.1708 9.01956C28.9032 8.64076 28.3062 8.96993 28.5342 9.38436C29.941 11.9371 30.6054 14.7295 30.6987 17.6216C30.7957 20.643 29.6121 23.2191 27.9937 25.7116C27.829 25.9652 28.2096 26.2749 28.42 26.0653C28.5166 26.115 28.6393 26.1158 28.7415 26.0212C31.0796 23.86 32.79 20.6154 32.56 17.3726C32.5587 17.3547 32.551 17.3412 32.548 17.3242Z" fill="white"/>
<path d="M9.82819 28.5847C9.726 28.8226 9.8624 29.0597 10.101 29.142C10.2755 29.2018 10.4362 29.2621 10.6201 29.2846C10.9365 29.3236 11.0541 28.896 10.866 28.703C10.7415 28.5758 10.5744 28.4854 10.4255 28.3874C10.2147 28.2479 9.92013 28.3713 9.82819 28.5847Z" fill="white"/>
<path d="M17.7656 12.7377V11.3773C17.7656 10.7148 18.2111 10.5604 18.5237 10.5604C18.8358 10.5604 20.447 10.5604 20.447 10.5604V7.64579L17.7981 7.63477C14.8579 7.63477 14.1896 9.8087 14.1896 11.2V12.7377H12.489V14.7928V16.1392H14.2037C14.2037 19.9942 14.2037 24.6436 14.2037 24.6436H17.6326C17.6326 24.6436 17.6326 19.9475 17.6326 16.1392H20.1776L20.3008 14.8034L20.4902 12.7381L17.7656 12.7377Z" fill="url(#paint0_linear_270_17)"/>
<defs>
<linearGradient id="paint0_linear_270_17" x1="16.4898" y1="-34.7892" x2="16.4898" y2="172.459" gradientUnits="userSpaceOnUse">
<stop stop-color="white"/>
<stop offset="0.1267" stop-color="#FCFCFC"/>
<stop offset="0.3476" stop-color="#E8D594"/>
<stop offset="0.6362" stop-color="#FADA67"/>
<stop offset="0.9782" stop-color="#FFC700"/>
<stop offset="1"/>
</linearGradient>
</defs>
</svg>
