<svg width="457" height="547" viewBox="0 0 457 547" fill="none" xmlns="http://www.w3.org/2000/svg">
<rect x="33" y="466" width="376" height="80" rx="40" fill="#7747B5"/>
<path d="M129.525 497.292V504.636H138.165V507.984H129.525V515.652H139.245V519H125.421V493.944H139.245V497.292H129.525ZM170.652 493.98V519H166.548V501.864L158.916 519H156.072L148.404 501.864V519H144.3V493.98H148.728L157.512 513.6L166.26 493.98H170.652ZM180.15 497.292V504.636H188.79V507.984H180.15V515.652H189.87V519H176.046V493.944H189.87V497.292H180.15ZM207.921 519L202.161 508.992H199.029V519H194.925V493.98H203.565C205.485 493.98 207.105 494.316 208.425 494.988C209.769 495.66 210.765 496.56 211.413 497.688C212.085 498.816 212.421 500.076 212.421 501.468C212.421 503.1 211.941 504.588 210.981 505.932C210.045 507.252 208.593 508.152 206.625 508.632L212.817 519H207.921ZM199.029 505.716H203.565C205.101 505.716 206.253 505.332 207.021 504.564C207.813 503.796 208.209 502.764 208.209 501.468C208.209 500.172 207.825 499.164 207.057 498.444C206.289 497.7 205.125 497.328 203.565 497.328H199.029V505.716ZM235.779 501.18C235.131 499.932 234.231 498.996 233.079 498.372C231.927 497.724 230.595 497.4 229.083 497.4C227.427 497.4 225.951 497.772 224.655 498.516C223.359 499.26 222.339 500.316 221.595 501.684C220.875 503.052 220.515 504.636 220.515 506.436C220.515 508.236 220.875 509.832 221.595 511.224C222.339 512.592 223.359 513.648 224.655 514.392C225.951 515.136 227.427 515.508 229.083 515.508C231.315 515.508 233.127 514.884 234.519 513.636C235.911 512.388 236.763 510.696 237.075 508.56H227.679V505.284H241.467V508.488C241.203 510.432 240.507 512.22 239.379 513.852C238.275 515.484 236.823 516.792 235.023 517.776C233.247 518.736 231.267 519.216 229.083 519.216C226.731 519.216 224.583 518.676 222.639 517.596C220.695 516.492 219.147 514.968 217.995 513.024C216.867 511.08 216.303 508.884 216.303 506.436C216.303 503.988 216.867 501.792 217.995 499.848C219.147 497.904 220.695 496.392 222.639 495.312C224.607 494.208 226.755 493.656 229.083 493.656C231.747 493.656 234.111 494.316 236.175 495.636C238.263 496.932 239.775 498.78 240.711 501.18H235.779ZM249.618 497.292V504.636H258.258V507.984H249.618V515.652H259.338V519H245.514V493.944H259.338V497.292H249.618ZM284.949 519H280.845L268.497 500.316V519H264.393V493.944H268.497L280.845 512.592V493.944H284.949V519ZM288.971 506.436C288.971 503.988 289.535 501.792 290.663 499.848C291.815 497.904 293.363 496.392 295.307 495.312C297.275 494.208 299.423 493.656 301.751 493.656C304.415 493.656 306.779 494.316 308.843 495.636C310.931 496.932 312.443 498.78 313.379 501.18H308.447C307.799 499.86 306.899 498.876 305.747 498.228C304.595 497.58 303.263 497.256 301.751 497.256C300.095 497.256 298.619 497.628 297.323 498.372C296.027 499.116 295.007 500.184 294.263 501.576C293.543 502.968 293.183 504.588 293.183 506.436C293.183 508.284 293.543 509.904 294.263 511.296C295.007 512.688 296.027 513.768 297.323 514.536C298.619 515.28 300.095 515.652 301.751 515.652C303.263 515.652 304.595 515.328 305.747 514.68C306.899 514.032 307.799 513.048 308.447 511.728H313.379C312.443 514.128 310.931 515.976 308.843 517.272C306.779 518.568 304.415 519.216 301.751 519.216C299.399 519.216 297.251 518.676 295.307 517.596C293.363 516.492 291.815 514.968 290.663 513.024C289.535 511.08 288.971 508.884 288.971 506.436ZM336.722 493.98L328.442 509.928V519H324.338V509.928L316.022 493.98H320.594L326.39 506.256L332.186 493.98H336.722Z" fill="white"/>
<path d="M418.648 391.38H52.2696C42.0206 391.38 32.3846 386.399 26.5366 377.982C5.83562 348.188 1.32062 307.645 14.2606 273.405C23.5156 248.917 41.3396 227.821 46.9766 202.257C52.1336 178.872 46.4736 154.655 45.0366 130.751C43.5996 106.847 47.9866 79.8684 67.1636 65.5264C82.8486 53.7964 104.857 53.7684 123.331 60.2714C141.806 66.7734 157.661 78.9004 173.514 90.4004C189.368 101.901 206.058 113.184 225.148 117.561C247.119 122.598 270.058 118.003 291.953 112.645C313.848 107.288 336.101 101.113 358.559 103.04C381.017 104.967 404.206 116.975 412.332 138C421.648 162.105 409.038 189.972 416.106 214.829C420.434 230.051 431.576 242.202 440.053 255.565C460.737 288.173 461.755 333.532 448.087 370.907C443.579 383.236 431.776 391.38 418.648 391.38Z" fill="#CFB9FF"/>
<path d="M273.945 104.087C282.571 102.952 291.347 100.783 298.306 95.5599C311.317 85.7949 314.962 66.5479 308.991 51.4159C303.021 36.2829 289.036 25.2979 273.68 19.9279C258.324 14.5579 241.655 14.2069 225.437 15.4769C212.17 16.5149 198.653 18.7109 187.059 25.2439C177.656 30.5419 168.647 39.8209 165.784 50.5009C163.292 59.7999 168.325 67.1769 174.914 73.2989C191.627 88.8279 213.96 98.9679 236.27 103.049C248.677 105.32 261.433 105.733 273.945 104.087Z" fill="#CFB9FF"/>
<g filter="url(#filter0_d_259_16)">
<path d="M273.308 82.2259C288.968 82.2259 301.662 68.5539 301.662 51.6886C301.662 34.8234 288.968 21.1514 273.308 21.1514C257.649 21.1514 244.955 34.8234 244.955 51.6886C244.955 68.5539 257.649 82.2259 273.308 82.2259Z" fill="#7DD3E9"/>
<path d="M281.978 70.369L274.874 73.8745C273.88 74.3647 272.738 74.3647 271.746 73.8745L264.641 70.369C259.197 67.6825 255.707 61.8244 255.707 55.3754V41.5745C255.707 40.1276 256.43 38.7924 257.6 38.0819L271.482 29.6509C272.617 28.9614 274.004 28.9614 275.138 29.6509L289.02 38.0819C290.19 38.7924 290.914 40.1276 290.914 41.5745V55.3754C290.913 61.8254 287.422 67.6825 281.978 70.369Z" fill="white"/>
<path d="M284.477 47.8041H276.915V39.6611H269.703V47.8041H262.141V55.5725H269.703V63.7165H276.915V55.5725H284.477V47.8041Z" fill="#CC6164"/>
<path d="M298.237 156.451C313.453 156.451 325.789 143.166 325.789 126.777C325.789 110.388 313.453 97.1025 298.237 97.1025C283.02 97.1025 270.684 110.388 270.684 126.777C270.684 143.166 283.02 156.451 298.237 156.451Z" fill="#7DD3E9"/>
<path d="M316.419 114.01C312.079 109.335 305.041 109.335 300.701 114.01L298.238 116.663L295.775 114.01C291.435 109.335 284.397 109.335 280.057 114.01C275.717 118.685 275.717 126.265 280.057 130.939L282.521 133.592L298.239 150.52L313.957 133.592L316.42 130.939C320.759 126.265 320.759 118.685 316.419 114.01Z" fill="#CC6164"/>
<path d="M295.851 146.263L290.512 126.903L288.341 133.454H273.308V131.097H286.799L290.703 119.32L295.072 135.159L297.933 112.929L302.156 131.275L305.188 119.064L309.003 131.097H323.165V133.454H307.438L305.443 127.159L302.075 140.721L298.541 125.363L295.851 146.263Z" fill="white"/>
<path d="M135.071 130.806C145.615 119.449 145.615 101.037 135.071 89.6804C124.526 78.3239 107.43 78.3239 96.8858 89.6804C86.3414 101.037 86.3414 119.449 96.8858 130.806C107.43 142.162 124.526 142.162 135.071 130.806Z" fill="#7DD3E9"/>
<path d="M100.282 109.098V118.035C100.282 122.354 103.533 125.855 107.543 125.855C111.554 125.855 114.804 122.353 114.804 118.035V109.098H100.282Z" fill="white"/>
<path d="M114.805 100.16C114.805 95.8404 111.554 92.3398 107.544 92.3398C103.533 92.3398 100.283 95.8414 100.283 100.16V109.097H114.806V100.16H114.805Z" fill="#CC6164"/>
<path d="M114.805 118.036V109.099H108.14L105.196 112.269C102.317 115.37 101.455 119.826 102.593 123.747C103.891 125.053 105.628 125.857 107.543 125.857C111.554 125.856 114.805 122.354 114.805 118.036Z" fill="#E4E4E0"/>
<path d="M114.805 109.097V101.919L108.14 109.097H114.805Z" fill="#A34262"/>
<path d="M113.412 108.476L107.544 114.795C104.708 117.849 104.708 122.801 107.544 125.855C110.38 128.909 114.977 128.909 117.813 125.855L123.68 119.535L113.412 108.476Z" fill="white"/>
<path d="M129.549 113.215C132.385 110.161 132.385 105.21 129.549 102.156C126.713 99.1017 122.116 99.1017 119.28 102.156L113.413 108.475L123.681 119.535L129.549 113.215Z" fill="#CC6164"/>
<path d="M191.133 59.4945C201.302 48.5419 201.302 30.7842 191.133 19.8317C180.963 8.87906 164.475 8.87905 154.306 19.8317C144.137 30.7842 144.136 48.5419 154.306 59.4945C164.475 70.4471 180.963 70.4471 191.133 59.4945Z" fill="#7DD3E9"/>
<path d="M183.899 33.5734L177.987 27.2061L162.44 43.9507L168.352 50.3181L183.899 33.5734Z" fill="white"/>
<path d="M168.355 48.4319L182.151 33.5742L177.99 29.093L164.195 43.9507L168.355 48.4319Z" fill="#C7D2D7"/>
<path d="M170.432 52.5605L160.359 41.7119L159.228 42.9302L169.301 53.7787L170.432 52.5605Z" fill="white"/>
<path d="M184.046 30.0363L181.272 27.0488L179.556 28.8963L182.33 31.8837L184.046 30.0363Z" fill="#C7D2D7"/>
<path d="M183.043 28.9573L182.277 28.1323L188.791 21.1152H190.324L183.043 28.9573Z" fill="#99A3B0"/>
<path d="M165.399 49.571L163.136 47.1338L158.1 52.5577L160.363 54.9949L165.399 49.571Z" fill="#C7D2D7"/>
<path d="M162.519 57.3223L155.937 50.2334L155.116 51.1177L161.698 58.2065L162.519 57.3223Z" fill="white"/>
<path d="M165.393 49.5749L163.13 47.1377L161.447 48.9506L163.71 51.3878L165.393 49.5749Z" fill="#99A3B0"/>
<path d="M179.156 33.5756L171.528 41.7903C170.702 42.6802 169.362 42.6802 168.535 41.7903L167.367 40.5328L164.192 43.9526L166.856 46.8224L168.353 48.4337L171.528 45.0139L182.148 33.5756C181.323 32.6857 179.982 32.6857 179.156 33.5756Z" fill="#CC6164"/>
</g>
<mask id="mask0_259_16" style="mask-type:luminance" maskUnits="userSpaceOnUse" x="13" y="142" width="201" height="248">
<path d="M53.3522 389.992H189.095C210.702 345.889 221.204 292.646 207.828 244.906C194.451 197.166 159.206 156.036 114.663 142.426C94.1747 169.484 80.2699 203.67 78.4945 238.533C57.5905 235.167 34.6891 237.337 13.9351 241.645C9.31006 293.991 25.4871 346.814 53.3522 389.992Z" fill="white"/>
</mask>
<g mask="url(#mask0_259_16)">
<path d="M117.241 156.451C108.598 176.544 103.587 196.299 101.773 215.291C99.9709 234.291 101.383 252.547 105.872 269.869C110.342 287.197 117.896 303.611 128.557 318.873C139.223 334.121 152.995 348.243 170.036 360.632C183.462 343.922 192.283 324.529 196.354 304.279C200.442 284.041 199.778 262.98 194.677 243.233C189.567 223.488 180.028 205.09 166.815 190.041C153.613 174.973 136.754 163.282 117.241 156.451Z" fill="#9FE0F0"/>
<path d="M186.851 253.128C186.247 252.83 185.553 253.136 185.303 253.804C182.335 261.856 176.837 269.347 171.589 275.214C166.352 281.084 161.157 285.41 158.778 287.323C156.549 276.865 154.01 266.487 151.391 256.135C153.077 254.846 157.485 251.306 162.097 245.999C164.403 243.345 166.759 240.248 168.853 236.774C170.907 233.312 172.69 229.475 173.893 225.341C174.094 224.651 173.753 223.896 173.13 223.658C172.507 223.42 171.841 223.788 171.64 224.477C167.429 239.157 154.788 250.233 150.691 253.517C148.302 244.455 145.789 235.429 143.087 226.47C144.702 225.114 148.903 221.411 153.283 215.877C157.675 210.343 162.107 203.005 164.348 194.406C164.521 193.712 164.147 192.973 163.514 192.759C162.881 192.547 162.228 192.937 162.054 193.631C160.123 201.239 156.146 207.964 152.222 213.168C148.251 218.391 144.273 222.133 142.302 223.875L140.29 217.274L138.183 210.706C136.807 206.317 135.323 201.969 133.841 197.621C135.034 195.984 138.558 190.982 140.902 185.235C141.168 184.589 140.899 183.823 140.303 183.525C139.703 183.228 139.006 183.514 138.741 184.159C136.93 188.557 134.419 192.563 132.879 194.784C130.343 187.536 127.772 180.3 125.032 173.137C124.786 172.485 124.099 172.173 123.496 172.439C122.893 172.705 122.602 173.447 122.846 174.096L125.414 180.913L127.879 187.775L130.321 194.646L132.665 201.556C129.021 200.646 121.521 198.423 116.671 194.739C116.146 194.337 115.411 194.462 115.023 195.021C114.636 195.579 114.746 196.356 115.269 196.759C121.306 201.403 130.948 203.789 133.623 204.385C135.086 208.724 136.44 213.105 137.854 217.463C139.228 221.837 140.524 226.237 141.863 230.622C139.311 230.457 134.062 229.942 128.034 228.439C125.016 227.689 121.82 226.686 118.639 225.364C115.438 224.049 112.278 222.404 109.391 220.334C108.864 219.955 108.131 220.106 107.754 220.667C107.376 221.228 107.496 221.986 108.024 222.364C114.545 226.991 122.11 229.652 128.631 231.186C135.16 232.716 140.586 233.117 142.618 233.215C145.209 242.18 147.686 251.184 149.977 260.244C147.417 259.978 142.169 259.248 136.148 257.541C133.146 256.685 129.97 255.579 126.875 254.15C125.327 253.435 123.799 252.639 122.324 251.751C120.83 250.869 119.381 249.898 118.018 248.823C117.504 248.418 116.761 248.531 116.366 249.072C115.966 249.612 116.056 250.375 116.57 250.778C122.687 255.607 130.112 258.529 136.634 260.291C143.09 262.069 148.564 262.687 150.631 262.863C151.269 265.446 151.936 268.022 152.552 270.612L154.361 278.392C155.609 283.569 156.649 288.798 157.796 294.001C154.856 293.407 148.488 291.97 141.359 289.512C134.265 287.039 126.215 283.619 120.126 278.824C119.614 278.426 118.872 278.544 118.475 279.08C118.077 279.618 118.16 280.377 118.669 280.776C122.078 283.445 125.994 285.7 130.023 287.611C134.053 289.52 138.12 291.104 141.954 292.377C149.596 294.928 156.15 296.272 158.355 296.696L160.66 308.313L162.779 319.97L162.78 319.975C163.044 321.377 163.267 322.788 163.5 324.196C162.176 323.823 160.176 323.229 157.773 322.429C155.352 321.632 152.528 320.631 149.58 319.435C143.672 317.043 137.331 313.879 132.546 309.952C132.044 309.533 131.298 309.624 130.888 310.153C130.476 310.681 130.552 311.446 131.057 311.863C136.447 316.31 143.594 319.785 150.027 322.309C156.433 324.833 161.944 326.42 163.955 326.95L165.223 334.664L166.368 342.4C166.47 343.093 167.074 343.565 167.719 343.458C168.364 343.35 168.802 342.7 168.699 342.005L167.486 333.837L166.145 325.692L166.144 325.687L165.247 320.314C166.934 319.051 171.589 315.444 176.622 310.383C181.685 305.321 187.011 298.808 190.124 291.877C190.417 291.228 190.181 290.427 189.598 290.091C189.015 289.755 188.304 290.01 188.013 290.659C185.24 296.778 180.62 302.659 176.01 307.424C171.414 312.192 166.967 315.828 164.748 317.56C163.898 312.958 163.117 308.343 162.173 303.762C161.26 299.175 160.378 294.581 159.362 290.018C161.206 288.603 166.539 284.367 172.304 278.185C175.151 275.103 178.099 271.536 180.769 267.604C183.447 263.671 185.837 259.374 187.494 254.881C187.743 254.215 187.456 253.427 186.851 253.128Z" fill="#A8EFFA"/>
<path d="M28.3432 249.317C22.7227 339.389 86.021 408.575 169.725 403.85C175.346 313.779 112.047 244.592 28.3432 249.317Z" fill="#A8EFFA"/>
<path d="M129.902 303.733C129.242 303.811 128.765 304.454 128.836 305.163C130.587 322.267 123.49 342.889 121.206 348.97L99.8398 325.616C101.677 321.514 109.118 303.54 106.657 286.592C106.554 285.884 105.938 285.4 105.281 285.511C104.623 285.622 104.173 286.286 104.277 286.992C106.463 302.038 100.212 318.497 98.0319 323.64L79.2726 303.136C81.0712 299.07 88.3053 281.328 85.885 263.895C85.7869 263.187 85.1735 262.699 84.5157 262.805C83.8579 262.913 83.4045 263.571 83.5026 264.28C85.6528 279.768 79.5974 296.041 77.4611 301.157L59.0126 280.993C59.4863 278.924 60.7798 272.73 60.8612 266.353C60.8714 265.636 60.3394 265.048 59.6742 265.037C59.0071 265.028 58.4622 265.601 58.4538 266.316C58.3909 271.189 57.561 276.062 57.0077 278.8L41.5829 261.939C41.1166 261.429 40.3542 261.423 39.8805 261.925C39.4068 262.429 39.4012 263.249 39.8675 263.759L59.4678 285.182C55.7532 285.99 47.8196 287.363 41.8447 285.932C41.1952 285.778 40.5522 286.215 40.4079 286.916C40.2635 287.616 40.6725 288.309 41.322 288.464C48.8383 290.264 58.7888 288.043 61.4737 287.374L79.9212 307.538C75.1453 309.763 59.96 316.047 45.5954 313.5C44.9395 313.383 44.3196 313.863 44.2113 314.569C44.1031 315.275 44.5472 315.943 45.2032 316.06C61.3515 318.923 77.9302 311.394 81.7309 309.517L100.491 330.022C95.6875 332.294 80.3264 338.784 66.3754 336.206C65.7194 336.084 65.094 336.561 64.9857 337.265C64.8728 337.972 65.3123 338.642 65.9683 338.763C81.667 341.663 98.4631 333.915 102.298 331.997L123.665 355.352C117.987 357.72 98.7351 365.059 82.8837 362.923C82.2258 362.833 81.6245 363.338 81.5393 364.05C81.4579 364.76 81.9261 365.409 82.5858 365.498C100.271 367.879 121.227 359.238 125.506 357.364L141.328 374.657L141.331 374.66L144.19 377.785C138.914 379.805 122.56 385.528 110.106 384.075C109.446 383.996 108.849 384.512 108.779 385.224C108.708 385.937 109.185 386.577 109.847 386.653C123.95 388.3 142.115 381.406 146.052 379.822L156.487 391.227C156.954 391.737 157.715 391.743 158.189 391.241C158.663 390.738 158.668 389.918 158.202 389.408L147.22 377.404L147.216 377.4L143.593 373.439C145.122 369.223 151.79 349.764 150.469 334.551C150.407 333.837 149.821 333.313 149.158 333.38C148.495 333.448 148.008 334.08 148.071 334.792C149.237 348.225 143.683 365.752 141.73 371.404L123.046 350.982C124.851 346.401 133.182 323.962 131.231 304.882C131.158 304.168 130.563 303.655 129.902 303.733Z" fill="#D9FBFF"/>
</g>
<mask id="mask1_259_16" style="mask-type:luminance" maskUnits="userSpaceOnUse" x="216" y="142" width="202" height="248">
<path d="M377.151 389.992H241.408C219.801 345.889 209.299 292.646 222.675 244.906C236.052 197.166 271.297 156.036 315.84 142.426C336.328 169.484 350.233 203.67 352.009 238.533C372.913 235.167 395.814 237.337 416.569 241.645C421.193 293.991 405.016 346.814 377.151 389.992Z" fill="white"/>
</mask>
<g mask="url(#mask1_259_16)">
<path d="M313.261 156.451C321.904 176.544 326.915 196.299 328.729 215.291C330.531 234.291 329.119 252.547 324.63 269.869C320.16 287.197 312.606 303.611 301.944 318.873C291.278 334.121 277.506 348.243 260.465 360.632C247.039 343.922 238.218 324.529 234.147 304.279C230.059 284.041 230.723 262.98 235.825 243.233C240.935 223.488 250.474 205.09 263.687 190.041C276.89 174.973 293.749 163.282 313.261 156.451Z" fill="#9FE0F0"/>
<path d="M243.651 253.128C244.255 252.83 244.949 253.136 245.199 253.804C248.167 261.856 253.665 269.347 258.914 275.214C264.15 281.084 269.345 285.41 271.724 287.323C273.954 276.865 276.492 266.487 279.111 256.135C277.425 254.846 273.017 251.306 268.405 245.999C266.1 243.345 263.743 240.248 261.649 236.774C259.595 233.312 257.813 229.475 256.609 225.341C256.408 224.651 256.75 223.896 257.372 223.658C257.995 223.42 258.661 223.788 258.862 224.477C263.073 239.157 275.714 250.233 279.811 253.517C282.2 244.455 284.713 235.429 287.415 226.47C285.8 225.114 281.599 221.411 277.219 215.877C272.827 210.343 268.395 203.005 266.154 194.406C265.981 193.712 266.355 192.973 266.988 192.759C267.622 192.547 268.274 192.937 268.448 193.631C270.38 201.239 274.356 207.964 278.28 213.168C282.251 218.391 286.229 222.133 288.201 223.875L290.213 217.274L292.32 210.706C293.696 206.317 295.181 201.969 296.662 197.621C295.469 195.984 291.945 190.982 289.601 185.235C289.335 184.589 289.604 183.823 290.201 183.525C290.8 183.228 291.498 183.514 291.763 184.159C293.574 188.557 296.085 192.563 297.625 194.784C300.161 187.536 302.732 180.3 305.472 173.137C305.717 172.485 306.405 172.173 307.008 172.439C307.611 172.705 307.902 173.447 307.658 174.096L305.09 180.913L302.625 187.775L300.183 194.646L297.839 201.556C301.483 200.646 308.982 198.423 313.833 194.739C314.358 194.337 315.093 194.462 315.481 195.021C315.868 195.579 315.758 196.356 315.235 196.759C309.198 201.403 299.556 203.789 296.881 204.385C295.418 208.724 294.064 213.105 292.65 217.463C291.276 221.837 289.98 226.237 288.641 230.622C291.193 230.457 296.442 229.942 302.47 228.439C305.488 227.689 308.684 226.686 311.864 225.364C315.066 224.049 318.226 222.404 321.113 220.334C321.64 219.955 322.374 220.106 322.75 220.667C323.128 221.228 323.008 221.986 322.48 222.364C315.959 226.991 308.394 229.652 301.873 231.186C295.344 232.716 289.918 233.117 287.886 233.215C285.295 242.18 282.818 251.184 280.527 260.244C283.087 259.978 288.335 259.248 294.356 257.541C297.358 256.685 300.534 255.579 303.629 254.15C305.177 253.435 306.705 252.639 308.18 251.751C309.674 250.869 311.122 249.898 312.486 248.823C313 248.418 313.743 248.531 314.138 249.072C314.538 249.612 314.448 250.375 313.934 250.778C307.817 255.607 300.392 258.529 293.87 260.291C287.414 262.069 281.94 262.687 279.873 262.863C279.235 265.446 278.568 268.022 277.952 270.612L276.143 278.392C274.895 283.569 273.855 288.798 272.708 294.001C275.648 293.407 282.016 291.97 289.145 289.512C296.239 287.039 304.289 283.619 310.378 278.824C310.89 278.426 311.632 278.544 312.029 279.08C312.427 279.618 312.344 280.377 311.835 280.776C308.425 283.445 304.51 285.7 300.481 287.611C296.451 289.52 292.384 291.104 288.55 292.377C280.908 294.928 274.354 296.272 272.148 296.696L269.844 308.313L267.725 319.97L267.724 319.975C267.46 321.377 267.237 322.788 267.003 324.196C268.328 323.823 270.328 323.229 272.731 322.429C275.152 321.632 277.976 320.631 280.924 319.435C286.832 317.043 293.173 313.879 297.958 309.952C298.46 309.533 299.206 309.624 299.616 310.153C300.027 310.681 299.952 311.446 299.447 311.863C294.057 316.31 286.91 319.785 280.477 322.309C274.071 324.833 268.56 326.42 266.549 326.95L265.281 334.664L264.136 342.4C264.034 343.093 263.429 343.565 262.785 343.458C262.14 343.35 261.702 342.7 261.805 342.005L263.018 333.837L264.359 325.692L264.36 325.687L265.257 320.314C263.57 319.051 258.914 315.444 253.882 310.383C248.819 305.321 243.493 298.808 240.38 291.877C240.087 291.228 240.323 290.427 240.906 290.091C241.489 289.755 242.2 290.01 242.491 290.659C245.264 296.778 249.884 302.659 254.494 307.424C259.09 312.192 263.537 315.828 265.756 317.56C266.606 312.958 267.387 308.343 268.331 303.762C269.244 299.175 270.125 294.581 271.142 290.018C269.298 288.603 263.965 284.367 258.2 278.185C255.352 275.103 252.405 271.536 249.735 267.604C247.057 263.671 244.668 259.374 243.009 254.881C242.76 254.215 243.047 253.427 243.651 253.128Z" fill="#A8EFFA"/>
<path d="M402.16 249.317C407.78 339.389 344.482 408.575 260.778 403.85C255.157 313.779 318.455 244.592 402.16 249.317Z" fill="#A8EFFA"/>
<path d="M300.601 303.733C301.261 303.811 301.738 304.454 301.666 305.163C299.916 322.267 307.013 342.889 309.297 348.97L330.663 325.616C328.826 321.514 321.385 303.54 323.846 286.592C323.949 285.884 324.565 285.4 325.222 285.511C325.88 285.622 326.329 286.286 326.226 286.992C324.04 302.038 330.291 318.497 332.471 323.64L351.23 303.136C349.432 299.07 342.197 281.328 344.618 263.895C344.716 263.187 345.329 262.699 345.987 262.805C346.645 262.913 347.098 263.571 347 264.28C344.85 279.768 350.905 296.041 353.042 301.157L371.49 280.993C371.016 278.924 369.723 272.73 369.642 266.353C369.631 265.636 370.163 265.048 370.829 265.037C371.496 265.028 372.041 265.601 372.049 266.316C372.112 271.189 372.942 276.062 373.495 278.8L388.921 261.939C389.387 261.429 390.15 261.423 390.623 261.925C391.097 262.429 391.102 263.249 390.636 263.759L371.036 285.182C374.751 285.99 382.684 287.363 388.659 285.932C389.309 285.778 389.951 286.215 390.096 286.916C390.24 287.616 389.831 288.309 389.182 288.464C381.665 290.264 371.715 288.043 369.031 287.374L350.583 307.538C355.359 309.763 370.545 316.047 384.909 313.5C385.565 313.383 386.185 313.863 386.293 314.569C386.402 315.275 385.957 315.943 385.301 316.06C369.153 318.923 352.574 311.394 348.774 309.517L330.014 330.022C334.817 332.294 350.178 338.784 364.129 336.206C364.785 336.084 365.411 336.561 365.519 337.265C365.632 337.972 365.192 338.642 364.536 338.763C348.838 341.663 332.042 333.915 328.207 331.997L306.839 355.352C312.518 357.72 331.77 365.059 347.621 362.923C348.279 362.833 348.88 363.338 348.965 364.05C349.047 364.76 348.579 365.409 347.92 365.498C330.235 367.879 309.279 359.238 304.999 357.364L289.174 374.658L289.172 374.661L286.313 377.786C291.589 379.806 307.943 385.529 320.397 384.076C321.057 383.997 321.653 384.513 321.724 385.225C321.795 385.938 321.318 386.578 320.656 386.654C306.552 388.301 288.388 381.407 284.45 379.823L274.016 391.228C273.549 391.738 272.787 391.744 272.314 391.242C271.84 390.739 271.834 389.919 272.301 389.409L283.283 377.405L283.286 377.401L286.91 373.44C285.381 369.224 278.713 349.765 280.033 334.552C280.095 333.838 280.682 333.314 281.344 333.381C282.008 333.449 282.494 334.081 282.432 334.793C281.266 348.226 286.82 365.753 288.773 371.405L307.456 350.983C305.652 346.402 297.321 323.963 299.272 304.882C299.344 304.168 299.94 303.655 300.601 303.733Z" fill="#D9FBFF"/>
</g>
<path d="M160.953 265.858L130.214 258.97L124.365 317.493C124.068 320.471 123.965 323.468 124.057 326.463L126.06 391.169H155.409V322.255L160.953 265.858Z" fill="#BD6C67"/>
<path d="M130.213 258.969L160.953 265.858L159.73 278.289L129.71 264.008L130.213 258.969Z" fill="#A64F5A"/>
<path d="M267.331 265.858L298.07 258.97L303.918 317.493C304.216 320.471 304.319 323.468 304.226 326.463L302.224 391.169H272.875V322.255L267.331 265.858Z" fill="#BD6C67"/>
<path d="M298.07 258.969L267.331 265.858L268.553 278.289L298.573 264.008L298.07 258.969Z" fill="#A64F5A"/>
<path d="M267.331 298.644C274.435 283.979 271.559 269.499 270.555 265.173L305.503 257.304L294.521 227.136C290.166 215.171 281.012 205.975 269.627 202.128L239.422 191.92C235.89 199.848 228.992 209.943 214.142 209.943C199.292 209.943 192.395 199.848 188.861 191.92L158.657 202.128C147.272 205.976 138.118 215.171 133.762 227.136L122.781 257.304L157.728 265.173C156.724 269.499 153.848 283.979 160.953 298.644C160.953 298.644 164.376 326.29 164.376 340.564C164.376 354.837 153.251 369.543 153.251 391.169H214.142H275.033C275.033 369.543 263.908 354.837 263.908 340.564C263.908 326.29 267.331 298.644 267.331 298.644Z" fill="#6C6FC3"/>
<path d="M157.728 265.173L160.439 254.36L126.544 246.963L122.781 257.303L157.728 265.173Z" fill="white"/>
<path d="M241.369 192.578L239.421 191.92C235.889 199.848 228.991 209.943 214.141 209.943C199.291 209.943 192.394 199.848 188.86 191.92L186.913 192.578C183.773 202.615 185.745 214.205 190.123 223.69C193.519 231.047 198.563 237.38 204.393 242.72C206.607 244.747 210.008 243.363 210.482 240.275C211.359 234.563 212.621 228.938 214.14 223.371C215.659 228.939 216.922 234.563 217.798 240.275C218.272 243.363 221.673 244.748 223.887 242.72C229.717 237.381 234.761 231.047 238.157 223.69C242.537 214.205 244.509 202.616 241.369 192.578Z" fill="#56438C"/>
<path d="M241.369 192.578L239.421 191.92C235.889 199.848 228.991 209.943 214.141 209.943C199.291 209.943 192.394 199.848 188.861 191.92L186.913 192.578C185.442 199.854 185.88 207.574 188.203 214.59C190.108 220.341 195.739 227.97 201.093 233.471C203.586 236.032 207.689 235.067 208.933 231.606L214.142 217.126L219.349 231.606C220.594 235.066 224.696 236.032 227.19 233.471C232.544 227.97 238.175 220.341 240.08 214.59C242.403 207.574 242.84 199.854 241.369 192.578Z" fill="white"/>
<path d="M214.142 391.41H153.027V391.169C153.027 379.232 156.539 369.02 159.105 361.565L159.525 361.733C156.239 371.284 153.515 380.079 153.476 390.928H214.142V391.41Z" fill="#422C4F"/>
<path d="M192.073 308.999C191.961 308.999 191.864 308.909 191.851 308.785C191.836 308.653 191.925 308.534 192.048 308.519C192.982 308.403 193.919 308.256 194.831 308.084C202.909 306.558 208.745 303.161 211.263 298.523C211.325 298.406 211.463 298.368 211.569 298.436C211.677 298.503 211.713 298.651 211.65 298.766C209.064 303.53 203.119 307.008 194.908 308.559C193.988 308.733 193.042 308.88 192.1 308.998C192.09 308.999 192.081 308.999 192.073 308.999Z" fill="#422C4F"/>
<path d="M162.335 247.205C162.271 247.205 162.207 247.175 162.163 247.116C162.119 247.058 157.714 241.326 151.979 239.303C151.861 239.262 151.797 239.125 151.835 238.999C151.874 238.873 152 238.804 152.117 238.845C157.979 240.913 162.464 246.752 162.508 246.811C162.586 246.914 162.573 247.066 162.477 247.15C162.435 247.187 162.385 247.205 162.335 247.205Z" fill="#422C4F"/>
<path d="M161.601 250.102C161.497 250.102 161.405 250.024 161.383 249.911C161.156 248.753 157.636 245.442 152.153 245.442C152.117 245.442 152.056 245.448 152.048 245.443C151.925 245.443 151.825 245.336 151.824 245.204C151.823 245.071 151.922 244.962 152.046 244.961C152.082 244.96 152.117 244.96 152.153 244.96C157.818 244.96 161.544 248.393 161.821 249.811C161.846 249.942 161.769 250.069 161.648 250.097C161.633 250.1 161.616 250.102 161.601 250.102Z" fill="#422C4F"/>
<path d="M167.314 305.144C167.278 305.144 167.243 305.135 167.209 305.116C164.163 303.388 161.992 301.248 160.755 298.759C154.252 285.337 155.931 271.919 157.511 265.115L163.78 240.332C163.813 240.205 163.935 240.13 164.055 240.163C164.174 240.198 164.244 240.331 164.211 240.459L157.943 265.236C156.381 271.97 154.718 285.255 161.15 298.533C162.343 300.933 164.451 303.006 167.417 304.69C167.526 304.75 167.568 304.897 167.511 305.015C167.472 305.098 167.394 305.144 167.314 305.144Z" fill="#422C4F"/>
<path d="M270.556 265.173L267.845 254.36L301.739 246.963L305.503 257.303L270.556 265.173Z" fill="white"/>
<path d="M214.142 391.41H275.257V391.169C275.257 379.232 271.745 369.02 269.179 361.565L268.759 361.733C272.045 371.284 274.768 380.079 274.808 390.928H214.142V391.41Z" fill="#422C4F"/>
<path d="M236.211 308.999C236.323 308.999 236.42 308.909 236.433 308.785C236.448 308.653 236.36 308.534 236.236 308.519C235.301 308.403 234.365 308.256 233.453 308.084C225.374 306.558 219.539 303.161 217.021 298.523C216.959 298.406 216.821 298.368 216.714 298.436C216.607 298.503 216.571 298.651 216.634 298.766C219.22 303.53 225.165 307.008 233.376 308.559C234.296 308.733 235.241 308.88 236.184 308.998C236.194 308.999 236.203 308.999 236.211 308.999Z" fill="#422C4F"/>
<path d="M265.948 247.205C266.013 247.205 266.077 247.175 266.121 247.116C266.165 247.058 270.57 241.326 276.305 239.303C276.423 239.262 276.487 239.125 276.449 238.999C276.41 238.873 276.284 238.804 276.167 238.845C270.305 240.913 265.82 246.752 265.776 246.811C265.698 246.914 265.711 247.066 265.807 247.15C265.849 247.187 265.899 247.205 265.948 247.205Z" fill="#422C4F"/>
<path d="M266.683 250.102C266.786 250.102 266.879 250.024 266.901 249.911C267.128 248.753 270.648 245.442 276.131 245.442C276.166 245.442 276.228 245.448 276.236 245.443C276.359 245.443 276.459 245.336 276.46 245.204C276.461 245.071 276.362 244.962 276.238 244.961C276.202 244.96 276.166 244.96 276.131 244.96C270.466 244.96 266.74 248.393 266.463 249.811C266.438 249.942 266.515 250.069 266.636 250.097C266.651 250.1 266.667 250.102 266.683 250.102Z" fill="#422C4F"/>
<path d="M260.97 305.144C261.006 305.144 261.041 305.135 261.074 305.116C264.121 303.388 266.292 301.248 267.529 298.759C274.032 285.337 272.353 271.919 270.773 265.115L264.503 240.332C264.47 240.205 264.348 240.13 264.228 240.163C264.109 240.198 264.039 240.331 264.072 240.459L270.34 265.236C271.902 271.97 273.566 285.255 267.133 298.533C265.94 300.933 263.832 303.006 260.865 304.69C260.756 304.75 260.714 304.897 260.772 305.015C260.812 305.098 260.89 305.144 260.97 305.144Z" fill="#422C4F"/>
<path d="M239.422 191.92L229.402 188.533V172.963H214.142H198.881V188.533L188.861 191.92C192.394 199.848 199.291 209.943 214.142 209.943C228.992 209.943 235.889 199.848 239.422 191.92Z" fill="#BD6C67"/>
<path d="M214.142 172.962H198.881V176.32C202.395 183.883 210.477 186.478 214.142 186.478C217.806 186.478 225.888 183.883 229.402 176.32V172.962H214.142Z" fill="#422C4F"/>
<path d="M197.766 175.372C206.549 165.913 206.549 150.576 197.766 141.116C188.982 131.656 174.742 131.656 165.959 141.116C157.175 150.576 157.175 165.913 165.959 175.372C174.742 184.832 188.982 184.832 197.766 175.372Z" fill="#422C4F"/>
<path d="M267.14 167.655C271.967 155.329 266.601 141.122 255.156 135.923C243.711 130.724 230.52 136.502 225.693 148.829C220.866 161.156 226.231 175.363 237.676 180.562C249.121 185.76 262.313 179.982 267.14 167.655Z" fill="#422C4F"/>
<path d="M190.943 153.542C191.634 147.48 187.631 141.962 182.002 141.218C176.373 140.474 171.25 144.786 170.559 150.848C169.869 156.911 173.872 162.428 179.501 163.172C185.13 163.916 190.253 159.605 190.943 153.542Z" fill="#A64F5A"/>
<path d="M186.173 152.192C186.173 155.409 183.753 158.015 180.767 158.015C177.781 158.015 175.36 155.409 175.36 152.192C175.36 148.976 177.781 146.369 180.767 146.369C183.753 146.37 186.173 148.977 186.173 152.192Z" fill="#8C404C"/>
<path d="M249.856 162.964C255.377 161.568 258.802 155.616 257.506 149.669C256.209 143.723 250.682 140.034 245.161 141.431C239.64 142.827 236.215 148.779 237.512 154.726C238.808 160.672 244.335 164.361 249.856 162.964Z" fill="#A64F5A"/>
<path d="M242.11 152.191C242.11 155.408 244.531 158.014 247.516 158.014C250.503 158.014 252.923 155.408 252.923 152.191C252.923 148.975 250.503 146.368 247.516 146.368C244.531 146.369 242.11 148.976 242.11 152.191Z" fill="#8C404C"/>
<path d="M214.142 88.9434C195.347 88.9434 180.111 105.353 180.111 125.595V127.437C180.111 130.246 180.411 133.045 181.005 135.78L185.948 158.552C187.407 165.276 191.259 171.116 196.673 174.814L200.424 177.376C204.527 180.177 209.284 181.665 214.142 181.665C219 181.665 223.757 180.178 227.859 177.376L231.61 174.814C237.025 171.116 240.877 165.277 242.336 158.552L247.279 135.78C247.873 133.045 248.173 130.246 248.173 127.437V125.595C248.172 105.353 232.937 88.9434 214.142 88.9434Z" fill="#BD6C67"/>
<path d="M197.972 122.141C194.09 122.327 190.734 124.493 188.678 127.685L207.687 126.774C205.376 123.791 201.854 121.954 197.972 122.141Z" fill="#422C4F"/>
<path d="M230.312 122.141C234.194 122.327 237.55 124.493 239.606 127.685L220.596 126.774C222.908 123.791 226.43 121.954 230.312 122.141Z" fill="#422C4F"/>
<path d="M219.888 153.514H208.498C208.464 153.514 208.43 153.514 208.397 153.514C209.309 154.38 210.237 155.134 211.294 155.781C212.352 156.428 213.571 156.842 214.78 156.71C216.648 156.505 218.497 154.874 219.888 153.514Z" fill="#A64F5A"/>
<path d="M219.903 169.057H210.159C211.526 170.262 213.201 171.028 214.968 171.076C216.734 171.124 218.48 170.187 219.903 169.057Z" fill="#A64F5A"/>
<path d="M199.495 133.617C198.618 133.617 197.828 134.008 197.26 134.633C196.058 134.11 194.879 133.524 193.738 132.862C194.282 134.236 195.257 135.443 196.447 136.243C196.396 136.484 196.365 136.732 196.365 136.989C196.365 138.851 197.766 140.361 199.496 140.361C201.225 140.361 202.626 138.851 202.626 136.989C202.626 135.127 201.224 133.617 199.495 133.617Z" fill="#422C4F"/>
<path d="M228.789 133.617C229.665 133.617 230.455 134.008 231.024 134.633C232.225 134.11 233.404 133.524 234.546 132.862C234.001 134.236 233.026 135.443 231.836 136.243C231.887 136.484 231.918 136.732 231.918 136.989C231.918 138.851 230.517 140.361 228.788 140.361C227.059 140.361 225.657 138.851 225.657 136.989C225.658 135.127 227.06 133.617 228.789 133.617Z" fill="#422C4F"/>
<path d="M225.658 158.015C218.327 161.628 210.017 161.821 202.589 158.549C205.311 162.915 209.576 166.137 213.914 166.117C218.253 166.097 222.959 162.405 225.658 158.015Z" fill="white"/>
<path d="M246.757 94.1267C239.518 83.4766 226.372 78.5755 214.124 79.0287C201.875 78.5764 188.73 83.4776 181.49 94.1267C175.445 103.021 174.083 114.82 175.583 125.724C177.082 136.628 181.729 147.645 185.777 157.768L181.336 130.672C185.639 125.465 184.519 117.17 187.828 111.178C190.26 106.773 194.856 104.163 199.53 103.197C204.202 102.231 209.386 102.479 214.124 102.948C218.862 102.479 224.045 102.231 228.718 103.197C233.39 104.163 237.988 106.773 240.42 111.178C243.728 117.17 242.608 125.465 246.912 130.672L242.47 157.768C246.519 147.644 251.165 136.627 252.665 125.724C254.165 114.82 252.803 103.02 246.757 94.1267Z" fill="#422C4F"/>
<path d="M233.326 206.25C233.271 206.25 233.216 206.225 233.176 206.178C233.102 206.09 233.109 205.953 233.192 205.873C234.715 204.396 236.071 202.756 237.225 200.997C237.289 200.899 237.415 200.876 237.505 200.945C237.596 201.014 237.617 201.149 237.553 201.246C236.383 203.031 235.006 204.696 233.459 206.194C233.421 206.231 233.373 206.25 233.326 206.25Z" fill="#422C4F"/>
<path d="M228.29 210.159C228.22 210.159 228.153 210.12 228.116 210.05C228.062 209.946 228.094 209.814 228.191 209.755C229.067 209.217 229.922 208.627 230.734 208C230.822 207.93 230.949 207.952 231.014 208.05C231.079 208.147 231.058 208.282 230.967 208.352C230.145 208.988 229.278 209.586 228.39 210.131C228.358 210.151 228.324 210.159 228.29 210.159Z" fill="#422C4F"/>
<path d="M214.156 214.262C213.885 214.262 213.615 214.258 213.345 214.248C208.601 214.089 203.855 212.566 199.62 209.844C199.525 209.782 199.494 209.65 199.551 209.548C199.607 209.444 199.73 209.411 199.825 209.472C204.003 212.158 208.682 213.66 213.358 213.816C217.053 213.947 220.896 213.201 224.467 211.681C224.57 211.636 224.686 211.691 224.727 211.802C224.768 211.913 224.718 212.039 224.614 212.083C221.254 213.513 217.656 214.262 214.156 214.262Z" fill="#422C4F"/>
<path d="M195.334 206.42C195.286 206.42 195.239 206.403 195.201 206.365C193.121 204.383 191.349 202.125 189.934 199.653C189.876 199.551 189.906 199.419 190 199.355C190.094 199.293 190.217 199.324 190.276 199.425C191.67 201.862 193.417 204.087 195.467 206.041C195.55 206.12 195.559 206.257 195.484 206.346C195.444 206.396 195.388 206.42 195.334 206.42Z" fill="#422C4F"/>
<path d="M230.001 226.302C229.951 226.302 229.901 226.282 229.862 226.242C229.783 226.16 229.779 226.023 229.856 225.937C234.209 221.05 237.384 215.013 239.038 208.48C239.067 208.365 239.18 208.299 239.284 208.328C239.392 208.359 239.455 208.479 239.426 208.594C237.754 215.196 234.546 221.297 230.147 226.236C230.107 226.28 230.054 226.302 230.001 226.302Z" fill="#422C4F"/>
<path d="M192.425 218.312C192.354 218.312 192.284 218.269 192.248 218.196C191.32 216.304 190.57 214.31 190.017 212.271C189.985 212.157 190.046 212.037 190.153 212.003C190.259 211.969 190.37 212.035 190.402 212.15C190.948 214.161 191.688 216.127 192.603 217.995C192.655 218.1 192.617 218.231 192.518 218.287C192.489 218.304 192.457 218.312 192.425 218.312Z" fill="#422C4F"/>
<path d="M197.683 321.849C197.577 321.849 197.488 321.761 197.482 321.646C197.476 321.526 197.56 321.424 197.671 321.417C211.531 320.554 225.978 316.615 239.664 312.32C220.552 314.944 201.154 315.341 181.964 313.498C181.854 313.487 181.772 313.382 181.782 313.263C181.791 313.144 181.888 313.048 182 313.067C202.022 314.991 222.274 314.473 242.189 311.523C242.301 311.514 242.392 311.582 242.413 311.692C242.436 311.803 242.375 311.913 242.274 311.945C227.834 316.546 212.44 320.931 197.694 321.85C197.69 321.849 197.686 321.849 197.683 321.849Z" fill="#422C4F"/>
<path d="M227.647 336.774C212.658 336.774 197.738 334.83 183.093 330.956C182.985 330.927 182.919 330.809 182.946 330.693C182.972 330.577 183.081 330.507 183.189 330.534C203.723 335.967 224.806 337.598 245.849 335.383C245.968 335.368 246.058 335.459 246.068 335.578C246.079 335.698 245.998 335.803 245.888 335.814C239.806 336.455 233.72 336.774 227.647 336.774Z" fill="#422C4F"/>
<path d="M227.635 344.373C215.13 344.373 202.637 342.018 190.88 337.391C190.776 337.35 190.722 337.226 190.76 337.114C190.797 337.002 190.912 336.943 191.018 336.985C207.116 343.32 224.608 345.381 241.597 342.948C241.714 342.936 241.809 343.016 241.823 343.134C241.837 343.252 241.76 343.361 241.65 343.377C237.004 344.042 232.317 344.373 227.635 344.373Z" fill="#422C4F"/>
<path d="M239.029 361.647C221.168 361.647 203.216 355.334 188.907 343.859C188.818 343.789 188.8 343.653 188.866 343.557C188.933 343.462 189.058 343.441 189.147 343.512C205.154 356.349 225.74 362.693 245.636 360.921C245.747 360.904 245.843 360.999 245.853 361.119C245.862 361.238 245.78 361.341 245.669 361.352C243.463 361.551 241.247 361.647 239.029 361.647Z" fill="#422C4F"/>
<path d="M325.75 209.541C323.028 210.569 319.886 209.691 317.625 207.761C315.364 205.831 313.907 202.979 313.065 200.008C312.224 197.037 311.946 193.92 311.673 190.827C311.351 187.179 311.097 183.214 312.953 180.144C314.597 177.424 317.569 176.006 320.474 175.143C323.565 174.224 326.929 173.783 329.935 174.984C333.827 176.541 336.454 180.648 337.555 184.96C338.656 189.272 338.468 193.828 338.272 198.296C338.135 201.413 337.998 204.531 337.862 207.648L339.137 213.728L326.99 215.638L325.75 209.541Z" fill="#EBA58E"/>
<path d="M324.479 216.032L325.292 211.601L339.839 209.438L340.831 213.461L324.479 216.032Z" fill="#7DD3E9"/>
<path d="M337.228 178.047C337.16 174.159 333.978 170.634 330.371 170.451C327.757 170.319 325.203 171.718 322.602 171.411C319.517 171.047 317.014 168.372 313.946 167.873C310.667 167.341 307.253 169.683 306.098 173.03C304.943 176.379 305.998 180.4 308.455 182.799C310.913 185.197 314.808 185.958 317.996 184.973C317.562 187.71 318.706 190.31 320.697 192.072C320.03 194.891 320.759 197.766 322.571 199.924C322.571 197.256 323.401 195.262 324.369 194.306C325.337 193.35 326.922 193.043 327.985 193.871C328.758 194.473 329.121 195.525 329.232 196.545C329.409 198.16 329.046 199.838 328.224 201.203C327.401 202.567 326.126 203.608 324.685 204.092C327.955 207.348 333.482 208.526 337.86 207.649C340.711 207.078 342.171 203.054 343.05 200.079C343.93 197.104 344.275 193.98 344.594 190.877C344.79 188.968 344.979 187.041 344.781 185.134C344.583 183.226 343.966 181.313 342.74 179.919C341.516 178.524 338.951 177.553 337.228 178.047Z" fill="#6A3649"/>
<path d="M324.454 202.145C324.369 202.145 324.287 202.131 324.209 202.101C323.97 202.007 323.671 201.734 323.611 200.963C323.47 199.156 323.964 197.281 324.963 195.821C325.386 195.203 325.815 194.894 326.275 194.875C326.785 194.859 327.262 195.198 327.542 195.748C327.778 196.217 327.846 196.758 327.905 197.235C327.919 197.354 327.842 197.462 327.732 197.478C327.614 197.49 327.52 197.411 327.506 197.292C327.45 196.831 327.391 196.354 327.189 195.956C327.024 195.629 326.692 195.306 326.318 195.306C326.309 195.306 326.301 195.306 326.291 195.307C325.96 195.32 325.631 195.572 325.286 196.077C324.343 197.454 323.88 199.222 324.011 200.926C324.035 201.225 324.112 201.602 324.346 201.694C324.468 201.74 324.638 201.695 324.764 201.579C324.881 201.472 324.976 201.31 325.064 201.071C325.303 200.417 325.335 199.685 325.151 199.01C325.121 198.895 325.182 198.776 325.287 198.742C325.393 198.707 325.505 198.774 325.537 198.888C325.745 199.655 325.71 200.486 325.438 201.228C325.367 201.422 325.248 201.704 325.025 201.907C324.855 202.063 324.651 202.145 324.454 202.145Z" fill="#422C4F"/>
<path d="M324.428 197.427C324.369 197.427 324.311 197.4 324.272 197.346C324.202 197.254 324.215 197.118 324.301 197.042C324.883 196.539 325.748 196.448 326.408 196.825C326.506 196.881 326.544 197.013 326.492 197.118C326.44 197.224 326.317 197.263 326.22 197.207C325.7 196.911 325.013 196.98 324.555 197.38C324.516 197.412 324.472 197.427 324.428 197.427Z" fill="#422C4F"/>
<path d="M258.269 236.31C258.269 228.507 254.149 222.043 248.742 220.774V220.532H246.806C240.475 220.532 235.344 227.596 235.344 236.31C235.344 245.024 240.475 252.088 246.806 252.088H248.742V251.846C254.149 250.577 258.269 244.114 258.269 236.31Z" fill="#99A3B0"/>
<path d="M248.742 252.088C255.073 252.088 260.205 245.024 260.205 236.31C260.205 227.596 255.073 220.532 248.742 220.532C242.411 220.532 237.279 227.596 237.279 236.31C237.279 245.024 242.411 252.088 248.742 252.088Z" fill="#C7D2D7"/>
<path d="M263.998 236.31C263.998 231.617 261.52 227.731 258.269 226.968V226.822H251.644C247.838 226.822 244.751 231.071 244.751 236.31C244.751 241.55 247.838 245.798 251.644 245.798H258.269V245.653C261.52 244.89 263.998 241.003 263.998 236.31Z" fill="#99A3B0"/>
<path d="M258.269 245.798C262.076 245.798 265.162 241.55 265.162 236.31C265.162 231.07 262.076 226.822 258.269 226.822C254.462 226.822 251.375 231.07 251.375 236.31C251.375 241.55 254.462 245.798 258.269 245.798Z" fill="#C7D2D7"/>
<path d="M255.378 240.059C260.283 255.065 260.574 271.414 266.293 286.143C270.43 296.798 278.248 307.152 289.272 309.544C299.511 311.765 310.107 306.304 313.243 295.26C315.14 288.583 314.672 281.341 314.73 274.449C314.793 267.05 314.954 259.648 315.367 252.259C316.372 234.3 318.826 216.182 325.448 199.539C325.851 198.527 324.468 197.644 324.061 198.666C314.5 222.694 313.314 249.378 313.118 275.174C313.067 281.882 313.534 289.017 311.506 295.467C309.16 302.932 302.899 307.572 295.714 308.227C283.011 309.385 273.144 298.393 268.31 286.836C262.058 271.888 261.954 254.975 256.928 239.598C256.586 238.556 255.034 239.005 255.378 240.059Z" fill="#454F6B"/>
<path d="M324.906 200.671C325.738 200.671 326.412 199.945 326.412 199.049C326.412 198.153 325.738 197.427 324.906 197.427C324.074 197.427 323.4 198.153 323.4 199.049C323.4 199.945 324.074 200.671 324.906 200.671Z" fill="#797C99"/>
<path d="M353.891 329.432L352.559 456.134H374.166L383.019 313.315L353.891 329.432Z" fill="#454F6B"/>
<path d="M357.57 327.396L356.077 352.386L353.891 352.708V393.48L361.835 356.479C368.247 355.53 374.538 353.717 380.734 351.563L383.02 313.314L357.57 327.396Z" fill="#422C4F"/>
<path d="M329.284 329.432L327.952 456.134H349.559L358.412 313.315L329.284 329.432Z" fill="#454F6B"/>
<path d="M329.284 329.432V350.802C336.583 355.445 345.314 357.318 353.891 357.167C354.527 357.155 355.161 357.132 355.795 357.099L357.569 327.397L358.411 313.316L329.284 329.432Z" fill="#422C4F"/>
<path d="M349.928 450.172C349.924 450.172 349.919 450.172 349.915 450.171C349.804 450.164 349.72 450.061 349.728 449.943L355.112 365.173C355.119 365.054 355.22 364.946 355.324 364.972C355.435 364.979 355.52 365.082 355.512 365.2L350.127 449.97C350.122 450.085 350.033 450.172 349.928 450.172Z" fill="#422C4F"/>
<path d="M272.64 244.977L269.159 243.607L264.487 232.983C263.995 231.865 263.258 230.891 262.34 230.147L258.511 227.042C258.087 226.699 257.497 226.729 257.105 227.113C256.661 227.547 256.621 228.282 257.012 228.77L261.06 233.804L253.635 230.719C253.039 230.471 252.369 230.785 252.132 231.425C251.916 232.004 252.13 232.667 252.632 232.979L259.522 237.265L253.005 236.6C252.308 236.529 251.681 237.062 251.585 237.81C251.493 238.525 251.916 239.2 252.567 239.374L259.254 241.159L253.802 241.67C253.167 241.73 252.713 242.357 252.813 243.034C252.899 243.613 253.365 244.037 253.91 244.03L258.584 243.97C259.32 249.737 264.608 251.034 264.608 251.034L269.963 253.99L272.64 244.977Z" fill="#EBA58E"/>
<path d="M272.64 244.977L270.137 243.992C266.298 245.68 265.535 249.374 265.114 251.311L269.962 253.987L272.64 244.977Z" fill="#E78882"/>
<path d="M358.535 221.526C355.787 215.486 349.725 212.063 343.546 213.035L320.913 216.594C315.373 217.464 310.563 221.162 307.996 226.521L294.325 255.07L271.167 242.96C264.608 249.015 266.08 256.656 266.08 256.656L291.107 271.451C296.952 274.906 304.291 272.607 307.504 266.315L314.94 251.754C330.803 272.011 328.995 334.077 327.188 345.755C338.977 351.464 354.26 351.021 365.853 349.399C366.829 340.18 367.805 330.962 368.781 321.743C370.093 330.555 370.875 339.649 370.734 348.618C378.063 347.298 383.007 345.755 383.007 345.755C390.039 281.667 367.076 240.296 358.535 221.526Z" fill="white"/>
<path d="M315.1 246.324L305.938 263.531C302.999 269.051 296.463 270.962 291.335 267.8L266.135 252.263C265.731 254.832 266.081 256.655 266.081 256.655L291.108 271.45C296.952 274.905 304.291 272.606 307.504 266.314L314.94 251.753L320.034 241.777C317.953 242.635 316.209 244.24 315.1 246.324Z" fill="#E4E4E0"/>
<path d="M323.221 260.577C329.137 264.989 336.492 267.851 343.627 268.849C334.612 265.403 325.854 259.335 319.452 251.679C320.411 248.445 320.571 245.122 320.034 241.777L314.94 251.753C323.125 262.205 326.605 283.785 327.809 303.834C330.635 289.373 329.134 273.836 323.221 260.577Z" fill="#E4E4E0"/>
<path d="M307.505 266.53C307.472 266.53 307.439 266.521 307.409 266.503C307.311 266.445 307.276 266.315 307.329 266.21L321.202 239.041C321.255 238.936 321.378 238.897 321.475 238.956C321.572 239.014 321.607 239.144 321.554 239.249L307.681 266.418C307.645 266.489 307.576 266.53 307.505 266.53Z" fill="#422C4F"/>
<path d="M355.908 254.95C355.818 254.95 355.736 254.885 355.714 254.786C352.928 242.789 348.776 231.173 343.371 220.262C343.319 220.157 343.356 220.027 343.454 219.97C343.55 219.916 343.673 219.953 343.726 220.06C349.146 231.001 353.31 242.65 356.103 254.682C356.13 254.798 356.064 254.916 355.957 254.945C355.94 254.949 355.924 254.95 355.908 254.95Z" fill="#422C4F"/>
<path d="M292.021 260.1C291.99 260.1 291.958 260.092 291.929 260.075C291.83 260.02 291.792 259.889 291.842 259.784L300.756 241.167C300.808 241.061 300.929 241.019 301.027 241.073C301.125 241.128 301.164 241.26 301.114 241.365L292.199 259.982C292.163 260.056 292.094 260.1 292.021 260.1Z" fill="#422C4F"/>
<path d="M352.151 345.959C345.279 345.959 338.381 344.894 331.829 342.792C331.723 342.758 331.662 342.638 331.694 342.523C331.726 342.409 331.84 342.34 331.944 342.377C341.281 345.37 351.323 346.254 360.989 344.926C361.106 344.912 361.199 344.996 361.214 345.114C361.228 345.233 361.15 345.341 361.039 345.356C358.102 345.76 355.129 345.959 352.151 345.959Z" fill="#422C4F"/>
<path d="M363.854 341.648C363.845 341.648 363.834 341.647 363.825 341.645C363.715 341.628 363.639 341.518 363.656 341.4L366.649 319.571C366.665 319.452 366.766 319.369 366.877 319.389C366.987 319.405 367.063 319.516 367.046 319.633L364.053 341.463C364.037 341.571 363.952 341.648 363.854 341.648Z" fill="#422C4F"/>
<path d="M372.944 329.648C372.849 329.648 372.765 329.576 372.747 329.472C372.297 326.954 371.699 324.44 370.967 321.999C370.933 321.885 370.991 321.763 371.097 321.726C371.202 321.693 371.316 321.752 371.35 321.866C372.086 324.323 372.689 326.855 373.142 329.391C373.164 329.509 373.092 329.622 372.983 329.644C372.969 329.647 372.957 329.648 372.944 329.648Z" fill="#422C4F"/>
<path d="M374.289 343.881C374.195 343.881 374.111 343.809 374.092 343.707C374.07 343.59 374.14 343.477 374.25 343.452L380.158 342.179C380.27 342.158 380.373 342.232 380.394 342.349C380.416 342.466 380.346 342.58 380.237 342.604L374.328 343.877C374.315 343.879 374.302 343.881 374.289 343.881Z" fill="#422C4F"/>
<path d="M348.546 266.425C348.546 272.805 347.47 276.551 347.47 276.551C364.137 274.821 371.618 268.447 371.618 268.447L348.546 266.425Z" fill="#E4E4E0"/>
<path d="M371.376 266.066C371.532 266.873 371.617 267.679 371.616 268.447C364.467 271.182 357.105 272.993 349.666 274.604C349.653 271.948 349.279 268.96 348.545 266.424C350.177 265.979 351.812 265.546 353.451 265.129" fill="white"/>
<path d="M349.667 274.821C349.621 274.821 349.576 274.805 349.54 274.773C349.493 274.731 349.466 274.671 349.466 274.606C349.452 271.84 349.047 268.882 348.355 266.489C348.339 266.433 348.344 266.371 348.371 266.32C348.398 266.269 348.444 266.23 348.496 266.216C350.118 265.772 351.769 265.336 353.405 264.919C353.517 264.89 353.621 264.964 353.647 265.08C353.673 265.196 353.606 265.313 353.499 265.34C351.934 265.738 350.354 266.155 348.8 266.578C349.446 268.893 349.829 271.693 349.866 274.341C356.76 272.843 364.129 271.069 371.416 268.294C371.407 267.603 371.327 266.869 371.18 266.11C371.158 265.993 371.228 265.878 371.336 265.854C371.449 265.833 371.551 265.905 371.573 266.022C371.735 266.868 371.818 267.683 371.817 268.446C371.817 268.538 371.763 268.62 371.683 268.65C364.246 271.496 356.725 273.295 349.705 274.816C349.693 274.819 349.679 274.821 349.667 274.821Z" fill="#422C4F"/>
<path d="M336.893 466.3H345.438L343.182 456.133H330.886C322.044 458.223 312.865 466.3 312.865 466.3H332.867L336.893 463.688V466.3Z" fill="#422C4F"/>
<path d="M363.255 466.3H371.799L369.543 456.133H357.248C348.405 458.223 339.227 466.3 339.227 466.3H359.229L363.255 463.688V466.3Z" fill="#422C4F"/>
<path d="M91.5308 233.855L110.562 184.719L139.806 193.507L120.774 242.644L91.5308 233.855Z" fill="#A64F5A"/>
<path d="M95.8953 231.574L112.434 188.873L135.441 195.788L118.902 238.489L95.8953 231.574Z" fill="#FBEED1"/>
<path d="M129.754 195.469L130.758 188.873L119.065 185.234L118.061 191.83L129.754 195.469Z" fill="#C7D2D7"/>
<path d="M130.758 188.873L132.033 191.171L130.479 190.704L130.758 188.873Z" fill="#99A3B0"/>
<path d="M118.061 191.831L129.754 195.469L130.308 191.831L130.073 192.231C129.5 193.211 128.393 193.662 127.361 193.338L118.265 190.484L118.061 191.831Z" fill="#99A3B0"/>
<path d="M81.7588 329.431V453.441H62.8969L56.3306 313.314L81.7588 329.431Z" fill="#454F6B"/>
<path d="M78.5469 327.395L79.8506 352.385L81.7589 352.707V393.479L76.4282 365.035C70.8316 364.086 64.2214 363.039 58.8128 360.885L56.3315 313.313L78.5469 327.395Z" fill="#422C4F"/>
<path d="M107.303 329.431V453.441H88.3547L81.7588 313.314L107.303 329.431Z" fill="#454F6B"/>
<path d="M107.303 329.431V359.746C100.901 364.389 93.6191 365.652 86.0982 365.5C85.5403 365.489 84.9842 365.465 84.4281 365.433L82.4966 327.395L81.7588 313.314L107.303 329.431Z" fill="#422C4F"/>
<path d="M110.355 241.226C110.598 240.812 110.84 240.399 111.083 239.987C113.735 235.482 114.252 229.887 112.471 224.909C109.607 216.903 106.038 208.54 103.905 200.906H73.3845C66.8925 204.47 63.3008 213.296 62.6113 221.109C61.9227 228.922 63.1539 236.794 62.8334 244.635C62.3373 256.764 58.1716 268.31 55.239 280.034C49.2565 303.955 48.3807 329.341 52.6986 353.674C56.8177 355.302 61.0281 356.595 65.2878 357.581L69.1669 334.797L72.9296 358.984C85.8922 360.755 99.1145 359.487 111.563 354.744C112.773 320.677 112.103 286.597 107.966 252.823C107.471 248.777 108.333 244.675 110.355 241.226Z" fill="white"/>
<path d="M130.511 222.486L131.465 218.701L129.217 216.108C128.845 215.679 128.558 215.172 128.373 214.621L126.813 209.972C126.626 209.416 126.816 208.793 127.274 208.465C127.775 208.105 128.447 208.204 128.841 208.694L132.268 212.971L135.932 203.51L136.506 204.428C137.146 205.451 137.487 206.656 137.487 207.889L139.458 212.093C139.836 212.899 139.908 213.832 139.659 214.694L136.233 226.542L130.511 222.486Z" fill="#F0BF9C"/>
<path d="M93.9996 200.906L94.4016 193.435C97.9145 193.435 101.122 190.227 102.313 186.668C103.124 184.243 103.022 181.551 102.448 179.049C101.875 176.546 100.853 174.194 99.8388 171.86C98.3972 168.546 96.9555 165.231 95.5147 161.915C93.7847 157.937 88.7549 156.57 84.6842 156.832C80.6125 157.093 76.6636 159.587 74.6811 163.425C72.7209 167.22 72.7719 171.918 73.9217 176.08C75.0715 180.241 77.2179 183.987 79.341 187.678C80.5302 189.744 81.7193 191.811 82.9085 193.879L82.2217 200.906H93.9996Z" fill="#F0BF9C"/>
<path d="M75.4385 256.55C75.5227 256.517 75.5782 256.424 75.5675 256.324C74.261 244.037 74.3577 231.59 75.8567 219.33C75.871 219.212 75.794 219.103 75.6839 219.088C75.5764 219.073 75.4735 219.154 75.4591 219.274C73.9557 231.569 73.8581 244.051 75.169 256.373C75.1815 256.492 75.2809 256.576 75.3911 256.563C75.4072 256.561 75.4233 256.556 75.4385 256.55Z" fill="#422C4F"/>
<path d="M85.6941 356.052C92.5659 356.052 99.4635 354.986 106.016 352.885C106.122 352.851 106.183 352.731 106.151 352.616C106.119 352.502 106.005 352.433 105.901 352.47C96.5641 355.463 86.5224 356.347 76.8551 355.019C76.7378 355.005 76.6447 355.089 76.6304 355.206C76.616 355.325 76.6939 355.433 76.8041 355.448C79.7421 355.851 82.7159 356.052 85.6941 356.052Z" fill="#422C4F"/>
<path d="M73.9906 351.74C73.9995 351.74 74.0103 351.739 74.0192 351.737C74.1294 351.72 74.2055 351.61 74.1885 351.492L71.195 329.663C71.1797 329.544 71.0777 329.461 70.9675 329.48C70.8574 329.498 70.7813 329.608 70.7983 329.725L73.7918 351.555C73.807 351.663 73.893 351.74 73.9906 351.74Z" fill="#422C4F"/>
<path d="M64.9009 339.739C64.9958 339.739 65.08 339.668 65.0979 339.564C65.5483 337.046 66.1465 334.531 66.8781 332.091C66.9121 331.977 66.8539 331.855 66.7482 331.818C66.6426 331.785 66.5289 331.844 66.4948 331.957C65.7579 334.415 65.1561 336.946 64.703 339.483C64.6815 339.6 64.7532 339.713 64.8624 339.735C64.8759 339.738 64.8884 339.739 64.9009 339.739Z" fill="#422C4F"/>
<path d="M63.5559 353.971C63.6499 353.971 63.7341 353.901 63.7529 353.798C63.7753 353.681 63.7045 353.567 63.5953 353.543L57.6871 352.27C57.5751 352.249 57.4722 352.323 57.4507 352.44C57.4283 352.557 57.499 352.67 57.6083 352.695L63.5165 353.968C63.5299 353.97 63.5433 353.971 63.5559 353.971Z" fill="#422C4F"/>
<path d="M88.8999 263.615C89.8894 269.906 91.5307 273.406 91.5307 273.406C74.8305 274.697 66.4661 269.759 66.4661 269.759L88.8999 263.615Z" fill="#E4E4E0"/>
<path d="M66.3337 267.368C66.305 268.19 66.3462 269 66.4653 269.758C73.9388 271.168 81.4785 271.629 89.0621 271.881C88.6627 269.261 88.5678 266.246 88.8991 263.614C87.2211 263.469 85.5412 263.336 83.8613 263.22" fill="white"/>
<path d="M89.0578 272.098C81.9004 271.861 74.2066 271.439 66.4314 269.97C66.3481 269.955 66.2828 269.885 66.2684 269.794C66.1494 269.042 66.1037 268.223 66.1332 267.36C66.1377 267.24 66.2264 267.151 66.3419 267.151C66.452 267.156 66.5389 267.257 66.5353 267.376C66.5084 268.153 66.5442 268.89 66.6419 269.572C74.2568 270.998 81.7974 271.421 88.8267 271.658C88.4524 269.041 88.3969 266.211 88.6745 263.813C87.077 263.675 85.4544 263.548 83.8498 263.437C83.7388 263.43 83.6555 263.327 83.6626 263.207C83.6698 263.088 83.7611 262.997 83.8758 263.005C85.5529 263.122 87.2489 263.254 88.9163 263.4C88.9709 263.405 89.0219 263.434 89.056 263.48C89.0909 263.526 89.1061 263.586 89.0989 263.645C88.7873 266.128 88.8464 269.118 89.2619 271.847C89.2718 271.911 89.2548 271.976 89.2154 272.026C89.1849 272.063 89.1419 272.087 89.0972 272.096C89.0837 272.097 89.0703 272.098 89.0578 272.098Z" fill="#422C4F"/>
<path d="M110.355 241.225C110.454 241.056 110.554 240.888 110.653 240.718V240.717L102.353 225.91C102.265 229.536 102.755 233.541 104.705 236.499C105.471 237.662 106.391 238.753 106.805 240.109C107.403 242.069 106.84 244.19 106.368 246.189C105.057 251.735 104.452 257.543 105.262 263.199C105.921 267.805 107.586 272.297 110.264 275.932C109.663 268.215 108.909 260.51 107.967 252.82C107.471 248.777 108.333 244.675 110.355 241.225Z" fill="#E4E4E0"/>
<path d="M103.905 200.906C107.569 200.906 110.891 203.227 112.384 206.831L124.024 234.92L129.71 220.533C135.297 219.602 138.376 226.235 138.376 226.235L130.839 249.762C129.742 253.187 126.747 255.486 123.383 255.486C120.621 255.486 118.059 253.929 116.631 251.381L101.162 223.783C94.3346 210.088 103.905 200.906 103.905 200.906Z" fill="white"/>
<path d="M126.411 228.089L123.891 234.598L125.726 239.027C127.198 234.921 126.411 228.089 126.411 228.089Z" fill="#E4E4E0"/>
<path d="M116.631 251.597C116.563 251.597 116.497 251.56 116.459 251.492L100.99 223.894C100.932 223.792 100.963 223.66 101.058 223.598C101.153 223.537 101.276 223.569 101.333 223.671L116.803 251.269C116.861 251.371 116.83 251.504 116.735 251.566C116.702 251.587 116.667 251.597 116.631 251.597Z" fill="#422C4F"/>
<path d="M126.236 240.474C126.159 240.474 126.086 240.427 126.053 240.346L117.878 220.618C117.833 220.509 117.878 220.381 117.979 220.332C118.08 220.284 118.199 220.332 118.245 220.442L126.42 240.17C126.464 240.279 126.42 240.407 126.319 240.456C126.292 240.468 126.264 240.474 126.236 240.474Z" fill="#422C4F"/>
<path d="M100.761 161.834C99.8629 157.122 96.6187 153.007 92.4468 151.29C88.5435 149.684 84.0618 150.157 80.2525 152.007C73.3978 155.335 68.677 163.225 68.6931 171.323C68.702 175.832 70.0443 180.211 70.4589 184.698C70.8807 189.258 70.3273 193.92 68.8534 198.219C67.1878 203.079 64.4003 207.392 62.3497 212.077C60.2991 216.762 58.9935 222.194 60.5203 227.106C61.9208 231.612 65.602 235.038 69.7632 236.616C73.9243 238.194 78.509 238.088 82.8251 237.104C88.0035 235.925 93.3261 233.096 95.5101 227.904C96.8659 224.679 96.8238 221.002 96.7575 217.463C96.7575 209.061 96.4396 200.643 96.2802 192.242C96.2023 188.135 95.854 183.913 96.0967 179.812C96.248 177.253 97.2966 175.539 98.4714 173.399C100.415 169.862 101.547 165.956 100.761 161.834Z" fill="#6A3649"/>
<path d="M102.28 466.299H117.097C116.015 464.047 114.205 462.299 112.009 461.385L111.604 461.217C109.927 460.519 108.465 459.331 107.382 457.786L104.338 453.439H93.7032C93.7032 453.439 90.7929 459.788 95.2702 466.298H99.1502V462.601L102.28 466.299Z" fill="#422C4F"/>
<path d="M76.7596 466.299H91.5766C90.4949 464.047 88.6852 462.299 86.4887 461.385L86.0839 461.217C84.4067 460.519 82.9445 459.331 81.8619 457.786L78.8173 453.439H68.1829C68.1829 453.439 65.2727 459.788 69.75 466.298H73.63V462.601L76.7596 466.299Z" fill="#422C4F"/>
<defs>
<filter id="filter0_d_259_16" x="84.9775" y="11.6172" width="244.812" height="152.834" filterUnits="userSpaceOnUse" color-interpolation-filters="sRGB">
<feFlood flood-opacity="0" result="BackgroundImageFix"/>
<feColorMatrix in="SourceAlpha" type="matrix" values="0 0 0 0 0 0 0 0 0 0 0 0 0 0 0 0 0 0 127 0" result="hardAlpha"/>
<feOffset dy="4"/>
<feGaussianBlur stdDeviation="2"/>
<feComposite in2="hardAlpha" operator="out"/>
<feColorMatrix type="matrix" values="0 0 0 0 0 0 0 0 0 0 0 0 0 0 0 0 0 0 0.25 0"/>
<feBlend mode="normal" in2="BackgroundImageFix" result="effect1_dropShadow_259_16"/>
<feBlend mode="normal" in="SourceGraphic" in2="effect1_dropShadow_259_16" result="shape"/>
</filter>
</defs>
</svg>
