<svg width="450" height="467" viewBox="0 0 450 467" fill="none" xmlns="http://www.w3.org/2000/svg">
<path d="M411.648 391.38H45.2696C35.0206 391.38 25.3846 386.399 19.5366 377.982C-1.16438 348.188 -5.67938 307.645 7.26062 273.405C16.5156 248.917 34.3396 227.821 39.9766 202.257C45.1336 178.872 39.4736 154.655 38.0366 130.751C36.5996 106.847 40.9866 79.8684 60.1636 65.5264C75.8486 53.7964 97.8566 53.7684 116.331 60.2714C134.806 66.7734 150.661 78.9004 166.514 90.4004C182.368 101.901 199.058 113.184 218.148 117.561C240.119 122.598 263.058 118.003 284.953 112.645C306.848 107.288 329.101 101.113 351.559 103.04C374.017 104.967 397.206 116.975 405.332 138C414.648 162.105 402.038 189.972 409.106 214.829C413.434 230.051 424.576 242.202 433.053 255.565C453.737 288.173 454.755 333.532 441.087 370.907C436.579 383.236 424.776 391.38 411.648 391.38Z" fill="#CFB9FF"/>
<path d="M266.945 104.087C275.571 102.952 284.347 100.783 291.306 95.5599C304.317 85.7949 307.962 66.5479 301.991 51.4159C296.021 36.2829 282.036 25.2979 266.68 19.9279C251.324 14.5579 234.655 14.2069 218.437 15.4769C205.17 16.5149 191.653 18.7109 180.059 25.2439C170.656 30.5419 161.647 39.8209 158.784 50.5009C156.292 59.7999 161.325 67.1769 167.914 73.2989C184.627 88.8279 206.96 98.9679 229.27 103.049C241.677 105.32 254.433 105.733 266.945 104.087Z" fill="#CFB9FF"/>
<g filter="url(#filter0_d_152_36)">
<path d="M266.308 82.2259C281.968 82.2259 294.662 68.5539 294.662 51.6886C294.662 34.8234 281.968 21.1514 266.308 21.1514C250.649 21.1514 237.955 34.8234 237.955 51.6886C237.955 68.5539 250.649 82.2259 266.308 82.2259Z" fill="#7DD3E9"/>
<path d="M274.978 70.369L267.874 73.8745C266.88 74.3647 265.738 74.3647 264.746 73.8745L257.641 70.369C252.197 67.6825 248.707 61.8244 248.707 55.3754V41.5745C248.707 40.1276 249.43 38.7924 250.6 38.0819L264.482 29.6509C265.617 28.9614 267.004 28.9614 268.138 29.6509L282.02 38.0819C283.19 38.7924 283.914 40.1276 283.914 41.5745V55.3754C283.913 61.8254 280.422 67.6825 274.978 70.369Z" fill="white"/>
<path d="M277.477 47.8041H269.915V39.6611H262.703V47.8041H255.141V55.5725H262.703V63.7165H269.915V55.5725H277.477V47.8041Z" fill="#CC6164"/>
<path d="M291.237 156.451C306.453 156.451 318.789 143.166 318.789 126.777C318.789 110.388 306.453 97.1025 291.237 97.1025C276.02 97.1025 263.684 110.388 263.684 126.777C263.684 143.166 276.02 156.451 291.237 156.451Z" fill="#7DD3E9"/>
<path d="M309.419 114.01C305.079 109.335 298.041 109.335 293.701 114.01L291.238 116.663L288.775 114.01C284.435 109.335 277.397 109.335 273.057 114.01C268.717 118.685 268.717 126.265 273.057 130.939L275.521 133.592L291.239 150.52L306.957 133.592L309.42 130.939C313.759 126.265 313.759 118.685 309.419 114.01Z" fill="#CC6164"/>
<path d="M288.851 146.263L283.512 126.903L281.341 133.454H266.308V131.097H279.799L283.703 119.32L288.072 135.159L290.933 112.929L295.156 131.275L298.188 119.064L302.003 131.097H316.165V133.454H300.438L298.443 127.159L295.075 140.721L291.541 125.363L288.851 146.263Z" fill="white"/>
<path d="M128.071 130.806C138.615 119.449 138.615 101.037 128.071 89.6804C117.526 78.3239 100.43 78.3239 89.8858 89.6804C79.3414 101.037 79.3414 119.449 89.8858 130.806C100.43 142.162 117.526 142.162 128.071 130.806Z" fill="#7DD3E9"/>
<path d="M93.2822 109.098V118.035C93.2822 122.354 96.5334 125.855 100.543 125.855C104.554 125.855 107.804 122.353 107.804 118.035V109.098H93.2822Z" fill="white"/>
<path d="M107.805 100.16C107.805 95.8404 104.554 92.3398 100.544 92.3398C96.5334 92.3398 93.2832 95.8414 93.2832 100.16V109.097H107.806V100.16H107.805Z" fill="#CC6164"/>
<path d="M107.805 118.036V109.099H101.14L98.196 112.269C95.3168 115.37 94.4545 119.826 95.5934 123.747C96.8906 125.053 98.6281 125.857 100.543 125.857C104.554 125.856 107.805 122.354 107.805 118.036Z" fill="#E4E4E0"/>
<path d="M107.805 109.097V101.919L101.14 109.097H107.805Z" fill="#A34262"/>
<path d="M106.412 108.476L100.544 114.795C97.7083 117.849 97.7083 122.801 100.544 125.855C103.38 128.909 107.977 128.909 110.813 125.855L116.68 119.535L106.412 108.476Z" fill="white"/>
<path d="M122.549 113.215C125.385 110.161 125.385 105.21 122.549 102.156C119.713 99.1017 115.116 99.1017 112.28 102.156L106.413 108.475L116.681 119.535L122.549 113.215Z" fill="#CC6164"/>
<path d="M184.133 59.4945C194.302 48.5419 194.302 30.7842 184.133 19.8317C173.963 8.87906 157.475 8.87905 147.306 19.8317C137.137 30.7842 137.136 48.5419 147.306 59.4945C157.475 70.4471 173.963 70.4471 184.133 59.4945Z" fill="#7DD3E9"/>
<path d="M176.899 33.5734L170.987 27.2061L155.44 43.9507L161.352 50.3181L176.899 33.5734Z" fill="white"/>
<path d="M161.355 48.4319L175.151 33.5742L170.99 29.093L157.195 43.9507L161.355 48.4319Z" fill="#C7D2D7"/>
<path d="M163.432 52.5605L153.359 41.7119L152.228 42.9302L162.301 53.7787L163.432 52.5605Z" fill="white"/>
<path d="M177.046 30.0363L174.272 27.0488L172.556 28.8963L175.33 31.8837L177.046 30.0363Z" fill="#C7D2D7"/>
<path d="M176.043 28.9573L175.277 28.1323L181.791 21.1152H183.324L176.043 28.9573Z" fill="#99A3B0"/>
<path d="M158.399 49.571L156.136 47.1338L151.1 52.5577L153.363 54.9949L158.399 49.571Z" fill="#C7D2D7"/>
<path d="M155.519 57.3223L148.937 50.2334L148.116 51.1177L154.698 58.2065L155.519 57.3223Z" fill="white"/>
<path d="M158.393 49.5749L156.13 47.1377L154.447 48.9506L156.71 51.3878L158.393 49.5749Z" fill="#99A3B0"/>
<path d="M172.156 33.5756L164.528 41.7903C163.702 42.6802 162.362 42.6802 161.535 41.7903L160.367 40.5328L157.192 43.9526L159.856 46.8224L161.353 48.4337L164.528 45.0139L175.148 33.5756C174.323 32.6857 172.982 32.6857 172.156 33.5756Z" fill="#CC6164"/>
</g>
<mask id="mask0_152_36" style="mask-type:luminance" maskUnits="userSpaceOnUse" x="6" y="142" width="201" height="248">
<path d="M46.3522 389.992H182.095C203.702 345.889 214.204 292.646 200.828 244.906C187.451 197.166 152.206 156.036 107.663 142.426C87.1747 169.484 73.2699 203.67 71.4945 238.533C50.5905 235.167 27.6891 237.337 6.93512 241.645C2.31006 293.991 18.4871 346.814 46.3522 389.992Z" fill="white"/>
</mask>
<g mask="url(#mask0_152_36)">
<path d="M110.241 156.451C101.598 176.544 96.5866 196.299 94.7732 215.291C92.9709 234.291 94.3828 252.547 98.8718 269.869C103.342 287.197 110.896 303.611 121.557 318.873C132.223 334.121 145.995 348.243 163.036 360.632C176.462 343.922 185.283 324.529 189.354 304.279C193.442 284.041 192.778 262.98 187.677 243.233C182.567 223.488 173.028 205.09 159.815 190.041C146.613 174.973 129.754 163.282 110.241 156.451Z" fill="#9FE0F0"/>
<path d="M179.851 253.128C179.247 252.83 178.553 253.136 178.303 253.804C175.335 261.856 169.837 269.347 164.589 275.214C159.352 281.084 154.157 285.41 151.778 287.323C149.549 276.865 147.01 266.487 144.391 256.135C146.077 254.846 150.485 251.306 155.097 245.999C157.403 243.345 159.759 240.248 161.853 236.774C163.907 233.312 165.689 229.475 166.893 225.341C167.094 224.651 166.753 223.896 166.13 223.658C165.507 223.42 164.841 223.788 164.64 224.477C160.429 239.157 147.788 250.233 143.691 253.517C141.302 244.455 138.789 235.429 136.087 226.47C137.702 225.114 141.903 221.411 146.283 215.877C150.675 210.343 155.107 203.005 157.348 194.406C157.521 193.712 157.147 192.973 156.514 192.759C155.881 192.547 155.228 192.937 155.054 193.631C153.123 201.239 149.146 207.964 145.222 213.168C141.251 218.391 137.273 222.133 135.302 223.875L133.29 217.274L131.183 210.706C129.807 206.317 128.323 201.969 126.841 197.621C128.034 195.984 131.558 190.982 133.902 185.235C134.168 184.589 133.899 183.823 133.303 183.525C132.703 183.228 132.006 183.514 131.741 184.159C129.93 188.557 127.419 192.563 125.879 194.784C123.343 187.536 120.772 180.3 118.032 173.137C117.786 172.485 117.099 172.173 116.496 172.439C115.893 172.705 115.602 173.447 115.846 174.096L118.414 180.913L120.879 187.775L123.321 194.646L125.665 201.556C122.021 200.646 114.521 198.423 109.671 194.739C109.146 194.337 108.411 194.462 108.023 195.021C107.636 195.579 107.746 196.356 108.269 196.759C114.306 201.403 123.948 203.789 126.623 204.385C128.086 208.724 129.44 213.105 130.854 217.463C132.228 221.837 133.524 226.237 134.863 230.622C132.311 230.457 127.062 229.942 121.034 228.439C118.016 227.689 114.82 226.686 111.639 225.364C108.438 224.049 105.278 222.404 102.391 220.334C101.864 219.955 101.131 220.106 100.754 220.667C100.376 221.228 100.496 221.986 101.024 222.364C107.545 226.991 115.11 229.652 121.631 231.186C128.16 232.716 133.586 233.117 135.618 233.215C138.209 242.18 140.686 251.184 142.977 260.244C140.417 259.978 135.169 259.248 129.148 257.541C126.146 256.685 122.97 255.579 119.875 254.15C118.327 253.435 116.799 252.639 115.324 251.751C113.83 250.869 112.381 249.898 111.018 248.823C110.504 248.418 109.761 248.531 109.366 249.072C108.966 249.612 109.056 250.375 109.57 250.778C115.687 255.607 123.112 258.529 129.634 260.291C136.09 262.069 141.564 262.687 143.631 262.863C144.269 265.446 144.936 268.022 145.552 270.612L147.361 278.392C148.609 283.569 149.649 288.798 150.796 294.001C147.856 293.407 141.488 291.97 134.359 289.512C127.265 287.039 119.215 283.619 113.126 278.824C112.614 278.426 111.872 278.544 111.475 279.08C111.077 279.618 111.16 280.377 111.669 280.776C115.078 283.445 118.994 285.7 123.023 287.611C127.053 289.52 131.12 291.104 134.954 292.377C142.596 294.928 149.15 296.272 151.355 296.696L153.66 308.313L155.779 319.97L155.78 319.975C156.044 321.377 156.267 322.788 156.5 324.196C155.176 323.823 153.176 323.229 150.773 322.429C148.352 321.632 145.528 320.631 142.58 319.435C136.672 317.043 130.331 313.879 125.546 309.952C125.044 309.533 124.298 309.624 123.888 310.153C123.476 310.681 123.552 311.446 124.057 311.863C129.447 316.31 136.594 319.785 143.027 322.309C149.433 324.833 154.944 326.42 156.955 326.95L158.223 334.664L159.368 342.4C159.47 343.093 160.074 343.565 160.719 343.458C161.364 343.35 161.802 342.7 161.699 342.005L160.486 333.837L159.145 325.692L159.144 325.687L158.247 320.314C159.934 319.051 164.589 315.444 169.622 310.383C174.685 305.321 180.011 298.808 183.124 291.877C183.417 291.228 183.181 290.427 182.598 290.091C182.015 289.755 181.304 290.01 181.013 290.659C178.24 296.778 173.62 302.659 169.01 307.424C164.414 312.192 159.967 315.828 157.748 317.56C156.898 312.958 156.117 308.343 155.173 303.762C154.26 299.175 153.378 294.581 152.362 290.018C154.206 288.603 159.539 284.367 165.304 278.185C168.151 275.103 171.099 271.536 173.769 267.604C176.447 263.671 178.837 259.374 180.494 254.881C180.743 254.215 180.456 253.427 179.851 253.128Z" fill="#A8EFFA"/>
<path d="M21.3432 249.317C15.7227 339.389 79.021 408.575 162.725 403.85C168.346 313.779 105.047 244.592 21.3432 249.317Z" fill="#A8EFFA"/>
<path d="M122.902 303.733C122.242 303.811 121.765 304.454 121.836 305.163C123.587 322.267 116.49 342.889 114.206 348.97L92.8398 325.616C94.6772 321.514 102.118 303.54 99.6566 286.592C99.5539 285.884 98.9377 285.4 98.2808 285.511C97.623 285.622 97.1734 286.286 97.277 286.992C99.4632 302.038 93.2117 318.497 91.0319 323.64L72.2726 303.136C74.0712 299.07 81.3053 281.328 78.885 263.895C78.7869 263.187 78.1735 262.699 77.5157 262.805C76.8579 262.913 76.4045 263.571 76.5026 264.28C78.6528 279.768 72.5974 296.041 70.4611 301.157L52.0126 280.993C52.4863 278.924 53.7798 272.73 53.8612 266.353C53.8714 265.636 53.3394 265.048 52.6742 265.037C52.0071 265.028 51.4622 265.601 51.4538 266.316C51.3909 271.189 50.561 276.062 50.0077 278.8L34.5829 261.939C34.1166 261.429 33.3542 261.423 32.8805 261.925C32.4068 262.429 32.4012 263.249 32.8675 263.759L52.4678 285.182C48.7532 285.99 40.8196 287.363 34.8447 285.932C34.1952 285.778 33.5522 286.215 33.4079 286.916C33.2635 287.616 33.6725 288.309 34.322 288.464C41.8383 290.264 51.7888 288.043 54.4737 287.374L72.9212 307.538C68.1453 309.763 52.96 316.047 38.5954 313.5C37.9395 313.383 37.3196 313.863 37.2113 314.569C37.1031 315.275 37.5472 315.943 38.2032 316.06C54.3515 318.923 70.9302 311.394 74.7309 309.517L93.4911 330.022C88.6875 332.294 73.3264 338.784 59.3754 336.206C58.7194 336.084 58.094 336.561 57.9857 337.265C57.8728 337.972 58.3123 338.642 58.9683 338.763C74.667 341.663 91.4631 333.915 95.298 331.997L116.665 355.352C110.987 357.72 91.7351 365.059 75.8837 362.923C75.2258 362.833 74.6245 363.338 74.5393 364.05C74.4579 364.76 74.9261 365.409 75.5858 365.498C93.2709 367.879 114.227 359.238 118.506 357.364L134.328 374.657L134.331 374.66L137.19 377.785C131.914 379.805 115.56 385.528 103.106 384.075C102.446 383.996 101.849 384.512 101.779 385.224C101.708 385.937 102.185 386.577 102.847 386.653C116.95 388.3 135.115 381.406 139.052 379.822L149.487 391.227C149.954 391.737 150.715 391.743 151.189 391.241C151.663 390.738 151.668 389.918 151.202 389.408L140.22 377.404L140.216 377.4L136.593 373.439C138.122 369.223 144.79 349.764 143.469 334.551C143.407 333.837 142.821 333.313 142.158 333.38C141.495 333.448 141.008 334.08 141.071 334.792C142.237 348.225 136.683 365.752 134.73 371.404L116.046 350.982C117.851 346.401 126.182 323.962 124.231 304.882C124.158 304.168 123.563 303.655 122.902 303.733Z" fill="#D9FBFF"/>
</g>
<mask id="mask1_152_36" style="mask-type:luminance" maskUnits="userSpaceOnUse" x="209" y="142" width="202" height="248">
<path d="M370.151 389.992H234.408C212.801 345.889 202.299 292.646 215.675 244.906C229.052 197.166 264.297 156.036 308.84 142.426C329.328 169.484 343.233 203.67 345.009 238.533C365.913 235.167 388.814 237.337 409.569 241.645C414.193 293.991 398.016 346.814 370.151 389.992Z" fill="white"/>
</mask>
<g mask="url(#mask1_152_36)">
<path d="M306.261 156.451C314.904 176.544 319.915 196.299 321.729 215.291C323.531 234.291 322.119 252.547 317.63 269.869C313.16 287.197 305.606 303.611 294.944 318.873C284.278 334.121 270.506 348.243 253.465 360.632C240.039 343.922 231.218 324.529 227.147 304.279C223.059 284.041 223.723 262.98 228.825 243.233C233.935 223.488 243.474 205.09 256.687 190.041C269.89 174.973 286.749 163.282 306.261 156.451Z" fill="#9FE0F0"/>
<path d="M236.651 253.128C237.255 252.83 237.949 253.136 238.199 253.804C241.167 261.856 246.665 269.347 251.914 275.214C257.15 281.084 262.345 285.41 264.724 287.323C266.954 276.865 269.492 266.487 272.111 256.135C270.425 254.846 266.017 251.306 261.405 245.999C259.1 243.345 256.743 240.248 254.649 236.774C252.595 233.312 250.813 229.475 249.609 225.341C249.408 224.651 249.75 223.896 250.372 223.658C250.995 223.42 251.661 223.788 251.862 224.477C256.073 239.157 268.714 250.233 272.811 253.517C275.2 244.455 277.713 235.429 280.415 226.47C278.8 225.114 274.599 221.411 270.219 215.877C265.827 210.343 261.395 203.005 259.154 194.406C258.981 193.712 259.355 192.973 259.988 192.759C260.622 192.547 261.274 192.937 261.448 193.631C263.38 201.239 267.356 207.964 271.28 213.168C275.251 218.391 279.229 222.133 281.201 223.875L283.213 217.274L285.32 210.706C286.696 206.317 288.181 201.969 289.662 197.621C288.469 195.984 284.945 190.982 282.601 185.235C282.335 184.589 282.604 183.823 283.201 183.525C283.8 183.228 284.498 183.514 284.763 184.159C286.574 188.557 289.085 192.563 290.625 194.784C293.161 187.536 295.732 180.3 298.472 173.137C298.717 172.485 299.405 172.173 300.008 172.439C300.611 172.705 300.902 173.447 300.658 174.096L298.09 180.913L295.625 187.775L293.183 194.646L290.839 201.556C294.483 200.646 301.982 198.423 306.833 194.739C307.358 194.337 308.093 194.462 308.481 195.021C308.868 195.579 308.758 196.356 308.235 196.759C302.198 201.403 292.556 203.789 289.881 204.385C288.418 208.724 287.064 213.105 285.65 217.463C284.276 221.837 282.98 226.237 281.641 230.622C284.193 230.457 289.442 229.942 295.47 228.439C298.488 227.689 301.684 226.686 304.864 225.364C308.066 224.049 311.226 222.404 314.113 220.334C314.64 219.955 315.374 220.106 315.75 220.667C316.128 221.228 316.008 221.986 315.48 222.364C308.959 226.991 301.394 229.652 294.873 231.186C288.344 232.716 282.918 233.117 280.886 233.215C278.295 242.18 275.818 251.184 273.527 260.244C276.087 259.978 281.335 259.248 287.356 257.541C290.358 256.685 293.534 255.579 296.629 254.15C298.177 253.435 299.705 252.639 301.18 251.751C302.674 250.869 304.122 249.898 305.486 248.823C306 248.418 306.743 248.531 307.138 249.072C307.538 249.612 307.448 250.375 306.934 250.778C300.817 255.607 293.392 258.529 286.87 260.291C280.414 262.069 274.94 262.687 272.873 262.863C272.235 265.446 271.568 268.022 270.952 270.612L269.143 278.392C267.895 283.569 266.855 288.798 265.708 294.001C268.648 293.407 275.016 291.97 282.145 289.512C289.239 287.039 297.289 283.619 303.378 278.824C303.89 278.426 304.632 278.544 305.029 279.08C305.427 279.618 305.344 280.377 304.835 280.776C301.425 283.445 297.51 285.7 293.481 287.611C289.451 289.52 285.384 291.104 281.55 292.377C273.908 294.928 267.354 296.272 265.148 296.696L262.844 308.313L260.725 319.97L260.724 319.975C260.46 321.377 260.237 322.788 260.003 324.196C261.328 323.823 263.328 323.229 265.731 322.429C268.152 321.632 270.976 320.631 273.924 319.435C279.832 317.043 286.173 313.879 290.958 309.952C291.46 309.533 292.206 309.624 292.616 310.153C293.027 310.681 292.952 311.446 292.447 311.863C287.057 316.31 279.91 319.785 273.477 322.309C267.071 324.833 261.56 326.42 259.549 326.95L258.281 334.664L257.136 342.4C257.034 343.093 256.429 343.565 255.785 343.458C255.14 343.35 254.702 342.7 254.805 342.005L256.018 333.837L257.359 325.692L257.36 325.687L258.257 320.314C256.57 319.051 251.914 315.444 246.882 310.383C241.819 305.321 236.493 298.808 233.38 291.877C233.087 291.228 233.323 290.427 233.906 290.091C234.489 289.755 235.2 290.01 235.491 290.659C238.264 296.778 242.884 302.659 247.494 307.424C252.09 312.192 256.537 315.828 258.756 317.56C259.606 312.958 260.387 308.343 261.331 303.762C262.244 299.175 263.125 294.581 264.142 290.018C262.298 288.603 256.965 284.367 251.2 278.185C248.352 275.103 245.405 271.536 242.735 267.604C240.057 263.671 237.668 259.374 236.009 254.881C235.76 254.215 236.047 253.427 236.651 253.128Z" fill="#A8EFFA"/>
<path d="M395.16 249.317C400.78 339.389 337.482 408.575 253.778 403.85C248.157 313.779 311.455 244.592 395.16 249.317Z" fill="#A8EFFA"/>
<path d="M293.601 303.733C294.261 303.811 294.738 304.454 294.666 305.163C292.916 322.267 300.013 342.889 302.297 348.97L323.663 325.616C321.826 321.514 314.385 303.54 316.846 286.592C316.949 285.884 317.565 285.4 318.222 285.511C318.88 285.622 319.329 286.286 319.226 286.992C317.04 302.038 323.291 318.497 325.471 323.64L344.23 303.136C342.432 299.07 335.197 281.328 337.618 263.895C337.716 263.187 338.329 262.699 338.987 262.805C339.645 262.913 340.098 263.571 340 264.28C337.85 279.768 343.905 296.041 346.042 301.157L364.49 280.993C364.016 278.924 362.723 272.73 362.642 266.353C362.631 265.636 363.163 265.048 363.829 265.037C364.496 265.028 365.041 265.601 365.049 266.316C365.112 271.189 365.942 276.062 366.495 278.8L381.921 261.939C382.387 261.429 383.15 261.423 383.623 261.925C384.097 262.429 384.102 263.249 383.636 263.759L364.036 285.182C367.751 285.99 375.684 287.363 381.659 285.932C382.309 285.778 382.951 286.215 383.096 286.916C383.24 287.616 382.831 288.309 382.182 288.464C374.665 290.264 364.715 288.043 362.031 287.374L343.583 307.538C348.359 309.763 363.545 316.047 377.909 313.5C378.565 313.383 379.185 313.863 379.293 314.569C379.402 315.275 378.957 315.943 378.301 316.06C362.153 318.923 345.574 311.394 341.774 309.517L323.014 330.022C327.817 332.294 343.178 338.784 357.129 336.206C357.785 336.084 358.411 336.561 358.519 337.265C358.632 337.972 358.192 338.642 357.536 338.763C341.838 341.663 325.042 333.915 321.207 331.997L299.839 355.352C305.518 357.72 324.77 365.059 340.621 362.923C341.279 362.833 341.88 363.338 341.965 364.05C342.047 364.76 341.579 365.409 340.92 365.498C323.235 367.879 302.279 359.238 297.999 357.364L282.174 374.658L282.172 374.661L279.313 377.786C284.589 379.806 300.943 385.529 313.397 384.076C314.057 383.997 314.653 384.513 314.724 385.225C314.795 385.938 314.318 386.578 313.656 386.654C299.552 388.301 281.388 381.407 277.45 379.823L267.016 391.228C266.549 391.738 265.787 391.744 265.314 391.242C264.84 390.739 264.834 389.919 265.301 389.409L276.283 377.405L276.286 377.401L279.91 373.44C278.381 369.224 271.713 349.765 273.033 334.552C273.095 333.838 273.682 333.314 274.344 333.381C275.008 333.449 275.494 334.081 275.432 334.793C274.266 348.226 279.82 365.753 281.773 371.405L300.456 350.983C298.652 346.402 290.321 323.963 292.272 304.882C292.344 304.168 292.94 303.655 293.601 303.733Z" fill="#D9FBFF"/>
</g>
<path d="M153.953 265.858L123.214 258.97L117.365 317.493C117.068 320.471 116.965 323.468 117.057 326.463L119.06 391.169H148.409V322.255L153.953 265.858Z" fill="#BD6C67"/>
<path d="M123.213 258.969L153.953 265.858L152.73 278.289L122.71 264.008L123.213 258.969Z" fill="#A64F5A"/>
<path d="M260.331 265.858L291.07 258.97L296.918 317.493C297.216 320.471 297.319 323.468 297.226 326.463L295.224 391.169H265.875V322.255L260.331 265.858Z" fill="#BD6C67"/>
<path d="M291.07 258.969L260.331 265.858L261.553 278.289L291.573 264.008L291.07 258.969Z" fill="#A64F5A"/>
<path d="M260.331 298.644C267.435 283.979 264.559 269.499 263.555 265.173L298.503 257.304L287.521 227.136C283.166 215.171 274.012 205.975 262.627 202.128L232.422 191.92C228.89 199.848 221.992 209.943 207.142 209.943C192.292 209.943 185.395 199.848 181.861 191.92L151.657 202.128C140.272 205.976 131.118 215.171 126.762 227.136L115.781 257.304L150.728 265.173C149.724 269.499 146.848 283.979 153.953 298.644C153.953 298.644 157.376 326.29 157.376 340.564C157.376 354.837 146.251 369.543 146.251 391.169H207.142H268.033C268.033 369.543 256.908 354.837 256.908 340.564C256.908 326.29 260.331 298.644 260.331 298.644Z" fill="#6C6FC3"/>
<path d="M150.728 265.173L153.439 254.36L119.544 246.963L115.781 257.303L150.728 265.173Z" fill="white"/>
<path d="M234.369 192.578L232.421 191.92C228.889 199.848 221.991 209.943 207.141 209.943C192.291 209.943 185.394 199.848 181.86 191.92L179.913 192.578C176.773 202.615 178.745 214.205 183.123 223.69C186.519 231.047 191.563 237.38 197.393 242.72C199.607 244.747 203.008 243.363 203.482 240.275C204.359 234.563 205.621 228.938 207.14 223.371C208.659 228.939 209.922 234.563 210.798 240.275C211.272 243.363 214.673 244.748 216.887 242.72C222.717 237.381 227.761 231.047 231.157 223.69C235.537 214.205 237.509 202.616 234.369 192.578Z" fill="#56438C"/>
<path d="M234.369 192.578L232.421 191.92C228.889 199.848 221.991 209.943 207.141 209.943C192.291 209.943 185.394 199.848 181.861 191.92L179.913 192.578C178.442 199.854 178.88 207.574 181.203 214.59C183.108 220.341 188.739 227.97 194.093 233.471C196.586 236.032 200.689 235.067 201.933 231.606L207.142 217.126L212.349 231.606C213.594 235.066 217.696 236.032 220.19 233.471C225.544 227.97 231.175 220.341 233.08 214.59C235.403 207.574 235.84 199.854 234.369 192.578Z" fill="white"/>
<path d="M207.142 391.41H146.027V391.169C146.027 379.232 149.539 369.02 152.105 361.565L152.525 361.733C149.239 371.284 146.515 380.079 146.476 390.928H207.142V391.41Z" fill="#422C4F"/>
<path d="M185.073 308.999C184.961 308.999 184.864 308.909 184.851 308.785C184.836 308.653 184.925 308.534 185.048 308.519C185.982 308.403 186.919 308.256 187.831 308.084C195.909 306.558 201.745 303.161 204.263 298.523C204.325 298.406 204.463 298.368 204.569 298.436C204.677 298.503 204.713 298.651 204.65 298.766C202.064 303.53 196.119 307.008 187.908 308.559C186.988 308.733 186.042 308.88 185.1 308.998C185.09 308.999 185.081 308.999 185.073 308.999Z" fill="#422C4F"/>
<path d="M155.335 247.205C155.271 247.205 155.207 247.175 155.163 247.116C155.119 247.058 150.714 241.326 144.979 239.303C144.861 239.262 144.797 239.125 144.835 238.999C144.874 238.873 145 238.804 145.117 238.845C150.979 240.913 155.464 246.752 155.508 246.811C155.586 246.914 155.573 247.066 155.477 247.15C155.435 247.187 155.385 247.205 155.335 247.205Z" fill="#422C4F"/>
<path d="M154.601 250.102C154.497 250.102 154.405 250.024 154.383 249.911C154.156 248.753 150.636 245.442 145.153 245.442C145.117 245.442 145.056 245.448 145.048 245.443C144.925 245.443 144.825 245.336 144.824 245.204C144.823 245.071 144.922 244.962 145.046 244.961C145.082 244.96 145.117 244.96 145.153 244.96C150.818 244.96 154.544 248.393 154.821 249.811C154.846 249.942 154.769 250.069 154.648 250.097C154.633 250.1 154.616 250.102 154.601 250.102Z" fill="#422C4F"/>
<path d="M160.314 305.144C160.278 305.144 160.243 305.135 160.209 305.116C157.163 303.388 154.992 301.248 153.755 298.759C147.252 285.337 148.931 271.919 150.511 265.115L156.78 240.332C156.813 240.205 156.935 240.13 157.055 240.163C157.174 240.198 157.244 240.331 157.211 240.459L150.943 265.236C149.381 271.97 147.718 285.255 154.15 298.533C155.343 300.933 157.451 303.006 160.417 304.69C160.526 304.75 160.568 304.897 160.511 305.015C160.472 305.098 160.394 305.144 160.314 305.144Z" fill="#422C4F"/>
<path d="M263.556 265.173L260.845 254.36L294.739 246.963L298.503 257.303L263.556 265.173Z" fill="white"/>
<path d="M207.142 391.41H268.257V391.169C268.257 379.232 264.745 369.02 262.179 361.565L261.759 361.733C265.045 371.284 267.768 380.079 267.808 390.928H207.142V391.41Z" fill="#422C4F"/>
<path d="M229.211 308.999C229.323 308.999 229.42 308.909 229.433 308.785C229.448 308.653 229.36 308.534 229.236 308.519C228.301 308.403 227.365 308.256 226.453 308.084C218.374 306.558 212.539 303.161 210.021 298.523C209.959 298.406 209.821 298.368 209.714 298.436C209.607 298.503 209.571 298.651 209.634 298.766C212.22 303.53 218.165 307.008 226.376 308.559C227.296 308.733 228.241 308.88 229.184 308.998C229.194 308.999 229.203 308.999 229.211 308.999Z" fill="#422C4F"/>
<path d="M258.948 247.205C259.013 247.205 259.077 247.175 259.121 247.116C259.165 247.058 263.57 241.326 269.305 239.303C269.423 239.262 269.487 239.125 269.449 238.999C269.41 238.873 269.284 238.804 269.167 238.845C263.305 240.913 258.82 246.752 258.776 246.811C258.698 246.914 258.711 247.066 258.807 247.15C258.849 247.187 258.899 247.205 258.948 247.205Z" fill="#422C4F"/>
<path d="M259.683 250.102C259.786 250.102 259.879 250.024 259.901 249.911C260.128 248.753 263.648 245.442 269.131 245.442C269.166 245.442 269.228 245.448 269.236 245.443C269.359 245.443 269.459 245.336 269.46 245.204C269.461 245.071 269.362 244.962 269.238 244.961C269.202 244.96 269.166 244.96 269.131 244.96C263.466 244.96 259.74 248.393 259.463 249.811C259.438 249.942 259.515 250.069 259.636 250.097C259.651 250.1 259.667 250.102 259.683 250.102Z" fill="#422C4F"/>
<path d="M253.97 305.144C254.006 305.144 254.041 305.135 254.074 305.116C257.121 303.388 259.292 301.248 260.529 298.759C267.032 285.337 265.353 271.919 263.773 265.115L257.503 240.332C257.47 240.205 257.348 240.13 257.228 240.163C257.109 240.198 257.039 240.331 257.072 240.459L263.34 265.236C264.902 271.97 266.566 285.255 260.133 298.533C258.94 300.933 256.832 303.006 253.865 304.69C253.756 304.75 253.714 304.897 253.772 305.015C253.812 305.098 253.89 305.144 253.97 305.144Z" fill="#422C4F"/>
<path d="M232.422 191.92L222.402 188.533V172.963H207.142H191.881V188.533L181.861 191.92C185.394 199.848 192.291 209.943 207.142 209.943C221.992 209.943 228.889 199.848 232.422 191.92Z" fill="#BD6C67"/>
<path d="M207.142 172.962H191.881V176.32C195.395 183.883 203.477 186.478 207.142 186.478C210.806 186.478 218.888 183.883 222.402 176.32V172.962H207.142Z" fill="#422C4F"/>
<path d="M190.766 175.372C199.549 165.913 199.549 150.576 190.766 141.116C181.982 131.656 167.742 131.656 158.959 141.116C150.175 150.576 150.175 165.913 158.959 175.372C167.742 184.832 181.982 184.832 190.766 175.372Z" fill="#422C4F"/>
<path d="M260.14 167.655C264.967 155.329 259.601 141.122 248.156 135.923C236.711 130.724 223.52 136.502 218.693 148.829C213.866 161.156 219.231 175.363 230.676 180.562C242.121 185.76 255.313 179.982 260.14 167.655Z" fill="#422C4F"/>
<path d="M183.943 153.542C184.634 147.48 180.631 141.962 175.002 141.218C169.373 140.474 164.25 144.786 163.559 150.848C162.869 156.911 166.872 162.428 172.501 163.172C178.13 163.916 183.253 159.605 183.943 153.542Z" fill="#A64F5A"/>
<path d="M179.173 152.192C179.173 155.409 176.753 158.015 173.767 158.015C170.781 158.015 168.36 155.409 168.36 152.192C168.36 148.976 170.781 146.369 173.767 146.369C176.753 146.37 179.173 148.977 179.173 152.192Z" fill="#8C404C"/>
<path d="M242.856 162.964C248.377 161.568 251.802 155.616 250.506 149.669C249.209 143.723 243.682 140.034 238.161 141.431C232.64 142.827 229.215 148.779 230.512 154.726C231.808 160.672 237.335 164.361 242.856 162.964Z" fill="#A64F5A"/>
<path d="M235.11 152.191C235.11 155.408 237.531 158.014 240.516 158.014C243.503 158.014 245.923 155.408 245.923 152.191C245.923 148.975 243.503 146.368 240.516 146.368C237.531 146.369 235.11 148.976 235.11 152.191Z" fill="#8C404C"/>
<path d="M207.142 88.9434C188.347 88.9434 173.111 105.353 173.111 125.595V127.437C173.111 130.246 173.411 133.045 174.005 135.78L178.948 158.552C180.407 165.276 184.259 171.116 189.673 174.814L193.424 177.376C197.527 180.177 202.284 181.665 207.142 181.665C212 181.665 216.757 180.178 220.859 177.376L224.61 174.814C230.025 171.116 233.877 165.277 235.336 158.552L240.279 135.78C240.873 133.045 241.173 130.246 241.173 127.437V125.595C241.172 105.353 225.937 88.9434 207.142 88.9434Z" fill="#BD6C67"/>
<path d="M190.972 122.141C187.09 122.327 183.734 124.493 181.678 127.685L200.687 126.774C198.376 123.791 194.854 121.954 190.972 122.141Z" fill="#422C4F"/>
<path d="M223.312 122.141C227.194 122.327 230.55 124.493 232.606 127.685L213.596 126.774C215.908 123.791 219.43 121.954 223.312 122.141Z" fill="#422C4F"/>
<path d="M212.888 153.514H201.498C201.464 153.514 201.43 153.514 201.397 153.514C202.309 154.38 203.237 155.134 204.294 155.781C205.352 156.428 206.571 156.842 207.78 156.71C209.648 156.505 211.497 154.874 212.888 153.514Z" fill="#A64F5A"/>
<path d="M212.903 169.057H203.159C204.526 170.262 206.201 171.028 207.968 171.076C209.734 171.124 211.48 170.187 212.903 169.057Z" fill="#A64F5A"/>
<path d="M192.495 133.617C191.618 133.617 190.828 134.008 190.26 134.633C189.058 134.11 187.879 133.524 186.738 132.862C187.282 134.236 188.257 135.443 189.447 136.243C189.396 136.484 189.365 136.732 189.365 136.989C189.365 138.851 190.766 140.361 192.496 140.361C194.225 140.361 195.626 138.851 195.626 136.989C195.626 135.127 194.224 133.617 192.495 133.617Z" fill="#422C4F"/>
<path d="M221.789 133.617C222.665 133.617 223.455 134.008 224.024 134.633C225.225 134.11 226.404 133.524 227.546 132.862C227.001 134.236 226.026 135.443 224.836 136.243C224.887 136.484 224.918 136.732 224.918 136.989C224.918 138.851 223.517 140.361 221.788 140.361C220.059 140.361 218.657 138.851 218.657 136.989C218.658 135.127 220.06 133.617 221.789 133.617Z" fill="#422C4F"/>
<path d="M218.658 158.015C211.327 161.628 203.017 161.821 195.589 158.549C198.311 162.915 202.576 166.137 206.914 166.117C211.253 166.097 215.959 162.405 218.658 158.015Z" fill="white"/>
<path d="M239.757 94.1267C232.518 83.4766 219.372 78.5755 207.124 79.0287C194.875 78.5764 181.73 83.4776 174.49 94.1267C168.445 103.021 167.083 114.82 168.583 125.724C170.082 136.628 174.729 147.645 178.777 157.768L174.336 130.672C178.639 125.465 177.519 117.17 180.828 111.178C183.26 106.773 187.856 104.163 192.53 103.197C197.202 102.231 202.386 102.479 207.124 102.948C211.862 102.479 217.045 102.231 221.718 103.197C226.39 104.163 230.988 106.773 233.42 111.178C236.728 117.17 235.608 125.465 239.912 130.672L235.47 157.768C239.519 147.644 244.165 136.627 245.665 125.724C247.165 114.82 245.803 103.02 239.757 94.1267Z" fill="#422C4F"/>
<path d="M226.326 206.25C226.271 206.25 226.216 206.225 226.176 206.178C226.102 206.09 226.109 205.953 226.192 205.873C227.715 204.396 229.071 202.756 230.225 200.997C230.289 200.899 230.415 200.876 230.505 200.945C230.596 201.014 230.617 201.149 230.553 201.246C229.383 203.031 228.006 204.696 226.459 206.194C226.421 206.231 226.373 206.25 226.326 206.25Z" fill="#422C4F"/>
<path d="M221.29 210.159C221.22 210.159 221.153 210.12 221.116 210.05C221.062 209.946 221.094 209.814 221.191 209.755C222.067 209.217 222.922 208.627 223.734 208C223.822 207.93 223.949 207.952 224.014 208.05C224.079 208.147 224.058 208.282 223.967 208.352C223.145 208.988 222.278 209.586 221.39 210.131C221.358 210.151 221.324 210.159 221.29 210.159Z" fill="#422C4F"/>
<path d="M207.156 214.262C206.885 214.262 206.615 214.258 206.345 214.248C201.601 214.089 196.855 212.566 192.62 209.844C192.525 209.782 192.494 209.65 192.551 209.548C192.607 209.444 192.73 209.411 192.825 209.472C197.003 212.158 201.682 213.66 206.358 213.816C210.053 213.947 213.896 213.201 217.467 211.681C217.57 211.636 217.686 211.691 217.727 211.802C217.768 211.913 217.718 212.039 217.614 212.083C214.254 213.513 210.656 214.262 207.156 214.262Z" fill="#422C4F"/>
<path d="M188.334 206.42C188.286 206.42 188.239 206.403 188.201 206.365C186.121 204.383 184.349 202.125 182.934 199.653C182.876 199.551 182.906 199.419 183 199.355C183.094 199.293 183.217 199.324 183.276 199.425C184.67 201.862 186.417 204.087 188.467 206.041C188.55 206.12 188.559 206.257 188.484 206.346C188.444 206.396 188.388 206.42 188.334 206.42Z" fill="#422C4F"/>
<path d="M223.001 226.302C222.951 226.302 222.901 226.282 222.862 226.243C222.783 226.16 222.779 226.023 222.856 225.937C227.209 221.05 230.384 215.013 232.038 208.48C232.067 208.365 232.18 208.299 232.284 208.328C232.392 208.359 232.455 208.479 232.426 208.594C230.754 215.196 227.546 221.297 223.147 226.236C223.107 226.28 223.054 226.302 223.001 226.302Z" fill="#422C4F"/>
<path d="M185.425 218.312C185.354 218.312 185.284 218.269 185.248 218.196C184.32 216.304 183.57 214.31 183.017 212.271C182.985 212.157 183.046 212.037 183.153 212.003C183.259 211.969 183.37 212.035 183.402 212.15C183.948 214.161 184.688 216.127 185.603 217.995C185.655 218.1 185.617 218.231 185.518 218.287C185.489 218.304 185.457 218.312 185.425 218.312Z" fill="#422C4F"/>
<path d="M190.683 321.849C190.577 321.849 190.488 321.761 190.482 321.646C190.476 321.526 190.56 321.424 190.671 321.417C204.531 320.554 218.978 316.615 232.664 312.32C213.552 314.944 194.154 315.341 174.964 313.498C174.854 313.487 174.772 313.382 174.782 313.263C174.791 313.144 174.888 313.048 175 313.067C195.022 314.991 215.274 314.473 235.189 311.523C235.301 311.514 235.392 311.582 235.413 311.692C235.436 311.803 235.375 311.913 235.274 311.945C220.834 316.546 205.44 320.931 190.694 321.85C190.69 321.849 190.686 321.849 190.683 321.849Z" fill="#422C4F"/>
<path d="M220.647 336.774C205.658 336.774 190.738 334.83 176.093 330.956C175.985 330.927 175.919 330.809 175.946 330.693C175.972 330.577 176.081 330.507 176.189 330.534C196.723 335.967 217.806 337.598 238.849 335.383C238.968 335.368 239.058 335.459 239.068 335.578C239.079 335.698 238.998 335.803 238.888 335.814C232.806 336.455 226.72 336.774 220.647 336.774Z" fill="#422C4F"/>
<path d="M220.635 344.373C208.13 344.373 195.637 342.018 183.88 337.391C183.776 337.35 183.722 337.226 183.76 337.114C183.797 337.002 183.912 336.943 184.018 336.985C200.116 343.32 217.608 345.381 234.597 342.948C234.714 342.936 234.809 343.016 234.823 343.134C234.837 343.252 234.76 343.361 234.65 343.377C230.004 344.042 225.317 344.373 220.635 344.373Z" fill="#422C4F"/>
<path d="M232.029 361.647C214.168 361.647 196.216 355.334 181.907 343.859C181.818 343.789 181.8 343.653 181.866 343.557C181.933 343.462 182.058 343.441 182.147 343.512C198.154 356.349 218.74 362.693 238.636 360.921C238.747 360.904 238.843 360.999 238.853 361.119C238.862 361.238 238.78 361.341 238.669 361.352C236.463 361.551 234.247 361.647 232.029 361.647Z" fill="#422C4F"/>
<path d="M318.75 209.541C316.028 210.569 312.886 209.691 310.625 207.761C308.364 205.831 306.907 202.979 306.065 200.008C305.224 197.037 304.946 193.92 304.673 190.827C304.351 187.179 304.097 183.214 305.953 180.144C307.597 177.424 310.569 176.006 313.474 175.143C316.565 174.224 319.929 173.783 322.935 174.984C326.827 176.541 329.454 180.648 330.555 184.96C331.656 189.272 331.468 193.828 331.272 198.296C331.135 201.413 330.998 204.531 330.862 207.648L332.137 213.728L319.99 215.638L318.75 209.541Z" fill="#EBA58E"/>
<path d="M317.479 216.032L318.292 211.601L332.839 209.438L333.831 213.461L317.479 216.032Z" fill="#7DD3E9"/>
<path d="M330.228 178.047C330.16 174.159 326.978 170.634 323.371 170.451C320.757 170.319 318.203 171.718 315.602 171.411C312.517 171.047 310.014 168.372 306.946 167.873C303.667 167.341 300.253 169.683 299.098 173.03C297.943 176.379 298.998 180.4 301.455 182.799C303.913 185.197 307.808 185.958 310.996 184.973C310.562 187.71 311.706 190.31 313.697 192.072C313.03 194.891 313.759 197.766 315.571 199.924C315.571 197.256 316.401 195.262 317.369 194.306C318.337 193.35 319.922 193.043 320.985 193.871C321.758 194.473 322.121 195.525 322.232 196.545C322.409 198.16 322.046 199.838 321.224 201.203C320.401 202.567 319.126 203.608 317.685 204.092C320.955 207.348 326.482 208.526 330.86 207.649C333.711 207.078 335.171 203.054 336.05 200.079C336.93 197.104 337.275 193.98 337.594 190.877C337.79 188.968 337.979 187.041 337.781 185.134C337.583 183.226 336.966 181.313 335.74 179.919C334.516 178.524 331.951 177.553 330.228 178.047Z" fill="#6A3649"/>
<path d="M317.454 202.145C317.369 202.145 317.287 202.131 317.209 202.101C316.97 202.007 316.671 201.734 316.611 200.963C316.47 199.156 316.964 197.281 317.963 195.821C318.386 195.203 318.815 194.894 319.275 194.875C319.785 194.859 320.262 195.198 320.542 195.748C320.778 196.217 320.846 196.758 320.905 197.235C320.919 197.354 320.842 197.462 320.732 197.478C320.614 197.49 320.52 197.411 320.506 197.292C320.45 196.831 320.391 196.354 320.189 195.956C320.024 195.629 319.692 195.306 319.318 195.306C319.309 195.306 319.301 195.306 319.291 195.307C318.96 195.32 318.631 195.572 318.286 196.077C317.343 197.454 316.88 199.222 317.011 200.926C317.035 201.225 317.112 201.602 317.346 201.694C317.468 201.74 317.638 201.695 317.764 201.579C317.881 201.472 317.976 201.31 318.064 201.071C318.303 200.417 318.335 199.685 318.151 199.01C318.121 198.895 318.182 198.776 318.287 198.742C318.393 198.707 318.505 198.774 318.537 198.888C318.745 199.655 318.71 200.486 318.438 201.228C318.367 201.422 318.248 201.704 318.025 201.907C317.855 202.063 317.651 202.145 317.454 202.145Z" fill="#422C4F"/>
<path d="M317.428 197.427C317.369 197.427 317.311 197.4 317.272 197.346C317.202 197.254 317.215 197.118 317.301 197.042C317.883 196.539 318.748 196.448 319.408 196.825C319.506 196.881 319.544 197.013 319.492 197.118C319.44 197.224 319.317 197.263 319.22 197.207C318.7 196.911 318.013 196.98 317.555 197.38C317.516 197.412 317.472 197.427 317.428 197.427Z" fill="#422C4F"/>
<path d="M251.269 236.31C251.269 228.507 247.149 222.043 241.742 220.774V220.532H239.806C233.475 220.532 228.344 227.596 228.344 236.31C228.344 245.024 233.475 252.088 239.806 252.088H241.742V251.846C247.149 250.577 251.269 244.114 251.269 236.31Z" fill="#99A3B0"/>
<path d="M241.742 252.088C248.073 252.088 253.205 245.024 253.205 236.31C253.205 227.596 248.073 220.532 241.742 220.532C235.411 220.532 230.279 227.596 230.279 236.31C230.279 245.024 235.411 252.088 241.742 252.088Z" fill="#C7D2D7"/>
<path d="M256.998 236.31C256.998 231.617 254.52 227.731 251.269 226.968V226.822H244.644C240.838 226.822 237.751 231.071 237.751 236.31C237.751 241.55 240.838 245.798 244.644 245.798H251.269V245.653C254.52 244.89 256.998 241.003 256.998 236.31Z" fill="#99A3B0"/>
<path d="M251.269 245.798C255.076 245.798 258.162 241.55 258.162 236.31C258.162 231.07 255.076 226.822 251.269 226.822C247.462 226.822 244.375 231.07 244.375 236.31C244.375 241.55 247.462 245.798 251.269 245.798Z" fill="#C7D2D7"/>
<path d="M248.378 240.059C253.283 255.065 253.574 271.414 259.293 286.143C263.43 296.798 271.248 307.152 282.272 309.544C292.511 311.765 303.107 306.304 306.243 295.26C308.14 288.583 307.672 281.341 307.73 274.449C307.793 267.05 307.954 259.648 308.367 252.259C309.372 234.3 311.826 216.182 318.448 199.539C318.851 198.527 317.468 197.644 317.061 198.666C307.5 222.694 306.314 249.378 306.118 275.174C306.067 281.882 306.534 289.017 304.506 295.467C302.16 302.932 295.899 307.572 288.714 308.227C276.011 309.385 266.144 298.393 261.31 286.836C255.058 271.888 254.954 254.975 249.928 239.598C249.586 238.556 248.034 239.005 248.378 240.059Z" fill="#454F6B"/>
<path d="M317.906 200.671C318.738 200.671 319.412 199.945 319.412 199.049C319.412 198.153 318.738 197.427 317.906 197.427C317.074 197.427 316.4 198.153 316.4 199.049C316.4 199.945 317.074 200.671 317.906 200.671Z" fill="#797C99"/>
<path d="M346.891 329.432L345.559 456.134H367.166L376.019 313.315L346.891 329.432Z" fill="#454F6B"/>
<path d="M350.57 327.396L349.077 352.386L346.891 352.708V393.48L354.835 356.479C361.247 355.53 367.538 353.717 373.734 351.563L376.02 313.314L350.57 327.396Z" fill="#422C4F"/>
<path d="M322.284 329.432L320.952 456.134H342.559L351.412 313.315L322.284 329.432Z" fill="#454F6B"/>
<path d="M322.284 329.432V350.802C329.583 355.445 338.314 357.318 346.891 357.167C347.527 357.155 348.161 357.132 348.795 357.099L350.569 327.397L351.411 313.316L322.284 329.432Z" fill="#422C4F"/>
<path d="M342.928 450.172C342.924 450.172 342.919 450.172 342.915 450.171C342.804 450.164 342.72 450.061 342.728 449.943L348.112 365.173C348.119 365.054 348.22 364.946 348.324 364.972C348.435 364.979 348.52 365.082 348.512 365.2L343.127 449.97C343.122 450.085 343.033 450.172 342.928 450.172Z" fill="#422C4F"/>
<path d="M265.64 244.977L262.159 243.607L257.487 232.983C256.995 231.865 256.258 230.891 255.34 230.147L251.511 227.042C251.087 226.699 250.497 226.729 250.105 227.113C249.661 227.547 249.621 228.282 250.012 228.77L254.06 233.804L246.635 230.719C246.039 230.471 245.369 230.785 245.132 231.425C244.916 232.004 245.13 232.667 245.632 232.979L252.522 237.265L246.005 236.6C245.308 236.529 244.681 237.062 244.585 237.81C244.493 238.525 244.916 239.2 245.567 239.374L252.254 241.159L246.802 241.67C246.167 241.73 245.713 242.357 245.813 243.034C245.899 243.613 246.365 244.037 246.91 244.03L251.584 243.97C252.32 249.737 257.608 251.034 257.608 251.034L262.963 253.99L265.64 244.977Z" fill="#EBA58E"/>
<path d="M265.64 244.977L263.137 243.992C259.298 245.68 258.535 249.374 258.114 251.311L262.962 253.987L265.64 244.977Z" fill="#E78882"/>
<path d="M351.535 221.526C348.787 215.486 342.725 212.063 336.546 213.035L313.913 216.594C308.373 217.464 303.563 221.162 300.996 226.521L287.325 255.07L264.167 242.96C257.608 249.015 259.08 256.656 259.08 256.656L284.107 271.451C289.952 274.906 297.291 272.607 300.504 266.315L307.94 251.754C323.803 272.011 321.995 334.077 320.188 345.755C331.977 351.464 347.26 351.021 358.853 349.399C359.829 340.18 360.805 330.962 361.781 321.743C363.093 330.555 363.875 339.649 363.734 348.618C371.063 347.298 376.007 345.755 376.007 345.755C383.039 281.667 360.076 240.296 351.535 221.526Z" fill="white"/>
<path d="M308.1 246.324L298.938 263.531C295.999 269.051 289.463 270.962 284.335 267.8L259.135 252.263C258.731 254.832 259.081 256.655 259.081 256.655L284.108 271.45C289.952 274.905 297.291 272.606 300.504 266.314L307.94 251.753L313.034 241.777C310.953 242.635 309.209 244.24 308.1 246.324Z" fill="#E4E4E0"/>
<path d="M316.221 260.577C322.137 264.989 329.492 267.851 336.627 268.849C327.612 265.403 318.854 259.335 312.452 251.679C313.411 248.445 313.571 245.122 313.034 241.777L307.94 251.753C316.125 262.205 319.605 283.785 320.809 303.834C323.635 289.373 322.134 273.836 316.221 260.577Z" fill="#E4E4E0"/>
<path d="M300.505 266.53C300.472 266.53 300.439 266.521 300.409 266.503C300.311 266.445 300.276 266.315 300.329 266.21L314.202 239.041C314.255 238.936 314.378 238.897 314.475 238.956C314.572 239.014 314.607 239.144 314.554 239.249L300.681 266.418C300.645 266.489 300.576 266.53 300.505 266.53Z" fill="#422C4F"/>
<path d="M348.908 254.95C348.818 254.95 348.736 254.885 348.714 254.786C345.928 242.789 341.776 231.173 336.371 220.262C336.319 220.157 336.356 220.027 336.454 219.97C336.55 219.916 336.673 219.953 336.726 220.06C342.146 231.001 346.31 242.65 349.103 254.682C349.13 254.798 349.064 254.916 348.957 254.945C348.94 254.949 348.924 254.95 348.908 254.95Z" fill="#422C4F"/>
<path d="M285.021 260.1C284.99 260.1 284.958 260.092 284.929 260.075C284.83 260.02 284.792 259.889 284.842 259.784L293.756 241.167C293.808 241.061 293.929 241.019 294.027 241.073C294.125 241.128 294.164 241.26 294.114 241.365L285.199 259.982C285.163 260.056 285.094 260.1 285.021 260.1Z" fill="#422C4F"/>
<path d="M345.151 345.959C338.279 345.959 331.381 344.894 324.829 342.792C324.723 342.758 324.662 342.638 324.694 342.523C324.726 342.409 324.84 342.34 324.944 342.377C334.281 345.37 344.323 346.254 353.989 344.926C354.106 344.912 354.199 344.996 354.214 345.114C354.228 345.233 354.15 345.341 354.039 345.356C351.102 345.76 348.129 345.959 345.151 345.959Z" fill="#422C4F"/>
<path d="M356.854 341.648C356.845 341.648 356.834 341.647 356.825 341.645C356.715 341.628 356.639 341.518 356.656 341.4L359.649 319.571C359.665 319.452 359.766 319.369 359.877 319.389C359.987 319.405 360.063 319.516 360.046 319.633L357.053 341.463C357.037 341.571 356.952 341.648 356.854 341.648Z" fill="#422C4F"/>
<path d="M365.944 329.648C365.849 329.648 365.765 329.576 365.747 329.472C365.297 326.954 364.699 324.44 363.967 321.999C363.933 321.885 363.991 321.763 364.097 321.726C364.202 321.693 364.316 321.752 364.35 321.866C365.086 324.323 365.689 326.855 366.142 329.391C366.164 329.509 366.092 329.622 365.983 329.644C365.969 329.647 365.957 329.648 365.944 329.648Z" fill="#422C4F"/>
<path d="M367.289 343.881C367.195 343.881 367.111 343.809 367.092 343.707C367.07 343.59 367.14 343.477 367.25 343.452L373.158 342.179C373.27 342.158 373.373 342.232 373.394 342.349C373.416 342.466 373.346 342.58 373.237 342.604L367.328 343.877C367.315 343.879 367.302 343.881 367.289 343.881Z" fill="#422C4F"/>
<path d="M341.546 266.425C341.546 272.805 340.47 276.551 340.47 276.551C357.137 274.821 364.618 268.447 364.618 268.447L341.546 266.425Z" fill="#E4E4E0"/>
<path d="M364.376 266.066C364.532 266.873 364.617 267.679 364.616 268.447C357.467 271.182 350.105 272.993 342.666 274.604C342.653 271.948 342.279 268.96 341.545 266.424C343.177 265.979 344.812 265.546 346.451 265.129" fill="white"/>
<path d="M342.667 274.821C342.621 274.821 342.576 274.805 342.54 274.773C342.493 274.731 342.466 274.671 342.466 274.606C342.452 271.84 342.047 268.882 341.355 266.489C341.339 266.433 341.344 266.371 341.371 266.32C341.398 266.269 341.444 266.23 341.496 266.216C343.118 265.772 344.769 265.336 346.405 264.919C346.517 264.89 346.621 264.964 346.647 265.08C346.673 265.196 346.606 265.313 346.499 265.34C344.934 265.738 343.354 266.155 341.8 266.578C342.446 268.893 342.829 271.693 342.866 274.341C349.76 272.843 357.129 271.069 364.416 268.294C364.407 267.603 364.327 266.869 364.18 266.11C364.158 265.993 364.228 265.878 364.336 265.854C364.449 265.833 364.551 265.905 364.573 266.022C364.735 266.868 364.818 267.683 364.817 268.446C364.817 268.538 364.763 268.62 364.683 268.65C357.246 271.496 349.725 273.295 342.705 274.816C342.693 274.819 342.679 274.821 342.667 274.821Z" fill="#422C4F"/>
<path d="M329.893 466.3H338.438L336.182 456.133H323.886C315.044 458.223 305.865 466.3 305.865 466.3H325.867L329.893 463.688V466.3Z" fill="#422C4F"/>
<path d="M356.255 466.3H364.799L362.543 456.133H350.248C341.405 458.223 332.227 466.3 332.227 466.3H352.229L356.255 463.688V466.3Z" fill="#422C4F"/>
<path d="M84.5308 233.855L103.562 184.719L132.806 193.507L113.774 242.644L84.5308 233.855Z" fill="#A64F5A"/>
<path d="M88.8953 231.574L105.434 188.873L128.441 195.788L111.902 238.489L88.8953 231.574Z" fill="#FBEED1"/>
<path d="M122.754 195.469L123.758 188.873L112.065 185.234L111.061 191.83L122.754 195.469Z" fill="#C7D2D7"/>
<path d="M123.758 188.873L125.033 191.171L123.479 190.704L123.758 188.873Z" fill="#99A3B0"/>
<path d="M111.061 191.831L122.754 195.469L123.308 191.831L123.073 192.231C122.5 193.211 121.393 193.662 120.361 193.338L111.265 190.484L111.061 191.831Z" fill="#99A3B0"/>
<path d="M74.7588 329.431V453.441H55.8969L49.3306 313.314L74.7588 329.431Z" fill="#454F6B"/>
<path d="M71.5469 327.395L72.8506 352.385L74.7589 352.707V393.479L69.4282 365.035C63.8316 364.086 57.2214 363.039 51.8128 360.885L49.3315 313.313L71.5469 327.395Z" fill="#422C4F"/>
<path d="M100.303 329.431V453.441H81.3547L74.7588 313.314L100.303 329.431Z" fill="#454F6B"/>
<path d="M100.303 329.431V359.746C93.9009 364.389 86.6191 365.652 79.0982 365.5C78.5403 365.489 77.9842 365.465 77.4281 365.433L75.4966 327.395L74.7588 313.314L100.303 329.431Z" fill="#422C4F"/>
<path d="M103.355 241.226C103.598 240.812 103.84 240.399 104.083 239.987C106.735 235.482 107.252 229.887 105.471 224.909C102.607 216.903 99.0381 208.54 96.9052 200.906H66.3845C59.8925 204.47 56.3008 213.296 55.6113 221.109C54.9227 228.922 56.1539 236.794 55.8334 244.635C55.3373 256.764 51.1716 268.31 48.239 280.034C42.2565 303.955 41.3807 329.341 45.6986 353.674C49.8177 355.302 54.0281 356.595 58.2878 357.581L62.1669 334.797L65.9296 358.984C78.8922 360.755 92.1145 359.488 104.563 354.744C105.773 320.677 105.103 286.597 100.966 252.823C100.471 248.777 101.333 244.675 103.355 241.226Z" fill="white"/>
<path d="M123.511 222.486L124.465 218.701L122.217 216.108C121.845 215.679 121.558 215.172 121.373 214.621L119.813 209.972C119.626 209.416 119.816 208.793 120.274 208.465C120.775 208.105 121.447 208.204 121.841 208.694L125.268 212.971L128.932 203.51L129.506 204.428C130.146 205.451 130.487 206.656 130.487 207.889L132.458 212.093C132.836 212.899 132.908 213.832 132.659 214.694L129.233 226.542L123.511 222.486Z" fill="#F0BF9C"/>
<path d="M86.9996 200.906L87.4016 193.435C90.9145 193.435 94.122 190.227 95.313 186.668C96.1243 184.243 96.0222 181.551 95.4482 179.049C94.8751 176.546 93.8534 174.194 92.8388 171.86C91.3972 168.546 89.9555 165.231 88.5147 161.915C86.7847 157.937 81.7549 156.57 77.6842 156.832C73.6125 157.093 69.6636 159.587 67.6811 163.425C65.7209 167.22 65.7719 171.918 66.9217 176.08C68.0715 180.241 70.2179 183.987 72.341 187.678C73.5302 189.744 74.7193 191.811 75.9085 193.879L75.2217 200.906H86.9996Z" fill="#F0BF9C"/>
<path d="M68.4385 256.55C68.5227 256.517 68.5782 256.424 68.5675 256.324C67.261 244.037 67.3577 231.59 68.8567 219.33C68.871 219.212 68.794 219.103 68.6839 219.088C68.5764 219.073 68.4735 219.154 68.4591 219.274C66.9557 231.569 66.8581 244.051 68.169 256.373C68.1815 256.492 68.2809 256.576 68.3911 256.563C68.4072 256.561 68.4233 256.556 68.4385 256.55Z" fill="#422C4F"/>
<path d="M78.6941 356.052C85.5659 356.052 92.4635 354.986 99.0156 352.885C99.1221 352.851 99.183 352.731 99.1508 352.616C99.1195 352.502 99.0048 352.433 98.901 352.47C89.5641 355.463 79.5224 356.347 69.8551 355.019C69.7378 355.005 69.6447 355.089 69.6304 355.206C69.616 355.325 69.6939 355.433 69.8041 355.448C72.7421 355.851 75.7159 356.052 78.6941 356.052Z" fill="#422C4F"/>
<path d="M66.9906 351.74C66.9995 351.74 67.0103 351.739 67.0192 351.737C67.1294 351.72 67.2055 351.61 67.1885 351.492L64.195 329.663C64.1797 329.544 64.0777 329.461 63.9675 329.48C63.8574 329.498 63.7813 329.608 63.7983 329.725L66.7918 351.555C66.807 351.663 66.893 351.74 66.9906 351.74Z" fill="#422C4F"/>
<path d="M57.9009 339.739C57.9958 339.739 58.08 339.668 58.0979 339.564C58.5483 337.046 59.1465 334.531 59.8781 332.091C59.9121 331.977 59.8539 331.855 59.7482 331.818C59.6426 331.785 59.5289 331.844 59.4948 331.957C58.7579 334.415 58.1561 336.946 57.703 339.483C57.6815 339.6 57.7532 339.713 57.8624 339.735C57.8759 339.738 57.8884 339.739 57.9009 339.739Z" fill="#422C4F"/>
<path d="M56.5559 353.971C56.6499 353.971 56.7341 353.901 56.7529 353.798C56.7753 353.681 56.7045 353.567 56.5953 353.543L50.6871 352.27C50.5751 352.249 50.4722 352.323 50.4507 352.44C50.4283 352.557 50.499 352.67 50.6083 352.695L56.5165 353.968C56.5299 353.97 56.5433 353.971 56.5559 353.971Z" fill="#422C4F"/>
<path d="M81.8999 263.615C82.8894 269.906 84.5307 273.406 84.5307 273.406C67.8305 274.697 59.4661 269.759 59.4661 269.759L81.8999 263.615Z" fill="#E4E4E0"/>
<path d="M59.3337 267.368C59.305 268.19 59.3462 269 59.4653 269.758C66.9388 271.168 74.4785 271.629 82.0621 271.881C81.6627 269.261 81.5678 266.246 81.8991 263.614C80.2211 263.469 78.5412 263.336 76.8613 263.22" fill="white"/>
<path d="M82.0578 272.098C74.9004 271.861 67.2066 271.439 59.4314 269.97C59.3481 269.955 59.2828 269.885 59.2684 269.794C59.1494 269.042 59.1037 268.223 59.1332 267.36C59.1377 267.24 59.2264 267.151 59.3419 267.151C59.452 267.156 59.5389 267.257 59.5353 267.376C59.5084 268.153 59.5442 268.89 59.6419 269.572C67.2568 270.998 74.7974 271.421 81.8267 271.658C81.4524 269.041 81.3969 266.211 81.6745 263.813C80.077 263.675 78.4544 263.548 76.8498 263.437C76.7388 263.43 76.6555 263.327 76.6626 263.207C76.6698 263.088 76.7611 262.997 76.8758 263.005C78.5529 263.122 80.2489 263.254 81.9163 263.4C81.9709 263.405 82.0219 263.434 82.056 263.48C82.0909 263.526 82.1061 263.586 82.0989 263.645C81.7873 266.128 81.8464 269.118 82.2619 271.847C82.2718 271.911 82.2548 271.976 82.2154 272.026C82.1849 272.063 82.1419 272.087 82.0972 272.096C82.0837 272.097 82.0703 272.098 82.0578 272.098Z" fill="#422C4F"/>
<path d="M103.355 241.225C103.454 241.056 103.554 240.888 103.653 240.718V240.717L95.3533 225.91C95.2647 229.536 95.7554 233.541 97.7048 236.499C98.4713 237.662 99.3909 238.753 99.8046 240.109C100.403 242.069 99.8395 244.19 99.3676 246.189C98.0567 251.735 97.4523 257.543 98.2618 263.199C98.9208 267.805 100.586 272.297 103.264 275.932C102.663 268.215 101.909 260.51 100.967 252.82C100.471 248.777 101.333 244.675 103.355 241.225Z" fill="#E4E4E0"/>
<path d="M96.9052 200.906C100.569 200.906 103.891 203.227 105.384 206.831L117.024 234.92L122.71 220.533C128.297 219.602 131.376 226.235 131.376 226.235L123.839 249.762C122.742 253.187 119.747 255.486 116.383 255.486C113.621 255.486 111.059 253.929 109.631 251.381L94.1616 223.783C87.3346 210.088 96.9052 200.906 96.9052 200.906Z" fill="white"/>
<path d="M119.411 228.089L116.891 234.598L118.726 239.027C120.198 234.921 119.411 228.089 119.411 228.089Z" fill="#E4E4E0"/>
<path d="M109.631 251.597C109.563 251.597 109.497 251.56 109.459 251.492L93.9896 223.894C93.9323 223.792 93.9628 223.66 94.0577 223.598C94.1526 223.537 94.2762 223.569 94.3335 223.671L109.803 251.269C109.861 251.371 109.83 251.504 109.735 251.566C109.702 251.587 109.667 251.597 109.631 251.597Z" fill="#422C4F"/>
<path d="M119.236 240.474C119.159 240.474 119.086 240.427 119.053 240.346L110.878 220.618C110.833 220.509 110.878 220.381 110.979 220.332C111.08 220.284 111.199 220.332 111.245 220.442L119.42 240.17C119.464 240.279 119.42 240.407 119.319 240.456C119.292 240.468 119.264 240.474 119.236 240.474Z" fill="#422C4F"/>
<path d="M93.7611 161.834C92.8629 157.122 89.6187 153.007 85.4468 151.29C81.5435 149.684 77.0618 150.157 73.2525 152.007C66.3978 155.335 61.677 163.225 61.6931 171.323C61.702 175.832 63.0443 180.211 63.4589 184.698C63.8807 189.258 63.3273 193.92 61.8534 198.219C60.1878 203.079 57.4003 207.392 55.3497 212.077C53.2991 216.762 51.9935 222.194 53.5203 227.106C54.9208 231.612 58.602 235.038 62.7632 236.616C66.9243 238.194 71.509 238.088 75.8251 237.104C81.0035 235.925 86.3261 233.096 88.5101 227.904C89.8659 224.679 89.8238 221.002 89.7575 217.463C89.7575 209.061 89.4396 200.643 89.2802 192.242C89.2023 188.135 88.854 183.913 89.0967 179.812C89.248 177.253 90.2966 175.539 91.4714 173.399C93.4154 169.862 94.5473 165.956 93.7611 161.834Z" fill="#6A3649"/>
<path d="M95.2798 466.299H110.097C109.015 464.047 107.205 462.299 105.009 461.385L104.604 461.217C102.927 460.519 101.465 459.331 100.382 457.786L97.3376 453.439H86.7032C86.7032 453.439 83.7929 459.788 88.2702 466.298H92.1502V462.601L95.2798 466.299Z" fill="#422C4F"/>
<path d="M69.7596 466.299H84.5766C83.4949 464.047 81.6852 462.299 79.4887 461.385L79.0839 461.217C77.4067 460.519 75.9445 459.331 74.8619 457.786L71.8173 453.439H61.1829C61.1829 453.439 58.2727 459.788 62.75 466.298H66.63V462.601L69.7596 466.299Z" fill="#422C4F"/>
<defs>
<filter id="filter0_d_152_36" x="77.9775" y="11.6172" width="244.812" height="152.834" filterUnits="userSpaceOnUse" color-interpolation-filters="sRGB">
<feFlood flood-opacity="0" result="BackgroundImageFix"/>
<feColorMatrix in="SourceAlpha" type="matrix" values="0 0 0 0 0 0 0 0 0 0 0 0 0 0 0 0 0 0 127 0" result="hardAlpha"/>
<feOffset dy="4"/>
<feGaussianBlur stdDeviation="2"/>
<feComposite in2="hardAlpha" operator="out"/>
<feColorMatrix type="matrix" values="0 0 0 0 0 0 0 0 0 0 0 0 0 0 0 0 0 0 0.25 0"/>
<feBlend mode="normal" in2="BackgroundImageFix" result="effect1_dropShadow_152_36"/>
<feBlend mode="normal" in="SourceGraphic" in2="effect1_dropShadow_152_36" result="shape"/>
</filter>
</defs>
</svg>
