<svg width="365" height="209" viewBox="0 0 365 209" fill="none" xmlns="http://www.w3.org/2000/svg">
<path d="M71.5438 113.944C53.8742 113.944 39.4994 100.229 39.4994 83.3712C39.4994 66.5133 53.8742 52.7988 71.5438 52.7988C89.2133 52.7988 103.588 66.5133 103.588 83.3712C103.588 100.229 89.2128 113.944 71.5438 113.944ZM71.5438 53.1919C54.1017 53.1919 39.9114 66.7303 39.9114 83.3712C39.9114 100.012 54.1017 113.55 71.5438 113.55C88.9859 113.55 103.176 100.012 103.176 83.3712C103.176 66.7303 88.9859 53.1919 71.5438 53.1919Z" fill="#7BAEFA"/>
<path d="M78.6524 105.515H64.4353V90.153H48.3342V76.5889H64.4353V61.2275H78.6524V76.5889H94.7535V90.153H78.6524V105.515ZM64.8473 105.122H78.2404V89.7599H94.3414V76.982H78.2404V61.6207H64.8473V76.982H48.7463V89.7599H64.8473V105.122Z" fill="#7BAEFA"/>
<path d="M250.155 101.467H221.039V63.8857H250.155V101.467ZM221.451 101.073H249.743V64.2789H221.451V101.073Z" fill="#7BAEFA"/>
<path d="M301.695 63.8857H261.46V64.2789H301.695V63.8857Z" fill="#7BAEFA"/>
<path d="M280.176 52.0029H239.941V52.396H280.176V52.0029Z" fill="#7BAEFA"/>
<path d="M301.695 87.1953H261.46V87.5884H301.695V87.1953Z" fill="#7BAEFA"/>
<path d="M301.695 94.1338H261.46V94.5269H301.695V94.1338Z" fill="#7BAEFA"/>
<path d="M301.695 101.074H261.46V101.467H301.695V101.074Z" fill="#7BAEFA"/>
<path d="M301.696 72.7881H275.314V73.1812H301.696V72.7881Z" fill="#7BAEFA"/>
<path d="M338.99 108.295C349.016 108.295 357.143 100.541 357.143 90.9763C357.143 81.4113 349.016 73.6572 338.99 73.6572C328.964 73.6572 320.837 81.4113 320.837 90.9763C320.837 100.541 328.964 108.295 338.99 108.295Z" fill="#7BAEFA"/>
<path d="M352.105 87.221H342.925V78.4629H335.054V87.221H325.874V94.7305H335.054V103.489H342.925V94.7305H352.105V87.221Z" fill="white"/>
<path d="M337.368 113.942C336.275 113.873 335.177 113.731 334.108 113.521L334.19 113.136C335.242 113.342 336.32 113.482 337.395 113.55L337.368 113.942ZM340.659 113.938L340.631 113.546C341.704 113.477 342.782 113.336 343.835 113.127L343.919 113.512C342.847 113.725 341.751 113.868 340.659 113.938ZM330.934 112.679C329.904 112.331 328.887 111.91 327.913 111.429L328.102 111.08C329.06 111.552 330.059 111.965 331.072 112.308L330.934 112.679ZM347.088 112.665L346.95 112.294C347.964 111.949 348.961 111.534 349.915 111.061L350.105 111.41C349.135 111.891 348.12 112.313 347.088 112.665ZM325.1 109.798C324.205 109.196 323.346 108.529 322.545 107.817L322.827 107.53C323.614 108.23 324.459 108.885 325.337 109.476L325.1 109.798ZM352.913 109.776L352.675 109.455C353.554 108.861 354.397 108.205 355.182 107.505L355.464 107.792C354.665 108.505 353.807 109.172 352.913 109.776ZM320.295 105.526C319.602 104.716 318.962 103.855 318.392 102.966L318.744 102.761C319.304 103.635 319.933 104.482 320.614 105.277L320.295 105.526ZM357.71 105.497L357.39 105.249C358.07 104.452 358.699 103.604 359.257 102.728L359.609 102.932C359.041 103.823 358.402 104.686 357.71 105.497ZM316.871 100.183C316.432 99.2238 316.059 98.229 315.764 97.2258L316.161 97.1193C316.451 98.1048 316.817 99.0828 317.249 100.026L316.871 100.183ZM361.126 100.144L360.748 99.987C361.177 99.0461 361.541 98.0665 361.831 97.0769L362.228 97.1828C361.933 98.1902 361.562 99.1866 361.126 100.144ZM315.092 94.1521C314.943 93.1232 314.866 92.0691 314.864 91.0203L315.276 91.0198C315.278 92.0508 315.354 93.087 315.5 94.0986L315.092 94.1521ZM362.894 94.1086L362.487 94.0551C362.631 93.043 362.704 92.0073 362.704 90.9757L362.704 90.8877H363.116L363.116 90.9726C363.116 92.0251 363.041 93.0792 362.894 94.1086ZM315.488 87.9404L315.079 87.8879C315.225 86.8538 315.447 85.8186 315.739 84.8117L316.136 84.9165C315.849 85.9066 315.631 86.9235 315.488 87.9404ZM362.473 87.8104C362.323 86.7935 362.099 85.7772 361.806 84.7907L362.203 84.6838C362.501 85.6875 362.729 86.7212 362.88 87.7564L362.473 87.8104ZM317.213 82.0048L316.835 81.8486C317.269 80.89 317.778 79.9512 318.346 79.0575L318.698 79.2614C318.14 80.1399 317.641 81.0629 317.213 82.0048ZM360.712 81.8864C360.28 80.9471 359.775 80.0282 359.213 79.1545L359.564 78.9485C360.136 79.838 360.65 80.7731 361.089 81.7281L360.712 81.8864ZM320.561 76.7371L320.241 76.4892C320.931 75.6778 321.685 74.9041 322.483 74.1897L322.765 74.4764C321.98 75.1793 321.239 75.9393 320.561 76.7371ZM357.337 76.6412C356.655 75.8471 355.909 75.0902 355.121 74.3925L355.402 74.1043C356.203 74.814 356.962 75.5834 357.656 76.3917L357.337 76.6412ZM325.267 72.5229L325.028 72.2026C325.92 71.5978 326.863 71.0458 327.833 70.5625L328.024 70.9111C327.072 71.386 326.144 71.928 325.267 72.5229ZM352.605 72.4506C351.725 71.8598 350.793 71.3226 349.837 70.8524L350.026 70.5028C350.998 70.9813 351.946 71.528 352.843 72.1287L352.605 72.4506ZM330.988 69.6725L330.848 69.3025C331.879 68.9502 332.944 68.663 334.015 68.4486L334.1 68.8334C333.047 69.0441 332 69.3261 330.988 69.6725ZM346.866 69.6296C345.851 69.2889 344.801 69.0121 343.745 68.8072L343.828 68.4219C344.902 68.6305 345.97 68.912 347.002 69.259L346.866 69.6296ZM337.304 68.4083L337.275 68.0162C338.364 67.9428 339.478 67.9402 340.565 68.0073L340.538 68.3994C339.47 68.3338 338.375 68.3365 337.304 68.4083Z" fill="#7BAEFA"/>
<path d="M214.185 59.7287L197.43 27.9214L193.697 33.6237H161.067L153.25 42.5092L141.669 12.3226L128.597 59.7287L111.842 27.9214L108.108 33.6237H69.4723L61.6556 42.5092L50.0749 12.3226L37.0022 59.7287L20.2479 27.9214L16.5137 33.6237H-4.26489V30.4788H14.6864L20.5594 21.51L36.033 50.8846L49.5602 1.83008L62.7928 36.3247L67.9357 30.4788H106.281L112.154 21.51L127.627 50.8846L141.154 1.83008L154.387 36.3247L159.53 30.4788H191.869L197.742 21.51L213.215 50.8846L226.742 1.83008L239.975 36.3247L245.119 30.4788H283.463L289.336 21.51L304.809 50.8846L318.337 1.83008L331.57 36.3247L336.713 30.4788H361.264V33.6237H338.249L330.433 42.5092L318.852 12.3226L305.78 59.7287L289.024 27.9214L285.291 33.6237H246.655L238.838 42.5092L227.257 12.3226L214.185 59.7287Z" fill="#7BAEFA"/>
<path d="M19.0694 207.44C10.6742 207.44 3.80511 200.886 3.80511 192.876V120.162H34.3337V192.876C34.3337 200.886 27.4647 207.44 19.0694 207.44Z" fill="#7BAEFA"/>
<path d="M19.0695 203.997C12.3208 203.997 6.79883 198.729 6.79883 192.29V133.838H31.3396V192.29C31.3402 198.729 25.8182 203.997 19.0695 203.997Z" fill="#5672C3"/>
<path d="M34.7074 122.951H3.43156C1.82403 122.951 0.508789 121.696 0.508789 120.162C0.508789 118.628 1.82403 117.374 3.43156 117.374H34.7074C36.3149 117.374 37.6301 118.629 37.6301 120.162C37.6301 121.696 36.3149 122.951 34.7074 122.951Z" fill="#7BAEFA"/>
<path d="M34.3337 122.82H3.80511V123.082H34.3337V122.82Z" fill="#3A70BF"/>
<path d="M29.744 136.97H28.6453V182.999H29.744V136.97Z" fill="white"/>
<path d="M29.744 126.647H28.6453V131.735H29.744V126.647Z" fill="white"/>
<path d="M14.1376 113.143C16.1029 113.143 17.6961 111.623 17.6961 109.748C17.6961 107.873 16.1029 106.354 14.1376 106.354C12.1724 106.354 10.5792 107.873 10.5792 109.748C10.5792 111.623 12.1724 113.143 14.1376 113.143Z" fill="#7BAEFA"/>
<path d="M29.7614 104.293C29.7614 105.587 28.662 106.636 27.3056 106.636C25.9491 106.636 24.8498 105.587 24.8498 104.293C24.8498 102.999 25.9491 101.95 27.3056 101.95C28.662 101.95 29.7614 102.999 29.7614 104.293Z" fill="#7BAEFA"/>
<path d="M15.1849 98.9595C16.2281 98.9595 17.0737 98.1527 17.0737 97.1575C17.0737 96.1623 16.2281 95.3555 15.1849 95.3555C14.1417 95.3555 13.2961 96.1623 13.2961 97.1575C13.2961 98.1527 14.1417 98.9595 15.1849 98.9595Z" fill="#7BAEFA"/>
<path d="M22.8002 93.2955C23.5378 93.2955 24.1357 92.725 24.1357 92.0213C24.1357 91.3176 23.5378 90.7471 22.8002 90.7471C22.0626 90.7471 21.4646 91.3176 21.4646 92.0213C21.4646 92.725 22.0626 93.2955 22.8002 93.2955Z" fill="#7BAEFA"/>
<path d="M20.6884 80.0525C20.6884 80.756 20.0907 81.3268 19.3528 81.3268C18.6156 81.3268 18.0173 80.7565 18.0173 80.0525C18.0173 79.3491 18.615 78.7783 19.3528 78.7783C20.0901 78.7783 20.6884 79.3486 20.6884 80.0525Z" fill="#7BAEFA"/>
<path d="M21.2412 100.675C21.2412 101.173 20.8181 101.576 20.2968 101.576C19.7754 101.576 19.3524 101.173 19.3524 100.675C19.3524 100.178 19.7754 99.7744 20.2968 99.7744C20.8187 99.7744 21.2412 100.178 21.2412 100.675Z" fill="#7BAEFA"/>
<path d="M350.358 140.093C347.409 140.093 345.01 137.804 345.01 134.991C345.01 132.273 349.959 121.159 350.169 120.687L350.359 120.263L350.549 120.688C350.76 121.159 355.707 132.273 355.707 134.991C355.707 137.804 353.308 140.093 350.358 140.093ZM350.358 121.271C349.431 123.382 345.422 132.645 345.422 134.991C345.422 137.588 347.637 139.7 350.358 139.7C353.08 139.7 355.294 137.588 355.294 134.991C355.295 132.645 351.286 123.382 350.358 121.271Z" fill="#7BAEFA"/>
<path d="M26.0289 127.903C30.3696 125.603 33.3023 127.906 33.066 130.817C32.6826 134.315 23.6137 148.088 22.8501 148.97C18.5956 155.047 13.6093 151.944 14.5949 146.681C14.2669 143.729 20.3685 130.902 26.0289 127.903Z" fill="white"/>
<path d="M45.3692 203.075C45.3692 203.075 47.0229 204.88 48.3343 205.205C49.6457 205.53 51.5394 205.874 51.5186 207.805H39.4814C39.5621 205.998 39.9149 204.427 40.5945 203.661C41.3515 203.743 41.9081 203.832 42.4481 203.755C42.9964 203.552 44.6561 202.543 45.3692 203.075Z" fill="white"/>
<path d="M32.5645 203.599C32.5645 203.599 33.0358 205.1 34.1335 205.35C35.4444 205.675 36.825 206.019 36.8047 207.95H26.8206C26.9013 206.143 27.1777 204.5 27.8573 203.735C28.6143 203.816 29.2472 203.978 29.7873 203.901C30.3356 203.698 31.8513 203.067 32.5645 203.599Z" fill="white"/>
<path d="M41.8804 132.832C41.0958 128.266 43.4879 126.129 46.3771 126.914C50.3322 127.669 61.3717 138.484 62.4666 139.865C67.6683 144.97 63.433 148.961 58.333 147.027C54.5521 147.003 42.9209 138.886 41.8804 132.832Z" fill="white"/>
<path d="M33.5751 127.703C36.1216 129.032 38.496 129.379 40.5173 127.703V118.532H33.5757L33.5751 127.703Z" fill="#FCA886"/>
<path d="M33.5748 125.971L31.9832 126.074C39.4506 152.242 42.2167 144.446 42.8189 126.25L40.5164 125.971C38.7193 127.111 36.3267 126.938 33.5748 125.971Z" fill="#7BAEFA"/>
<path d="M29.6416 155.48L45.8663 155.113C46.6135 156.034 50.3037 171.069 49.8571 180.899C49.411 190.729 46.6519 204.138 46.6102 204.148C45.2004 204.493 43.2973 204.951 39.9339 204.606C39.49 196.303 39.7428 188.023 40.9256 181.305C39.4708 176.547 37.8457 165.617 37.8457 165.617L33.2742 204.457C31.9623 204.917 28.3604 204.609 26.9699 204.148C23.2258 159.315 29.6416 155.48 29.6416 155.48Z" fill="#181818"/>
<path d="M36.937 165.399L36.392 165.331L36.7508 162.69L36.9299 162.646C38.6737 162.209 40.3065 161.306 41.4085 160.171L41.8112 160.527C40.6778 161.695 39.0231 162.629 37.248 163.106L36.937 165.399Z" fill="#377DD1"/>
<path d="M28.1013 161.279L28.0222 160.76C28.1331 160.745 30.7493 160.352 31.1685 158.153L31.7086 158.248C31.2185 160.82 28.1326 161.274 28.1013 161.279Z" fill="#377DD1"/>
<path d="M47.4249 127.555C45.5911 125.993 40.8245 125.893 40.8245 125.893C41.2284 130.325 40.6773 135.197 39.6406 140.292C38.0748 135.206 35.9459 130.409 33.2259 125.913C33.2259 125.913 28.7225 125.796 26.3316 127.687C21.5964 131.73 25.124 141.048 25.0108 153.424C25.0108 153.424 22.693 162.856 23.4407 182.637C24.4988 183.179 31.8942 183.41 38.5352 183.385C39.4401 179.319 40.0746 166.242 40.0746 166.242C40.0746 166.242 40.6064 178.915 40.4142 183.365C45.818 183.294 50.546 183.051 51.1053 182.668C51.3273 182.543 49.2275 129.129 47.4249 127.555Z" fill="white"/>
<path d="M33.575 124.021C32.5856 124.547 31.9395 125.206 31.572 125.971L34.6777 128.445L33.575 125.894V124.021Z" fill="white"/>
<path d="M40.5157 124.021C41.5052 124.547 42.1513 125.206 42.5188 125.971L40.9575 128.914C40.874 127.753 40.7459 126.7 40.5157 125.894V124.021Z" fill="white"/>
<path d="M39.6407 140.424C39.5924 140.424 39.5473 140.399 39.5226 140.359C36.2746 135.118 33.6309 131.77 31.2032 129.822C31.1675 129.793 31.1493 129.749 31.1559 129.704C31.162 129.659 31.1916 129.621 31.2345 129.603L32.7915 128.916L30.751 128.058C30.6845 128.03 30.6521 127.957 30.6774 127.892L31.4438 125.925L31.7015 126.016L30.9801 127.868L33.1804 128.793C33.2299 128.813 33.2617 128.86 33.2623 128.912C33.2628 128.963 33.2315 129.011 33.1826 129.032L31.5438 129.755C33.9166 131.712 36.4922 134.982 39.6232 140.008C41.6103 135.708 42.7382 132.225 43.2678 128.758L41.9174 128.041C41.8768 128.02 41.8504 127.981 41.8471 127.937C41.8438 127.892 41.8636 127.85 41.9004 127.823L42.7942 127.167L42.3888 126.013L42.6492 125.93L43.086 127.172C43.1047 127.225 43.086 127.283 43.0398 127.317L42.2333 127.909L43.4843 128.573C43.5337 128.6 43.5617 128.653 43.5535 128.706C43.0167 132.29 41.8487 135.88 39.7665 140.347C39.7457 140.392 39.7001 140.422 39.649 140.424C39.6457 140.424 39.6429 140.424 39.6407 140.424Z" fill="#92BBF4"/>
<path d="M40.14 166.888L39.8658 166.871C40.6059 156.127 40.5108 149.175 39.5038 140.307L39.7768 140.278C40.7861 149.163 40.8811 156.127 40.14 166.888Z" fill="#92BBF4"/>
<path d="M24.5751 146.702C24.2153 143.652 24.3757 140.861 24.5301 138.163C24.5647 137.554 24.5998 136.949 24.6284 136.344L24.9026 136.356C24.874 136.961 24.8394 137.567 24.8042 138.177C24.6498 140.865 24.4905 143.644 24.8476 146.672L24.5751 146.702Z" fill="#92BBF4"/>
<path d="M49.2297 142.004L48.9555 141.99C49.0407 140.372 49.089 137.718 49.061 136.192L49.3357 136.188C49.3632 137.717 49.3148 140.381 49.2297 142.004Z" fill="#92BBF4"/>
<path d="M33.4128 121.706C30.1489 119.28 30.4747 111.582 33.737 111.015L44.1194 113.271C44.1194 113.271 45.2281 114.565 43.258 118.913L33.4128 121.706Z" fill="#181818"/>
<path d="M33.4128 121.706C33.9715 122.658 34.7972 123.702 35.8845 124.13C38.1013 125.002 39.639 124.693 40.1 124.474C40.5609 124.254 42.0679 123.249 42.6975 121.82C43.2271 120.648 44.0748 112.729 44.0748 112.729L36.9465 110.249L35.0642 110.983L33.8039 112.672L33.2342 114.581C32.7052 116.201 32.2579 117.771 32.3645 119.008C32.3892 119.301 32.8321 120.717 33.4128 121.706Z" fill="#FCA886"/>
<path d="M33.2913 117.631C34.4467 117.54 35.0131 114.868 35.4312 112.85C36.786 113.711 42.9177 114.318 43.9687 113.88C45.1241 114.033 47.8843 109.156 42.0964 108.474C37.3804 107.83 33.0298 109.707 33.4946 111.631L32.5919 116.472L33.2913 117.631Z" fill="#181818"/>
<path d="M33.5905 115.509C33.5801 115.491 33.5696 115.473 33.5592 115.455C33.4438 115.262 33.296 115.07 33.0977 114.938C32.6785 114.661 32.1687 114.676 31.7165 114.869C29.8837 115.769 31.0792 119.183 32.9636 119.053C33.7383 118.872 33.9207 116.098 33.5905 115.509Z" fill="#FCA886"/>
<path d="M38.5324 124.891C38.0286 124.891 37.5012 124.815 36.982 124.662C35.8882 124.34 35.0377 123.741 34.6482 123.019L34.8921 122.899C35.2426 123.549 36.0541 124.114 37.0628 124.412C38.2061 124.748 39.3851 124.691 40.219 124.26L40.3498 124.49C39.8372 124.756 39.206 124.891 38.5324 124.891Z" fill="#D66947"/>
<path d="M121.104 95.1799C121.006 97.2676 123.706 97.7891 124.021 97.906C125.643 98.5083 129.792 98.0491 129.792 98.0491C130.864 98.0025 130.857 97.1696 130.543 97.1292C130.389 97.1224 131.13 97.1135 131.281 97.1072C132.621 97.0055 132.31 96.0338 131.779 95.9405C132.824 96.0301 133.002 94.944 132.333 94.8371C133.088 94.8219 133.207 93.8218 132.104 93.6541C131.502 93.5115 126.388 93.1237 126.388 93.1237C126.445 92.6865 128.431 92.8752 128.7 91.8143C128.7 91.6985 128.605 91.6392 128.511 91.6309C125.495 91.6775 123.839 92.5497 123.234 92.8044C122.321 93.1897 121.163 93.9235 121.104 95.1799Z" fill="#F6A97E"/>
<path d="M127.444 96.8246L127.424 97.0859L130.473 97.3027L130.494 97.0414L127.444 96.8246Z" fill="#D1655F"/>
<path d="M127.712 95.6912L127.702 95.9531L131.757 96.096L131.767 95.8341L127.712 95.6912Z" fill="#D1655F"/>
<path d="M127.852 94.4425L127.835 94.7041L132.318 94.962L132.334 94.7004L127.852 94.4425Z" fill="#D1655F"/>
<path d="M124.839 95.6343L124.775 95.3795C126.558 94.977 126.267 93.2205 126.253 93.1461L126.524 93.1016C126.527 93.122 126.873 95.1746 124.839 95.6343Z" fill="#D1655F"/>
<path d="M110.301 88.6435C115.17 89.2007 119.788 90.4586 124.119 92.0882C124.361 94.1429 123.974 96.0928 122.65 97.888C122.65 97.888 106.098 98.8404 103.464 95.1357C100.931 91.9593 98.7828 75.9558 98.7828 75.9558C98.7828 75.9558 104.758 72.8696 104.87 72.8376C104.98 72.8062 109.24 72.749 109.24 72.749L109.375 76.8626C110.087 80.7057 110.368 84.6384 110.301 88.6435Z" fill="white"/>
<path d="M108.043 90.823L107.969 90.5709C109.733 90.1049 110.227 88.5802 110.232 88.5645L110.495 88.6384C110.475 88.7065 109.958 90.3172 108.043 90.823Z" fill="#181818"/>
<path d="M232.109 64.0583C225.575 53.1648 220.274 38.5724 220.035 32.174C220.101 25.5188 218.886 18.6702 215.342 13.0513C210.143 4.81002 199.456 0.0307791 189.638 0.00037816C180.813 -0.0268779 169.024 1.39201 165.301 13.1283C165.145 13.621 161.488 15.3293 160.845 15.9079C155.048 21.1358 155.508 30.0968 154.11 37.0429C152.384 45.6191 149.367 53.8426 144.032 61.0282C133.864 74.7243 120.647 88.1186 142.134 119.531C159.504 144.923 180.449 146.467 187.839 146.126C195.23 146.467 216.174 144.923 233.544 119.531C255.031 88.1191 242.278 77.7545 232.109 64.0583Z" fill="#181818"/>
<path d="M120.402 146.195C96.3685 170.529 136.326 190.02 146.374 162.848C159.348 149.796 164.788 130.841 170.724 108.646C178.652 87.3327 146.365 76.185 137.238 97.5867C130.693 112.421 128.19 119.854 120.402 146.195Z" fill="#FA754A"/>
<path d="M123.537 149.115L74.541 167.253L79.413 185.767L132.773 174.818C150.364 169.841 140.468 144.571 123.537 149.115Z" fill="#F6A97E"/>
<path d="M80.1093 185.122C80.1093 185.122 79.8005 186.998 75.0126 188.527C66.5722 191.139 54.329 190.461 54.329 190.461C49.2647 189.905 49.0263 186.916 50.9239 186.223C44.0224 188.081 42.4199 182.903 45.9393 181.917C41.137 182.667 40.9612 177.344 44.8295 177.467L44.9009 177.312C41.4205 177.175 41.2958 171.967 46.3826 171.694L65.8405 168.29C64.8268 167.96 55.9552 163.334 59.3488 158.647C59.3488 158.647 69.8653 163.42 73.5495 165.421C75.5273 166.328 77.1063 167.386 78.3649 168.515C83.1996 174.283 81.775 182.841 80.1093 185.122Z" fill="#F6A97E"/>
<path d="M65.6625 187.095C58.232 174.692 60.5983 170.849 60.7026 170.691L61.051 170.901L60.8768 170.796L61.0515 170.9C61.0273 170.937 58.7495 174.764 66.0202 186.899L65.6625 187.095Z" fill="#D66947"/>
<path d="M61.8639 178.779L45.9044 181.728L45.9827 182.114L61.9423 179.165L61.8639 178.779Z" fill="#D66947"/>
<path d="M63.8522 183.533L49.4469 186.311L49.5284 186.695L63.9337 183.918L63.8522 183.533Z" fill="#D66947"/>
<path d="M60.8584 174.091L44.5501 177.041L44.6268 177.427L60.9351 174.476L60.8584 174.091Z" fill="#D66947"/>
<path d="M73.3246 175.114C65.1897 173.524 65.2496 168.34 65.2513 168.288L65.6633 168.299C65.6584 168.498 65.6265 173.208 73.4075 174.729L73.3246 175.114Z" fill="#D66947"/>
<path d="M79.975 185.587L79.625 185.38C82.6802 180.693 81.6621 176.844 81.6517 176.806L82.05 176.706C82.0951 176.869 83.123 180.757 79.975 185.587Z" fill="#D66947"/>
<path d="M77.22 167.823C76.3185 166.813 74.9582 166.348 74.9445 166.343L75.0807 165.973C75.1406 165.993 76.558 166.476 77.5337 167.569L77.22 167.823Z" fill="#D66947"/>
<path d="M300.792 207.632H273.897C266.755 207.632 256.803 206.235 249.955 199.58C244.388 194.171 242.24 187.517 244.061 181.324C244.662 179.28 245.754 177.512 246.81 175.802C247.305 175 247.817 174.171 248.26 173.339C249.765 170.51 250.188 168.158 249.593 165.94C248.506 161.892 244.855 158.525 241.07 155.487L242.486 153.883C246.55 157.145 250.48 160.8 251.722 165.42C252.457 168.16 251.98 170.978 250.219 174.288C249.746 175.179 249.216 176.037 248.704 176.866C247.674 178.534 246.701 180.11 246.178 181.89C244.574 187.341 246.523 193.254 251.523 198.111C257.838 204.248 267.176 205.536 273.898 205.536H300.793V207.632H300.792Z" fill="#181818"/>
<path d="M149.427 89.0694C149.114 87.2207 148.978 85.2609 149.021 83.245C149.095 79.8149 150.457 76.8236 151.775 73.9303C152.49 72.3594 153.23 70.735 153.764 69.0472C154.494 66.7373 154.956 64.1102 155.175 61.0156L155.586 61.0424C155.365 64.1663 154.898 66.8217 154.158 69.161C153.617 70.8708 152.873 72.5056 152.153 74.087C150.791 77.0768 149.505 79.9004 149.433 83.2534C149.39 85.2457 149.525 87.1814 149.833 89.007L149.427 89.0694Z" fill="#666666"/>
<path d="M267.22 137.733C296.685 155.834 262.817 183.926 246.21 159.858C230.326 150.169 220.265 133.019 208.906 112.839C195.836 93.9723 224.361 75.7401 238.618 94.4173C248.712 107.314 253.017 113.954 267.22 137.733Z" fill="#FA754A"/>
<path d="M268.863 141.941L320.673 150.351L319.785 169.421L265.208 168.888C246.929 167.371 251.321 140.723 268.863 141.941Z" fill="#F6A97E"/>
<path d="M200.957 63.0889H175.055V98.1747H200.957V63.0889Z" fill="#F6A97E"/>
<path d="M222.862 83.9679L200.917 79.6777C196.539 82.9348 192.376 84.5131 188.371 84.5702C188.35 84.5702 188.33 84.5712 188.309 84.5707C188.288 84.5707 188.268 84.5697 188.247 84.5702C184.243 84.5131 180.08 82.9348 175.701 79.6777L153.756 83.9679C139.507 87.9253 134.269 98.2118 137.687 109.767L153.277 163.769C164.721 179.089 177.146 183.214 188.309 182.285C199.473 183.214 211.897 179.089 223.342 163.769L238.931 109.767C242.349 98.2118 237.111 87.9253 222.862 83.9679Z" fill="#FA754A"/>
<path d="M241.284 207.704C238.797 192.135 233.092 176.517 223.492 163.272C200.268 166.967 176.75 166.716 152.976 163.01C139.176 175.893 129.645 191.9 124.263 207.704H241.284Z" fill="#181818"/>
<path d="M214.233 30.2905C213.472 23.5142 210.28 17.4089 204.266 13.5616C192.088 5.77158 173.385 7.56681 165.269 19.9866C164.238 21.5659 163.441 23.283 162.928 25.0793C162.442 26.7792 162.171 28.5325 162.068 30.2905C162.068 30.2905 160.614 43.1805 162.798 51.1775C164.086 55.7109 166.007 60.1562 168.951 63.9663C171.012 66.6337 173.583 68.9578 176.607 70.6315C178.779 71.8344 181.165 72.6956 183.639 73.1479C185.085 73.4126 186.564 73.5458 188.044 73.5751C188.08 73.5751 188.115 73.5704 188.15 73.5699C188.186 73.5704 188.221 73.5746 188.256 73.5646C189.737 73.5458 191.216 73.4126 192.662 73.1479C195.136 72.6951 197.521 71.8344 199.694 70.6315C202.719 68.9573 205.289 66.6337 207.35 63.9663C210.294 60.1557 212.214 55.7109 213.503 51.1775C215.686 43.1836 214.234 30.2983 214.233 30.2905Z" fill="#F6A97E"/>
<path d="M165.742 40.0831C165.742 40.0831 157.459 36.6331 153.905 41.1912C150.351 45.7492 157.169 61.4167 167.686 52.4275C178.203 43.4382 165.742 40.0831 165.742 40.0831Z" fill="#F6A97E"/>
<path d="M316.835 151.532C316.835 151.532 327.923 144.446 331.398 144.699C336.348 142.677 342.247 145.728 343.323 148.36C346.888 147.982 348.475 152.977 346.363 155.602C347.354 157.121 347.351 159.868 345.544 161.42C346.315 163.72 345.192 166.302 342.788 167.384C342.788 167.384 342.86 172.027 337.43 172.594C331.999 173.162 323.49 172.212 318.368 168.676C313.247 165.14 313.05 154.908 316.835 151.532Z" fill="#F6A97E"/>
<path d="M338.916 159.126C338.247 159.126 337.453 158.992 336.773 158.505C335.735 157.763 335.244 156.402 335.312 154.459L335.587 148.404L335.999 148.421L335.724 154.474C335.661 156.277 336.096 157.528 337.018 158.189C338.174 159.019 339.787 158.67 340.166 158.571C344.032 150.808 343.158 148.472 343.149 148.449L343.53 148.3C343.572 148.396 344.523 150.768 340.499 158.82L340.461 158.896L340.377 158.922C340.33 158.937 339.711 159.126 338.916 159.126Z" fill="#D66947"/>
<path d="M323.404 162.525L323.369 162.133C327.146 161.829 329.837 160.668 331.37 158.682C333.355 156.108 332.663 152.998 332.655 152.967L332.633 152.87L332.702 152.796C334.188 151.17 335.459 150.872 335.512 150.86L335.607 151.243C335.595 151.246 334.44 151.524 333.079 152.981C333.19 153.558 333.62 156.424 331.704 158.911C330.1 160.995 327.307 162.211 323.404 162.525Z" fill="#D66947"/>
<path d="M332.682 153.027C331.93 151.863 330.556 151.47 330.542 151.467L330.657 151.089C330.719 151.106 332.195 151.523 333.033 152.82L332.682 153.027Z" fill="#D66947"/>
<path d="M342.26 154.271L342.174 154.656L346.276 155.493L346.362 155.108L342.26 154.271Z" fill="#D66947"/>
<path d="M345.191 161.443C340.736 160.905 337.25 160.149 334.533 159.132C334.503 159.121 331.983 158.087 332.678 156.072C333.374 154.057 335.483 154.542 335.503 154.547L335.401 154.928C335.33 154.912 333.643 154.531 333.069 156.195C332.491 157.868 334.666 158.76 334.688 158.768C337.368 159.771 340.821 160.519 345.242 161.053L345.191 161.443Z" fill="#D66947"/>
<path d="M341.98 166.788L333.885 163.751C332.028 162.553 331.959 160.738 332.664 159.55C333.131 158.763 333.855 158.39 334.426 158.643L334.254 158.999C333.891 158.842 333.374 159.153 333.023 159.744C332.549 160.543 332.237 162.213 334.077 163.405L342.132 166.422L341.98 166.788Z" fill="#D66947"/>
<path d="M338.652 170.492C338.603 170.492 333.476 169.267 332.617 166.481C332.522 165.024 333.462 163.685 334.298 163.519L334.383 163.903C333.854 164.009 332.936 165.042 333.021 166.413C333.788 168.882 338.634 170.093 338.682 170.101L338.652 170.492Z" fill="#D66947"/>
<path d="M337.485 171.544C336.711 170.924 336.662 169.766 336.661 169.718L337.073 169.705C337.073 169.716 337.118 170.737 337.75 171.244L337.485 171.544Z" fill="#D66947"/>
<path d="M319.534 169.518C316.349 168.566 315.425 165.481 315.387 165.35L315.784 165.246C315.793 165.276 316.69 168.256 319.658 169.144L319.534 169.518Z" fill="#D66947"/>
<path d="M339.581 158.176L339.169 158.157C339.193 157.688 339.334 155.321 339.801 154.867C340.328 154.354 341.302 154.721 341.345 154.737L341.191 155.102C340.98 155.022 340.373 154.872 340.096 155.142C339.833 155.397 339.637 157.069 339.581 158.176Z" fill="#D66947"/>
<path d="M314.026 158.983C313.852 156.564 314.747 154.487 314.785 154.399L315.164 154.551C315.156 154.571 314.27 156.633 314.437 158.956L314.026 158.983Z" fill="#D66947"/>
<path d="M188.134 74.4026C183.527 74.4026 178.898 72.9129 174.927 69.9352L175.182 69.626C182.93 75.4373 193.237 75.4713 200.828 69.7114L201.085 70.0191C197.233 72.9418 192.694 74.4026 188.134 74.4026Z" fill="#D66947"/>
<path d="M161.248 51.4345C158.437 50.0287 157.061 46.7878 157.585 44.7583C157.873 43.6403 158.689 43.0244 159.883 43.0244V43.4175C158.62 43.4175 158.154 44.1975 157.985 44.8521C157.499 46.736 158.873 49.8023 161.44 51.0864L161.248 51.4345Z" fill="#D66947"/>
<path d="M162.28 48.9371C160.727 47.4181 158.634 48.5225 158.546 48.5707L158.342 48.229C158.366 48.2159 160.796 46.9233 162.575 48.663L162.28 48.9371Z" fill="#D66947"/>
<path d="M210.668 40.0831C210.668 40.0831 218.951 36.6331 222.506 41.1912C226.06 45.7492 219.242 61.4167 208.725 52.4275C198.207 43.4382 210.668 40.0831 210.668 40.0831Z" fill="#F6A97E"/>
<path d="M215.162 51.4345L214.971 51.0864C217.537 49.8028 218.912 46.7365 218.425 44.8521C218.256 44.1975 217.79 43.4175 216.527 43.4175V43.0244C217.721 43.0244 218.537 43.6403 218.826 44.7583C219.349 46.7873 217.974 50.0287 215.162 51.4345Z" fill="#D66947"/>
<path d="M214.13 48.9374L213.835 48.6633C215.612 46.9252 218.045 48.2162 218.068 48.2293L217.864 48.571C217.776 48.5228 215.685 47.4184 214.13 48.9374Z" fill="#D66947"/>
<path d="M188.338 61.7243C187.076 61.7243 185.867 61.3836 184.69 60.7012L184.905 60.3652C187.118 61.6499 189.471 61.6478 192.093 60.3584L192.282 60.708C190.904 61.3857 189.595 61.7243 188.338 61.7243Z" fill="#D66947"/>
<path d="M188.2 58.5771C185.841 58.5771 183.58 57.9403 181.383 56.666L181.596 56.3301C185.855 58.7988 190.371 58.7967 195.402 56.3232L195.591 56.6728C193.008 57.9418 190.555 58.5771 188.2 58.5771Z" fill="#D66947"/>
<path d="M163.685 54.5905C162.592 51.7135 162.098 48.796 162.217 45.9189L162.629 45.9341C162.512 48.7604 162.998 51.6275 164.073 54.4564L163.685 54.5905Z" fill="#D66947"/>
<path d="M212.749 54.5905L212.362 54.4564C213.437 51.6275 213.923 48.7604 213.806 45.9341L214.218 45.9189C214.337 48.796 213.843 51.7135 212.749 54.5905Z" fill="#D66947"/>
<path d="M187.937 52.9661L187.902 52.5746C187.93 52.5725 190.714 52.3235 191.978 50.7741C193.006 49.5151 189.755 43.2682 188.415 40.9672L188.776 40.7764C189.282 41.6465 193.684 49.3248 192.303 51.0157C190.927 52.7014 188.058 52.9561 187.937 52.9661Z" fill="#D66947"/>
<path d="M168.172 38.6455C168.99 37.7502 169.952 36.9996 171.081 36.4372C171.364 36.2978 171.661 36.1799 171.968 36.074C172.133 36.0305 172.264 35.9671 172.456 35.9414C172.637 35.9199 172.841 35.8748 173.007 35.8832C173.703 35.8669 174.303 35.9996 174.919 36.1143C176.125 36.3864 177.273 36.768 178.401 37.1894C179.533 37.6024 180.633 38.0747 181.715 38.5967C181.847 38.6607 181.9 38.8148 181.833 38.9406C181.771 39.0564 181.631 39.1083 181.506 39.0674L181.502 39.0659C180.374 38.6963 179.236 38.3389 178.104 37.9919C176.969 37.658 175.827 37.3409 174.691 37.1108C174.131 37.0164 173.546 36.9006 173.039 36.9247C172.614 36.9289 172.045 37.1333 171.544 37.3508C170.52 37.8016 169.512 38.3965 168.536 39.0187L168.524 39.0265C168.401 39.1052 168.234 39.0737 168.151 38.9558C168.082 38.8583 168.094 38.7309 168.172 38.6455Z" fill="#181818"/>
<path d="M209.263 39.0211C208.263 38.3952 207.23 37.7987 206.182 37.348C205.665 37.1315 205.091 36.9286 204.647 36.926C204.125 36.903 203.53 37.0188 202.958 37.1137C201.798 37.3438 200.633 37.6609 199.473 37.9943C198.318 38.3407 197.157 38.6977 196.005 39.0672L196.001 39.0682C195.861 39.1133 195.708 39.041 195.661 38.9073C195.618 38.7847 195.678 38.6521 195.796 38.5965C196.903 38.0744 198.027 37.6022 199.182 37.1891C200.334 36.7677 201.506 36.3867 202.734 36.1152C203.36 36.0004 203.971 35.8683 204.676 35.883C205.462 35.9024 206.045 36.1686 206.634 36.4286C207.789 36.9894 208.778 37.7421 209.622 38.6426C209.721 38.7485 209.712 38.9105 209.601 39.0053C209.508 39.0845 209.374 39.0913 209.274 39.0289L209.263 39.0211Z" fill="#181818"/>
<path d="M178.446 43.1579C178.573 43.5159 178.658 43.8933 178.658 44.2927C178.658 46.2499 176.995 47.8365 174.944 47.8365C172.892 47.8365 171.229 46.2499 171.229 44.2927C171.229 42.9812 171.985 41.8496 173.094 41.2363C171.428 41.3071 169.728 41.9728 167.936 43.2323C170.535 48.4434 175.121 49.8545 182.027 46.8238C180.807 45.276 179.621 44.0589 178.446 43.1579Z" fill="white"/>
<path d="M171.229 44.292C171.229 46.2492 172.892 47.8358 174.944 47.8358C176.995 47.8358 178.658 46.2492 178.658 44.292C178.658 43.8926 178.574 43.5152 178.446 43.1572C176.657 41.7855 174.896 41.1597 173.094 41.2357C171.984 41.8484 171.229 42.9806 171.229 44.292Z" fill="#181818"/>
<path d="M204.558 41.2324C205.668 41.8452 206.424 42.9773 206.424 44.2888C206.424 46.246 204.761 47.8326 202.709 47.8326C200.658 47.8326 198.995 46.246 198.995 44.2888C198.995 43.8894 199.079 43.512 199.207 43.154C198.032 44.0555 196.845 45.2721 195.626 46.8199C202.532 49.8511 207.118 48.4401 209.717 43.2284C207.925 41.9689 206.224 41.3032 204.558 41.2324Z" fill="white"/>
<path d="M202.71 47.833C204.761 47.833 206.424 46.2463 206.424 44.2891C206.424 42.9777 205.669 41.8455 204.559 41.2328C202.757 41.1563 200.996 41.7826 199.207 43.1544C199.08 43.5124 198.995 43.8897 198.995 44.2891C198.995 46.2463 200.658 47.833 202.71 47.833Z" fill="#181818"/>
<path d="M181.858 46.9338C177.699 41.2871 173.182 40.102 168.048 43.3114L167.823 42.9827C173.107 39.6784 177.942 40.9327 182.195 46.7074L181.858 46.9338Z" fill="#181818"/>
<path d="M195.833 46.9333L195.495 46.7084C199.748 40.8804 204.583 39.6151 209.869 42.9492L209.641 43.2773C204.509 40.0386 199.992 41.2352 195.833 46.9333Z" fill="#181818"/>
<path d="M161.452 37.3565C168.895 35.4512 166.868 27.8153 171.964 21.8787C177.696 17.8569 184.113 18.0812 190.583 19.3984C190.583 19.3984 197.79 45.3698 219.473 29.512C213.733 29.512 216.163 23.3537 212.409 20.1081L204.004 8.74448L182.022 5.2793L170.583 12.5986C163.756 17.4171 160.246 23.7484 160.079 31.6034L161.452 37.3565Z" fill="#181818"/>
<path d="M171.964 21.8771C176.946 18.9781 182.852 17.4963 190.583 19.3969C186.775 3.1748 171.964 21.8771 171.964 21.8771Z" fill="#444444"/>
<path d="M171.027 22.0501C165.408 18.6479 165.101 13.5882 165.098 13.5379L165.509 13.5195C165.512 13.5683 165.816 18.4303 171.248 21.7184L171.027 22.0501Z" fill="#666666"/>
<path d="M171.724 19.3173L171.353 19.1475C171.366 19.1202 172.744 16.3978 174.879 13.6947C177.77 10.0366 180.598 8.15019 183.284 8.08887L183.294 8.48198C177.172 8.62193 171.778 19.2104 171.724 19.3173Z" fill="#666666"/>
<path d="M207.998 29.6936C197.914 29.6936 193.83 21.8842 193.78 21.7846L194.151 21.6143C194.212 21.7348 200.459 33.6441 216.701 27.5707L216.851 27.9366C213.493 29.192 210.553 29.6936 207.998 29.6936Z" fill="#666666"/>
<path d="M214.543 32.8893L214.351 32.5412C216.158 31.635 218.663 29.845 218.688 29.8271L218.936 30.1416C218.91 30.1595 216.379 31.9683 214.543 32.8893Z" fill="#666666"/>
<path d="M159.747 37.779C157.174 37.779 156.162 36.1043 156.15 36.0844L156.51 35.8926C156.563 35.9812 157.841 38.0641 161.399 37.1657L161.504 37.5458C160.851 37.7103 160.267 37.779 159.747 37.779Z" fill="#666666"/>
<path d="M229.164 144.342L228.764 144.244C231.73 133.236 233.981 122.073 235.455 111.065L235.864 111.116C234.388 122.139 232.133 133.318 229.164 144.342Z" fill="#DB4D28"/>
<path d="M151.187 157.272C148.106 145.832 144.35 121.534 143.015 111.56L143.423 111.51C144.758 121.477 148.51 145.752 151.587 157.173L151.187 157.272Z" fill="#DB4D28"/>
<path d="M248.254 162.469C246.8 162.832 245.428 162.453 244.532 161.905C239.773 158.998 235.909 153.608 232.469 149.422C225.59 139.625 241.143 117.324 258.589 121.459C260.757 122.053 269.953 132.064 267.611 134.056C268.144 135.178 268.626 136.327 269.044 137.485C269.355 138.246 268.695 138.683 268.695 138.683C268.695 138.683 267.66 138.007 267.309 137.788C254.44 136.952 242.196 150.832 248.254 162.469Z" fill="#181818"/>
<path d="M246.325 161.349C244.206 158.02 241.743 151.29 249.064 143.613C254.633 137.774 263.646 134.279 267.975 136.285L267.795 136.639C263.613 134.704 254.829 138.154 249.369 143.878C242.228 151.365 244.618 157.911 246.677 161.145L246.325 161.349Z" fill="#666666"/>
<path d="M245.903 135.322C245.903 135.322 237.33 128.343 238.726 127.011C243.249 122.624 252.608 118.843 258.589 121.459L262.806 126.259L245.903 135.322Z" fill="#181818"/>
<path d="M248.094 139.682C245.449 139.682 239.47 129.687 238.789 128.533L239.149 128.341C240.963 131.414 246.058 139.29 248.077 139.29C248.102 139.29 248.126 139.289 248.15 139.286C249.021 139.199 250.472 138.377 252.151 137.425C256.088 135.193 262.035 131.821 267.684 133.871L267.537 134.239C262.077 132.255 256.461 135.439 252.361 137.763C250.569 138.779 249.154 139.582 248.192 139.677C248.161 139.681 248.128 139.682 248.094 139.682Z" fill="#666666"/>
<path d="M253.166 166.761C251.349 165.45 248.943 160.408 249.343 154.718C249.621 150.763 251.381 145.277 258.189 141.611L258.391 141.953C251.743 145.534 250.025 150.885 249.754 154.744C249.378 160.087 251.633 165.162 253.415 166.447L253.166 166.761Z" fill="#DB4D28"/>
<path d="M146.304 162.754L145.915 162.625C146.651 160.613 145.579 155.197 142.164 150.949C139.696 147.88 135.155 144.334 127.544 144.868L127.514 144.476C135.309 143.923 139.961 147.564 142.49 150.709C146.128 155.233 147.054 160.703 146.304 162.754Z" fill="#DB4D28"/>
<path d="M175.055 73.5748C175.055 73.5748 172.219 72.9028 172.032 80.9638C172.285 86.0701 181.153 86.5838 188.592 86.5917C196.033 86.5995 201.902 83.5322 202.799 82.248C203.696 80.9638 203.398 73.5748 200.957 73.0811C197.927 78.9144 179.135 78.9144 175.055 73.5748Z" fill="#FA754A"/>
<path d="M170.689 133.664C160.504 133.664 154.187 126.37 154.099 126.265L154.419 126.019C154.544 126.166 167.016 140.543 185.197 128.381L185.433 128.703C179.952 132.37 174.977 133.664 170.689 133.664Z" fill="#DB4D28"/>
<path d="M210.019 133.664C205.731 133.664 200.757 132.371 195.275 128.703L195.511 128.381C213.701 140.549 226.165 126.166 226.289 126.019L226.61 126.265C226.521 126.37 220.202 133.664 210.019 133.664Z" fill="#DB4D28"/>
<path d="M188.074 87.1928C181.099 87.1928 173.575 85.3477 171.917 81.6262L172.296 81.4727C173.974 85.2377 182.075 86.9925 189.211 86.7829C197.93 86.5255 201.986 83.877 202.873 81.4842L203.261 81.6152C201.838 85.4515 195.077 87.003 189.223 87.176C188.842 87.1875 188.459 87.1928 188.074 87.1928Z" fill="#DB4D28"/>
<path d="M262.967 195.345L313.05 185.617C313.597 185.511 314.154 185.458 314.712 185.459L333.74 185.496L315.748 189.526C315.877 190.132 315.467 190.722 314.833 190.845L314.091 190.988V193.094V202.677V205.562C314.091 206.599 313.21 207.44 312.124 207.44H266.384C265.374 207.44 264.556 206.659 264.556 205.696V202.817H264.557C264.557 202.815 264.556 202.813 264.556 202.811V200.583L264.1 200.671C263.466 200.794 262.847 200.403 262.718 199.797L262.051 196.662C261.922 196.058 262.332 195.467 262.967 195.345Z" fill="white"/>
<path d="M284.25 199.931L333.785 190.209V193.094V202.677V205.563C333.785 206.599 332.904 207.44 331.817 207.44H286.077C285.068 207.44 284.25 206.659 284.25 205.696V202.817H284.25C284.25 202.815 284.25 202.813 284.25 202.811V199.931Z" fill="#7BAEFA"/>
<path d="M283.794 200.671L334.526 190.845C335.161 190.722 335.57 190.131 335.442 189.526L334.775 186.391C334.646 185.786 334.027 185.395 333.393 185.518L282.66 195.344C282.026 195.467 281.616 196.057 281.744 196.663L282.411 199.798C282.54 200.403 283.159 200.794 283.794 200.671Z" fill="#7BAEFA"/>
<path d="M284.25 200.451H264.557V200.713H284.25V200.451Z" fill="#92BBF4"/>
<path d="M333.748 190.831L284.218 200.442L284.273 200.699L333.802 191.088L333.748 190.831Z" fill="#3A70BF"/>
<path d="M281.947 195.655H262.253V195.917H281.947V195.655Z" fill="#92BBF4"/>
<path d="M329.936 205.027H322.259C321.496 205.027 320.876 204.435 320.876 203.707C320.876 202.978 321.496 202.387 322.259 202.387H329.936C330.699 202.387 331.319 202.978 331.319 203.707C331.319 204.435 330.698 205.027 329.936 205.027ZM322.259 202.649C321.648 202.649 321.15 203.123 321.15 203.707C321.15 204.29 321.648 204.765 322.259 204.765H329.936C330.547 204.765 331.044 204.29 331.044 203.707C331.044 203.124 330.547 202.649 329.936 202.649H322.259Z" fill="#3A70BF"/>
<path d="M270.366 202.387H267.002V202.649H270.366V202.387Z" fill="#92BBF4"/>
<path d="M237.982 89.5928L237.587 89.4822C239.504 83.2437 236.454 78.2915 232.921 72.5562C230.481 68.592 227.714 64.0995 226.249 58.5393L226.649 58.4434C228.099 63.9491 230.85 68.4159 233.277 72.357C236.857 78.1704 239.95 83.1913 237.982 89.5928Z" fill="#666666"/>
<path d="M239.996 136.598C241.639 137.917 243.675 136.226 243.958 136.062C245.416 135.219 247.519 131.868 247.519 131.868C248.12 131.045 247.438 130.553 247.218 130.762C247.12 130.872 247.555 130.318 247.641 130.202C248.358 129.147 247.38 128.798 246.988 129.136C247.684 128.415 246.905 127.635 246.42 128.067C246.857 127.498 246.114 126.813 245.319 127.531C244.843 127.893 241.476 131.453 241.476 131.453C241.153 131.151 242.492 129.791 241.788 128.958C241.694 128.889 241.589 128.924 241.526 128.988C239.764 131.253 239.487 133.001 239.334 133.601C239.101 134.508 239.008 135.805 239.996 136.598Z" fill="#F6A97E"/>
<path d="M245.322 133.044L245.117 132.869L247.114 130.736L247.319 130.911L245.322 133.044Z" fill="#D66947"/>
<path d="M246.884 129.091L244.349 132.015L244.56 132.181L247.096 129.257L246.884 129.091Z" fill="#D66947"/>
<path d="M243.617 131.328L243.41 131.156L246.296 127.985L246.503 128.157L243.617 131.328Z" fill="#D66947"/>
<path d="M216.989 126.498C217.111 128.189 216.203 129.717 214.776 130.532L214.778 130.535C211.498 132.632 207.073 134.333 202.209 135.548C204.707 137.782 207.449 140.32 207.286 141.242C206.281 143.284 206.031 150.068 204.407 150.468C203.56 150.875 190.676 143.799 192.244 138.721C195.983 126.88 208.194 122.567 208.194 122.567L209.034 122.593C209.704 122.125 211.233 122.512 212.122 122.453C214.637 122.289 216.816 124.099 216.989 126.498Z" fill="white"/>
<path d="M219.869 201.673C219.869 201.673 219.26 204.027 220.955 204.375C222.981 204.828 225.616 206.156 225.229 207.726H213.825C213.95 205.212 214.377 202.926 215.427 201.861C216.597 201.975 218.767 200.933 219.869 201.673Z" fill="white"/>
<path d="M203.25 201.673C203.25 201.673 202.278 203.695 204.481 204.565C206.008 205.004 208.033 206.121 207.146 207.726H197.207C197.331 205.212 197.759 202.926 198.809 201.861C199.978 201.975 202.149 200.933 203.25 201.673Z" fill="white"/>
<path d="M222.879 116.94L216.261 114.605L210.401 129.726L217.019 132.061L222.879 116.94Z" fill="#F6A97E"/>
<path d="M215.073 150.32H197.611C192.775 163.325 196.894 204.376 196.894 204.376C199.057 205.071 201.411 205.129 204.854 204.376C204.854 204.376 205.947 178.115 206.982 163.382C208.199 169.55 209.694 175.393 211.495 180.881C211.495 180.881 211.282 190.551 213.71 204.376C216.212 205.178 218.713 205.022 221.213 204.376C221.233 196.499 222.594 187.794 222.114 179.7C221.249 165.136 217.228 152.904 215.073 150.32Z" fill="#77AAF4"/>
<path d="M220.227 122.777C217.841 121.935 216.611 119.384 217.494 117.108L218.76 113.84C219.643 111.563 222.317 110.39 224.703 111.232C227.089 112.073 230.215 109.733 229.332 112.01L227.799 115.966C227.824 117.137 228.028 117.933 227.638 118.269C227.247 118.605 226.594 119.072 226.594 119.072C225.1 122.865 222.613 123.619 220.227 122.777Z" fill="#F6A97E"/>
<path d="M218.619 108.609C220.924 106.484 225.048 107.033 227.277 108.278C229.634 107.896 230.948 109.061 230.924 110.572C230.562 113.182 228.274 113.331 225.921 112.98C225.081 115.558 224.528 117.045 223.416 117.099C223.767 116.636 224.024 116.14 224.057 115.582C224.018 114.438 222.987 114.167 222.351 114.601C221.664 115.027 221.025 116.671 221.67 118.046C218.861 119.591 217.243 119.159 214.83 118.308C214.796 113.912 214.284 108.568 218.619 108.609Z" fill="#181818"/>
<path d="M191.044 185.653C191.044 185.653 190.72 169.47 197.49 148.878C198.417 141.599 200.469 134.01 203.956 126.664C206.5 121.831 209.682 121.776 213.169 123.007C214.605 123.513 219.895 125.379 219.895 125.379C225.566 127.551 228.54 130.989 226.853 135.341C225.304 142.625 223.202 148.743 219.223 154.772C222.216 169.718 223.878 188.677 223.41 189.318C219.12 190.289 210.647 190.349 204.818 189.962C204.634 189.962 203.846 175.838 203.846 175.838C203.846 175.838 202.836 182.572 202.986 189.891C195.849 189.79 191.045 187.18 191.044 185.653Z" fill="white"/>
<path d="M242.305 138.105L243.278 136.923C242.879 135.691 240.569 134.067 238.755 133.958L237.151 135.771L242.305 138.105Z" fill="white"/>
<path d="M221.411 127.518C223.159 127.214 224.851 127.906 225.86 129.167L225.863 129.166C228.413 132.042 230.677 136.048 232.484 140.525C234.532 137.908 236.871 135.026 237.85 135.077C240.088 135.803 241.707 136.609 242.305 138.105C242.823 138.863 235.681 151.603 230.217 150.681C224.867 149.705 218.037 135.854 218.037 135.854L218.229 135.496C217.668 134.912 217.9 133.42 217.74 132.583C217.288 130.217 218.932 127.95 221.411 127.518Z" fill="white"/>
<path d="M232.474 143.238L232.199 143.225L232.347 140.519L232.621 140.532L232.474 143.238Z" fill="#92BBF4"/>
<path d="M213.728 121.063C212.938 121.652 212.58 122.036 212.266 122.728C213.824 124.931 216.72 125.765 220.972 125.854C220.935 124.953 220.761 124.121 220.39 123.393C218.441 123.135 215.551 122.381 213.728 121.063Z" fill="white"/>
<path d="M223.948 145.697C223.922 145.662 221.344 142.174 219.895 139.558L220.137 139.436C221.578 142.037 224.146 145.51 224.172 145.545L223.948 145.697Z" fill="#92BBF4"/>
<path d="M217.612 132.259L217.341 132.217C217.668 130.308 218.486 128.961 219.773 128.214C221.805 127.034 224.249 127.774 224.352 127.807L224.267 128.056C224.243 128.049 221.838 127.322 219.914 128.44C218.7 129.145 217.926 130.43 217.612 132.259Z" fill="#92BBF4"/>
<path d="M220.058 128.343C218.204 128.332 209.844 125.078 206.904 123.223L207.055 123.004C210.113 124.934 218.423 128.071 220.06 128.081L220.058 128.343Z" fill="#92BBF4"/>
<path d="M220.491 126.017C219.47 126.017 217.833 125.706 216.244 125.196C215.208 124.862 212.734 123.96 212.142 122.785L212.39 122.671C212.769 123.424 214.243 124.275 216.332 124.947C218.151 125.532 220.094 125.862 220.95 125.725L220.995 125.984C220.851 126.007 220.681 126.017 220.491 126.017Z" fill="#92BBF4"/>
<path d="M225.26 114.791C225.26 114.791 223.826 118.639 226.594 119.072C226.594 119.072 226.868 124.135 222.283 123.422C219.692 123.041 223 120.623 223.416 117.098L225.26 114.791Z" fill="#181818"/>
<path d="M242.179 138.159C241.082 135.806 237.792 135.189 237.759 135.184L237.81 134.926C237.951 134.951 241.276 135.575 242.43 138.052L242.179 138.159Z" fill="#92BBF4"/>
<path d="M197.925 146.79L197.657 146.732C197.948 145.515 198.221 144.279 198.511 142.971C199.927 136.573 201.532 129.32 205.572 124.098L205.793 124.253C201.788 129.43 200.19 136.653 198.779 143.026C198.49 144.335 198.217 145.571 197.925 146.79Z" fill="#92BBF4"/>
<path d="M217.028 155.789L216.973 155.532C218.514 155.234 219.121 154.685 219.127 154.68L219.32 154.866C219.293 154.891 218.658 155.473 217.028 155.789Z" fill="#92BBF4"/>
<path d="M211.353 155.675C211.351 155.675 211.349 155.675 211.348 155.675C207.076 155.525 203.431 154.619 200.516 152.982C200.466 152.953 200.44 152.898 200.452 152.843L200.9 150.704C200.909 150.664 200.935 150.63 200.973 150.612C201.011 150.594 201.056 150.594 201.095 150.612C204.601 152.244 208.153 153.114 211.956 153.273C211.998 153.275 212.037 153.295 212.061 153.327C212.085 153.359 212.094 153.4 212.083 153.438L211.484 155.578C211.469 155.636 211.415 155.675 211.353 155.675ZM200.74 152.804C203.576 154.375 207.111 155.251 211.248 155.41L211.774 153.528C208.054 153.352 204.57 152.498 201.134 150.922L200.74 152.804Z" fill="#92BBF4"/>
<path d="M202.487 152.344C202.487 152.613 202.258 152.831 201.976 152.831C201.694 152.831 201.465 152.613 201.465 152.344C201.465 152.074 201.694 151.856 201.976 151.856C202.258 151.856 202.487 152.075 202.487 152.344Z" fill="#AED3FF"/>
<path d="M210.425 154.846C210.707 154.846 210.936 154.628 210.936 154.359C210.936 154.089 210.707 153.871 210.425 153.871C210.142 153.871 209.914 154.089 209.914 154.359C209.914 154.628 210.142 154.846 210.425 154.846Z" fill="#AED3FF"/>
<path d="M117.608 134.623H117.196V207.722H117.608V134.623Z" fill="#181818"/>
<path d="M91.6664 134.623H91.2544V207.722H91.6664V134.623Z" fill="#181818"/>
<path d="M116.831 146.253H86.2246V147.707H116.831V146.253Z" fill="#181818"/>
<path d="M119.163 134.608H88.5568V136.062H119.163V134.608Z" fill="#181818"/>
<path d="M112.165 169.541H81.5594V170.995H112.165V169.541Z" fill="#181818"/>
<path d="M114.498 157.896H83.8923V159.35H114.498V157.896Z" fill="#181818"/>
<path d="M107.501 192.829H76.8954V194.283H107.501V192.829Z" fill="#181818"/>
<path d="M109.834 181.185H79.2275V182.639H109.834V181.185Z" fill="#181818"/>
<path d="M91.1593 134.564L76.0627 207.667L76.6018 207.768L91.6983 134.665L91.1593 134.564Z" fill="#181818"/>
<path d="M117.102 134.569L102.005 207.672L102.544 207.773L117.641 134.67L117.102 134.569Z" fill="#181818"/>
<path d="M136.692 54.1065H134.585C134.374 54.1065 134.204 53.944 134.204 53.7432V51.0517C134.204 50.851 134.374 50.6885 134.585 50.6885H136.692C136.902 50.6885 137.072 50.851 137.072 51.0517V53.7432C137.072 53.944 136.902 54.1065 136.692 54.1065Z" fill="#181818"/>
<path d="M138.471 51.1229H132.881C132.667 51.1229 132.494 50.9573 132.494 50.7534V46.221C132.494 46.0334 132.653 45.8809 132.85 45.8809H138.471V51.1229Z" fill="#181818"/>
<path d="M138.47 51.1229C138.47 51.1229 139.522 50.3896 139.522 50.3828V46.621L138.47 45.8809V51.1229Z" fill="#77AAF4"/>
<path d="M139.522 50.3825C141.386 49.4317 143.495 48.8797 145.795 48.6371V48.3656C143.516 48.1554 141.425 47.5741 139.522 46.6201V50.3825Z" fill="#181818"/>
<path d="M136.502 69.8467H134.764C134.302 69.8467 133.927 69.4892 133.927 69.0479V53.1005C133.927 52.9553 134.05 52.8379 134.202 52.8379H137.07C137.225 52.8379 137.351 52.9574 137.351 53.1052V69.0374C137.351 69.4845 136.971 69.8467 136.502 69.8467Z" fill="#181818"/>
<path d="M132.539 51.4663C132.395 51.4663 132.277 51.3536 132.277 51.2163V45.7871C132.277 45.6498 132.395 45.5371 132.539 45.5371C132.683 45.5371 132.801 45.6498 132.801 45.7871V51.2163C132.801 51.3542 132.683 51.4663 132.539 51.4663Z" fill="white"/>
<path d="M137.351 55.3066H133.927V58.4909H137.351V55.3066Z" fill="#77AAF4"/>
<path d="M137.073 50.9922H134.205V51.2543H137.073V50.9922Z" fill="#666666"/>
<path d="M137.073 52.7061H134.205V52.9681H137.073V52.7061Z" fill="#666666"/>
<path d="M137.927 59.4629C138.032 59.2706 137.783 58.0047 137.411 58.3973C137.411 58.3973 135.152 61.1156 134.291 61.3756C133.822 61.5265 133.927 60.0846 133.927 60.0846C133.644 60.0919 133.428 60.18 133.115 60.3514C131.413 61.3808 131.024 63.8077 131.024 63.8077C130.744 64.9529 131.715 67.0186 133.127 66.7041C133.127 66.7041 135.962 65.9834 136.908 65.4325C137.855 64.8816 138.547 62.8013 138.547 62.8013C138.728 62.3987 138.604 61.4259 138.416 61.7273C138.711 61.2713 138.407 60.6449 138.089 60.6664C138.386 60.3042 138.159 59.5541 137.927 59.4629Z" fill="#FCA886"/>
<path d="M135.759 62.0492L135.578 61.8527C136.415 61.1461 137.168 60.3174 137.813 59.3896L138.042 59.5343C137.383 60.4815 136.615 61.3274 135.759 62.0492Z" fill="#D66947"/>
<path d="M136.974 63.9709L136.774 63.7916C137.336 63.2187 137.85 62.5064 138.347 61.6143L138.589 61.7369C138.081 62.65 137.552 63.3807 136.974 63.9709Z" fill="#D66947"/>
<path d="M136.375 62.919L136.187 62.7282C136.93 62.0615 137.521 61.3554 137.994 60.5713L138.232 60.7018C137.745 61.509 137.138 62.2344 136.375 62.919Z" fill="#D66947"/>
<path d="M133.43 61.7353C133.09 61.7353 132.911 61.6059 132.899 61.5964L133.067 61.3894C133.081 61.3999 133.44 61.641 134.177 61.2646L134.307 61.4953C133.946 61.6793 133.653 61.7353 133.43 61.7353Z" fill="#D66947"/>
<path d="M87.4894 153.426C87.4894 153.426 95.5485 156.172 93.3196 157.833H81.3621C80.4698 157.908 81.0143 155.714 81.6181 153.426H87.4894Z" fill="white"/>
<path d="M109.179 141.907C109.179 141.907 117.916 144.08 115.885 146.25H103.051C102.159 146.324 102.704 144.162 103.307 141.907H109.179Z" fill="white"/>
<path d="M101.081 61.5118C101.081 61.5118 98.8507 58.707 98.8507 57.1723C98.8507 55.1035 105.338 51.4512 107.299 51.9271C109.259 52.4025 110.559 56.6329 110.559 56.6329L101.081 61.5118Z" fill="white"/>
<path d="M104.398 99.1914C111.531 105.458 117.867 111.545 122.956 117.354C124.75 119.362 124.961 122.511 122.956 124.931L109.773 141.907C105.996 142.639 103.527 142.701 102.732 141.907C102.732 141.907 104.881 130.725 111.738 121.178C105.05 118.401 93.1271 108.75 90.968 101.593L104.398 99.1914Z" fill="#77AAF4"/>
<path d="M86.4359 102.067C86.4359 102.067 85.0998 105.298 86.8782 110.25C84.0109 123.535 82.2314 138.338 81.0634 153.993C83.0072 154.453 85.0965 154.425 87.477 153.425C97.5078 128.397 100.734 113.483 102.581 98.684L100.729 94.9111L94.7729 96.9632L86.4359 102.067Z" fill="#77AAF4"/>
<path d="M110.878 55.6904C110.878 55.6904 112.439 56.1501 112.454 56.2214C112.822 56.7377 113.6 58.6142 112.902 61.1018C112.114 63.9107 110.19 57.1649 110.19 57.1649L110.878 55.6904Z" fill="#181818"/>
<path d="M111.713 56.7369C111.713 56.7369 116.84 66.9369 113.285 69.0304C112.764 69.4025 111.867 69.6017 111.033 69.5944L109.328 74.4522L102.872 71.7177C102.872 71.7177 103.923 68.8868 103.861 67.7069C102.223 64.1977 102.532 61.3075 102.532 61.3075L104.758 57.4146L108.745 56.7363L111.064 56.9722L111.713 56.7369Z" fill="#FCA886"/>
<path d="M100.244 60.4008C100.136 59.2147 100.298 58.3079 101 57.1301C101.614 56.2962 102.48 55.6745 103.44 55.2416C104.499 54.763 105.653 54.4962 106.805 54.3191C107.529 54.2079 108.258 54.1356 108.99 54.0806C109.794 54.0198 110.641 54.0135 111.406 53.742C111.866 53.5784 112.308 53.3405 112.647 52.9961C113.081 54.2839 113.547 56.9194 111.848 57.9148C108.939 59.6057 104.696 60.188 104.696 60.188C105.506 61.9712 106.342 63.7806 105.777 64.1396C105.472 63.4409 105.032 63.2423 104.456 63.2779C102.566 63.5782 102.818 65.9569 105.321 66.5429C105.089 67.186 104.609 67.6121 103.863 67.8055C99.6647 65.017 98.6451 62.1861 100.244 60.4008Z" fill="#181818"/>
<path d="M100.161 113.389L99.8933 113.327L100.819 109.682L101.086 109.743L100.161 113.389Z" fill="#3A70BF"/>
<path d="M111.021 69.7256C110.94 69.7193 109.031 69.5495 107.895 67.8764L108.126 67.7344C109.187 69.2964 111.025 69.463 111.044 69.4646L111.021 69.7256Z" fill="#D66947"/>
<path d="M103.444 69.7207C98.0817 71.4756 88.3163 77.4425 83.3817 106.218C90.6595 108.049 102.448 108.358 102.448 108.358C103.595 105.623 104.803 99.5839 104.803 99.5839L107.875 102.29C111.336 90.7026 111.907 83.0358 110.301 73.3505C106.072 73.0742 103.548 69.6541 103.444 69.7207Z" fill="white"/>
<path d="M122.711 77.1371L107.929 74.6825L106.798 83.016L123.087 84.5245C125.979 84.7059 127.7 83.428 128.434 81.8466L135.46 64.9683L131.027 64.083L122.711 77.1371Z" fill="#FCA886"/>
<path d="M122.429 76.4178C124.38 72.1255 126.964 68.2641 129.839 64.7695C131.971 65.1354 133.82 66.0469 135.244 67.7703C135.244 67.7703 131.47 83.1757 126.996 84.5244C123.082 85.9317 106.393 83.322 106.393 83.322C106.393 83.322 105.001 76.9766 105.001 76.866C105.001 76.7554 106.162 72.8447 106.162 72.8447L110.332 73.8972C114.395 74.3443 118.425 75.2117 122.429 76.4178Z" fill="white"/>
<path d="M111.127 84.1863C108.884 83.9379 106.811 83.4876 104.791 82.8099L104.882 82.5625C106.883 83.2334 108.936 83.6795 111.158 83.9253L111.127 84.1863Z" fill="#92BBF4"/>
<path d="M123.973 79.1049L123.698 79.0996C123.735 77.3537 122.344 76.4663 122.33 76.4579L122.48 76.2383C122.543 76.2771 124.013 77.2095 123.973 79.1049Z" fill="#92BBF4"/>
<path d="M111.362 121.37L113.289 119.408L113.489 119.587L112.115 120.987L115.174 120.509L115.218 120.768L111.362 121.37Z" fill="#3A70BF"/>
<path d="M103.846 68.1279C105.673 70.2078 107.81 71.7509 110.386 72.5361L110.684 74.7333L107.113 74.5902L104.617 71.8557L102.733 69.9855L103.846 68.1279Z" fill="white"/>
<path d="M103.823 77.9483L103.549 77.9226C103.706 76.4078 104.292 75.2473 105.291 74.4731C106.894 73.2314 108.964 73.4306 109.051 73.44L109.021 73.7005C109 73.6974 106.974 73.5056 105.462 74.6781C104.524 75.4067 103.971 76.5069 103.823 77.9483Z" fill="#92BBF4"/>
<path d="M106.222 73.4879C104.754 72.6912 103.54 71.5354 102.615 70.0531L102.851 69.9189C103.752 71.3619 104.931 72.4863 106.358 73.2604L106.222 73.4879Z" fill="#92BBF4"/>
<path d="M104.937 99.6146L104.67 99.5512C104.698 99.4469 107.415 89.0864 108.333 83.6143L108.604 83.6557C107.683 89.1388 104.964 99.5108 104.937 99.6146Z" fill="#92BBF4"/>
<path d="M109.338 97.4946L109.071 97.4354C109.734 94.715 110.311 91.4433 110.616 88.6836L110.889 88.7114C110.583 91.4805 110.003 94.7643 109.338 97.4946Z" fill="#92BBF4"/>
<path d="M89.3335 96.3463C87.3112 96.3463 85.4428 95.8914 85.4213 95.8866L85.49 95.633C85.5142 95.6392 87.8727 96.2132 90.1313 96.0586L90.4686 94.3556C88.7221 94.3441 87.1503 94.1229 86.0262 93.7298L86.1207 93.4834C87.247 93.877 88.8429 94.094 90.6169 94.094C90.623 94.094 90.6285 94.094 90.6345 94.094C90.6752 94.094 90.7142 94.1113 90.74 94.1412C90.7658 94.1716 90.7768 94.2109 90.7691 94.2492L90.3812 96.2059C90.3697 96.264 90.3192 96.307 90.2576 96.3123C89.9505 96.3358 89.6401 96.3463 89.3335 96.3463Z" fill="#92BBF4"/>
<path d="M89.6877 95.1523C89.6877 95.3494 89.5201 95.5087 89.3141 95.5087C89.1075 95.5087 88.9405 95.3489 88.9405 95.1523C88.9405 94.9552 89.1081 94.7959 89.3141 94.7959C89.5207 94.7954 89.6877 94.9552 89.6877 95.1523Z" fill="#AED3FF"/>
<path d="M277.684 120.776C277.029 121.054 276.295 121.104 275.639 120.805C274.914 120.474 274.358 119.86 273.926 119.229C273.463 118.551 273.011 117.825 272.761 117.048C272.5 116.434 272.829 115.775 273.491 115.688C273.442 115.093 274.309 114.742 274.596 115.021C274.419 114.629 275.463 114.011 275.681 114.526C275.206 113.618 273.937 110.887 273.937 110.887C273.567 110.12 274.552 109.373 275.125 110.304C275.49 110.794 277.763 115.257 277.763 115.257C278.175 115.045 277.365 113.329 278.316 112.694C278.456 112.634 278.542 112.724 278.585 112.806C279.654 115.54 279.274 117.342 279.245 117.98C279.203 118.944 278.905 120.258 277.684 120.776Z" fill="#F3A786"/>
<path d="M273.896 118.323C273.61 118.324 273.345 118.175 273.171 117.915L273.519 117.703C273.617 117.85 273.751 117.931 273.896 117.931C274.064 117.931 274.23 117.825 274.353 117.641L274.47 117.466L274.647 117.587C274.835 117.716 275.055 117.737 275.22 117.642C275.367 117.558 275.438 117.399 275.411 117.217L275.308 116.529L275.774 117.064C275.945 117.262 276.181 117.282 276.323 117.2C276.464 117.12 276.497 116.962 276.414 116.768L275.438 114.497L275.819 114.348L276.796 116.619C276.956 116.995 276.854 117.355 276.535 117.538C276.33 117.654 276.045 117.68 275.783 117.561C275.722 117.734 275.602 117.882 275.434 117.978C275.179 118.126 274.865 118.132 274.58 118.005C274.391 118.21 274.15 118.323 273.897 118.323C273.896 118.323 273.896 118.323 273.896 118.323Z" fill="#D66947"/>
<path d="M274.801 114.946L274.423 115.104L275.424 117.282L275.801 117.124L274.801 114.946Z" fill="#D66947"/>
<path d="M273.668 115.615L273.297 115.785L274.331 117.843L274.703 117.674L273.668 115.615Z" fill="#D66947"/>
<path d="M276.335 118.584C276.134 118.215 276.008 117.857 275.96 117.52L276.368 117.467C276.41 117.759 276.521 118.074 276.701 118.402L276.335 118.584Z" fill="#D66947"/>
<path d="M276.616 116.339L276.269 116.128C276.77 115.379 277.66 115.083 277.698 115.07L277.832 115.442C277.823 115.445 277.037 115.709 276.616 116.339Z" fill="#D66947"/>
<path d="M304.968 108.606C307.068 108.055 309.395 108.129 311.436 108.996C313.613 109.921 315.006 111.769 316.183 113.884C317.24 115.784 318.339 117.666 319.486 119.514C321.359 122.531 322.393 126.743 320.64 130.187C321.28 135.578 305.187 129.5 305.187 129.5C305.187 129.5 302.665 133.942 300.634 131.063C296.601 126.946 301.32 117.667 301.32 117.667C300.84 112.754 301.714 109.501 304.968 108.606Z" fill="#181818"/>
<path d="M301.556 127.945L287.024 130.358L280.821 120.62C279.308 121.315 277.762 121.947 276.138 122.353L281.398 134.988C282.121 136.542 283.812 137.798 286.655 137.621L302.668 136.138L301.556 127.945Z" fill="#FCA886"/>
<path d="M287.301 129.65C285.382 125.431 282.843 121.635 280.017 118.199C277.92 118.559 276.103 119.455 274.703 121.15C274.703 121.15 278.413 136.295 282.812 137.621C286.66 139.004 303.066 136.439 303.066 136.439C303.066 136.439 304.434 130.201 304.434 130.092C304.434 129.984 303.294 126.139 303.294 126.139L301.915 126.34C297.92 126.779 291.237 128.465 287.301 129.65Z" fill="white"/>
<path d="M285.78 132.293C285.741 130.428 287.188 129.511 287.249 129.473L287.399 129.693C287.385 129.701 286.019 130.573 286.055 132.288L285.78 132.293Z" fill="#92BBF4"/>
<path d="M314.749 201.625C314.749 201.625 314.277 203.658 313.682 204.167C313.087 204.676 310.537 205.397 310.731 207.677H318.71C318.71 207.677 319.645 207.647 319.645 206.83C319.645 206.014 319.32 204.129 319.086 202.223C318.24 201.174 315.874 200.904 314.749 201.625Z" fill="white"/>
<path d="M302.648 202.062C301.608 202.202 301.717 204.057 299.395 204.587C296.569 205.138 294.851 206.09 294.824 207.141C294.851 207.355 294.743 207.54 294.864 207.676H306.545C307.025 207.676 307.411 207.303 307.407 206.845C307.395 205.672 306.804 202.905 306.804 202.905L306.421 202.343C306.01 202.987 303.182 203.519 302.648 202.062Z" fill="white"/>
<path d="M314.639 126.4C310.947 128.277 307.002 129.448 301.669 126.765L305.187 125.466V117.785H311.633V125.482L314.639 126.4Z" fill="#F3A786"/>
<path d="M314.639 126.4C309.75 134.252 305.209 138.391 301.668 126.766L304.644 125.658C305.804 126.647 309.241 126.807 312.505 125.703L314.639 126.4Z" fill="#77AAF4"/>
<path d="M313.204 204.246C312.648 203.802 309.038 162.174 309.038 162.174L308.46 161.876C308.46 161.876 307.597 203.972 307.315 204.238C306.802 204.724 301.452 204.221 301.05 203.777C300.801 203.502 296.533 164.705 298.366 157.542C299.062 154.434 300.273 151.568 302.193 149.08H315.731C315.731 149.08 319.916 152.717 320.114 163.668C320.114 163.668 321.647 189.719 319.362 203.931C318.84 204.396 313.76 204.69 313.204 204.246Z" fill="#181818"/>
<path d="M321.266 161.892C310.92 163.832 299.372 163.063 296.286 161.769L297.91 143.792C297.91 143.792 295.915 132.64 296.73 130.706C297.474 128.818 298.997 127.686 301.193 126.854L303.307 126.143C303.621 128.625 306.468 132.818 306.468 132.818C306.468 132.818 311.794 127.167 313.715 126.086L316.791 126.842C319.242 127.571 320.51 128.283 321.292 130.27C322.353 132.902 318.496 144.729 318.496 144.729C320.11 149.445 321.42 156.141 321.266 161.892Z" fill="white"/>
<path d="M306.875 123.239C309.492 123.239 311.632 121.197 311.632 118.701V115.306C311.632 112.81 309.491 110.768 306.875 110.768C304.258 110.768 302.118 112.81 302.118 115.306C302.118 115.306 302.014 123.239 306.875 123.239Z" fill="#F3A786"/>
<path d="M306.875 123.435C306.268 123.435 305.675 123.331 305.113 123.125L305.259 122.758C305.775 122.946 306.319 123.042 306.875 123.042C308.176 123.042 309.42 122.504 310.287 121.565L310.597 121.825C309.651 122.848 308.294 123.435 306.875 123.435Z" fill="#D66947"/>
<path d="M311.641 115.784C309.181 115.048 306.954 113.718 304.995 111.698C303.803 111.993 302.581 112.946 302.232 114.313L301.686 112.244L302.401 110.475L305.655 109.347L309.011 109.535L311.309 111.152L312.511 113.516L311.641 115.784Z" fill="#181818"/>
<path d="M301.136 150.202H289.69C289.03 150.202 288.491 149.688 288.491 149.059L285.66 134.34C285.66 133.711 286.199 133.196 286.859 133.196H298.305C298.964 133.196 299.504 133.711 299.504 134.34L302.335 149.059C302.335 149.688 301.796 150.202 301.136 150.202Z" fill="#77AAF4"/>
<path d="M300.334 150.191V149.929C300.908 149.929 301.376 149.483 301.376 148.935L298.594 134.484C298.592 133.913 298.125 133.467 297.55 133.467V133.205C298.276 133.205 298.867 133.768 298.867 134.461L301.648 148.912C301.65 149.628 301.06 150.191 300.334 150.191Z" fill="#3A70BF"/>
<path d="M311.45 115.938C311.5 115.934 312.1 115.073 312.896 115.623C314.151 116.495 312.944 119.041 311.576 118.763C310.208 118.231 311.45 115.938 311.45 115.938Z" fill="#F3A786"/>
<path d="M304.107 144.64C303.13 146.463 300.565 145.658 300.238 145.612C298.55 145.374 295.251 143.064 295.251 143.064C294.362 142.528 294.79 141.822 295.079 141.933C295.213 141.999 294.587 141.648 294.461 141.572C293.371 140.866 294.13 140.183 294.629 140.348C293.694 139.941 294.095 138.934 294.718 139.152C294.084 138.791 294.491 137.884 295.514 138.251C296.1 138.408 300.652 140.443 300.652 140.443L300.328 138.627C302.337 139.92 303.154 141.184 303.5 141.63C304.082 142.382 304.696 143.542 304.107 144.64Z" fill="#F6A97E"/>
<path d="M297.754 143.334L295.047 142.108L295.165 141.871L297.872 143.098L297.754 143.334Z" fill="#D66947"/>
<path d="M298.096 142.245L294.57 140.491L294.696 140.258L298.223 142.013L298.096 142.245Z" fill="#D66947"/>
<path d="M294.785 139.023L294.664 139.258L298.613 141.112L298.734 140.877L294.785 139.023Z" fill="#D66947"/>
<path d="M303.724 146.736L302.217 146.298C301.805 145.069 302.723 142.477 304.146 141.396L306.548 142.007L303.724 146.736Z" fill="white"/>
<path d="M313.788 130.772C313.788 130.772 312.315 137.232 314.574 143.716C311.323 142.689 306.332 141.243 305.56 141.819C304.16 143.638 303.316 145.182 303.724 146.736C303.753 147.64 317.254 154.185 321.181 150.445C324.981 146.723 321.657 131.573 321.657 131.573C320.619 125.981 314.871 126.534 313.788 130.772Z" fill="white"/>
<path d="M316.169 145.662C316.062 144.815 315.499 144.129 314.496 143.623L314.625 143.392C315.711 143.94 316.322 144.693 316.441 145.63L316.169 145.662Z" fill="#92BBF4"/>
<path d="M303.589 146.761C303.05 144.099 305.402 141.771 305.502 141.674L305.698 141.857C305.675 141.88 303.347 144.186 303.858 146.711L303.589 146.761Z" fill="#92BBF4"/>
<path d="M314.561 143.638C314.546 143.638 314.531 143.636 314.517 143.631C308.605 141.737 306.21 141.823 305.617 141.895C305.599 141.896 305.582 141.896 305.564 141.891L304.111 141.522L304.182 141.27L305.61 141.632C306.252 141.559 308.653 141.5 314.354 143.302C311.891 135.401 312.552 130.295 314.498 129.322L314.625 129.554C312.486 130.624 312.514 136.606 314.693 143.468C314.707 143.515 314.694 143.566 314.657 143.6C314.63 143.625 314.596 143.638 314.561 143.638Z" fill="#92BBF4"/>
<path d="M318.083 151.532C313.747 151.532 306.01 149.2 303.649 146.851L302.176 146.423L302.257 146.173L303.764 146.611C303.786 146.617 303.807 146.629 303.823 146.646C306.513 149.367 317.192 152.2 320.145 150.974L320.254 151.214C319.727 151.433 318.977 151.532 318.083 151.532Z" fill="#92BBF4"/>
<path d="M306.549 134.454C306.512 134.462 306.468 134.436 306.441 134.405C304.398 131.979 302.879 129.201 302.048 126.371L302.313 126.3C303.119 129.048 304.584 131.747 306.552 134.117C309.361 130.961 311.979 128.404 314.55 126.3L314.729 126.499C312.136 128.621 309.495 131.207 306.653 134.407C306.628 134.437 306.589 134.454 306.549 134.454Z" fill="#92BBF4"/>
<path d="M43.5343 167.733L43.2661 167.79L46.0273 179.709L46.2955 179.653L43.5343 167.733Z" fill="#181818"/>
<path d="M47.4244 167.404L39.5929 169.055C38.8243 169.217 38.0628 168.754 37.893 168.02L32.0678 142.872C31.8981 142.138 32.3837 141.412 33.1523 141.25L40.9839 139.599C41.7525 139.437 42.514 139.9 42.6837 140.633L48.5089 165.782C48.6793 166.516 48.1936 167.242 47.4244 167.404Z" fill="#181818"/>
<path d="M47.2833 162.196L37.4211 164.276C36.7833 164.41 36.152 164.026 36.0114 163.418L30.4554 139.431C30.3142 138.822 30.7174 138.22 31.3547 138.086L41.2169 136.006C41.8547 135.872 42.486 136.256 42.6266 136.864L48.1826 160.852C48.3232 161.46 47.9205 162.062 47.2833 162.196Z" fill="#181818"/>
<path d="M48.1232 160.535L35.9256 163.107C35.2553 163.248 34.5922 162.844 34.4444 162.205L29.5685 141.154C29.4202 140.515 29.8438 139.882 30.5135 139.741L42.7111 137.17C43.3814 137.028 44.0445 137.432 44.1923 138.071L49.0681 159.122C49.2159 159.761 48.7929 160.394 48.1232 160.535Z" fill="#7BAEFA"/>
<path d="M47.623 161.918L37.0055 164.147L37.0645 164.403L47.682 162.174L47.623 161.918Z" fill="#666666"/>
<path d="M32.8241 153.999C32.4154 156.052 35.0107 156.935 35.3046 157.093C36.8204 157.91 40.9958 158.019 40.9958 158.019C42.0633 158.118 42.1814 157.293 41.8759 157.21C41.7243 157.183 42.4588 157.274 42.6105 157.289C43.9521 157.37 43.7884 156.366 43.2774 156.202C44.2982 156.432 44.6361 155.382 43.9905 155.185C44.7394 155.272 45.0064 154.299 43.94 153.983C43.3648 153.76 38.3615 152.682 38.3615 152.682C38.4818 152.257 40.42 152.714 40.8447 151.7C40.8623 151.585 40.7771 151.514 40.6854 151.493C37.6934 151.13 35.9238 151.768 35.2882 151.938C34.3256 152.195 33.0697 152.763 32.8241 153.999Z" fill="#F6A97E"/>
<path d="M38.8549 156.477L38.7958 156.733L41.7818 157.362L41.841 157.106L38.8549 156.477Z" fill="#D1655F"/>
<path d="M39.2853 155.4L39.2362 155.658L43.2292 156.35L43.2783 156.092L39.2853 155.4Z" fill="#D1655F"/>
<path d="M39.6091 154.169L39.5537 154.426L43.9529 155.29L44.0083 155.033L39.6091 154.169Z" fill="#D1655F"/>
<path d="M34.4581 156.921C34.1153 155.209 35.2273 152.097 36.3425 151.306L19.9761 144.846C14.2273 143.734 12.5137 150.592 17.611 152.462C20.7607 153.804 28.0698 155.948 32.2034 156.568C32.922 156.676 34.4581 156.921 34.4581 156.921Z" fill="white"/>
<path d="M22.5587 145.673L22.453 145.914L31.4327 149.496L31.5384 149.254L22.5587 145.673Z" fill="#92BBF4"/>
<path d="M33.1506 156.861C29.0461 156.31 24.7257 154.977 24.6829 154.964L24.7675 154.715C24.8109 154.728 29.1088 156.054 33.1885 156.601L33.1506 156.861Z" fill="#92BBF4"/>
<path d="M45.5023 146.421C45.382 148.489 42.6197 148.75 42.2928 148.836C40.6034 149.278 36.4918 148.435 36.4918 148.435C35.4221 148.288 35.516 147.468 35.8352 147.458C35.9907 147.466 35.249 147.387 35.0968 147.367C33.764 147.14 34.1783 146.211 34.72 146.169C33.6635 146.159 33.5987 145.072 34.2799 145.029C33.525 144.944 33.5108 143.946 34.6337 143.884C35.2529 143.8 40.4199 143.897 40.4199 143.897C40.4095 143.461 38.3987 143.46 38.2399 142.389C38.252 142.274 38.3531 142.225 38.4487 142.226C41.467 142.555 43.0361 143.571 43.6152 143.878C44.4904 144.344 45.5749 145.176 45.5023 146.421Z" fill="#F6A97E"/>
<path d="M35.8915 147.376L35.8848 147.638L38.9648 147.71L38.9716 147.448L35.8915 147.376Z" fill="#D1655F"/>
<path d="M34.739 146.052L34.7221 146.314L38.8029 146.554L38.8198 146.292L34.739 146.052Z" fill="#D1655F"/>
<path d="M34.3081 144.879L34.2975 145.141L38.8191 145.307L38.8297 145.045L34.3081 144.879Z" fill="#D1655F"/>
<path d="M43.1641 148.86C43.9327 147.291 43.6339 144.044 42.7427 143.03L60.3876 140.525C66.2919 140.76 66.2314 147.747 60.7721 148.39C57.3516 148.968 50.4974 149.372 45.4589 149.033C44.7282 148.974 43.1641 148.86 43.1641 148.86Z" fill="white"/>
<path d="M45.6144 142.755L45.5655 142.497C46.0803 142.409 58.1878 140.341 59.7948 141.234L59.6563 141.461C58.44 140.786 49.9387 142.012 45.6144 142.755Z" fill="#92BBF4"/>
<path d="M47.1145 148.995L47.1097 149.257L49.5353 149.297L49.5401 149.035L47.1145 148.995Z" fill="#92BBF4"/>
<path d="M365 207.479H-8V208.004H365V207.479Z" fill="#181818"/>
</svg>
